<?xml version="1.0" encoding="utf-8"?>
<!-- Generator: Adobe Illustrator 27.0.0, SVG Export Plug-In . SVG Version: 6.00 Build 0)  -->
<svg version="1.1" id="Layer_1" xmlns="http://www.w3.org/2000/svg" xmlns:xlink="http://www.w3.org/1999/xlink" x="0px" y="0px"
	 viewBox="0 0 139 41" style="enable-background:new 0 0 139 41;" xml:space="preserve">
<style type="text/css">
	.st0{fill:#FFFFFF;filter:url(#Adobe_OpacityMaskFilter);}
	.st1{mask:url(#mask0_891_664_00000180338069393803061330000000595082471570316965_);}
	.st2{fill:#D85DEA;}
	.st3{fill:#D75CEA;}
	.st4{fill:#D65BEA;}
	.st5{fill:#D55AEB;}
	.st6{fill:#D459EB;}
	.st7{fill:#D358EB;}
	.st8{fill:#D257EB;}
	.st9{fill:#D156EC;}
	.st10{fill:#D055EC;}
	.st11{fill:#CF54EC;}
	.st12{fill:#CE53EC;}
	.st13{fill:#CD52ED;}
	.st14{fill:#CC51ED;}
	.st15{fill:#CB50ED;}
	.st16{fill:#CA4FED;}
	.st17{fill:#C94EEE;}
	.st18{fill:#C84DEE;}
	.st19{fill:#C74CEE;}
	.st20{fill:#C64BEE;}
	.st21{fill:#C54AEF;}
	.st22{fill:#C449EF;}
	.st23{fill:#C348EF;}
	.st24{fill:#C247EF;}
	.st25{fill:#C146F0;}
	.st26{fill:#C045F0;}
	.st27{fill:#BF44F0;}
	.st28{fill:#BE43F0;}
	.st29{fill:#BD42F1;}
	.st30{fill:#BC41F1;}
	.st31{fill:#BC40F1;}
	.st32{fill:#BB3EF1;}
	.st33{fill:#BA3DF1;}
	.st34{fill:#B93CF2;}
	.st35{fill:#B83BF2;}
	.st36{fill:#B73AF2;}
	.st37{fill:#B639F2;}
	.st38{fill:#B538F3;}
	.st39{fill:#B437F3;}
	.st40{fill:#B336F3;}
	.st41{fill:#B235F3;}
	.st42{fill:#B134F4;}
	.st43{fill:#B033F4;}
	.st44{fill:#AF32F4;}
	.st45{fill:#AE31F4;}
	.st46{fill:#AD30F5;}
	.st47{fill:#AC2FF5;}
	.st48{fill:#AB2EF5;}
	.st49{fill:#AA2DF5;}
	.st50{fill:#A92CF6;}
	.st51{fill:#A82BF6;}
	.st52{fill:#A72AF6;}
	.st53{fill:#A629F6;}
	.st54{fill:#A528F7;}
	.st55{fill:#A427F7;}
	.st56{fill:#A326F7;}
	.st57{fill:#A225F7;}
	.st58{fill:#A124F8;}
	.st59{fill:#A023F8;}
	.st60{fill:#603A3A;}
	.st61{fill:#CC5252;}
	.st62{fill:url(#SVGID_1_);}
	.st63{fill:#FFFFFF;}
	.st64{fill:#1B3C9D;}
	.st65{fill:url(#SVGID_00000183221638719211414670000005423961511314876556_);}
	.st66{fill:#FFFFFF;filter:url(#Adobe_OpacityMaskFilter_00000114780700112868760700000003042181846845804704_);}
	.st67{mask:url(#mask0_891_664_00000145761440961684702060000003508510999980554409_);}
	.st68{fill:url(#SVGID_00000000205958927825166290000013017812116442482560_);}
	.st69{fill:url(#SVGID_00000045594742038895798130000012203194395136993460_);}
	.st70{fill:#4876FF;}
	.st71{fill:#FFFFFF;filter:url(#Adobe_OpacityMaskFilter_00000128468043236744175780000009052943580391050933_);}
	.st72{mask:url(#mask0_891_664_00000061457058124988374120000010163225726610469802_);}
	.st73{fill:url(#SVGID_00000011015551604946206200000015302544589469399207_);}
	.st74{fill:url(#SVGID_00000114040650305533226420000016795258814376932538_);}
</style>
<defs>
	<filter id="Adobe_OpacityMaskFilter" filterUnits="userSpaceOnUse" x="21.5" y="15.1" width="0.1" height="0">
		<feColorMatrix  type="matrix" values="1 0 0 0 0  0 1 0 0 0  0 0 1 0 0  0 0 0 1 0"/>
	</filter>
</defs>
<mask maskUnits="userSpaceOnUse" x="21.5" y="15.1" width="0.1" height="0" id="mask0_891_664_00000061457058124988374120000010163225726610469802_">
	<path class="st0" d="M21.6,15.1L21.6,15.1L21.6,15.1L21.6,15.1L21.6,15.1z"/>
</mask>
<g class="st72">
	<path class="st2" d="M21.5,15.1L21.5,15.1L21.5,15.1L21.5,15.1L21.5,15.1z"/>
	<path class="st3" d="M21.5,15.1L21.5,15.1L21.5,15.1L21.5,15.1L21.5,15.1z"/>
	<path class="st4" d="M21.5,15.1L21.5,15.1L21.5,15.1L21.5,15.1L21.5,15.1z"/>
	<path class="st5" d="M21.5,15.1L21.5,15.1L21.5,15.1L21.5,15.1L21.5,15.1z"/>
	<path class="st6" d="M21.5,15.1L21.5,15.1L21.5,15.1L21.5,15.1L21.5,15.1z"/>
	<path class="st7" d="M21.5,15.1L21.5,15.1L21.5,15.1L21.5,15.1L21.5,15.1z"/>
	<path class="st8" d="M21.5,15.1L21.5,15.1L21.5,15.1L21.5,15.1L21.5,15.1z"/>
	<path class="st9" d="M21.5,15.1L21.5,15.1L21.5,15.1L21.5,15.1L21.5,15.1z"/>
	<path class="st10" d="M21.5,15.1L21.5,15.1L21.5,15.1L21.5,15.1L21.5,15.1z"/>
	<path class="st11" d="M21.5,15.1L21.5,15.1L21.5,15.1L21.5,15.1L21.5,15.1z"/>
	<path class="st12" d="M21.5,15.1L21.5,15.1L21.5,15.1L21.5,15.1L21.5,15.1z"/>
	<path class="st13" d="M21.5,15.1L21.5,15.1L21.5,15.1L21.5,15.1L21.5,15.1z"/>
	<path class="st14" d="M21.5,15.1L21.5,15.1L21.5,15.1L21.5,15.1L21.5,15.1z"/>
	<path class="st15" d="M21.5,15.1L21.5,15.1L21.5,15.1L21.5,15.1L21.5,15.1z"/>
	<path class="st16" d="M21.5,15.1L21.5,15.1L21.5,15.1L21.5,15.1L21.5,15.1z"/>
	<path class="st17" d="M21.5,15.1L21.5,15.1L21.5,15.1L21.5,15.1L21.5,15.1z"/>
	<path class="st18" d="M21.5,15.1L21.5,15.1L21.5,15.1L21.5,15.1L21.5,15.1z"/>
	<path class="st19" d="M21.5,15.1L21.5,15.1L21.5,15.1L21.5,15.1L21.5,15.1z"/>
	<path class="st20" d="M21.6,15.1L21.6,15.1L21.6,15.1L21.6,15.1L21.6,15.1z"/>
	<path class="st21" d="M21.6,15.1L21.6,15.1L21.6,15.1L21.6,15.1L21.6,15.1z"/>
	<path class="st22" d="M21.6,15.1L21.6,15.1L21.6,15.1L21.6,15.1L21.6,15.1z"/>
	<path class="st23" d="M21.6,15.1L21.6,15.1L21.6,15.1L21.6,15.1L21.6,15.1z"/>
	<path class="st24" d="M21.6,15.1L21.6,15.1L21.6,15.1L21.6,15.1L21.6,15.1z"/>
	<path class="st25" d="M21.6,15.1L21.6,15.1L21.6,15.1L21.6,15.1L21.6,15.1z"/>
	<path class="st26" d="M21.6,15.1L21.6,15.1L21.6,15.1L21.6,15.1L21.6,15.1z"/>
	<path class="st27" d="M21.6,15.1L21.6,15.1L21.6,15.1L21.6,15.1L21.6,15.1z"/>
	<path class="st28" d="M21.6,15.1L21.6,15.1L21.6,15.1L21.6,15.1L21.6,15.1z"/>
	<path class="st29" d="M21.6,15.1L21.6,15.1L21.6,15.1L21.6,15.1L21.6,15.1z"/>
	<path class="st30" d="M21.6,15.1L21.6,15.1L21.6,15.1L21.6,15.1L21.6,15.1z"/>
	<path class="st31" d="M21.6,15.1L21.6,15.1L21.6,15.1L21.6,15.1L21.6,15.1z"/>
	<path class="st32" d="M21.6,15.1L21.6,15.1L21.6,15.1L21.6,15.1L21.6,15.1z"/>
	<path class="st33" d="M21.6,15.1L21.6,15.1L21.6,15.1L21.6,15.1L21.6,15.1z"/>
	<path class="st34" d="M21.6,15.1L21.6,15.1L21.6,15.1L21.6,15.1L21.6,15.1z"/>
	<path class="st35" d="M21.6,15.1L21.6,15.1L21.6,15.1L21.6,15.1L21.6,15.1z"/>
	<path class="st36" d="M21.6,15.1L21.6,15.1L21.6,15.1L21.6,15.1L21.6,15.1z"/>
	<path class="st37" d="M21.6,15.1L21.6,15.1L21.6,15.1L21.6,15.1L21.6,15.1z"/>
	<path class="st38" d="M21.6,15.1L21.6,15.1L21.6,15.1L21.6,15.1L21.6,15.1z"/>
	<path class="st39" d="M21.6,15.1L21.6,15.1L21.6,15.1L21.6,15.1L21.6,15.1z"/>
	<path class="st40" d="M21.6,15.1L21.6,15.1L21.6,15.1L21.6,15.1L21.6,15.1z"/>
	<path class="st41" d="M21.6,15.1L21.6,15.1L21.6,15.1L21.6,15.1L21.6,15.1z"/>
	<path class="st42" d="M21.6,15.1L21.6,15.1L21.6,15.1L21.6,15.1L21.6,15.1z"/>
	<path class="st43" d="M21.6,15.1L21.6,15.1L21.6,15.1L21.6,15.1L21.6,15.1z"/>
	<path class="st44" d="M21.6,15.1L21.6,15.1L21.6,15.1L21.6,15.1L21.6,15.1z"/>
	<path class="st45" d="M21.6,15.1L21.6,15.1L21.6,15.1L21.6,15.1L21.6,15.1z"/>
	<path class="st46" d="M21.6,15.1L21.6,15.1L21.6,15.1L21.6,15.1L21.6,15.1z"/>
	<path class="st47" d="M21.6,15.1L21.6,15.1L21.6,15.1L21.6,15.1L21.6,15.1z"/>
	<path class="st48" d="M21.6,15.1L21.6,15.1L21.6,15.1L21.6,15.1L21.6,15.1z"/>
	<path class="st49" d="M21.6,15.1L21.6,15.1L21.6,15.1L21.6,15.1L21.6,15.1z"/>
	<path class="st50" d="M21.6,15.1L21.6,15.1L21.6,15.1L21.6,15.1L21.6,15.1z"/>
	<path class="st51" d="M21.6,15.1L21.6,15.1L21.6,15.1L21.6,15.1L21.6,15.1z"/>
	<path class="st52" d="M21.6,15.1L21.6,15.1L21.6,15.1L21.6,15.1L21.6,15.1z"/>
	<path class="st53" d="M21.6,15.1L21.6,15.1L21.6,15.1L21.6,15.1L21.6,15.1z"/>
	<path class="st54" d="M21.6,15.1L21.6,15.1L21.6,15.1L21.6,15.1L21.6,15.1z"/>
	<path class="st55" d="M21.6,15.1L21.6,15.1L21.6,15.1L21.6,15.1L21.6,15.1z"/>
	<path class="st56" d="M21.6,15.1L21.6,15.1L21.6,15.1L21.6,15.1L21.6,15.1z"/>
	<path class="st57" d="M21.6,15.1L21.6,15.1L21.6,15.1L21.6,15.1L21.6,15.1z"/>
	<path class="st58" d="M21.6,15.1L21.6,15.1L21.6,15.1L21.6,15.1L21.6,15.1z"/>
	<path class="st59" d="M21.6,15.1L21.6,15.1L21.6,15.1L21.6,15.1L21.6,15.1z"/>
</g>
<path class="st60" d="M21.5,15.1L21.5,15.1L21.5,15.1L21.5,15.1L21.5,15.1z"/>
<path class="st61" d="M21.6,15.1L21.6,15.1L21.6,15.1L21.6,15.1L21.6,15.1z"/>
<linearGradient id="SVGID_1_" gradientUnits="userSpaceOnUse" x1="-0.8926" y1="39.9901" x2="39.9388" y2="9.5034" gradientTransform="matrix(1 0 0 -1 0 42)">
	<stop  offset="0" style="stop-color:#4876FF"/>
	<stop  offset="0.74" style="stop-color:#4876FF"/>
</linearGradient>
<path class="st62" d="M44,5.5v29.8c0,3-2.4,5.5-5.4,5.5H8.8c-3,0-5.4-2.4-5.4-5.5V17.6l-3.1,0.7L3.3,15V5.5c0-3,2.4-5.5,5.4-5.5
	h29.8C41.6,0,44,2.4,44,5.5L44,5.5z"/>
<path class="st63" d="M41.4,1.5c0.5-0.2,1,0.3,0.8,0.7l-2.2,5.8l0,0L40,8.4l0,0l-0.9,2.3L30.9,33c-0.3,0.8-1.2,1.1-1.9,0.6l-12.5-8
	l2.1,2.8l-4.5,5c-0.2,0.3-0.7,0.1-0.7-0.2h0l-2.5-11.2c-0.2,0-0.4,0-0.5-0.1l-5.6-1.7C4.4,20.2,4,20.1,3.7,20l-3.1-0.6
	c-0.4-0.1-0.6-0.5-0.5-0.8c0-0.1,0.1-0.3,0.2-0.4l4.5-1.8l0.1,0v0l8.3-3.4l19.8-8l1.7-0.7l0.6-0.2L41.4,1.5L41.4,1.5z M37.9,5.6
	l0.6-0.5L37.9,5.6l-0.3,0.1l-1.9,1.2h0L12.3,21.8c-0.1,0.1-0.3,0.2-0.4,0.2l1.9,8.6l0.8-6.3L36,7.1l1.7-1.3L37.9,5.6L37.9,5.6z"/>
<path class="st64" d="M40,8.4l-8.2,27.5c-0.2,0.7-1.1,1-1.7,0.7c0,0,0,0,0,0l-10.7-6.7l-5.2,3.7l4.5-5l-2.1-2.8l12.5,8
	c0.7,0.4,1.6,0.1,1.9-0.6l8.2-22.3L40,8.4z"/>
<linearGradient id="SVGID_00000147219423468316664590000000354057921286876602_" gradientUnits="userSpaceOnUse" x1="11.8301" y1="24.165" x2="38.4759" y2="24.165" gradientTransform="matrix(1 0 0 -1 0 42)">
	<stop  offset="0" style="stop-color:#4876FF"/>
	<stop  offset="1" style="stop-color:#4876FF"/>
</linearGradient>
<path style="fill:url(#SVGID_00000147219423468316664590000000354057921286876602_);" d="M38.5,5.1l-0.6,0.5l-0.2,0.2L36,7.1
	L14.6,24.3l-0.8,6.3L11.8,22c0.1-0.1,0.3-0.1,0.4-0.2L35.7,6.8h0l1.9-1.2l0.2-0.1L38.5,5.1L38.5,5.1z"/>
<path class="st63" d="M63,16.9c-0.1-0.7-0.4-1.2-0.9-1.6c-0.5-0.4-1.2-0.6-2.1-0.6c-0.6,0-1.1,0.1-1.5,0.3c-0.4,0.2-0.7,0.4-1,0.7
	c-0.2,0.3-0.3,0.6-0.3,1c0,0.3,0.1,0.6,0.2,0.8c0.1,0.2,0.3,0.4,0.6,0.6c0.3,0.2,0.6,0.3,0.9,0.4c0.3,0.1,0.7,0.2,1.1,0.3l1.6,0.4
	c0.8,0.2,1.5,0.4,2.1,0.7c0.6,0.3,1.2,0.6,1.7,1c0.5,0.4,0.8,0.9,1.1,1.5c0.3,0.6,0.4,1.2,0.4,1.9c0,1.1-0.3,2-0.8,2.8
	c-0.5,0.8-1.3,1.4-2.3,1.8c-1,0.4-2.2,0.6-3.6,0.6c-1.4,0-2.6-0.2-3.7-0.6c-1-0.4-1.9-1.1-2.4-1.9c-0.6-0.9-0.9-1.9-0.9-3.2h3.6
	c0,0.6,0.2,1.1,0.5,1.5c0.3,0.4,0.7,0.7,1.2,0.9c0.5,0.2,1.1,0.3,1.7,0.3c0.6,0,1.2-0.1,1.6-0.3c0.5-0.2,0.8-0.4,1.1-0.8
	c0.3-0.3,0.4-0.7,0.4-1.1c0-0.4-0.1-0.7-0.3-1c-0.2-0.3-0.6-0.5-1-0.7c-0.4-0.2-1-0.4-1.6-0.5l-1.9-0.5c-1.5-0.4-2.6-0.9-3.5-1.7
	c-0.9-0.8-1.3-1.8-1.3-3.1c0-1.1,0.3-2,0.8-2.8c0.6-0.8,1.4-1.4,2.4-1.8c1-0.4,2.1-0.7,3.4-0.7c1.3,0,2.4,0.2,3.4,0.7
	c1,0.4,1.7,1.1,2.3,1.8c0.5,0.8,0.8,1.7,0.8,2.7H63z M68,11.9h4.6l4.8,11.7h0.2l4.8-11.7H87v17.5h-3.6V18h-0.1l-4.5,11.3h-2.4
	l-4.5-11.3h-0.1v11.4H68V11.9z M98.3,16.9c-0.1-0.7-0.4-1.2-0.9-1.6c-0.5-0.4-1.2-0.6-2.1-0.6c-0.6,0-1.1,0.1-1.5,0.3
	c-0.4,0.2-0.7,0.4-1,0.7c-0.2,0.3-0.3,0.6-0.3,1c0,0.3,0.1,0.6,0.2,0.8c0.1,0.2,0.3,0.4,0.6,0.6c0.3,0.2,0.6,0.3,0.9,0.4
	c0.3,0.1,0.7,0.2,1.1,0.3l1.6,0.4c0.8,0.2,1.5,0.4,2.1,0.7c0.6,0.3,1.2,0.6,1.7,1c0.5,0.4,0.8,0.9,1.1,1.5c0.3,0.6,0.4,1.2,0.4,1.9
	c0,1.1-0.3,2-0.8,2.8c-0.5,0.8-1.3,1.4-2.3,1.8c-1,0.4-2.2,0.6-3.6,0.6c-1.4,0-2.6-0.2-3.7-0.6c-1-0.4-1.9-1.1-2.4-1.9
	c-0.6-0.9-0.9-1.9-0.9-3.2h3.6c0,0.6,0.2,1.1,0.5,1.5c0.3,0.4,0.7,0.7,1.2,0.9c0.5,0.2,1.1,0.3,1.7,0.3c0.6,0,1.2-0.1,1.6-0.3
	c0.5-0.2,0.8-0.4,1.1-0.8c0.3-0.3,0.4-0.7,0.4-1.1c0-0.4-0.1-0.7-0.3-1c-0.2-0.3-0.6-0.5-1-0.7c-0.4-0.2-1-0.4-1.6-0.5l-1.9-0.5
	C92,21.3,90.8,20.8,90,20c-0.9-0.8-1.3-1.8-1.3-3.1c0-1.1,0.3-2,0.8-2.8c0.6-0.8,1.4-1.4,2.4-1.8c1-0.4,2.1-0.7,3.4-0.7
	c1.3,0,2.4,0.2,3.4,0.7c1,0.4,1.7,1.1,2.3,1.8c0.5,0.8,0.8,1.7,0.8,2.7H98.3z"/>
<path class="st70" d="M103.3,29.4V11.9h6.9c1.3,0,2.5,0.3,3.4,0.8c0.9,0.5,1.6,1.2,2.1,2.1c0.5,0.9,0.7,1.9,0.7,3.1
	s-0.2,2.2-0.8,3.1c-0.5,0.9-1.2,1.6-2.2,2.1c-0.9,0.5-2.1,0.7-3.4,0.7h-4.4v-3h3.8c0.7,0,1.3-0.1,1.8-0.4c0.5-0.2,0.8-0.6,1-1
	c0.2-0.4,0.3-1,0.3-1.5c0-0.6-0.1-1.1-0.3-1.5c-0.2-0.4-0.6-0.8-1-1c-0.5-0.2-1.1-0.4-1.8-0.4H107v14.4H103.3z M117.6,29.4V16.3h3.5
	v2.3h0.1c0.2-0.8,0.6-1.4,1.2-1.8c0.6-0.4,1.2-0.6,1.9-0.6c0.2,0,0.4,0,0.6,0c0.2,0,0.4,0.1,0.6,0.1v3.2c-0.2-0.1-0.4-0.1-0.7-0.1
	c-0.3,0-0.6-0.1-0.8-0.1c-0.5,0-1,0.1-1.4,0.3c-0.4,0.2-0.7,0.5-1,1c-0.2,0.4-0.4,0.9-0.4,1.4v7.4H117.6z M131.5,29.6
	c-1.3,0-2.5-0.3-3.4-0.8c-1-0.6-1.7-1.4-2.2-2.4c-0.5-1-0.8-2.2-0.8-3.5c0-1.4,0.3-2.5,0.8-3.5c0.5-1,1.3-1.8,2.2-2.4
	c1-0.6,2.1-0.9,3.4-0.9s2.5,0.3,3.4,0.9c1,0.6,1.7,1.4,2.2,2.4c0.5,1,0.8,2.2,0.8,3.5c0,1.3-0.3,2.5-0.8,3.5c-0.5,1-1.3,1.8-2.2,2.4
	C134,29.3,132.9,29.6,131.5,29.6z M131.5,26.8c0.6,0,1.1-0.2,1.5-0.5c0.4-0.3,0.7-0.8,0.9-1.4c0.2-0.6,0.3-1.3,0.3-2
	c0-0.8-0.1-1.4-0.3-2c-0.2-0.6-0.5-1.1-0.9-1.4c-0.4-0.3-0.9-0.5-1.5-0.5c-0.6,0-1.1,0.2-1.5,0.5c-0.4,0.3-0.7,0.8-0.9,1.4
	c-0.2,0.6-0.3,1.3-0.3,2c0,0.8,0.1,1.4,0.3,2c0.2,0.6,0.5,1.1,0.9,1.4C130.4,26.6,130.9,26.8,131.5,26.8z"/>
</svg>
