<?xml version="1.0" encoding="UTF-8"?>
<svg id="Layer_1" data-name="Layer 1" xmlns="http://www.w3.org/2000/svg" xmlns:xlink="http://www.w3.org/1999/xlink" viewBox="0 0 139 41">
  <defs>
    <style>
      .cls-1 {
        fill: url(#linear-gradient-2);
      }

      .cls-2 {
        fill: #fff;
      }

      .cls-3 {
        fill: #4876ff;
      }

      .cls-4 {
        fill: #1b3c9d;
      }

      .cls-5 {
        fill: url(#linear-gradient);
      }
    </style>
    <linearGradient id="linear-gradient" x1=".84" y1="1282.67" x2="31.31" y2="1305.42" gradientTransform="translate(0 -1276.11)" gradientUnits="userSpaceOnUse">
      <stop offset="0" stop-color="#4876ff"/>
      <stop offset=".74" stop-color="#4876ff"/>
    </linearGradient>
    <linearGradient id="linear-gradient-2" x1="10.35" y1="1294.47" x2="30.23" y2="1294.47" gradientTransform="translate(0 -1276.11)" gradientUnits="userSpaceOnUse">
      <stop offset="0" stop-color="#4876ff"/>
      <stop offset="1" stop-color="#4876ff"/>
    </linearGradient>
  </defs>
  <path class="cls-5" d="M34.35,9.14V31.38c0,2.24-1.79,4.1-4.03,4.1H8.08c-2.24,0-4.03-1.79-4.03-4.1v-13.21l-2.31,.52,2.24-2.46v-7.09c0-2.24,1.79-4.1,4.03-4.1H30.24c2.31,0,4.1,1.79,4.1,4.1h0Z"/>
  <path class="cls-2" d="M32.41,6.16c.37-.15,.75,.22,.6,.52l-1.64,4.33h0v.3h0l-.67,1.72-6.12,16.64c-.22,.6-.9,.82-1.42,.45l-9.33-5.97,1.57,2.09-3.36,3.73c-.15,.22-.52,.07-.52-.15h0l-1.87-8.36c-.15,0-.3,0-.37-.07l-4.18-1.27c-.3,0-.6-.07-.82-.15l-2.31-.45c-.3-.07-.45-.37-.37-.6,0-.07,.07-.22,.15-.3l3.36-1.34h.07l6.19-2.54,14.77-5.97,1.27-.52,.45-.15,4.55-1.94h0Zm-2.61,3.06l.45-.37-.45,.37-.22,.07-1.42,.9h0L10.7,21.31c-.07,.07-.22,.15-.3,.15l1.42,6.42,.6-4.7,15.97-12.83,1.27-.97,.15-.15h0Z"/>
  <path class="cls-4" d="M31.36,11.31l-6.12,20.52c-.15,.52-.82,.75-1.27,.52h0l-7.98-5-3.88,2.76,3.36-3.73-1.57-2.09,9.33,5.97c.52,.3,1.19,.07,1.42-.45l6.12-16.64,.6-1.87Z"/>
  <path class="cls-1" d="M30.24,8.85l-.45,.37-.15,.15-1.27,.97-15.97,12.83-.6,4.7-1.49-6.42c.07-.07,.22-.07,.3-.15L28.16,10.11h0l1.42-.9,.15-.07,.52-.3h0Z"/>
  <path class="cls-2" d="M54.54,16.19c-.11-.78-.45-1.34-1-1.79-.56-.45-1.34-.67-2.34-.67-.67,0-1.23,.11-1.67,.33s-.78,.45-1.12,.78c-.22,.33-.33,.67-.33,1.12,0,.33,.11,.67,.22,.89,.11,.22,.33,.45,.67,.67s.67,.33,1,.45c.33,.11,.78,.22,1.23,.33l1.79,.45c.89,.22,1.67,.45,2.34,.78,.67,.33,1.34,.67,1.9,1.12s.89,1,1.23,1.67c.33,.67,.45,1.34,.45,2.12,0,1.23-.33,2.23-.89,3.13s-1.45,1.56-2.57,2.01c-1.12,.45-2.46,.67-4.02,.67s-2.9-.22-4.13-.67c-1.12-.45-2.12-1.23-2.68-2.12-.67-1-1-2.12-1-3.57h4.02c0,.67,.22,1.23,.56,1.67s.78,.78,1.34,1c.56,.22,1.23,.33,1.9,.33s1.34-.11,1.79-.33c.56-.22,.89-.45,1.23-.89,.33-.33,.45-.78,.45-1.23s-.11-.78-.33-1.12-.67-.56-1.12-.78-1.12-.45-1.79-.56l-2.12-.56c-1.67-.45-2.9-1-3.91-1.9-1-.89-1.45-2.01-1.45-3.46,0-1.23,.33-2.23,.89-3.13,.67-.89,1.56-1.56,2.68-2.01,1.12-.45,2.34-.78,3.8-.78s2.68,.22,3.8,.78c1.12,.45,1.9,1.23,2.57,2.01,.56,.89,.89,1.9,.89,3.01h-4.24v.22Zm5.58-5.58h5.14l5.36,13.06h.22l5.36-13.06h5.14V30.14h-4.02v-12.73h-.11l-5.02,12.62h-2.68l-5.02-12.62h-.11v12.73h-4.24V10.6Zm33.83,5.58c-.11-.78-.45-1.34-1-1.79-.56-.45-1.34-.67-2.34-.67-.67,0-1.23,.11-1.67,.33s-.78,.45-1.12,.78c-.22,.33-.33,.67-.33,1.12,0,.33,.11,.67,.22,.89,.11,.22,.33,.45,.67,.67,.33,.22,.67,.33,1,.45s.78,.22,1.23,.33l1.79,.45c.89,.22,1.67,.45,2.34,.78,.67,.33,1.34,.67,1.9,1.12s.89,1,1.23,1.67c.33,.67,.45,1.34,.45,2.12,0,1.23-.33,2.23-.89,3.13s-1.45,1.56-2.57,2.01-2.46,.67-4.02,.67-2.9-.22-4.13-.67c-1.12-.45-2.12-1.23-2.68-2.12-.67-1-1-2.12-1-3.57h4.02c0,.67,.22,1.23,.56,1.67s.78,.78,1.34,1c.56,.22,1.23,.33,1.9,.33s1.34-.11,1.79-.33c.56-.22,.89-.45,1.23-.89,.33-.33,.45-.78,.45-1.23s-.11-.78-.33-1.12c-.22-.33-.67-.56-1.12-.78s-1.12-.45-1.79-.56l-2.12-.56c-2.01-.33-3.35-.89-4.24-1.79-1-.89-1.45-2.01-1.45-3.46,0-1.23,.33-2.23,.89-3.13,.67-.89,1.56-1.56,2.68-2.01,1.12-.45,2.34-.78,3.8-.78s2.68,.22,3.8,.78c1.12,.45,1.9,1.23,2.57,2.01,.56,.89,.89,1.9,.89,3.01h-3.91v.11Z"/>
  <path class="cls-3" d="M99.54,30.14V10.6h7.7c1.45,0,2.79,.33,3.8,.89s1.79,1.34,2.34,2.34,.78,2.12,.78,3.46-.22,2.46-.89,3.46c-.56,1-1.34,1.79-2.46,2.34-1,.56-2.34,.78-3.8,.78h-4.91v-3.35h4.24c.78,0,1.45-.11,2.01-.45,.56-.22,.89-.67,1.12-1.12s.33-1.12,.33-1.67c0-.67-.11-1.23-.33-1.67-.22-.45-.67-.89-1.12-1.12-.56-.22-1.23-.45-2.01-.45h-2.68V30.14s-4.13,0-4.13,0Zm15.97,0V15.52h3.91v2.57h.11c.22-.89,.67-1.56,1.34-2.01s1.34-.67,2.12-.67h.67c.22,0,.45,.11,.67,.11v3.57c-.22-.11-.45-.11-.78-.11s-.67-.11-.89-.11c-.56,0-1.12,.11-1.56,.33-.45,.22-.78,.56-1.12,1.12-.22,.45-.45,1-.45,1.56v8.26s-4.02,0-4.02,0Zm15.52,.22c-1.45,0-2.79-.33-3.8-.89-1.12-.67-1.9-1.56-2.46-2.68s-.89-2.46-.89-3.91c0-1.56,.33-2.79,.89-3.91s1.45-2.01,2.46-2.68c1.12-.67,2.34-1,3.8-1s2.79,.33,3.8,1c1.12,.67,1.9,1.56,2.46,2.68s.89,2.46,.89,3.91-.33,2.79-.89,3.91-1.45,2.01-2.46,2.68c-1,.56-2.23,.89-3.8,.89Zm0-3.13c.67,0,1.23-.22,1.67-.56s.78-.89,1-1.56,.33-1.45,.33-2.23c0-.89-.11-1.56-.33-2.23s-.56-1.23-1-1.56-1-.56-1.67-.56-1.23,.22-1.67,.56-.78,.89-1,1.56-.33,1.45-.33,2.23c0,.89,.11,1.56,.33,2.23s.56,1.23,1,1.56c.45,.33,1,.56,1.67,.56Z"/>
</svg>