<svg width="28" height="34" viewBox="0 0 28 34" fill="none" xmlns="http://www.w3.org/2000/svg">
<path d="M27.6768 9.89583C24.6715 6.901 21.6557 3.90616 18.6818 0.869443C18.0745 0.241157 17.4776 -0.0101582 16.5875 0.000313228C12.3466 0.0631419 8.09518 0.0317275 3.84377 0.0317275C2.63956 0.0317275 1.77043 0.817086 1.75996 1.93753C1.74949 2.84855 1.74948 3.74909 1.74948 4.66011C1.73901 6.70204 1.74948 8.7335 1.74948 10.7754C1.74948 10.8173 1.73901 10.8592 1.73901 10.9011C1.73901 10.9849 1.74948 11.0582 1.81231 11.0686C2.08457 11.1105 2.3673 11.1315 2.63956 11.0791C2.83852 11.0372 2.74427 10.7859 2.74427 10.6288C2.75474 7.84343 2.74427 5.04755 2.75474 2.25167C2.75474 1.3616 3.1003 1.01604 3.99037 1.01604C8.28367 1.00557 12.577 1.01604 16.8807 1.00557C17.2472 1.00557 17.3415 1.11029 17.3415 1.46632C17.3624 4.10512 17.4043 6.73345 17.4462 9.37226C17.4671 10.6079 18.1059 11.2257 19.331 11.2152C21.7185 11.1838 24.106 11.1629 26.4935 11.1105C26.86 11.1 26.9543 11.2152 26.9543 11.5713C26.9438 17.7494 26.9438 23.9276 26.9438 30.0953C26.9438 31.0167 26.6087 31.3518 25.6767 31.3518C23.5825 31.3623 21.4882 31.4042 19.3939 31.3309C18.5562 31.2995 17.9698 31.5508 17.53 32.221C17.53 32.2314 17.5195 32.2314 17.509 32.2524C17.4985 32.2733 17.4881 32.2943 17.4567 32.3466H17.7813C20.4829 32.3466 23.1741 32.3571 25.8757 32.3361C27.1218 32.3361 27.9386 31.5089 27.9386 30.2523C27.949 23.6763 27.9386 17.1002 27.949 10.5241C27.949 10.2728 27.8653 10.0948 27.6768 9.89583ZM24.2317 10.1786C22.5877 10.1995 20.9436 10.2204 19.3101 10.2309C18.6923 10.2414 18.4514 10.0215 18.441 9.41414C18.4096 6.95335 18.3886 4.48209 18.3572 2.0213C18.3572 1.97942 18.3677 1.93753 18.3886 1.8014C21.2264 4.58681 24.0118 7.3408 26.9019 10.1681C25.9176 10.1786 25.0694 10.1786 24.2317 10.1786Z" fill="#464648"/>
<path d="M14.535 12.6079C14.535 12.1891 14.4198 12.0739 14.0114 12.0844C11.781 12.1053 9.55056 12.0948 7.30967 12.0948C5.04784 12.0948 2.786 12.1053 0.513699 12.0844C0.15767 12.0844 -0.00987315 12.1577 0.000598293 12.5765C0.0215412 14.5242 0.0215412 16.4824 0.000598293 18.4405C-0.00987315 18.807 0.115784 18.9222 0.482285 18.9222C5.01642 18.9118 9.54009 18.9118 14.0638 18.9222C14.4407 18.9222 14.535 18.7966 14.535 18.4301C14.514 16.4928 14.514 14.5556 14.535 12.6079ZM4.31484 16.074C4.14729 16.4195 3.99022 16.7442 3.83315 17.0583C3.71796 17.2887 3.06873 17.4667 2.8593 17.3201C2.7127 17.2258 2.83836 17.1316 2.89072 17.0583C3.12109 16.6709 3.33052 16.2729 3.5923 15.9064C3.81221 15.6132 3.78079 15.3724 3.58183 15.0792C3.2991 14.6603 3.06873 14.2101 2.76506 13.697C3.18392 13.7807 3.5923 13.5085 3.85409 13.9169C4.04258 14.2101 4.17871 14.5452 4.37766 14.9326C4.74416 14.3148 4.80699 13.3409 5.9065 13.7912C5.64471 14.2205 5.41434 14.6603 5.12114 15.0792C4.90124 15.3829 4.92218 15.6132 5.13161 15.9169C5.43528 16.3567 5.69707 16.8279 5.97979 17.2782C4.79652 17.6971 4.76511 16.6604 4.31484 16.074ZM8.472 17.341C8.21021 17.3201 7.94843 17.3306 7.68664 17.3306C6.4929 17.3306 6.4929 17.3306 6.4929 16.1263C6.4929 15.4248 6.51384 14.7336 6.48242 14.0321C6.47195 13.6551 6.69185 13.697 6.9327 13.697C7.18401 13.6865 7.38297 13.6656 7.3725 14.0425C7.34108 14.7546 7.39344 15.4666 7.35155 16.1892C7.33061 16.5661 7.47721 16.6709 7.82277 16.6394C8.04267 16.6185 8.26257 16.6499 8.472 16.629C8.75473 16.608 8.89086 16.6709 8.89086 17.0059C8.86991 17.3306 8.71284 17.3515 8.472 17.341ZM11.8333 16.4195C11.76 16.9431 11.2783 17.3201 10.6186 17.362C10.5139 17.3724 10.3987 17.362 10.294 17.362V17.3829C10.0951 17.3515 9.89612 17.3515 9.69716 17.3096C9.46679 17.2573 9.21547 17.2573 9.29924 16.8593C9.38302 16.4719 9.5715 16.5347 9.82282 16.6185C10.0741 16.7023 10.3464 16.7127 10.5977 16.6709C10.7757 16.6394 10.9328 16.5557 10.9642 16.3567C10.9956 16.1682 10.87 16.0321 10.7129 15.9588C10.5035 15.8646 10.2836 15.7913 10.0637 15.697C9.48773 15.4457 9.23642 15.1001 9.29924 14.608C9.34113 14.1368 9.72857 13.7703 10.3045 13.6656C10.6605 13.6027 11.0166 13.6132 11.3621 13.697C11.5715 13.7389 11.7181 13.8122 11.6239 14.0635C11.5611 14.252 11.5611 14.5033 11.2155 14.3671C11.027 14.2938 10.7862 14.3043 10.5768 14.3148C10.3778 14.3148 10.1998 14.3986 10.1579 14.6185C10.1265 14.8174 10.294 14.9117 10.4511 14.985C10.6186 15.0687 10.7967 15.1211 10.9642 15.2049C11.6658 15.5085 11.9171 15.8646 11.8333 16.4195Z" fill="#08A755"/>
<path d="M18.1267 30.3675C17.0901 31.4775 16.1372 32.4827 15.1843 33.4985C14.556 34.1582 14.556 34.1582 13.8858 33.5508C12.7758 32.5665 11.6973 31.5508 10.6396 30.3989C10.8386 30.3885 10.9747 30.3675 11.1213 30.3675C11.9172 30.357 11.9172 30.3675 11.9172 29.5507C11.9172 28.713 11.9276 27.8753 11.9067 27.0376C11.8962 26.7339 11.9905 26.6397 12.2941 26.6397C13.6135 26.6501 14.9329 26.6606 16.2419 26.6397C16.577 26.6292 16.6188 26.7653 16.6188 27.0481C16.6084 28.0219 16.6293 29.0062 16.6084 29.9801C16.5979 30.2942 16.7131 30.3885 17.0063 30.3675C17.3414 30.357 17.666 30.3675 18.1267 30.3675Z" fill="#04A653"/>
<path d="M11.3621 32.3571C8.69188 32.3571 6.12637 32.378 3.5504 32.3466C2.5242 32.3361 1.75978 31.4356 1.75978 30.3466C1.74931 27.1842 1.75978 24.0218 1.75978 20.849C1.75978 20.65 1.77025 20.4406 1.75978 20.2416C1.73884 19.9694 1.81214 19.8542 2.11581 19.8646C2.8907 19.8961 2.75457 19.8018 2.75457 20.5139C2.75457 23.7077 2.75457 26.9015 2.75457 30.0952C2.75457 31.0167 3.08965 31.3623 4.01114 31.3623C5.88553 31.3623 7.75992 31.3937 9.63431 31.3414C10.2207 31.3309 10.6396 31.488 10.9851 31.9382C11.0794 32.0639 11.1946 32.1686 11.3621 32.3571Z" fill="#464648"/>
<path d="M5.89607 13.7807C5.64476 14.1996 5.40391 14.6499 5.11071 15.0583C4.89081 15.3619 4.91176 15.5923 5.11071 15.8855C5.41439 16.3253 5.67617 16.7965 5.9589 17.2468C4.79657 17.6866 4.75469 16.6499 4.31488 16.0635C4.14734 16.4091 3.99027 16.7337 3.8332 17.0478C3.71801 17.2782 3.06878 17.4562 2.85935 17.3096C2.71275 17.2154 2.83841 17.1211 2.8803 17.0374C3.11067 16.6499 3.3201 16.252 3.58188 15.8855C3.79131 15.5818 3.77037 15.3515 3.57141 15.0583C3.28868 14.6394 3.04784 14.1891 2.75464 13.676C3.1735 13.7598 3.58188 13.4875 3.84367 13.8855C4.03216 14.1787 4.16828 14.5137 4.36724 14.9012C4.74421 14.3043 4.79657 13.3305 5.89607 13.7807Z" fill="#EFFBF5"/>
<path d="M10.2835 17.3829C10.0845 17.362 9.88557 17.3515 9.68661 17.3096C9.45624 17.2573 9.20493 17.2573 9.2887 16.8593C9.37247 16.4719 9.56096 16.5452 9.81227 16.629C10.0636 16.7127 10.3358 16.7232 10.5976 16.6813C10.7756 16.6499 10.9327 16.5557 10.9641 16.3672C10.9955 16.1682 10.8699 16.0426 10.7128 15.9588C10.5034 15.8541 10.2835 15.7808 10.0741 15.697C9.49813 15.4457 9.24681 15.1001 9.29917 14.6185C9.35153 14.1472 9.7285 13.7912 10.3149 13.676C10.6709 13.6132 11.027 13.6237 11.3725 13.7074C11.5819 13.7493 11.7285 13.8331 11.6343 14.0844C11.561 14.2729 11.5715 14.5242 11.2259 14.3881C11.0374 14.3148 10.7966 14.3253 10.5872 14.3357C10.3882 14.3357 10.2102 14.4195 10.1683 14.6394C10.1369 14.8488 10.3044 14.9431 10.4615 15.0164C10.629 15.1001 10.8071 15.1525 10.9746 15.2258C11.6657 15.519 11.917 15.875 11.8437 16.43C11.7704 16.9536 11.2887 17.3201 10.6186 17.3724C10.5139 17.3829 10.3987 17.3724 10.294 17.3724C10.2835 17.3724 10.2835 17.3829 10.2835 17.3829Z" fill="#F0FBF6"/>
<path d="M7.67601 17.341C6.48227 17.341 6.48227 17.341 6.48227 16.1368C6.48227 15.4352 6.50321 14.7441 6.4718 14.0425C6.46132 13.6655 6.68122 13.7074 6.9116 13.7074C7.15244 13.7074 7.36187 13.6865 7.3514 14.053C7.31998 14.765 7.36187 15.4771 7.33045 16.1892C7.30951 16.5766 7.45611 16.6813 7.80167 16.6394C8.0111 16.6185 8.24147 16.6499 8.4509 16.629C8.73363 16.608 8.86976 16.6709 8.85928 17.0059C8.84881 17.3306 8.70221 17.362 8.4509 17.341C8.21005 17.3306 7.9378 17.341 7.67601 17.341Z" fill="#EFFBF5"/>
</svg>
