<?xml version="1.0" encoding="utf-8"?>
<!-- Generator: Adobe Illustrator 27.0.0, SVG Export Plug-In . SVG Version: 6.00 Build 0)  -->
<svg version="1.1" id="Layer_1" xmlns="http://www.w3.org/2000/svg" xmlns:xlink="http://www.w3.org/1999/xlink" x="0px" y="0px"
	 viewBox="0 0 576 106.25" style="enable-background:new 0 0 576 106.25;" xml:space="preserve">
<style type="text/css">
	.st0{fill:#FFFFFF;}
</style>
<g>
	<path class="st0" d="M44.18-93.24c-1.18-1.27-2.58-2.34-4.2-3.21c-1.62-0.87-3.39-1.56-5.33-2.09l-3.98-1.15
		c-0.97-0.26-1.88-0.58-2.73-0.95c-0.85-0.37-1.6-0.82-2.25-1.33c-0.65-0.51-1.16-1.13-1.53-1.84c-0.37-0.71-0.54-1.55-0.51-2.5
		c0-1.15,0.28-2.17,0.83-3.08s1.36-1.61,2.41-2.13c1.05-0.51,2.35-0.77,3.88-0.77c2.25,0,4.03,0.58,5.35,1.75
		c1.31,1.17,2.06,2.8,2.23,4.9h8.98c-0.04-3.18-0.75-5.98-2.12-8.4c-1.37-2.42-3.29-4.3-5.75-5.66c-2.46-1.36-5.34-2.03-8.63-2.03
		c-3.23,0-6.12,0.68-8.66,2.03c-2.54,1.36-4.54,3.24-5.99,5.66s-2.17,5.24-2.15,8.48c-0.01,3.95,1.06,7.09,3.23,9.42
		c2.16,2.33,5.12,4.04,8.85,5.14l4.83,1.46c1.62,0.47,2.98,0.99,4.1,1.56c1.12,0.57,1.97,1.27,2.55,2.09
		c0.58,0.82,0.88,1.83,0.88,3.02c0,1.29-0.32,2.43-0.97,3.42c-0.65,0.99-1.56,1.76-2.74,2.32c-1.18,0.56-2.56,0.84-4.15,0.84
		c-1.62,0-3.06-0.3-4.34-0.9c-1.28-0.6-2.29-1.49-3.05-2.69c-0.76-1.19-1.19-2.68-1.29-4.47h-9.07c0.07,3.84,0.85,7.07,2.33,9.66
		c1.48,2.6,3.54,4.56,6.19,5.88c2.65,1.32,5.76,1.98,9.34,1.98c3.61,0,6.69-0.66,9.26-1.97c2.56-1.31,4.52-3.16,5.89-5.56
		c1.36-2.39,2.05-5.22,2.07-8.49c-0.01-2.23-0.35-4.2-1.01-5.92C46.28-90.47,45.36-91.97,44.18-93.24z"/>
	<polygon class="st0" points="78.51,-85.1 77.99,-85.1 65.78,-120.99 54.22,-120.99 54.22,-67.57 63.31,-67.57 63.31,-102.47 
		63.68,-102.47 75.16,-67.83 81.35,-67.83 92.82,-102.34 93.19,-102.34 93.19,-67.57 102.28,-67.57 102.28,-120.99 90.72,-120.99 	
		"/>
	<path class="st0" d="M139.86-93.24c-1.18-1.27-2.58-2.34-4.2-3.21c-1.62-0.87-3.39-1.56-5.33-2.09l-3.98-1.15
		c-0.97-0.26-1.88-0.58-2.73-0.95c-0.85-0.37-1.6-0.82-2.25-1.33s-1.16-1.13-1.53-1.84c-0.37-0.71-0.54-1.55-0.51-2.5
		c0-1.15,0.28-2.17,0.83-3.08s1.36-1.61,2.41-2.13c1.05-0.51,2.34-0.77,3.88-0.77c2.25,0,4.03,0.58,5.35,1.75
		c1.31,1.17,2.06,2.8,2.23,4.9h8.98c-0.04-3.18-0.75-5.98-2.12-8.4c-1.37-2.42-3.29-4.3-5.75-5.66s-5.34-2.03-8.63-2.03
		c-3.23,0-6.12,0.68-8.66,2.03s-4.54,3.24-5.99,5.66s-2.17,5.24-2.15,8.48c-0.01,3.95,1.06,7.09,3.23,9.42
		c2.16,2.33,5.12,4.04,8.85,5.14l4.83,1.46c1.62,0.47,2.98,0.99,4.1,1.56c1.12,0.57,1.97,1.27,2.55,2.09
		c0.58,0.82,0.88,1.83,0.88,3.02c0,1.29-0.33,2.43-0.97,3.42s-1.56,1.76-2.74,2.32c-1.18,0.56-2.56,0.84-4.15,0.84
		c-1.62,0-3.06-0.3-4.34-0.9c-1.28-0.6-2.29-1.49-3.05-2.69c-0.76-1.19-1.19-2.68-1.29-4.47h-9.07c0.07,3.84,0.85,7.07,2.33,9.66
		c1.48,2.6,3.54,4.56,6.19,5.88c2.65,1.32,5.76,1.98,9.34,1.98c3.61,0,6.69-0.66,9.25-1.97c2.56-1.31,4.52-3.16,5.89-5.56
		c1.36-2.39,2.05-5.22,2.07-8.49c-0.01-2.23-0.35-4.2-1.01-5.92C141.97-90.47,141.05-91.97,139.86-93.24z"/>
	<path class="st0" d="M184.83-87.66h9.51c-0.04,2.13-0.43,4-1.19,5.58c-0.8,1.67-1.95,2.96-3.46,3.87
		c-1.51,0.91-3.32,1.37-5.44,1.37c-2.34,0-4.37-0.68-6.08-2.05c-1.72-1.37-3.05-3.35-3.98-5.96c-0.94-2.61-1.41-5.77-1.41-9.49
		c0-3.72,0.48-6.87,1.43-9.46c0.95-2.58,2.28-4.55,3.99-5.91s3.7-2.03,5.96-2.03c1.21,0,2.32,0.18,3.32,0.55
		c1,0.37,1.9,0.89,2.68,1.58s1.45,1.52,2,2.5c0.55,0.98,0.97,2.11,1.28,3.38h9.52c-0.3-2.64-0.99-5.06-2.06-7.26
		c-1.07-2.2-2.44-4.1-4.12-5.7c-1.68-1.6-3.6-2.84-5.77-3.72c-2.16-0.88-4.5-1.32-7.01-1.32c-2.93,0-5.65,0.62-8.16,1.85
		c-2.51,1.23-4.71,3.03-6.6,5.4c-1.89,2.37-3.36,5.25-4.41,8.65c-1.05,3.4-1.57,7.26-1.57,11.59c0,5.63,0.88,10.5,2.63,14.59
		s4.2,7.25,7.35,9.47c3.15,2.22,6.8,3.33,10.95,3.33c3.72,0,7.03-0.91,9.91-2.73c2.89-1.82,5.15-4.41,6.8-7.77
		c1.65-3.36,2.47-7.4,2.47-12.09v-6.73h-18.55V-87.66z"/>
	<path class="st0" d="M234.18-104.95c-1.32-1.1-2.83-1.9-4.52-2.43c-1.7-0.52-3.47-0.78-5.32-0.78c-2.66,0-4.99,0.48-7,1.45
		c-2.01,0.96-3.65,2.34-4.92,4.12c-1.27,1.78-2.12,3.89-2.55,6.33l8.53,0.83c0.32-1.32,0.97-2.42,1.95-3.3
		c0.98-0.88,2.3-1.32,3.96-1.32c1.57,0,2.79,0.45,3.65,1.36c0.86,0.9,1.29,2.18,1.29,3.83v0.16c0,0.85-0.27,1.5-0.8,1.93
		c-0.53,0.43-1.39,0.76-2.58,0.98c-1.18,0.22-2.74,0.45-4.68,0.69c-1.65,0.19-3.21,0.52-4.71,0.99c-1.49,0.47-2.83,1.17-3.99,2.09
		c-1.17,0.92-2.09,2.14-2.77,3.65c-0.68,1.51-1.02,3.38-1.02,5.61c0,2.64,0.48,4.85,1.44,6.61c0.96,1.76,2.27,3.1,3.93,3.99
		c1.66,0.9,3.55,1.34,5.67,1.34c1.65,0,3.1-0.27,4.35-0.8c1.26-0.53,2.33-1.27,3.23-2.22c0.89-0.95,1.61-2.05,2.14-3.3h0.26v5.56
		h8.75V-94.6c0-2.38-0.38-4.43-1.15-6.14C236.54-102.45,235.5-103.86,234.18-104.95z M229.29-81.89c0,1.41-0.3,2.67-0.89,3.78
		c-0.59,1.11-1.41,2-2.45,2.65c-1.04,0.65-2.24,0.98-3.59,0.98c-1.41,0-2.58-0.39-3.5-1.19c-0.92-0.79-1.37-1.94-1.37-3.46
		c0-1.04,0.22-1.92,0.67-2.62c0.45-0.7,1.07-1.26,1.88-1.68c0.81-0.42,1.75-0.72,2.84-0.91c0.5-0.09,1.07-0.19,1.69-0.3
		c0.62-0.11,1.24-0.24,1.86-0.39c0.62-0.15,1.18-0.31,1.68-0.5c0.5-0.18,0.89-0.39,1.18-0.61V-81.89z"/>
	<path class="st0" d="M261.46-76.11c-0.43,0.1-0.87,0.14-1.3,0.14c-0.62,0-1.17-0.11-1.64-0.34c-0.47-0.23-0.83-0.62-1.09-1.19
		c-0.26-0.57-0.39-1.36-0.39-2.39v-19.41h6.26v-8.35h-6.26v-9.6h-9.22v9.6h-4.55v8.35h4.55v20.87c-0.01,2.63,0.44,4.8,1.36,6.52
		c0.92,1.72,2.22,2.99,3.89,3.81c1.67,0.82,3.61,1.17,5.83,1.07c1.2-0.05,2.21-0.2,3.05-0.43c0.84-0.24,1.49-0.44,1.95-0.61
		l-1.45-8.27C262.23-76.28,261.9-76.21,261.46-76.11z"/>
	<path class="st0" d="M294.86-103.1c-1.42-1.69-3.08-2.95-4.98-3.8c-1.9-0.84-3.94-1.26-6.14-1.26c-3.26,0-6.1,0.87-8.52,2.61
		c-2.42,1.74-4.29,4.16-5.62,7.28c-1.33,3.11-1.99,6.73-1.99,10.85c0,4.23,0.66,7.88,1.99,10.97c1.33,3.09,3.22,5.47,5.68,7.15
		c2.46,1.68,5.4,2.52,8.82,2.52c2.74,0,5.16-0.51,7.26-1.53c2.1-1.02,3.82-2.44,5.15-4.28c1.33-1.83,2.22-3.99,2.65-6.46l-8.53-0.68
		c-0.32,1.01-0.78,1.86-1.39,2.56c-0.61,0.7-1.34,1.22-2.19,1.56c-0.85,0.35-1.79,0.52-2.81,0.52c-1.55,0-2.88-0.39-4.01-1.17
		c-1.13-0.78-1.99-1.9-2.61-3.34c-0.61-1.44-0.92-3.16-0.92-5.14v-0.03h22.64v-3.05c0-3.41-0.4-6.39-1.19-8.93
		C297.38-99.29,296.28-101.41,294.86-103.1z M276.75-91.65c0.06-1.44,0.35-2.76,0.91-3.95c0.61-1.3,1.45-2.33,2.52-3.1
		c1.07-0.77,2.31-1.16,3.71-1.16c1.34,0,2.52,0.35,3.54,1.06c1.02,0.7,1.81,1.67,2.39,2.91c0.58,1.23,0.87,2.65,0.87,4.25H276.75z"
		/>
	<polygon class="st0" points="337.69,-80.87 337.41,-80.87 331.95,-107.64 322.79,-107.64 317.43,-80.72 317.12,-80.72 
		311.97,-107.64 302.64,-107.64 311.69,-67.57 321.43,-67.57 327.15,-92.77 327.56,-92.77 333.27,-67.57 343.04,-67.57 
		352.06,-107.64 342.75,-107.64 	"/>
	<path class="st0" d="M380.89-104.95c-1.32-1.1-2.83-1.9-4.52-2.43c-1.7-0.52-3.47-0.78-5.32-0.78c-2.66,0-4.99,0.48-7,1.45
		c-2.01,0.96-3.65,2.34-4.92,4.12c-1.27,1.78-2.12,3.89-2.55,6.33l8.53,0.83c0.32-1.32,0.97-2.42,1.95-3.3
		c0.98-0.88,2.3-1.32,3.96-1.32c1.57,0,2.79,0.45,3.65,1.36c0.86,0.9,1.29,2.18,1.29,3.83v0.16c0,0.85-0.27,1.5-0.8,1.93
		c-0.53,0.43-1.39,0.76-2.58,0.98c-1.18,0.22-2.74,0.45-4.68,0.69c-1.65,0.19-3.21,0.52-4.71,0.99c-1.49,0.47-2.83,1.17-3.99,2.09
		c-1.17,0.92-2.09,2.14-2.77,3.65c-0.68,1.51-1.02,3.38-1.02,5.61c0,2.64,0.48,4.85,1.44,6.61c0.96,1.76,2.27,3.1,3.93,3.99
		c1.66,0.9,3.55,1.34,5.67,1.34c1.65,0,3.1-0.27,4.35-0.8s2.33-1.27,3.23-2.22c0.89-0.95,1.61-2.05,2.14-3.3h0.26v5.56h8.75V-94.6
		c0-2.38-0.38-4.43-1.15-6.14C383.25-102.45,382.21-103.86,380.89-104.95z M376.01-81.89c0,1.41-0.3,2.67-0.89,3.78
		c-0.59,1.11-1.41,2-2.45,2.65c-1.04,0.65-2.24,0.98-3.59,0.98c-1.41,0-2.58-0.39-3.5-1.19c-0.92-0.79-1.37-1.94-1.37-3.46
		c0-1.04,0.22-1.92,0.67-2.62c0.45-0.7,1.07-1.26,1.88-1.68c0.81-0.42,1.75-0.72,2.84-0.91c0.5-0.09,1.07-0.19,1.69-0.3
		c0.62-0.11,1.24-0.24,1.86-0.39c0.62-0.15,1.18-0.31,1.68-0.5c0.5-0.18,0.89-0.39,1.18-0.61V-81.89z"/>
	<path class="st0" d="M405.41-78.21h-0.35l-6.88-29.42h-9.7l11.93,41.21l-0.54,1.7c-0.4,1.25-0.93,2.14-1.57,2.66
		c-0.64,0.52-1.4,0.76-2.27,0.73c-0.87-0.04-1.85-0.25-2.93-0.65l-2.08,8.3c0.66,0.33,1.51,0.6,2.52,0.82
		c1.02,0.22,2.11,0.33,3.28,0.33c2.28,0,4.23-0.44,5.85-1.32c1.62-0.88,2.96-2.12,4.02-3.73c1.06-1.61,1.9-3.49,2.52-5.65
		l12.92-44.4h-9.76L405.41-78.21z"/>
	<path class="st0" d="M452.88-86.98c-1.59-1.77-4-3.06-7.23-3.86l-6.02-1.46c-1.54-0.4-2.63-0.93-3.27-1.59
		c-0.64-0.66-0.95-1.47-0.95-2.43c0-1.2,0.49-2.16,1.47-2.88c0.98-0.72,2.19-1.08,3.62-1.08c1.07,0,1.99,0.21,2.76,0.64
		c0.77,0.43,1.4,0.99,1.87,1.7c0.48,0.7,0.79,1.49,0.93,2.36l8.44-0.63c-0.4-3.69-1.82-6.6-4.23-8.74
		c-2.42-2.14-5.73-3.21-9.93-3.21c-2.84,0-5.32,0.5-7.44,1.51c-2.11,1.01-3.75,2.44-4.91,4.3c-1.16,1.86-1.74,4.08-1.74,6.65
		c0,2.99,0.79,5.45,2.37,7.38c1.58,1.93,3.99,3.29,7.24,4.07l5.76,1.38c1.44,0.35,2.51,0.85,3.2,1.5c0.69,0.65,1.05,1.48,1.06,2.49
		c-0.01,1.2-0.52,2.18-1.51,2.93c-0.99,0.76-2.29,1.14-3.91,1.14c-1.64,0-3-0.42-4.05-1.27c-1.05-0.84-1.72-2.07-1.99-3.69
		l-9.07,0.57c0.45,3.83,1.97,6.85,4.58,9.06c2.6,2.22,6.11,3.33,10.51,3.33c2.89,0,5.44-0.55,7.65-1.66
		c2.21-1.1,3.96-2.65,5.24-4.63s1.92-4.29,1.92-6.91C455.26-82.87,454.47-85.2,452.88-86.98z"/>
</g>
<g>
	<path class="st0" d="M53.83,63.26c-0.02,4.44-0.96,8.35-2.79,11.62c-1.84,3.3-4.53,5.89-7.98,7.7c-3.43,1.78-7.59,2.7-12.35,2.7
		c-4.73,0-8.92-0.91-12.45-2.71c-3.58-1.82-6.4-4.55-8.39-8.12c-1.98-3.54-3.03-7.95-3.12-13.11l-0.02-1.21h13.9l0.06,1.12
		c0.12,2.11,0.62,3.88,1.47,5.25c0.84,1.37,1.96,2.36,3.4,3.05c1.45,0.7,3.15,1.06,5.01,1.06c1.84,0,3.44-0.33,4.77-0.97
		c1.31-0.63,2.29-1.47,3.01-2.59c0.71-1.1,1.06-2.34,1.06-3.8c0-1.32-0.3-2.38-0.9-3.24c-0.63-0.9-1.59-1.69-2.84-2.34
		c-1.35-0.71-3.04-1.37-5.01-1.95l-6.16-1.9c-4.95-1.48-8.93-3.84-11.82-7.02c-2.96-3.24-4.44-7.63-4.42-13.04
		c-0.02-4.38,0.95-8.3,2.91-11.62c1.95-3.31,4.67-5.94,8.08-7.79c3.41-1.85,7.31-2.79,11.62-2.79c4.37,0,8.27,0.94,11.57,2.8
		c3.31,1.86,5.94,4.49,7.79,7.82c1.83,3.29,2.79,7.16,2.85,11.47l0.01,1.2H39.32l-0.08-1.09c-0.2-2.43-1-4.26-2.46-5.58
		s-3.42-1.97-6.01-1.97c-1.76,0-3.24,0.3-4.42,0.88c-1.14,0.57-2,1.33-2.59,2.32c-0.59,1-0.89,2.1-0.89,3.39
		c-0.02,1.07,0.14,1.97,0.52,2.72c0.39,0.77,0.94,1.44,1.63,2c0.75,0.61,1.63,1.13,2.61,1.57c1.03,0.46,2.14,0.86,3.3,1.18l5.11,1.5
		c2.52,0.7,4.88,1.65,7.02,2.82c2.16,1.19,4.07,2.67,5.67,4.41c1.6,1.76,2.86,3.85,3.75,6.22C53.36,57.51,53.81,60.23,53.83,63.26z"
		/>
	<polygon class="st0" points="123.1,12.48 123.1,84.29 109.14,84.29 109.14,43.95 96.09,83.94 86.47,83.94 73.43,43.8 73.43,84.29 
		59.46,84.29 59.46,12.48 76.23,12.48 91.28,57.56 106.32,12.48 	"/>
	<path class="st0" d="M175.81,63.26c-0.01,4.44-0.95,8.35-2.78,11.62c-1.85,3.3-4.54,5.89-7.99,7.7c-3.42,1.78-7.58,2.7-12.35,2.7
		c-4.73,0-8.91-0.91-12.45-2.71c-3.56-1.82-6.39-4.55-8.39-8.12c-1.97-3.54-3.03-7.95-3.12-13.11l-0.01-1.21h13.9l0.06,1.12
		c0.12,2.11,0.61,3.88,1.46,5.25c0.86,1.37,1.96,2.36,3.4,3.05c1.46,0.7,3.15,1.06,5.02,1.06c1.83,0,3.43-0.33,4.76-0.97
		c1.31-0.63,2.29-1.47,3.01-2.59c0.71-1.1,1.06-2.34,1.06-3.8c0-1.32-0.3-2.38-0.9-3.24c-0.63-0.9-1.58-1.69-2.84-2.34
		c-1.35-0.71-3.04-1.37-5.01-1.95l-6.16-1.9c-4.94-1.48-8.92-3.84-11.82-7.02c-2.95-3.24-4.44-7.63-4.42-13.04
		c-0.02-4.38,0.96-8.29,2.91-11.62c1.95-3.31,4.67-5.94,8.09-7.79c3.4-1.85,7.31-2.79,11.6-2.79c4.38,0,8.28,0.94,11.58,2.8
		c3.31,1.86,5.93,4.49,7.78,7.82c1.84,3.29,2.8,7.16,2.85,11.47l0.02,1.2H161.3l-0.09-1.09c-0.19-2.45-1-4.26-2.45-5.58
		c-1.45-1.31-3.47-1.97-6.02-1.97c-1.76,0-3.24,0.3-4.42,0.88c-1.14,0.57-1.98,1.33-2.58,2.32c-0.61,1-0.89,2.1-0.89,3.39
		c-0.04,1.07,0.14,1.97,0.51,2.72c0.39,0.77,0.94,1.44,1.64,2c0.74,0.61,1.62,1.13,2.6,1.57c1.03,0.46,2.15,0.86,3.31,1.18l5.1,1.5
		c2.52,0.7,4.89,1.65,7.02,2.82c2.17,1.19,4.07,2.67,5.67,4.41c1.6,1.76,2.87,3.85,3.75,6.22
		C175.33,57.51,175.79,60.25,175.81,63.26z"/>
	<path class="st0" d="M251.98,44.76v9.93c0,6.26-1.1,11.71-3.27,16.23c-2.19,4.56-5.24,8.12-9.1,10.6
		c-3.85,2.47-8.31,3.73-13.28,3.73c-5.52,0-10.45-1.53-14.66-4.55c-4.17-2.99-7.46-7.31-9.76-12.8c-2.29-5.44-3.44-11.98-3.44-19.43
		c0-5.71,0.69-10.89,2.04-15.41c1.38-4.54,3.33-8.46,5.82-11.63c2.51-3.2,5.48-5.67,8.83-7.34c3.35-1.69,7.03-2.54,10.93-2.54
		c3.35,0,6.51,0.61,9.4,1.81c2.9,1.2,5.5,2.9,7.73,5.07c2.23,2.17,4.09,4.77,5.5,7.76c1.41,2.96,2.33,6.26,2.73,9.81l0.15,1.32
		h-14.42l-0.21-0.91c-0.36-1.53-0.87-2.91-1.51-4.09c-0.63-1.15-1.41-2.14-2.3-2.93s-1.91-1.4-3.04-1.83
		c-1.15-0.43-2.44-0.64-3.82-0.64c-2.64,0-4.88,0.78-6.87,2.39c-2,1.62-3.59,4.03-4.72,7.15c-1.16,3.22-1.75,7.21-1.75,11.89
		c0,4.68,0.57,8.69,1.72,11.94c1.12,3.17,2.7,5.59,4.7,7.22c2,1.62,4.29,2.4,7.01,2.4c2.47,0,4.6-0.55,6.32-1.6
		c1.73-1.08,3.03-2.55,3.96-4.53c0.75-1.59,1.2-3.46,1.35-5.57h-12.07V44.76H251.98z"/>
	<path class="st0" d="M295.12,39.52c-1.05-2.39-2.49-4.37-4.31-5.9c-1.79-1.52-3.87-2.66-6.18-3.37c-2.26-0.71-4.66-1.08-7.13-1.08
		c-3.55,0-6.73,0.68-9.45,2.01c-2.73,1.34-5,3.27-6.72,5.74c-1.71,2.45-2.87,5.38-3.46,8.69l-0.21,1.27l13.17,1.31l0.24-1.01
		c0.36-1.5,1.06-2.7,2.14-3.68c1.03-0.95,2.42-1.4,4.24-1.4c1.67,0,2.92,0.45,3.79,1.38c0.88,0.95,1.32,2.35,1.32,4.18v0.2
		c0,0.99-0.33,1.38-0.59,1.59c-0.36,0.3-1.13,0.71-2.74,1.02c-1.47,0.27-3.46,0.57-5.88,0.88c-2.17,0.26-4.26,0.71-6.22,1.34
		c-2.03,0.65-3.87,1.64-5.48,2.91c-1.63,1.32-2.93,3.06-3.87,5.2c-0.93,2.1-1.4,4.72-1.4,7.77c0,3.61,0.67,6.69,1.97,9.15
		c1.33,2.49,3.18,4.39,5.49,5.67c2.28,1.26,4.91,1.9,7.8,1.9c2.26,0,4.28-0.39,6.02-1.14c1.75-0.75,3.27-1.82,4.51-3.16
		c0.34-0.38,0.69-0.78,1-1.2v4.51h13.53V47.98C296.69,44.73,296.17,41.89,295.12,39.52z M282.64,64.49c0,1.63-0.33,3.1-1,4.36
		c-0.67,1.28-1.54,2.26-2.71,2.99c-1.14,0.74-2.42,1.08-3.93,1.08c-1.52,0-2.72-0.4-3.68-1.24c-0.9-0.81-1.34-1.98-1.34-3.6
		c0-1.13,0.23-2.07,0.68-2.78c0.46-0.75,1.09-1.32,1.94-1.77c0.91-0.48,2.02-0.84,3.27-1.07c0.65-0.11,1.38-0.24,2.17-0.39
		c0.81-0.15,1.63-0.32,2.43-0.52c0.8-0.19,1.52-0.4,2.17-0.64V64.49z"/>
	<path class="st0" d="M329.29,83.21l-0.91,0.36c-0.63,0.24-1.47,0.51-2.59,0.83c-1.14,0.32-2.54,0.53-4.16,0.61
		c-0.33,0.01-0.67,0.02-0.99,0.02c-2.63,0-4.99-0.52-7.04-1.54c-2.34-1.16-4.18-3.01-5.46-5.45c-1.27-2.41-1.9-5.45-1.88-9.04V43.07
		h-5.8V29.84h5.8V17.37h14.13v12.47h7.97v13.23h-7.97V67.1c0,1.44,0.2,2.22,0.38,2.61c0.23,0.48,0.5,0.8,0.84,0.96
		c0.76,0.37,1.88,0.4,2.96,0.17l2.48-0.57L329.29,83.21z"/>
	<path class="st0" d="M374.35,56.79c0-4.53-0.53-8.54-1.57-11.95c-1.06-3.46-2.55-6.37-4.47-8.67c-1.91-2.32-4.19-4.09-6.77-5.25
		c-2.55-1.16-5.36-1.76-8.31-1.76c-4.39,0-8.28,1.22-11.56,3.62c-3.24,2.38-5.78,5.73-7.55,9.95c-1.75,4.18-2.64,9.07-2.64,14.56
		c0,5.63,0.89,10.57,2.64,14.72c1.77,4.2,4.35,7.5,7.66,9.8c3.33,2.32,7.34,3.48,11.93,3.48c3.66,0,6.95-0.7,9.79-2.1
		s5.19-3.4,7.01-5.93c1.79-2.53,3.01-5.51,3.58-8.88l0.23-1.28l-13.11-1.06l-0.29,0.9c-0.36,1.15-0.87,2.13-1.53,2.91
		c-0.65,0.76-1.43,1.32-2.34,1.71c-0.94,0.38-2,0.58-3.14,0.58c-1.73,0-3.17-0.43-4.42-1.31c-1.25-0.88-2.22-2.17-2.91-3.82
		c-0.61-1.44-0.95-3.14-1.06-5.07h28.84V56.79z M349.19,40.93v0.2h-0.31C348.99,41.08,349.08,40.99,349.19,40.93z M345.6,50.63
		c0.15-1.26,0.48-2.41,0.95-3.46c0.69-1.48,1.64-2.68,2.84-3.58c1.18-0.86,2.49-1.27,4.04-1.27c1.47,0,2.72,0.38,3.82,1.15
		c1.13,0.8,2,1.88,2.65,3.3c0.52,1.14,0.84,2.42,0.95,3.85H345.6z"/>
	<path class="st0" d="M349.19,40.93v0.2h-0.31C348.99,41.08,349.08,40.99,349.19,40.93z"/>
	<polygon class="st0" points="441.81,29.84 429.78,84.29 415.42,84.29 408.83,54.64 402.24,84.29 387.91,84.29 375.84,29.84 
		390.2,29.84 396,60.71 402.05,29.84 415.67,29.84 421.79,60.47 427.48,29.84 	"/>
	<path class="st0" d="M482.15,39.52c-1.05-2.39-2.49-4.37-4.31-5.9c-1.79-1.52-3.88-2.66-6.18-3.37c-2.27-0.71-4.67-1.08-7.13-1.08
		c-3.56,0-6.73,0.68-9.45,2.01c-2.73,1.34-5,3.27-6.73,5.74c-1.71,2.45-2.87,5.38-3.44,8.69l-0.23,1.27l13.18,1.31l0.24-1.01
		c0.36-1.5,1.05-2.7,2.13-3.68c1.03-0.95,2.42-1.4,4.25-1.4c1.67,0,2.91,0.45,3.78,1.38c0.88,0.95,1.33,2.35,1.33,4.18v0.2
		c0,0.99-0.34,1.38-0.59,1.59c-0.36,0.3-1.13,0.71-2.74,1.02c-1.47,0.27-3.46,0.57-5.88,0.88c-2.17,0.26-4.26,0.71-6.22,1.34
		c-2.04,0.65-3.88,1.64-5.48,2.92c-1.64,1.31-2.93,3.05-3.87,5.19c-0.94,2.1-1.4,4.72-1.4,7.77c0,3.61,0.67,6.69,1.97,9.15
		c1.33,2.49,3.17,4.39,5.49,5.67c2.28,1.26,4.91,1.9,7.8,1.9c2.24,0,4.28-0.39,6.01-1.14c1.75-0.75,3.27-1.82,4.51-3.16
		c0.36-0.38,0.69-0.78,1.01-1.2v4.51h13.53V47.98C483.72,44.73,483.19,41.88,482.15,39.52z M469.67,64.49c0,1.63-0.34,3.1-1,4.37
		c-0.67,1.27-1.56,2.24-2.71,2.98c-1.14,0.74-2.44,1.08-3.94,1.08c-1.52,0-2.72-0.4-3.67-1.24c-0.9-0.81-1.35-1.98-1.35-3.6
		c0-1.13,0.24-2.07,0.69-2.78c0.45-0.75,1.09-1.32,1.94-1.77c0.91-0.48,2.02-0.84,3.27-1.07c0.65-0.11,1.37-0.24,2.16-0.39
		c0.82-0.15,1.63-0.32,2.43-0.52c0.8-0.19,1.53-0.4,2.19-0.64V64.49z"/>
	<path class="st0" d="M531.21,29.84l-16.9,59.21c-0.82,2.9-1.96,5.48-3.36,7.66c-1.46,2.24-3.33,4-5.55,5.24
		c-2.22,1.24-4.93,1.86-8.03,1.86c-1.56,0-3.05-0.15-4.43-0.45c-1.39-0.31-2.57-0.7-3.49-1.18l-0.84-0.43l3.2-12.99l1.25,0.48
		c1.25,0.48,2.39,0.72,3.37,0.77c0.8,0.04,1.5-0.19,2.09-0.68c0.63-0.52,1.18-1.51,1.63-2.9l0.58-1.86l-15.54-54.73h14.88l8.05,35.1
		l8.12-35.1H531.21z"/>
	<path class="st0" d="M573.08,66.96c0,3.62-0.89,6.87-2.63,9.62c-1.75,2.76-4.15,4.92-7.15,6.44c-2.98,1.52-6.44,2.28-10.3,2.28
		c-5.87,0-10.64-1.54-14.17-4.61c-3.54-3.06-5.64-7.29-6.24-12.54l-0.14-1.24l13.87-0.9l0.18,1.07c0.31,1.82,1,3.15,2.11,4.06
		c1.14,0.93,2.58,1.38,4.42,1.38c1.78,0,3.21-0.4,4.25-1.22c0.97-0.76,1.44-1.69,1.46-2.89c-0.02-0.96-0.34-1.75-0.99-2.36
		c-0.72-0.7-1.92-1.26-3.55-1.65l-7.34-1.81c-4.38-1.07-7.7-2.99-9.87-5.69c-2.19-2.72-3.29-6.2-3.29-10.35
		c0-3.55,0.81-6.66,2.4-9.26c1.59-2.6,3.87-4.63,6.76-6.03c2.85-1.39,6.21-2.09,10-2.09c5.63,0,10.16,1.51,13.45,4.48
		c3.29,2.97,5.24,7.04,5.78,12.12l0.13,1.21l-13.08,0.99l-0.17-1.07c-0.17-0.96-0.5-1.83-1.01-2.6c-0.5-0.76-1.15-1.35-1.98-1.83
		c-0.8-0.45-1.78-0.68-2.93-0.68c-1.57,0-2.85,0.38-3.9,1.18c-0.95,0.71-1.4,1.6-1.4,2.79c0,0.94,0.3,1.7,0.89,2.34
		c0.64,0.68,1.89,1.28,3.61,1.73l7.65,1.89c4.35,1.09,7.65,2.91,9.82,5.39C571.95,59.61,573.08,62.93,573.08,66.96z"/>
</g>
</svg>
