<svg width="24" height="24" viewBox="0 0 24 24" fill="none" xmlns="http://www.w3.org/2000/svg">
<rect width="24" height="24" rx="4" fill="#FF4D79"/>
<path fill-rule="evenodd" clip-rule="evenodd" d="M11.4489 17.5054C11.4446 17.5033 11.4425 17.5012 11.4382 17.499C11.4425 17.5012 11.4468 17.5033 11.4489 17.5054Z" fill="url(#paint0_linear_401_5793)"/>
<path fill-rule="evenodd" clip-rule="evenodd" d="M11.2395 17.2974C11.2352 17.2953 11.233 17.2931 11.2287 17.291C11.233 17.2931 11.2352 17.2953 11.2395 17.2974Z" fill="url(#paint1_linear_401_5793)"/>
<path fill-rule="evenodd" clip-rule="evenodd" d="M15.4656 17.5054C15.4699 17.5033 15.4721 17.5012 15.4764 17.499C15.4721 17.5012 15.4699 17.5033 15.4656 17.5054Z" fill="url(#paint2_linear_401_5793)"/>
<path fill-rule="evenodd" clip-rule="evenodd" d="M15.3935 17.5412C15.3963 17.5384 15.3963 17.5384 15.3935 17.5412C15.3963 17.5384 15.3963 17.5384 15.3935 17.5412Z" fill="url(#paint3_linear_401_5793)"/>
<path fill-rule="evenodd" clip-rule="evenodd" d="M15.677 17.2974C15.6813 17.2953 15.6834 17.2931 15.6877 17.291C15.6834 17.2931 15.6813 17.2953 15.677 17.2974Z" fill="url(#paint4_linear_401_5793)"/>
<path fill-rule="evenodd" clip-rule="evenodd" d="M3.19249 12.0149C3.47628 11.1826 4.32765 10.4905 4.94929 9.79835C3.42898 10.5706 0.160875 13.3525 1.50325 15.2019C2.17219 16.1277 3.85467 16.2857 4.90875 16.2857C5.71283 16.2857 6.53042 16.2056 7.32098 16.0453C11.3481 15.2464 15.0757 13.0698 18.1366 10.4215L18.319 10.2679L18.7717 9.86957L18.8326 11.2939L21.3394 7.33473L19.0961 8.28057L19.042 8.30727L17.1366 9.10622L18.5825 9.46453L18.1366 9.75162C18.096 9.77165 18.0623 9.79835 18.0217 9.81838L17.8123 9.95191C14.8595 11.8213 10.6049 14.2048 7.07773 14.5698C7.02367 14.5765 6.96286 14.5832 6.90205 14.5898H6.88628C6.82547 14.5965 6.76466 14.6032 6.7106 14.6099H6.70385C6.64979 14.6099 6.58898 14.6165 6.53492 14.6232H6.52141C6.47411 14.6232 6.42681 14.6299 6.37276 14.6299H6.34573C6.29843 14.6366 6.24437 14.6366 6.19707 14.6366H6.17005C6.12275 14.6433 6.08221 14.6433 6.03491 14.6433H6.00788C5.96734 14.6433 5.92004 14.6433 5.8795 14.6433H5.83896C5.80517 14.6433 5.77139 14.6433 5.7376 14.6433H5.66328H5.60246C5.56868 14.6433 5.53489 14.6433 5.50787 14.6433L5.4403 14.6366H5.37948L5.2984 14.6299C5.02137 14.6165 4.73758 14.5832 4.4673 14.5231C3.56187 14.3228 2.77806 13.8243 2.92672 12.7872C2.96951 12.5201 3.07086 12.2598 3.19249 12.0149ZM21.3506 7.31693L21.3912 7.25684L21.3304 7.27686L21.3506 7.31693Z" fill="white"/>
<path fill-rule="evenodd" clip-rule="evenodd" d="M4.17271 13.8773C4.16595 13.519 4.27406 12.6066 5.30111 11.8744V10.4033C4.60515 10.9152 3.11862 12.4196 3.52404 13.3454C3.63215 13.5902 3.86864 13.7571 4.17271 13.8773Z" fill="#FF8A89"/>
<path fill-rule="evenodd" clip-rule="evenodd" d="M1.03717 14.1649C0.956088 16.7331 5.09809 16.6597 7.35265 16.2146C11.3528 15.4223 15.0466 13.2658 18.1074 10.6775C18.2764 10.5307 18.4453 10.3838 18.6142 10.2391L18.6345 10.7176L18.6818 11.8482L21.3913 7.5752L19.0264 11.9995V16.6441C19.0264 17.6745 18.1683 18.5202 17.1142 18.5202H10.4676H7.204H7.17022H7.14995H7.13643H7.10941H7.10265C6.25127 18.4735 5.29179 17.7413 5.37287 16.8422C5.37287 16.8466 0.530401 17.2316 1.03717 14.1649Z" fill="white"/>
<path fill-rule="evenodd" clip-rule="evenodd" d="M8.69044 18.1705H17.1141C17.9655 18.1705 18.6614 17.4851 18.6614 16.6461V13.4258C18.6614 13.4258 15.8438 17.6631 8.69044 18.1705Z" fill="white"/>
<path fill-rule="evenodd" clip-rule="evenodd" d="M7.20403 5H17.1142C18.1683 5 19.0264 5.84569 19.0264 6.87609V7.94656L21.6413 7.02075L19.0264 8.12459L18.9724 8.14463L16.6007 9.14387L17.6548 9.41093L18.1548 9.53111C18.1548 9.53111 17.4047 9.99624 17.3372 10.0363C12.5015 12.9383 9.28516 14.169 7.06213 14.4027C5.83912 14.5363 2.82553 14.6831 3.09581 12.8115C3.25122 11.7544 4.44719 10.5415 5.29857 9.93615V6.87609C5.29857 5.84569 6.1567 5 7.20403 5ZM11.0555 8.46065H13.265C13.265 10.0919 13.265 10.2833 13.265 11.9213C12.7447 12.1817 12.2177 12.4265 11.6839 12.6535C11.4812 12.747 11.2717 12.8337 11.0555 12.9205C11.0555 10.9488 11.0555 10.4235 11.0555 8.46065ZM14.3709 6.65799H16.5736V8.8145L15.3912 9.22622L16.5736 9.52666V10.0786C15.8507 10.517 15.1142 10.9443 14.3709 11.3493V6.65799ZM7.74458 10.2566H9.9541C9.9541 11.6476 9.9541 11.9458 9.9541 13.3367C9.23111 13.5837 8.48109 13.7952 7.74458 13.9287V10.2566ZM5.29857 14.0845V10.4035C4.6026 10.9154 3.11608 12.4198 3.52149 13.3456C3.73997 13.8508 4.51026 14.0311 5.29857 14.0845Z" fill="white"/>
<path fill-rule="evenodd" clip-rule="evenodd" d="M5.65649 9.69199V14.1163C5.65649 14.1163 6.08218 12.9256 7.38627 11.4012V9.90341H8.88631C9.40659 9.45163 10.008 8.99763 10.6972 8.55253V8.45906V8.10076H11.4472C12.204 7.66901 13.0553 7.25507 14.0081 6.88341V6.30478H15.7108C16.4541 6.07778 17.2514 5.87971 18.1095 5.7128C17.8393 5.49247 17.4947 5.35449 17.1163 5.35449H7.20609C6.35471 5.35449 5.65875 6.04662 5.65875 6.87896V9.69199H5.65649Z" fill="white"/>
<path fill-rule="evenodd" clip-rule="evenodd" d="M19.0262 7.94942L16.6748 8.77508L19.0262 7.54883V7.94942Z" fill="#E3E3E3"/>
<defs>
<linearGradient id="paint0_linear_401_5793" x1="11.4455" y1="17.5056" x2="11.4446" y2="17.4989" gradientUnits="userSpaceOnUse">
<stop stop-color="white"/>
<stop offset="0.0544" stop-color="#E7E7E7"/>
<stop offset="0.2044" stop-color="#ABABAB"/>
<stop offset="0.3536" stop-color="#777777"/>
<stop offset="0.4985" stop-color="#4C4C4C"/>
<stop offset="0.6382" stop-color="#2B2B2B"/>
<stop offset="0.7712" stop-color="#131313"/>
<stop offset="0.8949" stop-color="#050505"/>
<stop offset="1"/>
</linearGradient>
<linearGradient id="paint1_linear_401_5793" x1="11.2343" y1="17.2972" x2="11.2334" y2="17.2904" gradientUnits="userSpaceOnUse">
<stop stop-color="white"/>
<stop offset="0.0544" stop-color="#E7E7E7"/>
<stop offset="0.2044" stop-color="#ABABAB"/>
<stop offset="0.3536" stop-color="#777777"/>
<stop offset="0.4985" stop-color="#4C4C4C"/>
<stop offset="0.6382" stop-color="#2B2B2B"/>
<stop offset="0.7712" stop-color="#131313"/>
<stop offset="0.8949" stop-color="#050505"/>
<stop offset="1"/>
</linearGradient>
<linearGradient id="paint2_linear_401_5793" x1="15.4705" y1="17.5056" x2="15.4714" y2="17.4989" gradientUnits="userSpaceOnUse">
<stop stop-color="white"/>
<stop offset="0.0544" stop-color="#E7E7E7"/>
<stop offset="0.2044" stop-color="#ABABAB"/>
<stop offset="0.3536" stop-color="#777777"/>
<stop offset="0.4985" stop-color="#4C4C4C"/>
<stop offset="0.6382" stop-color="#2B2B2B"/>
<stop offset="0.7712" stop-color="#131313"/>
<stop offset="0.8949" stop-color="#050505"/>
<stop offset="1"/>
</linearGradient>
<linearGradient id="paint3_linear_401_5793" x1="15.3957" y1="17.5401" x2="15.3959" y2="17.5385" gradientUnits="userSpaceOnUse">
<stop stop-color="white"/>
<stop offset="0.0544" stop-color="#E7E7E7"/>
<stop offset="0.2044" stop-color="#ABABAB"/>
<stop offset="0.3536" stop-color="#777777"/>
<stop offset="0.4985" stop-color="#4C4C4C"/>
<stop offset="0.6382" stop-color="#2B2B2B"/>
<stop offset="0.7712" stop-color="#131313"/>
<stop offset="0.8949" stop-color="#050505"/>
<stop offset="1"/>
</linearGradient>
<linearGradient id="paint4_linear_401_5793" x1="15.6814" y1="17.2972" x2="15.6823" y2="17.2904" gradientUnits="userSpaceOnUse">
<stop stop-color="white"/>
<stop offset="0.0544" stop-color="#E7E7E7"/>
<stop offset="0.2044" stop-color="#ABABAB"/>
<stop offset="0.3536" stop-color="#777777"/>
<stop offset="0.4985" stop-color="#4C4C4C"/>
<stop offset="0.6382" stop-color="#2B2B2B"/>
<stop offset="0.7712" stop-color="#131313"/>
<stop offset="0.8949" stop-color="#050505"/>
<stop offset="1"/>
</linearGradient>
</defs>
</svg>
