<svg width="24" height="24" viewBox="0 0 24 24" fill="none" xmlns="http://www.w3.org/2000/svg">
<rect width="24" height="24" rx="4" fill="url(#paint0_linear_428_4812)"/>
<path d="M18.4188 8.08887H5.58315C4.70633 8.08887 4 8.82677 4 9.7428C4 9.83185 4.00609 9.92729 4.02436 10.0163C4.2801 11.6067 5.71711 12.6817 7.24545 12.4209C7.33679 12.4082 7.42203 12.3828 7.50728 12.3637L9.40705 11.8293C10.1499 11.6194 10.911 12.0838 11.1059 12.8535C11.1668 13.1016 11.1668 13.356 11.1059 13.6041L11.0085 13.9858C10.5701 15.6906 11.5382 17.4464 13.1762 17.9044C13.4319 17.9744 13.6998 18.0125 13.9677 18.0125H17.3654C18.1387 18.0125 18.8024 17.4273 18.9242 16.6321L19.9776 10.0163C20.1237 9.11304 19.5392 8.26061 18.6746 8.1143C18.5893 8.10158 18.5041 8.08887 18.4188 8.08887Z" fill="white"/>
<path d="M8.82238 13.3372L5.66827 14.2214C5.30901 14.3232 5.08981 14.7113 5.18723 15.0866C5.23595 15.2838 5.36991 15.4492 5.54649 15.5382L6.67905 16.1171C6.81301 16.1871 6.92261 16.3016 6.98959 16.4415L7.54369 17.6247C7.70809 17.9746 8.11606 18.1209 8.45095 17.9492C8.62753 17.8601 8.75541 17.6947 8.81021 17.4975L9.65658 14.2024C9.75401 13.827 9.54089 13.4326 9.18164 13.3309C9.06595 13.3054 8.93807 13.3054 8.82238 13.3372Z" fill="white"/>
<path d="M14.8913 7.30661C14.5564 7.30661 14.2885 7.02672 14.2885 6.67685V6.65776C14.2885 5.33461 13.2594 4.2659 11.999 4.2659C10.7325 4.2659 9.70953 5.34097 9.70953 6.65776V6.67685C9.70344 7.02672 9.42944 7.30026 9.09454 7.2939C8.77182 7.28753 8.51 7.014 8.50391 6.67685V6.65776C8.50391 4.64122 10.0688 3 12.0051 3C13.9414 3 15.5063 4.63486 15.5063 6.65776V6.67685C15.4941 7.02672 15.2262 7.30661 14.8913 7.30661Z" fill="white"/>
<path d="M14.5151 20.9999C14.9792 20.9999 15.3554 20.6068 15.3554 20.122C15.3554 19.6372 14.9792 19.2441 14.5151 19.2441C14.051 19.2441 13.6748 19.6372 13.6748 20.122C13.6748 20.6068 14.051 20.9999 14.5151 20.9999Z" fill="white"/>
<path d="M10.052 20.9999C10.516 20.9999 10.8922 20.6068 10.8922 20.122C10.8922 19.6372 10.516 19.2441 10.052 19.2441C9.58788 19.2441 9.21167 19.6372 9.21167 20.122C9.21167 20.6068 9.58788 20.9999 10.052 20.9999Z" fill="white"/>
<defs>
<linearGradient id="paint0_linear_428_4812" x1="3" y1="24" x2="22.5" y2="2" gradientUnits="userSpaceOnUse">
<stop stop-color="#8666F9"/>
<stop offset="1" stop-color="#FF9ED1"/>
</linearGradient>
</defs>
</svg>
