<svg width="24" height="24" viewBox="0 0 24 24" fill="none" xmlns="http://www.w3.org/2000/svg">
<rect width="24" height="24" rx="4" fill="url(#paint0_linear_401_5795)"/>
<path d="M7.84955 6.8496C8.17077 6.8496 8.47831 6.97259 8.70385 7.19067L12.1092 10.5914C12.2048 10.6931 12.3706 10.6931 12.4663 10.5914L15.6784 7.38251C14.479 5.93136 12.6269 5 10.5475 5C6.93201 5 4 7.81377 4 11.2834C4 14.7531 6.93201 17.5668 10.5475 17.5668C12.2476 17.5668 13.7956 16.9454 14.9592 15.9271V11.572C14.9592 11.4687 14.8292 11.4179 14.7524 11.49L12.6508 13.8086C12.4577 14.0201 12.1143 14.0201 11.9229 13.8086L9.8196 11.49C9.74442 11.4162 9.61286 11.4687 9.61286 11.572V16.0665C8.30061 16.0665 7.23785 15.2286 7.23785 13.9693V7.43499C7.23957 7.11197 7.51295 6.8496 7.84955 6.8496Z" fill="white"/>
<path d="M18.2815 12.8066H16.7335C16.5301 12.8066 16.3643 12.9657 16.3643 13.1608V14.6464C16.3643 14.8415 16.5301 15.0006 16.7335 15.0006H18.2815C18.4847 15.0006 18.6505 14.8415 18.6505 14.6464V13.1608C18.6505 12.9657 18.4847 12.8066 18.2815 12.8066Z" fill="white"/>
<path d="M17.1058 11H18.172C18.3566 11 18.5068 10.8557 18.5068 10.6786V9.65538C18.5068 9.47829 18.3566 9.33398 18.172 9.33398H17.1058C16.9212 9.33398 16.771 9.47829 16.771 9.65538V10.6786C16.771 10.8557 16.9212 11 17.1058 11Z" fill="white"/>
<path d="M19.7641 11.1904H18.8859C18.7561 11.1904 18.6501 11.2921 18.6501 11.4167V12.2595C18.6501 12.3842 18.7561 12.4858 18.8859 12.4858H19.7641C19.8939 12.4858 19.9999 12.3842 19.9999 12.2595V11.4167C19.9999 11.2905 19.8939 11.1904 19.7641 11.1904Z" fill="white"/>
<path d="M18.6757 9.00151H19.3027C19.4035 9.00151 19.4855 8.92281 19.4855 8.82607V8.22427C19.4855 8.12753 19.4035 8.04883 19.3027 8.04883H18.6757C18.5749 8.04883 18.4929 8.12753 18.4929 8.22427V8.82607C18.4945 8.92281 18.5749 9.00151 18.6757 9.00151Z" fill="white"/>
<defs>
<linearGradient id="paint0_linear_401_5795" x1="0.646154" y1="12" x2="24" y2="12" gradientUnits="userSpaceOnUse">
<stop stop-color="#4078FF"/>
<stop offset="1" stop-color="#58A1FF"/>
</linearGradient>
</defs>
</svg>
