<svg width="24" height="24" viewBox="0 0 24 24" fill="none" xmlns="http://www.w3.org/2000/svg">
<rect width="24" height="24" rx="4" fill="url(#paint0_linear_335_6287)"/>
<path d="M11.92 9.77592L5.17515 10.4447L11.0425 12.824C11.5279 13.0287 12.4288 13.0287 12.8862 12.824L17.6566 10.8723C17.6986 10.7995 17.7873 10.7586 17.8993 10.7586L20.5366 9.66218C20.7139 9.5894 20.7793 9.49386 20.7793 9.49386C20.7793 9.45747 20.7373 9.38013 20.5366 9.30734L12.8909 6.15013C12.6715 6.05914 12.3214 6 11.9667 6C11.6353 6 11.3085 6.05459 11.0658 6.15013L3.24272 9.32554C3.04668 9.39833 3 9.47566 3 9.49386C3 9.49386 3.04201 9.58485 3.24272 9.66218L4.03157 9.97609L11.8546 9.19361C12.032 9.17541 12.2047 9.2846 12.228 9.45292C12.2514 9.6076 12.116 9.75772 11.92 9.77592Z" fill="white"/>
<path d="M17.4971 11.9651L14.2531 13.3526C13.931 13.4982 12.7081 13.985 12.2553 13.9895C11.8212 13.9941 10.6963 13.6438 10.3649 13.5255L6.3273 11.7422C6.34597 12.7794 6.28062 13.6711 6.29929 14.7083C6.87809 15.1269 8.9879 16.7464 12.0359 16.6782C14.9672 16.6145 16.937 15.0131 17.5205 14.5673C17.4971 13.5346 17.5205 12.9978 17.4971 11.9651Z" fill="white"/>
<path d="M4.50313 11.9967V10.2362L3.95233 9.9541V12.0013C3.95233 12.1332 4.06903 12.2378 4.21373 12.2378H4.2324C4.38176 12.2378 4.50313 12.1287 4.50313 11.9967Z" fill="white"/>
<path d="M3.68107 13.9983C3.59706 15.0401 3.51304 16.0864 3.43369 17.1328H4.95069C4.88067 16.2457 4.81532 15.3631 4.74064 14.476C4.7033 14.0347 4.7173 13.5798 4.36255 13.2158H4.01715C3.78843 13.4478 3.70441 13.7162 3.68107 13.9983Z" fill="white"/>
<path d="M4.20865 13.0613C4.41746 13.0613 4.58673 12.9085 4.58673 12.7201C4.58673 12.5317 4.41746 12.3789 4.20865 12.3789C3.99984 12.3789 3.83057 12.5317 3.83057 12.7201C3.83057 12.9085 3.99984 13.0613 4.20865 13.0613Z" fill="white"/>
<defs>
<linearGradient id="paint0_linear_335_6287" x1="3" y1="24" x2="22.5" y2="2" gradientUnits="userSpaceOnUse">
<stop stop-color="#8666F9"/>
<stop offset="1" stop-color="#FF9ED1"/>
</linearGradient>
</defs>
</svg>
