<svg width="24" height="24" viewBox="0 0 24 24" fill="none" xmlns="http://www.w3.org/2000/svg">
<rect width="24" height="24" rx="4" fill="#417BFF"/>
<g clip-path="url(#clip0_401_5794)">
<path d="M3.87042 17.523H5.61688C6.08696 17.523 6.07291 17.1075 5.96138 16.9414C5.85178 16.7794 5.77961 16.5948 5.75016 16.4012C5.72071 16.2075 5.73473 16.0097 5.7912 15.8222L6.69252 12.8243C6.78231 12.5233 6.96609 12.2593 7.21666 12.0715C7.46722 11.8837 7.77125 11.782 8.08375 11.7815H15.4786C15.7911 11.782 16.0951 11.8837 16.3456 12.0715C16.5962 12.2593 16.78 12.5233 16.8698 12.8243L17.7711 15.8222C17.8276 16.0097 17.8416 16.2075 17.8121 16.4012C17.7827 16.5948 17.7105 16.7794 17.6009 16.9414C17.4894 17.1075 17.4753 17.523 17.9454 17.523H19.6919C20.0514 17.5232 20.4059 17.4389 20.7272 17.2767C21.0485 17.1146 21.3276 16.8791 21.5422 16.5891C21.7569 16.2991 21.9011 15.9626 21.9634 15.6066C22.0257 15.2505 22.0043 14.8847 21.901 14.5384L20.1487 8.64827C19.9908 8.12023 19.6681 7.65734 19.2283 7.32813C18.7884 6.99891 18.2549 6.82086 17.7067 6.82031C17.7067 6.82031 13.6916 9.83644 11.7882 9.83644C9.88474 9.83644 5.85481 6.82031 5.85481 6.82031C5.30666 6.8209 4.77327 6.99899 4.33359 7.32821C3.89391 7.65744 3.57131 8.12029 3.41356 8.64827L1.66131 14.5384C1.55798 14.8847 1.53661 15.2505 1.5989 15.6066C1.6612 15.9626 1.80543 16.2991 2.02008 16.5891C2.23474 16.8791 2.51385 17.1146 2.83513 17.2767C3.15641 17.4389 3.51095 17.5232 3.87042 17.523Z" fill="url(#paint0_linear_401_5794)"/>
<path d="M11.7854 9.53717C12.1225 9.53717 12.3439 8.95555 12.6942 8.12466C13.2436 6.81601 14.1746 6.81934 15.0206 6.81934H17.7097C19.6346 6.81934 20.1518 8.64729 20.1518 8.64729C19.5818 7.26303 17.5371 6.96142 16.6977 8.97965C16.007 10.6414 13.7517 15.7929 13.7517 15.7929C13.3097 16.8531 12.7074 17.4265 11.7846 17.4265C10.8618 17.4265 10.2587 16.8531 9.81674 15.7929C9.81674 15.7929 7.56137 10.6414 6.87072 8.97965C6.03135 6.96059 3.98665 7.2622 3.41661 8.64729C3.41661 8.64729 3.93295 6.81934 5.85869 6.81934H8.54696C9.39376 6.81934 10.3248 6.81934 10.8742 8.12466C11.222 8.95971 11.4434 9.53717 11.7854 9.53717Z" fill="white"/>
</g>
<defs>
<linearGradient id="paint0_linear_401_5794" x1="11.7816" y1="6.96239" x2="11.7816" y2="17.3867" gradientUnits="userSpaceOnUse">
<stop offset="0.09" stop-color="#BDBDBD"/>
<stop offset="0.3" stop-color="#CFCFCF"/>
<stop offset="0.49" stop-color="#DADADA"/>
<stop offset="0.72" stop-color="#DADADA"/>
<stop offset="1" stop-color="#BDBDBD"/>
</linearGradient>
<clipPath id="clip0_401_5794">
<rect width="20.4371" height="10.7052" fill="white" transform="translate(1.56274 6.81836)"/>
</clipPath>
</defs>
</svg>
