<svg width="24" height="24" viewBox="0 0 24 24" fill="none" xmlns="http://www.w3.org/2000/svg">
<rect width="24" height="24" rx="4" fill="#8D69F6"/>
<path d="M14.1527 8.50008L14.1482 6.88867L5.11383 8.03366C3.95921 8.17511 3.13 9.23506 3.27254 10.3881C3.41418 11.5412 4.47557 12.3692 5.63019 12.2269L14.2845 11.1625" fill="url(#paint0_linear_335_6167)"/>
<path d="M8.79468 7.61234L8.79916 5.23283L17.9913 4.01712C19.1459 3.87388 20.2082 4.70017 20.3507 5.85322C20.4942 7.00627 19.6668 8.06712 18.5121 8.20946L14.098 8.73853L14.0855 6.86751L8.79468 7.61234Z" fill="url(#paint1_linear_335_6167)"/>
<path d="M8.79279 7.27297L8.79727 5.17904L17.9921 4.01614C19.1467 3.8729 20.209 4.6992 20.3515 5.85225C20.495 7.0053 19.6676 8.06614 18.5129 8.20848L6.41811 9.69724L6.4199 12.3283" stroke="white" stroke-miterlimit="10" stroke-linecap="round" stroke-linejoin="round"/>
<path d="M14.1527 8.50008L14.1482 6.88867L5.11383 8.03366C3.95921 8.17511 3.13 9.23506 3.27254 10.3881C3.41418 11.5412 4.47557 12.3692 5.63019 12.2269L14.2845 11.1625" stroke="white" stroke-miterlimit="10" stroke-linecap="round" stroke-linejoin="round"/>
<path d="M20.3399 5.83105C20.4834 6.9841 19.656 8.04495 18.5013 8.18729L6.41815 9.69753L6.41098 18.6444L18.4995 17.1163C19.6542 16.973 20.4816 15.9131 20.3382 14.76L20.3579 14.8057L20.3516 5.85881" fill="url(#paint2_linear_335_6167)"/>
<path d="M20.3399 5.83105C20.4834 6.9841 19.656 8.04495 18.5013 8.18729L6.41815 9.69753L6.41098 18.6444L18.4995 17.1163C19.6542 16.973 20.4816 15.9131 20.3381 14.76L20.3579 14.8057L20.3516 5.85881" stroke="white" stroke-miterlimit="10" stroke-linecap="round" stroke-linejoin="round"/>
<path d="M20.6188 13.4771C20.4046 14.5657 19.7744 15.7206 18.4279 15.8638L7.90544 17.0965L7.90812 12.0528C7.92695 12.0555 7.94578 12.06 7.9646 12.0627C8.71761 12.1495 9.39981 11.6106 9.48676 10.8577C9.49214 10.8103 9.49483 10.7628 9.49483 10.7154L17.5243 9.71181C19.1451 9.51128 20.3113 8.90521 20.6206 8.06549L20.6125 6.79785C20.3938 8.07981 19.3692 8.84881 17.4463 9.08694L7.55403 10.3232C7.39625 10.3429 7.27792 10.4772 7.27792 10.6357L7.27434 17.4501C7.27434 17.5406 7.31288 17.6256 7.38012 17.6856C7.43839 17.7375 7.51279 17.7653 7.58989 17.7653C7.60244 17.7653 7.61409 17.7644 7.62664 17.7635L18.4987 16.4905C19.4472 16.3893 20.4781 15.5379 20.6215 14.8817L20.6188 13.4771Z" fill="white"/>
<path d="M3.27244 10.1082C3.41408 11.2612 4.47547 12.0893 5.63009 11.9469L17.8755 10.4134L17.8675 19.3424L5.62202 20.8714C4.4674 21.0129 3.40601 20.1857 3.26437 19.0327H3.26885L3.26347 10.0732L3.26706 10.1386" fill="url(#paint3_linear_335_6167)"/>
<path d="M3.27244 10.1082C3.41408 11.2612 4.47547 12.0893 5.63009 11.9469L17.8755 10.4134L17.8675 19.3424L5.62202 20.8714C4.4674 21.0129 3.40601 20.1857 3.26437 19.0327H3.26885L3.26347 10.0732L3.26706 10.1386" stroke="white" stroke-miterlimit="10" stroke-linecap="round" stroke-linejoin="round"/>
<path d="M16.9971 11.3453C16.929 11.2853 16.8393 11.2576 16.7497 11.2683L6.37063 12.5548C5.28952 12.6398 4.23172 12.3578 3.606 11.8198C3.30569 11.5611 3.10219 11.2567 3.00179 10.9111L3.00538 12.0436C3.05827 12.1313 3.10847 12.2226 3.19363 12.296C3.95471 12.9514 5.16312 13.2826 6.42711 13.1814C6.43159 13.1814 6.43607 13.1805 6.44056 13.1796L15.0913 12.1072C15.1128 12.8457 15.7179 13.4392 16.4628 13.4392C16.4655 13.4392 16.4673 13.4392 16.47 13.4392L16.4664 16.8572C15.743 16.8966 15.1683 17.4928 15.1683 18.2251C15.1683 18.2806 15.1728 18.3343 15.1791 18.3881L6.36526 19.4775C4.97935 19.5644 3.38457 19.0317 3.00538 17.3093L3 18.5026C3.44015 19.5223 4.74179 20.1167 6.06136 20.1167C6.177 20.1167 6.29533 20.1132 6.41546 20.1051C6.42173 20.1051 6.42801 20.1042 6.43338 20.1033L16.8187 18.8204C16.9765 18.8008 17.0948 18.6674 17.0957 18.508L17.1029 11.5808C17.1038 11.4912 17.0652 11.4053 16.9971 11.3453Z" fill="white"/>
<path d="M7.44722 18.3301V17.7589C7.18545 17.7893 6.90845 17.7813 6.67358 17.7338L6.78833 17.1922C7.02409 17.2245 7.32709 17.2397 7.63547 17.1869C8.07473 17.1108 8.13748 16.9971 8.13748 16.6712C8.13748 16.3453 8.11148 16.2934 7.5781 16.2576C6.78833 16.2012 6.6942 16.0284 6.6942 15.3704C6.6942 14.7751 6.91383 14.4546 7.57272 14.3024V13.7214L8.10072 13.6436V14.2228C8.29436 14.204 8.52923 14.1986 8.71748 14.2165L8.64935 14.7671C8.39834 14.7545 8.05321 14.7724 7.79683 14.8127C7.43646 14.8691 7.33157 14.9425 7.33157 15.2854C7.33157 15.6184 7.35219 15.6247 7.84972 15.6793C8.74437 15.7814 8.77575 15.9461 8.77575 16.5575C8.77575 17.1493 8.59825 17.4841 7.97074 17.6613V18.2352L7.44722 18.3301Z" fill="white"/>
<path opacity="0.7" d="M11.7852 17.2244L11.7574 16.8721C11.5974 16.9036 11.4261 16.9121 11.279 16.8942L11.3234 16.5545C11.4704 16.563 11.658 16.5576 11.8457 16.5101C12.1129 16.4418 12.1461 16.3686 12.1302 16.1676C12.1144 15.9666 12.0958 15.9359 11.765 15.9397C11.2751 15.9432 11.2086 15.8412 11.1766 15.4353C11.1476 15.0681 11.2675 14.8597 11.6665 14.7339L11.6383 14.3755L11.9602 14.3018L11.9884 14.6591C12.1069 14.6381 12.2515 14.6234 12.3685 14.6253L12.3533 14.9682C12.1978 14.9727 11.9858 15.0005 11.8296 15.0378C11.6101 15.09 11.549 15.1404 11.5656 15.3519C11.5819 15.5574 11.5949 15.5602 11.9044 15.5697C12.4613 15.5893 12.4886 15.6894 12.5184 16.0665C12.5472 16.4315 12.454 16.6467 12.0756 16.7865L12.1035 17.1405L11.7852 17.2244Z" fill="white"/>
<path opacity="0.4" d="M14.7225 16.0562L14.7177 15.8966C14.6448 15.9073 14.5674 15.9074 14.5013 15.8961L14.5288 15.7437C14.595 15.7508 14.6797 15.7525 14.7654 15.7351C14.8875 15.7101 14.9041 15.6778 14.9013 15.5868C14.8986 15.4957 14.8909 15.4814 14.7416 15.4759C14.5205 15.4668 14.4927 15.4193 14.4871 15.2354C14.4821 15.069 14.5408 14.9776 14.7236 14.9295L14.7186 14.7671L14.8655 14.7409L14.8704 14.9028C14.9243 14.8959 14.9899 14.8924 15.0426 14.8958L15.0283 15.0503C14.958 15.0489 14.8618 15.0568 14.7905 15.0702C14.6903 15.089 14.6616 15.1104 14.6645 15.2062C14.6673 15.2993 14.6731 15.3009 14.8126 15.312C15.0634 15.333 15.0735 15.3787 15.0787 15.5496C15.0837 15.715 15.0369 15.8101 14.8631 15.8649L14.868 16.0253L14.7225 16.0562Z" fill="white"/>
<defs>
<linearGradient id="paint0_linear_335_6167" x1="3.25659" y1="9.56575" x2="14.2845" y2="9.56575" gradientUnits="userSpaceOnUse">
<stop stop-color="#FF8C84"/>
<stop offset="1" stop-color="#FF9CAD"/>
</linearGradient>
<linearGradient id="paint1_linear_335_6167" x1="14.5808" y1="4.00098" x2="14.5808" y2="8.73853" gradientUnits="userSpaceOnUse">
<stop stop-color="#FFA6A5"/>
<stop offset="1" stop-color="#8555EA"/>
</linearGradient>
<linearGradient id="paint2_linear_335_6167" x1="13.3844" y1="5.83105" x2="13.3844" y2="18.6444" gradientUnits="userSpaceOnUse">
<stop stop-color="#FFA6A5"/>
<stop offset="1" stop-color="#8555EA"/>
</linearGradient>
<linearGradient id="paint3_linear_335_6167" x1="3.26347" y1="15.4802" x2="17.8755" y2="15.4802" gradientUnits="userSpaceOnUse">
<stop stop-color="#FFABA5"/>
<stop offset="1" stop-color="#FF7C92"/>
</linearGradient>
</defs>
</svg>
