<svg width="24" height="24" viewBox="0 0 24 24" fill="none" xmlns="http://www.w3.org/2000/svg">
<rect width="24" height="24" rx="4" fill="#FF8400"/>
<path d="M10.1847 6.82759C10.0883 6.82505 10.0147 6.74385 10.0197 6.64996C10.04 6.23635 10.1136 5.14269 10.3395 4.06172C10.7353 2.15859 11.3976 1.19434 12.3086 1.19434C13.2195 1.19434 13.8666 2.16112 14.2269 4.06425C14.4325 5.14523 14.4857 6.23889 14.4984 6.6525C14.501 6.74893 14.4248 6.82759 14.331 6.82759C14.2371 6.82759 14.1609 6.75401 14.1584 6.66266C14.1203 5.08687 13.7346 1.5369 12.3086 1.5369C10.88 1.5369 10.4283 5.09194 10.3598 6.66773C10.3547 6.75654 10.2786 6.83013 10.1847 6.82759Z" fill="white"/>
<path d="M18.155 19.9306H5.80496L7.50762 6.1875H16.4523L18.155 19.9306Z" fill="#D7D7D7"/>
<path d="M17.35 19.9306H5L6.70012 6.1875H15.6474L17.35 19.9306Z" fill="white"/>
<path d="M11.3095 16.4191C11.307 16.4191 11.3044 16.4191 11.3019 16.4191H11.279C10.5102 16.4166 9.78699 16.1171 9.24397 15.5716C8.70094 15.026 8.40405 14.3028 8.40405 13.534V13.5111C8.40659 11.9252 9.69818 10.6387 11.2841 10.6387C11.2867 10.6387 11.2892 10.6387 11.2917 10.6387H11.3146C12.903 10.6412 14.1921 11.9379 14.187 13.5238V13.5466C14.1845 14.3155 13.8851 15.0387 13.3395 15.5817C12.799 16.1222 12.0758 16.4191 11.3095 16.4191ZM11.3044 16.2212C11.307 16.2212 11.3095 16.2212 11.3095 16.2212C12.0225 16.2212 12.695 15.9446 13.2025 15.4396C13.71 14.9347 13.9916 14.2622 13.9916 13.5441V13.5213C13.9942 12.0419 12.7939 10.8366 11.3146 10.8315H11.2917C11.2892 10.8315 11.2867 10.8315 11.2867 10.8315C9.80982 10.8315 8.60706 12.0318 8.60452 13.5086V13.5314C8.60198 14.247 8.8811 14.922 9.38606 15.4295C9.89103 15.937 10.5635 16.2186 11.2816 16.2186L11.3044 16.2212Z" fill="#FF8400"/>
<path d="M11.3476 15.4465C11.3222 15.4465 11.2968 15.4363 11.2791 15.4185L9.88598 14.0178C9.67029 13.7996 9.55103 13.5129 9.55103 13.2033C9.55103 12.8963 9.67029 12.607 9.88852 12.3913C10.0788 12.201 10.3224 12.1096 10.5711 12.135C10.8528 12.1629 11.1268 12.338 11.3552 12.6298C11.5836 12.338 11.8602 12.1655 12.1418 12.1376C12.3905 12.1147 12.6316 12.2061 12.8219 12.3989C13.0376 12.6146 13.1568 12.9039 13.1543 13.2135C13.1543 13.5205 13.0325 13.8098 12.8168 14.0255L11.4161 15.4185C11.4009 15.4363 11.3755 15.4465 11.3476 15.4465Z" fill="#FF8400"/>
<path d="M9.39042 7.29753C9.62305 7.29753 9.81164 7.10894 9.81164 6.8763C9.81164 6.64367 9.62305 6.45508 9.39042 6.45508C9.15778 6.45508 8.96919 6.64367 8.96919 6.8763C8.96919 7.10894 9.15778 7.29753 9.39042 7.29753Z" fill="#FF8400"/>
<path d="M13.7068 7.29753C13.9395 7.29753 14.128 7.10894 14.128 6.8763C14.128 6.64367 13.9395 6.45508 13.7068 6.45508C13.4742 6.45508 13.2856 6.64367 13.2856 6.8763C13.2856 7.10894 13.4742 7.29753 13.7068 7.29753Z" fill="#FF8400"/>
<path d="M9.40036 6.82864C9.3014 6.8261 9.22527 6.74236 9.23034 6.6434C9.25064 6.21456 9.32676 5.08538 9.56021 3.96634C9.97129 1.99978 10.6564 1 11.5953 1C12.5392 1 13.2066 1.99977 13.5796 3.96887C13.7928 5.08791 13.8461 6.2171 13.8587 6.64594C13.8613 6.7449 13.7826 6.8261 13.6837 6.8261C13.5872 6.8261 13.5086 6.74998 13.506 6.65355C13.4654 5.02448 13.067 1.35271 11.5928 1.35271C10.1159 1.35271 9.64903 5.02955 9.57798 6.65863C9.57798 6.75505 9.49678 6.83118 9.40036 6.82864Z" fill="white"/>
</svg>
