<svg width="24" height="24" viewBox="0 0 24 24" fill="none" xmlns="http://www.w3.org/2000/svg">
<rect width="24" height="24" rx="4" fill="#27AE61"/>
<path d="M8.38625 17.5966C8.08545 17.5966 7.7914 17.5059 7.54132 17.336C7.29123 17.166 7.09634 16.9245 6.98131 16.6419C6.86627 16.3594 6.83626 16.0485 6.89506 15.7485C6.95387 15.4486 7.09885 15.1732 7.31167 14.9571C7.52448 14.7409 7.79557 14.5938 8.09063 14.5344C8.3857 14.4749 8.69148 14.5058 8.96929 14.623C9.2471 14.7403 9.48445 14.9387 9.65133 15.1931C9.81821 15.4476 9.90711 15.7466 9.90678 16.0524C9.90633 16.4621 9.74594 16.8549 9.46084 17.1444C9.17573 17.434 8.78923 17.5966 8.38625 17.5966ZM8.38625 15.4869C8.27623 15.4869 8.16869 15.5201 8.07722 15.5822C7.98574 15.6444 7.91444 15.7327 7.87234 15.836C7.83024 15.9394 7.81922 16.0531 7.84069 16.1628C7.86215 16.2725 7.91513 16.3732 7.99292 16.4523C8.07072 16.5314 8.16983 16.5853 8.27773 16.6071C8.38564 16.6289 8.49748 16.6177 8.59912 16.5749C8.70076 16.5321 8.78764 16.4596 8.84876 16.3666C8.90988 16.2736 8.9425 16.1643 8.9425 16.0524C8.9425 15.9025 8.8839 15.7586 8.77958 15.6526C8.67526 15.5465 8.53378 15.4869 8.38625 15.4869Z" fill="white"/>
<path d="M15.2284 17.5966C14.9176 17.5966 14.6138 17.5059 14.3553 17.336C14.0969 17.166 13.8955 16.9245 13.7767 16.6419C13.6578 16.3594 13.6268 16.0485 13.6875 15.7485C13.7483 15.4486 13.8981 15.1732 14.118 14.9571C14.3379 14.7409 14.6181 14.5938 14.923 14.5344C15.2279 14.4749 15.5438 14.5058 15.8309 14.623C16.118 14.7403 16.3632 14.9387 16.5357 15.1931C16.7081 15.4476 16.8 15.7466 16.7996 16.0524C16.7992 16.4621 16.6335 16.8549 16.3388 17.1444C16.0442 17.434 15.6448 17.5966 15.2284 17.5966ZM15.2284 15.4869C15.1148 15.4869 15.0036 15.5201 14.9091 15.5822C14.8146 15.6444 14.7409 15.7327 14.6974 15.836C14.6539 15.9394 14.6425 16.0531 14.6647 16.1628C14.6869 16.2725 14.7416 16.3732 14.822 16.4523C14.9024 16.5314 15.0048 16.5853 15.1163 16.6071C15.2278 16.6289 15.3434 16.6177 15.4484 16.5749C15.5534 16.5321 15.6432 16.4596 15.7064 16.3666C15.7695 16.2736 15.8032 16.1643 15.8032 16.0524C15.8032 15.9025 15.7427 15.7586 15.6349 15.6526C15.5271 15.5465 15.3809 15.4869 15.2284 15.4869Z" fill="white"/>
<path d="M19.5929 6.47225C18.9704 6.44652 18.3479 6.42078 17.7237 6.40534C17.0995 6.3899 16.4598 6.38304 15.8271 6.37446H14.8762L13.927 6.3899C13.2926 6.40877 12.6581 6.42936 12.0219 6.47911C12.6461 6.61292 13.272 6.71586 13.9031 6.82222L14.8437 6.96118L15.786 7.08814C16.4137 7.16362 17.0413 7.24253 17.6672 7.30601C18.0845 7.35061 18.5018 7.39007 18.9208 7.42781C18.8121 7.74487 18.6865 8.05584 18.5446 8.35937C17.2106 8.37195 15.8772 8.40912 14.5444 8.47088C12.8547 8.55494 11.1651 8.67503 9.4754 8.90492C11.1651 9.1348 12.8547 9.24803 14.5444 9.33724C15.6783 9.39213 16.8121 9.42473 17.946 9.44189C17.8981 9.51566 17.8519 9.58943 17.8023 9.66148C17.4743 10.1277 17.1039 10.5625 16.6958 10.9602C15.9263 10.9796 15.1567 11.0099 14.3871 11.0511C12.9574 11.1369 11.5293 11.2552 10.1013 11.4851C11.5217 11.702 12.9521 11.8468 14.3871 11.9192C14.7462 11.9397 15.1054 11.9552 15.4645 11.9689C14.6893 12.4867 13.8349 12.8739 12.9351 13.1149L12.5674 13.1938C12.4487 13.2239 12.3282 13.2463 12.2066 13.2607C11.9747 13.2976 11.7402 13.3159 11.5054 13.3156C11.0657 13.3219 10.63 13.2305 10.2296 13.048C9.85391 12.8715 9.53038 12.6002 9.2907 12.2606C9.0415 11.8986 8.86705 11.4903 8.77764 11.0597L8.74001 10.8881L8.71607 10.7166C8.70239 10.5982 8.68358 10.4918 8.67161 10.3494L8.59465 9.53796L8.4373 7.91675C8.41336 7.64398 8.37403 7.37978 8.36548 7.10015C8.34377 6.78811 8.30034 6.47798 8.2355 6.17203C8.10782 5.52173 7.85451 4.90279 7.48986 4.35009C7.28621 4.04681 7.03499 3.77858 6.74592 3.55579C6.45628 3.32341 6.11923 3.15778 5.75867 3.07061C5.39811 2.98345 5.02285 2.9769 4.65948 3.05142C4.41665 3.09447 4.18742 3.19455 3.99052 3.34348C3.79362 3.4924 3.63463 3.68595 3.52655 3.9083C3.41848 4.13065 3.36438 4.37549 3.36868 4.62282C3.37297 4.87015 3.43555 5.11296 3.55128 5.3314L4.31574 4.92481C4.60823 4.74673 4.95533 4.68148 5.29226 4.74125C5.61692 4.83548 5.89533 5.04692 6.07382 5.33483C6.31475 5.69913 6.48262 6.10703 6.56806 6.53572C6.6184 6.76579 6.65269 6.99911 6.67067 7.23396C6.68094 7.50159 6.7254 7.78122 6.75105 8.054L6.94088 9.70094L7.03837 10.5244C7.05034 10.6531 7.0777 10.8178 7.10164 10.9722L7.13927 11.2038L7.19571 11.4371C7.347 12.079 7.62943 12.6825 8.02515 13.2093C8.43834 13.7547 8.98504 14.1837 9.61221 14.4548C10.2176 14.7103 10.8713 14.8303 11.5276 14.8065C11.8394 14.7981 12.15 14.7642 12.4563 14.7052C12.6044 14.6805 12.7511 14.6478 12.8958 14.6074L13.3251 14.4959C14.4523 14.1495 15.5092 13.6046 16.4462 12.8867C17.3665 12.163 18.1556 11.2855 18.7789 10.2928C19.3891 9.30594 19.8296 8.2232 20.082 7.08985V7.06755C20.0913 7.02531 20.0953 6.9821 20.094 6.93888C20.0823 6.81292 20.0247 6.69571 19.9322 6.60963C19.8398 6.52356 19.719 6.47465 19.5929 6.47225Z" fill="white"/>
<path d="M2.78569 18.7807C2.78569 18.7807 12.1511 16.3143 22.6792 18.5009C22.6792 18.5009 12.3757 17.3767 2.00024 21.4993C1.99167 21.5062 2.20946 19.656 2.78569 18.7807Z" fill="white"/>
</svg>
