<svg width="24" height="24" viewBox="0 0 24 24" fill="none" xmlns="http://www.w3.org/2000/svg">
<rect width="24" height="24" rx="4" fill="#F59E0B"/>
<path fill-rule="evenodd" clip-rule="evenodd" d="M15.5513 4.26133L14.7483 7.43604H16.4421L16.8341 5.88681C16.8952 5.73473 17.0449 5.6267 17.2203 5.62548L19.1794 5.62628V5.62588C19.6329 5.62588 20.0001 5.26262 20.0001 4.81457C20.0001 4.36652 19.6324 4.00326 19.1794 4.00326V4.00245L16.2857 4.00163L16.2395 4H15.9375C15.7621 4.00163 15.6123 4.10926 15.5513 4.26133Z" fill="white"/>
<path fill-rule="evenodd" clip-rule="evenodd" d="M9.12587 18.4909C9.12587 17.713 8.52468 17.0693 7.75805 16.9906C7.70564 16.9853 7.65282 16.9824 7.5992 16.9824C7.55669 16.9824 7.51501 16.9841 7.47334 16.9873C6.82347 17.0395 6.28872 17.4941 6.12451 18.0983C6.09562 18.2051 6.07787 18.3168 6.07376 18.4322L6.07251 18.4909C6.07251 19.3238 6.75622 19.9998 7.5992 19.9998C7.65282 19.9998 7.70564 19.9969 7.75805 19.9916C8.50528 19.9145 9.09575 19.301 9.12504 18.5496L9.12587 18.4909Z" fill="white"/>
<path fill-rule="evenodd" clip-rule="evenodd" d="M12.6085 18.5502C12.6395 19.3562 13.3108 20.0003 14.1344 20.0003C14.188 20.0003 14.2408 19.9975 14.2932 19.9922C15.0599 19.9131 15.661 19.2698 15.661 18.4919C15.661 18.423 15.6565 18.3549 15.647 18.2884C15.6024 17.9631 15.4519 17.6704 15.2315 17.4449C15.0627 17.2725 14.8531 17.1396 14.6184 17.0613C14.5144 17.0266 14.4054 17.003 14.2932 16.9916C14.2408 16.9863 14.188 16.9834 14.1344 16.9834C14.0886 16.9834 14.0432 16.9854 13.9982 16.9895C13.6545 17.0197 13.3438 17.162 13.1032 17.3793C12.8924 17.5701 12.736 17.8188 12.6597 18.0997C12.632 18.202 12.6147 18.3084 12.6093 18.4177C12.6081 18.4425 12.6077 18.467 12.6077 18.4923L12.6085 18.5502Z" fill="white"/>
<path fill-rule="evenodd" clip-rule="evenodd" d="M7.54106 16.4233C6.60276 16.4233 5.81096 15.802 5.56463 14.9528L5.46808 14.5716L5.30592 13.9298L4.01031 8.80963C4.00329 8.76642 4 8.72158 4 8.67631C4 8.20054 4.39073 7.81445 4.87227 7.81445H9.7114H10.1574H15.443C15.6576 7.81445 15.854 7.89069 16.0058 8.01749C16.1952 8.17568 16.3157 8.41213 16.3157 8.67631C16.3157 8.72158 16.3124 8.76642 16.3054 8.80963L15.1274 13.4659L15.0098 13.9298L14.8476 14.5716L14.7511 14.9528C14.5295 15.7164 13.8668 16.2957 13.0532 16.4045L12.7552 15.8374L12.7305 15.7902L12.5687 15.4824L12.3822 15.1276C12.3645 15.0938 12.3624 15.0539 12.3769 15.0184C12.3913 14.9829 12.4206 14.9556 12.4574 14.9434L13.6766 14.5381L13.8747 14.4725L11.5624 12.9587C11.9927 12.3182 11.9201 11.4462 11.347 10.8844C10.6951 10.2455 9.64167 10.2496 8.9951 10.8938C8.34853 11.5379 8.35266 12.5788 9.00459 13.2176C9.32726 13.5336 9.7477 13.6922 10.169 13.6938L10.1574 16.4347H9.7114H9.66148L7.54106 16.4233ZM10.1578 16.4347C10.1578 16.4347 11.8817 16.4278 11.9688 16.4274L11.8974 16.2912L11.6651 15.8493L11.5261 15.5843C11.5079 15.5504 11.4753 15.526 11.437 15.5182C11.4324 15.5174 11.4283 15.5166 11.4237 15.5162C11.3899 15.5125 11.3557 15.5219 11.3284 15.5427L10.1578 16.4347ZM10.1706 13.3672L10.176 12.0508L10.6373 12.3529L11.2868 12.7781C11.6317 12.2648 11.5735 11.566 11.1143 11.116C10.5919 10.6039 9.7477 10.6076 9.22988 11.1237C8.71163 11.6398 8.71535 12.474 9.23771 12.9856C9.49601 13.2388 9.83313 13.366 10.1706 13.3672Z" fill="white"/>
<path fill-rule="evenodd" clip-rule="evenodd" d="M9.71204 8.10181H4.8725V8.10059C4.71158 8.10059 4.56592 8.1654 4.45946 8.26978L4.45987 8.27019C4.35425 8.37455 4.28906 8.51846 4.28906 8.67746C4.28906 8.69581 4.28947 8.71132 4.29071 8.72355C4.29153 8.73495 4.29235 8.74433 4.29317 8.75167C5.19597 12.3202 5.43696 14.353 9.93484 14.353C10.0124 14.353 10.0896 14.3517 10.1667 14.3497L10.1696 13.6945C9.74875 13.6929 9.3279 13.5343 9.00524 13.2183C8.3533 12.5795 8.34876 11.5391 8.99574 10.8945C9.64231 10.2504 10.6953 10.2459 11.3476 10.8851C11.9208 11.4469 11.9934 12.3194 11.563 12.9595L12.8388 13.7948C15.4985 12.7263 15.3805 11.2912 16.023 8.75207C16.0238 8.74433 16.0246 8.73495 16.0255 8.72355C16.0263 8.71132 16.0267 8.69581 16.0267 8.67746H16.0279C16.0279 8.59144 16.0081 8.50909 15.973 8.43448C15.9372 8.35824 15.8847 8.29097 15.82 8.23675C15.768 8.19354 15.709 8.15888 15.645 8.13605C15.5835 8.11404 15.5159 8.10181 15.4437 8.10181H10.1581H9.71204ZM11.1145 11.1175C11.5737 11.5676 11.6319 12.2668 11.287 12.7797L10.6375 12.3545L10.1762 12.0523L10.1709 13.3688C9.83336 13.3676 9.49624 13.2404 9.23794 12.9872C8.71558 12.4751 8.71186 11.6414 9.23011 11.1252C9.74834 10.6087 10.5921 10.6054 11.1145 11.1175Z" fill="white"/>
</svg>
