<svg width="219" height="63" viewBox="0 0 219 63" fill="none" xmlns="http://www.w3.org/2000/svg">
<g clip-path="url(#clip0_301_2039)">
<path d="M212.622 22.7336V18.754H211.271V18.2159H214.525V18.754H213.161V22.7336H212.622Z" fill="#231F20"/>
<path d="M215.069 22.7336V18.2159H215.889L216.864 21.4099L217.058 22.0803C217.106 21.9138 217.175 21.6533 217.278 21.3587L218.262 18.2159H219V22.7336H218.469V18.9205L217.274 22.7336H216.782L215.599 18.8906V22.7336H215.069Z" fill="#231F20"/>
<path d="M103.961 60.6088C96.9009 56.5864 99.1623 40.4799 109.019 24.6295C118.876 8.77917 132.595 -0.802787 139.659 3.21531C144.212 5.81149 144.864 13.4634 142.128 22.7849C145.502 12.43 145.101 3.91987 140.276 1.17424C133.056 -2.92926 118.725 7.3786 108.259 24.2025C97.7943 41.0264 95.1661 57.9912 102.382 62.099C107.219 64.8532 115.246 61.1084 123.17 53.2857C115.876 60.0878 108.527 63.2007 103.961 60.6088Z" fill="#F37121"/>
<path d="M68.3795 8.71084C68.3795 10.7519 67.3726 12.5567 65.3586 14.1252C63.3183 15.7014 60.7915 16.5338 58.2035 16.4823C56.0745 16.4823 53.465 15.9129 50.3751 14.7743C50.4269 15.5984 50.5046 16.3713 50.5995 17.0972C50.9059 18.7497 51.3116 19.9325 51.8165 20.6584C52.2949 21.0558 52.8338 21.3757 53.4133 21.6063C54.3224 22.0362 54.7784 22.5187 54.7813 23.0539C54.7813 23.5406 54.4835 23.831 53.8664 23.9079C52.8566 24.0531 51.8467 23.5022 50.8455 22.2383C49.7901 21.6975 48.616 21.4232 47.4276 21.4398C44.4413 21.4398 41.7081 22.6753 39.2281 25.1462C37.9082 26.3934 36.8631 27.8971 36.1584 29.5629C35.4536 31.2287 35.1044 33.0207 35.1327 34.8263C35.1327 38.7491 36.3195 42.1195 38.693 44.9378C41.0665 47.756 43.9436 49.1608 47.3241 49.1523C51.8352 49.2024 56.1816 47.4775 59.4075 44.357C62.8197 41.1631 64.5257 37.4083 64.5257 33.0927C64.5257 30.821 63.9173 28.9636 62.7089 27.5417C62.1167 26.8421 61.3705 26.286 60.5274 25.9159C59.6844 25.5458 58.7669 25.3716 57.8453 25.4066C54.7525 25.4066 51.9158 26.645 49.3351 29.1216C46.7458 31.5982 45.4511 34.1687 45.4511 36.8076C45.4067 38.331 45.9658 39.8113 47.009 40.9325C47.4798 41.4591 48.0595 41.8795 48.7087 42.1654C49.3579 42.4512 50.0616 42.5958 50.7722 42.5892C54.0146 42.5892 56.2946 40.8812 57.6123 37.4652C58.4149 35.2932 58.8013 32.9922 58.7516 30.6801H59.6622C59.8973 33.3524 59.4522 36.0403 58.3675 38.4986C56.8484 41.9146 54.3123 43.6226 50.7592 43.6226C49.8962 43.6412 49.0395 43.4727 48.2493 43.129C47.459 42.7852 46.7544 42.2745 46.1848 41.6328C44.9705 40.319 44.3165 38.5917 44.3593 36.8119C44.3593 33.8229 45.7662 30.9833 48.5842 28.3316C51.4022 25.6799 54.4965 24.3349 57.8496 24.3349C58.9097 24.3021 59.9637 24.5044 60.9345 24.927C61.9052 25.3496 62.7681 25.9819 63.4598 26.7773C64.8983 28.3999 65.6176 30.4965 65.6176 33.0671C65.6176 37.8296 63.782 41.9174 60.111 45.3306C56.4399 48.7438 52.1718 50.4518 47.3068 50.4546C41.1759 50.4546 36.3382 48.9004 32.7937 45.7918C29.4966 42.8853 27.851 39.0537 27.8567 34.2968C27.8567 29.6368 29.4506 25.8023 32.6383 22.7934C36.1397 19.5396 40.8278 18.1319 46.7026 18.5703C45.8216 17.2807 45.1055 15.888 44.5708 14.4241C44.1133 13.0663 43.8587 12.3574 43.8112 12.3105C39.1383 11.4937 34.4056 11.0567 29.6606 11.0038C21.1418 11.0038 14.1693 12.5567 8.74326 15.6624C3.52722 18.6999 0.920645 22.3764 0.923522 26.6919C1.0195 27.4113 1.19312 28.1185 1.44139 28.8013C1.60923 29.4519 1.83898 30.0853 2.12755 30.6929L1.21698 31.2779C0.438227 29.9017 0.0198647 28.3545 0 26.7773C0 22.0888 2.68426 18.1718 8.05277 15.0262C13.6227 11.7867 20.8411 10.1669 29.7081 10.1669C32.6426 10.1669 37.3523 10.5199 43.8371 11.2259C45.4598 3.74479 50.2457 0.0014026 58.1949 -0.00429077C60.8351 -0.0585996 63.3986 0.876352 65.3716 2.61323C67.3783 4.3554 68.3795 6.39221 68.3795 8.71084ZM67.4646 8.71084C67.4679 7.88328 67.289 7.06493 66.9402 6.31275C66.5914 5.56058 66.0812 4.89264 65.445 4.3554C64.1317 3.16071 62.4039 2.51234 60.6202 2.54492C57.8266 2.54492 55.3164 3.65796 53.0896 5.88407C51.1174 7.9593 50.1248 9.99611 50.1248 11.9774C50.1078 12.4787 50.2129 12.9766 50.4312 13.4292C52.7651 14.8566 55.4554 15.6109 58.1992 15.6069C60.9899 15.6069 63.234 14.9664 64.9314 13.6854C65.73 13.122 66.378 12.3746 66.8194 11.5079C67.2607 10.6412 67.4822 9.6812 67.4646 8.71084Z" fill="#0071BC"/>
<path d="M68.9795 25.4109H74.0546V34.1005C74.0376 35.1163 74.0909 36.1321 74.2142 37.1407C74.2772 37.6898 74.4426 38.2226 74.7019 38.7121C74.9324 39.0775 75.2475 39.3834 75.6211 39.6045C76.1269 39.8715 76.6973 39.9956 77.2696 39.9632C77.7137 39.9598 78.1531 39.8729 78.5643 39.707C79.0752 39.4763 79.5492 39.1727 79.9711 38.806C80.4211 38.454 80.7977 38.0189 81.0802 37.525C81.3116 37.0684 81.4258 36.5625 81.4125 36.0519V29.6468C81.4209 29.1552 81.4036 28.6635 81.3607 28.1737C81.3392 27.9021 81.2797 27.6348 81.1838 27.3794C81.1116 27.2024 81.0111 27.038 80.886 26.8927C80.7459 26.7492 80.5807 26.632 80.3984 26.5468C80.0744 26.4071 79.7377 26.2985 79.3929 26.2223V25.4109H84.4852V37.1279C84.4852 38.0161 84.4852 38.6523 84.537 39.0366C84.5525 39.3581 84.6332 39.6732 84.7743 39.9632C84.8976 40.1992 85.0901 40.3927 85.3267 40.5183C85.7509 40.7277 86.205 40.8717 86.6731 40.9453V41.7737L82.5777 41.9488H81.4902L81.5938 39.122L81.3262 39.0537C80.5007 39.9486 79.5416 40.7133 78.4823 41.3211C77.6493 41.7817 76.7134 42.0297 75.7592 42.0427C74.8224 42.0768 73.8932 41.8647 73.0663 41.4278C72.3477 41.0031 71.7921 40.3543 71.4868 39.5832C71.092 38.4796 70.9161 37.311 70.969 36.1415V29.6554C70.9876 28.9957 70.9486 28.3356 70.8524 27.6826C70.7936 27.3631 70.6439 27.0669 70.4209 26.8286C69.9906 26.5279 69.4983 26.3252 68.9795 26.2351V25.4109Z" fill="#231F20"/>
<path d="M94.4842 28.2761L94.7345 28.3274C95.2845 27.6672 95.8988 27.0622 96.5686 26.5211C97.1172 26.0854 97.7338 25.7407 98.3941 25.5006C99.1055 25.2493 99.8571 25.1277 100.612 25.1419C101.242 25.137 101.872 25.1698 102.498 25.2401V29.1728H100.483C100.272 28.6696 99.9596 28.2146 99.5636 27.8363C99.1871 27.5369 98.7125 27.3849 98.2301 27.4093C97.7738 27.4153 97.3271 27.5405 96.9355 27.7723C96.4667 28.047 96.048 28.3977 95.6969 28.8099C95.354 29.1883 95.0782 29.6214 94.8813 30.0909C94.7221 30.5436 94.6461 31.0208 94.6569 31.5V37.478C94.6227 38.1954 94.6895 38.9139 94.8554 39.6131C94.959 39.9674 95.191 40.2714 95.507 40.4671C95.936 40.6869 96.4004 40.8314 96.8793 40.8941V41.7224H89.6767V40.8941C90.0119 40.8015 90.3383 40.6801 90.652 40.5311C90.8532 40.4302 91.0276 40.2839 91.1613 40.1041C91.3366 39.8487 91.449 39.5562 91.4893 39.2501C91.5721 38.6631 91.6067 38.0705 91.5928 37.478V30.0183C91.5928 29.2881 91.5928 28.6946 91.5583 28.2462C91.5518 27.8756 91.4665 27.5104 91.308 27.1745C91.1651 26.9056 90.9337 26.6932 90.652 26.5724C90.2527 26.4108 89.8355 26.2962 89.4092 26.2308V25.4109L93.5909 25.2316H94.6828L94.4842 28.2761Z" fill="#231F20"/>
<path d="M113.408 42.0213C111.169 42.0213 109.461 41.3225 108.281 39.9247C107.101 38.527 106.513 36.4646 106.516 33.7375C106.467 32.1022 106.784 30.4764 107.444 28.9764C107.974 27.7803 108.861 26.7731 109.986 26.0898C111.102 25.4478 112.375 25.12 113.667 25.1419C115.967 25.1419 117.715 25.8507 118.897 27.2769C120.08 28.7031 120.671 30.7271 120.671 33.3788C120.721 35.0159 120.418 36.6448 119.782 38.1569C119.268 39.3617 118.389 40.3791 117.266 41.0691C116.091 41.7266 114.757 42.0557 113.408 42.0213ZM109.524 33.3788C109.524 35.7216 109.881 37.5207 110.594 38.7761C110.868 39.3455 111.301 39.8255 111.841 40.1592C112.382 40.493 113.008 40.6664 113.645 40.6592C114.316 40.6815 114.976 40.4849 115.522 40.0998C116.052 39.71 116.48 39.2005 116.77 38.6138C117.108 37.9288 117.34 37.1977 117.46 36.4447C117.603 35.598 117.673 34.741 117.672 33.8826C117.705 32.4779 117.526 31.076 117.141 29.7236C116.897 28.7972 116.398 27.956 115.699 27.294C115.124 26.7912 114.382 26.516 113.615 26.5211C112.993 26.509 112.379 26.6703 111.845 26.9866C111.311 27.303 110.877 27.7617 110.594 28.3103C109.883 29.4859 109.528 31.1755 109.528 33.3788H109.524Z" fill="#231F20"/>
<path d="M128.745 25.4109V26.2351C128.381 26.3158 128.027 26.439 127.692 26.6023C127.501 26.6994 127.341 26.8473 127.23 27.0293C127.117 27.2604 127.064 27.5157 127.075 27.7723C127.077 28.0982 127.113 28.4231 127.183 28.7416C127.27 29.1365 127.381 29.5258 127.515 29.9073L130.32 38.5626L133.596 30.2617C133.774 29.8228 133.926 29.3737 134.049 28.9166C134.128 28.5921 134.17 28.2598 134.174 27.926C134.204 27.5267 134.075 27.1316 133.816 26.8243C133.436 26.5083 132.977 26.299 132.487 26.218V25.4109H138.494V26.2351C138.142 26.3006 137.811 26.4469 137.527 26.6621C137.251 26.9179 137.024 27.2201 136.854 27.5545C136.634 27.9602 136.362 28.5281 136.051 29.2625L130.627 41.9274H128.728L124.348 29.1515C124.153 28.5327 123.912 27.929 123.627 27.3453C123.487 27.064 123.288 26.8151 123.044 26.6151C122.771 26.4258 122.461 26.2949 122.134 26.2308V25.4109H128.745Z" fill="#231F20"/>
<path d="M142.663 40.924C143.004 40.8334 143.336 40.7119 143.655 40.561C143.854 40.46 144.026 40.3137 144.156 40.134C144.323 39.8751 144.434 39.5841 144.479 39.28C144.57 38.6966 144.609 38.1066 144.596 37.5165V30.108C144.596 29.3735 144.596 28.7885 144.561 28.3487C144.554 27.9777 144.467 27.6125 144.307 27.2769C144.165 27.0096 143.935 26.7985 143.655 26.6791C143.255 26.5174 142.836 26.4042 142.408 26.3418V25.4109L146.577 25.2316H147.664V37.4866C147.64 38.17 147.688 38.854 147.807 39.5277C147.879 39.8745 148.073 40.1847 148.355 40.403C148.755 40.6599 149.202 40.8382 149.671 40.9282V41.7566H142.663V40.924ZM147.841 18.6558V21.9949H144.492V18.6686L147.841 18.6558Z" fill="#231F20"/>
<path d="M164.926 29.1728H163.179C162.975 28.5838 162.662 28.0377 162.255 27.563C161.927 27.1912 161.51 26.9064 161.042 26.7347C160.505 26.5666 159.944 26.4872 159.381 26.4998C158.573 26.4584 157.775 26.6837 157.111 27.1403C156.835 27.3387 156.612 27.6007 156.462 27.9035C156.312 28.2064 156.238 28.5409 156.248 28.8782C156.235 29.3282 156.352 29.7725 156.585 30.1592C156.866 30.5479 157.228 30.8726 157.646 31.1114C158.453 31.5654 159.295 31.958 160.162 32.2857C161.138 32.6703 162.08 33.133 162.98 33.6692C163.594 34.0473 164.121 34.5475 164.529 35.1381C164.918 35.7307 165.115 36.4261 165.095 37.1322C165.118 37.9166 164.953 38.6954 164.611 39.4038C164.294 40.0118 163.824 40.5292 163.248 40.9069C162.61 41.321 161.898 41.6109 161.15 41.7609C160.28 41.9397 159.394 42.027 158.505 42.0214C157.527 42.0206 156.551 41.9492 155.583 41.8078C154.634 41.6598 153.71 41.4734 152.813 41.2485V37.6745H154.539C154.757 38.5656 155.26 39.3636 155.972 39.9504C156.742 40.4634 157.66 40.7124 158.587 40.6592C159.012 40.6617 159.436 40.6187 159.851 40.5311C160.241 40.4543 160.613 40.3097 160.952 40.1041C161.275 39.9079 161.54 39.631 161.72 39.3013C161.923 38.8783 162.022 38.414 162.01 37.946C161.998 37.478 161.875 37.0193 161.651 36.607C161.359 36.199 160.978 35.8606 160.538 35.6163C159.687 35.1457 158.803 34.7375 157.892 34.3951C156.983 34.0464 156.108 33.6177 155.277 33.1141C154.661 32.7472 154.133 32.2535 153.728 31.6665C153.342 31.0775 153.147 30.3866 153.167 29.6852C153.145 28.807 153.428 27.948 153.969 27.2513C154.567 26.5159 155.367 25.9684 156.274 25.6757C157.415 25.291 158.616 25.106 159.821 25.1291C160.588 25.1251 161.354 25.1607 162.117 25.2359C162.855 25.3127 163.778 25.4579 164.896 25.6629L164.926 29.1728Z" fill="#231F20"/>
<path d="M168.603 40.924C168.946 40.834 169.28 40.7125 169.6 40.561C169.8 40.459 169.972 40.3129 170.105 40.134C170.271 39.875 170.378 39.5838 170.42 39.28C170.515 38.6971 170.555 38.1067 170.541 37.5165V30.108C170.541 29.3735 170.541 28.7885 170.502 28.3487C170.498 27.9778 170.413 27.6121 170.252 27.2769C170.109 27.0105 169.88 26.7997 169.6 26.6791C169.201 26.5179 168.784 26.4047 168.357 26.3418V25.4109L172.518 25.2316H173.609V37.4866C173.584 38.1702 173.633 38.8545 173.756 39.5277C173.829 39.8733 174.021 40.183 174.3 40.403C174.702 40.6605 175.15 40.8389 175.62 40.9282V41.7566H168.603V40.924ZM173.782 18.6558V21.9949H170.438V18.6686L173.782 18.6558Z" fill="#231F20"/>
<path d="M186.603 42.0214C184.118 42.0214 182.22 41.3225 180.911 39.9248C179.617 38.5327 178.948 36.4703 178.948 33.7375C178.895 32.0911 179.249 30.457 179.979 28.9764C180.599 27.751 181.584 26.7434 182.801 26.0899C184.064 25.4419 185.47 25.1161 186.893 25.1419C189.447 25.1419 191.382 25.8536 192.697 27.2769C194.012 28.7003 194.669 30.7343 194.669 33.3788C194.722 35.0261 194.384 36.6628 193.681 38.157C193.084 39.3947 192.107 40.414 190.889 41.0691C189.562 41.7323 188.089 42.0594 186.603 42.0214ZM182.288 33.3788C182.288 35.7216 182.682 37.5207 183.47 38.7761C183.81 39.365 184.305 39.8513 184.902 40.183C185.5 40.5148 186.177 40.6794 186.862 40.6592C187.591 40.6807 188.309 40.4859 188.925 40.0998C189.503 39.724 189.978 39.2138 190.31 38.6139C190.686 37.9373 190.947 37.2046 191.083 36.4447C191.239 35.5995 191.317 34.7419 191.316 33.8827C191.354 32.4734 191.154 31.0678 190.725 29.7237C190.441 28.7772 189.884 27.933 189.124 27.294C188.464 26.7829 187.648 26.5102 186.811 26.5212C186.141 26.4964 185.476 26.6492 184.886 26.9638C184.296 27.2783 183.801 27.7432 183.453 28.3103C182.682 29.486 182.297 31.1755 182.297 33.3788H182.288Z" fill="#231F20"/>
<path d="M215.681 41.7523H208.63V40.9239C208.974 40.832 209.311 40.712 209.635 40.5652C209.837 40.4651 210.012 40.3187 210.145 40.1382C210.312 39.8791 210.422 39.5882 210.468 39.2842C210.56 38.711 210.599 38.1308 210.585 37.5506V33.097C210.585 32.2985 210.585 31.5683 210.516 30.9278C210.486 30.3878 210.405 29.8517 210.274 29.3265C210.181 28.9836 210.035 28.6567 209.843 28.3572C209.524 27.8854 209.052 27.5357 208.505 27.3666C208.139 27.2547 207.757 27.2028 207.374 27.2129C206.919 27.213 206.468 27.3046 206.049 27.4819C205.548 27.7167 205.087 28.0264 204.681 28.3999C204.244 28.7587 203.875 29.1927 203.594 29.6809C203.359 30.1274 203.241 30.6253 203.253 31.1285V37.4994C203.227 38.1828 203.274 38.867 203.395 39.5404C203.468 39.88 203.661 40.1828 203.939 40.3944C204.341 40.6511 204.789 40.8294 205.259 40.9197V41.748H198.247V40.9197C198.589 40.8307 198.921 40.7091 199.239 40.5567C199.438 40.4557 199.61 40.3094 199.74 40.1297C199.911 39.8727 200.022 39.5808 200.064 39.2757C200.158 38.6928 200.199 38.1024 200.184 37.5122V30.1079C200.184 29.3735 200.184 28.7885 200.146 28.3487C200.139 27.978 200.054 27.6129 199.895 27.2769C199.753 27.0084 199.521 26.7971 199.239 26.6791C198.842 26.5172 198.426 26.4039 198.001 26.3418V25.4109L202.182 25.2316H203.266L203.071 28.0583L203.322 28.1309C203.984 27.4576 204.706 26.8445 205.48 26.2991C205.989 25.9466 206.541 25.6597 207.124 25.4451C207.69 25.2427 208.287 25.1415 208.889 25.1462C209.471 25.1401 210.051 25.2105 210.615 25.3554C211.104 25.4858 211.561 25.7107 211.961 26.0173C212.352 26.3161 212.677 26.6911 212.915 27.1189C213.187 27.6127 213.378 28.146 213.481 28.6988C213.62 29.4724 213.683 30.2574 213.67 31.0431V37.4908C213.658 38.061 213.681 38.6315 213.739 39.1988C213.766 39.4875 213.851 39.7679 213.99 40.023C214.12 40.2229 214.298 40.3885 214.508 40.5055C214.884 40.6965 215.282 40.84 215.694 40.9325L215.681 41.7523Z" fill="#231F20"/>
</g>
<defs>
<clipPath id="clip0_301_2039">
<rect width="219" height="63" fill="white"/>
</clipPath>
</defs>
</svg>
