<svg width="96" height="60" viewBox="0 0 96 60" fill="none" xmlns="http://www.w3.org/2000/svg">
<path d="M95.0751 59.4725C95.1116 59.4957 95.1352 59.5345 95.139 59.5775C95.1463 59.6593 95.0816 59.7296 94.9995 59.729L90.0493 59.6973C89.2961 59.6924 88.5595 59.475 87.9244 59.0701L56.7274 39.1778L53.9842 37.4316L53.846 37.3513L51.0831 35.5851L49.4055 34.5013L46.3465 32.5545L43.5243 30.7682L43.1099 30.5073L41.3534 29.3632L40.6429 28.9217L32.9263 24.0044L28.3477 21.0741L2.73693 4.75231C2.09389 4.3425 1.70459 3.63275 1.70459 2.87023V0.0716892C1.70459 0.0353324 1.73883 0.00870602 1.77407 0.0176645C1.78033 0.0192564 1.78627 0.0219247 1.79161 0.0255502L1.96115 0.140494L34.8209 21.0741L39.3996 24.0044L40.6429 24.8072L43.5243 26.6336L44.5901 27.316L46.3465 28.44L49.5832 30.5073L53.846 33.2168L54.3197 33.5179L55.8788 34.5013L56.7274 35.0432L60.4575 37.4316L95.0751 59.4725Z" fill="#D63932"/>
<path d="M94.8701 0.896744C95.0417 1.16308 95.1329 1.4732 95.1329 1.79003V5.31109C95.1329 6.6785 94.4344 7.95116 93.2809 8.68545L73.8185 21.0742L69.2596 24.0045L59.0563 30.5074L56.7275 31.9926L54.3197 33.518L53.8461 33.819L52.7606 34.5014L51.0831 35.5853L49.3266 36.7092L48.1819 37.4317L43.5243 40.4022L40.6429 42.2286L14.2335 59.063C13.5912 59.4725 12.8452 59.69 12.0835 59.69H4.95747C3.16096 59.69 1.70459 58.2337 1.70459 56.4371C1.70459 55.3254 2.27234 54.2907 3.21002 53.6935L28.7424 37.4317L33.3013 34.5014L39.5969 30.5074L40.6429 29.825L41.3534 29.3634L43.5243 27.9986L44.5901 27.3162L49.3266 24.3056L49.7805 24.0045L53.8461 21.4154L54.3592 21.0742L56.7275 19.589L86.235 0.76822C86.8776 0.358367 87.6239 0.140625 88.386 0.140625H93.4835C94.0442 0.140625 94.5665 0.425426 94.8701 0.896744Z" fill="#FCF5FF"/>
<path d="M94.8764 1.62585L64.3454 21.0742L59.7667 24.0045L56.7275 25.9514L54.3197 27.4767L53.8461 27.7778L49.5832 30.5074L46.3465 32.5546L44.5901 33.6786L43.5243 34.361L43.3072 34.5014L40.6429 36.2074L38.7286 37.4317L4.19479 59.4363C3.93472 59.602 3.63275 59.69 3.32437 59.69C2.42979 59.69 1.70459 58.9648 1.70459 58.0702V57.901C1.70459 57.2901 2.01637 56.7214 2.53145 56.3928L32.2553 37.4317L36.834 34.5014L40.6429 32.0729L41.3534 31.6314L43.1099 30.5074L43.5243 30.2264L46.3465 28.4401L51.0831 25.4095L53.2935 24.0045L53.8461 23.6633L56.7275 21.8168L57.8721 21.0742L89.7486 0.76704C90.3908 0.357941 91.1364 0.140625 91.8978 0.140625H93.9685H94.274C94.7484 0.140625 95.1329 0.525161 95.1329 0.99951V1.13144C95.1329 1.32817 95.0372 1.51259 94.8764 1.62585Z" fill="#D63932"/>
<path d="M91.172 21.0737H5.62524C3.41611 21.0737 1.62524 22.8646 1.62524 25.0737V33.4112C1.62524 35.6203 3.4161 37.4112 5.62524 37.4112H91.172C93.3811 37.4112 95.172 35.6203 95.172 33.4112V25.0737C95.172 22.8646 93.3811 21.0737 91.172 21.0737Z" fill="white"/>
<path d="M91.172 24.0044H5.62524C3.41611 24.0044 1.62524 25.7953 1.62524 28.0044V30.5214C1.62524 32.7305 3.4161 34.5214 5.62524 34.5214H91.172C93.3811 34.5214 95.172 32.7305 95.172 30.5214V28.0044C95.172 25.7953 93.3811 24.0044 91.172 24.0044Z" fill="#D63932"/>
<path d="M53.8257 36.0009C53.8257 36.7911 54.4663 37.4317 55.2565 37.4317C56.0467 37.4317 56.6873 38.0724 56.6873 38.8626V55.69C56.6873 57.8991 54.8965 59.69 52.6873 59.69H44.6226C42.4134 59.69 40.6226 57.8992 40.6226 55.69V38.8724C40.6226 38.0768 41.2676 37.4317 42.0633 37.4317C42.8589 37.4317 43.504 36.7867 43.504 35.9911V22.5149C43.504 21.7193 42.8589 21.0742 42.0633 21.0742C41.2676 21.0742 40.6226 20.4292 40.6226 19.6335V4.14063C40.6226 1.93149 42.4134 0.140625 44.6226 0.140625H52.6873C54.8965 0.140625 56.6873 1.93149 56.6873 4.14062V19.6434C56.6873 20.4336 56.0467 21.0742 55.2565 21.0742C54.4663 21.0742 53.8257 21.7148 53.8257 22.5051V36.0009Z" fill="white"/>
<path d="M49.8854 0.140625H47.4453C45.2362 0.140625 43.4453 1.93149 43.4453 4.14063V55.7101C43.4453 57.9192 45.2362 59.7101 47.4453 59.7101H49.8854C52.0946 59.7101 53.8854 57.9192 53.8854 55.7101V4.14062C53.8854 1.93149 52.0946 0.140625 49.8854 0.140625Z" fill="#D63932"/>
<g clip-path="url(#clip0_145_5532)">
<path d="M94.9125 0H0.827881V4.60267H94.9125V0Z" fill="#D0262B"/>
<path d="M94.9125 4.60254H0.827881V9.22189H94.9125V4.60254Z" fill="#FEFEFE"/>
<path d="M94.9125 9.22217H0.827881V13.8415H94.9125V9.22217Z" fill="#D0262B"/>
<path d="M94.9125 13.8408H0.827881V18.4602H94.9125V13.8408Z" fill="#FEFEFE"/>
<path d="M94.9125 18.4604H0.827881V23.0798H94.9125V18.4604Z" fill="#D0262B"/>
<path d="M94.9125 23.0796H0.827881V27.6989H94.9125V23.0796Z" fill="#FEFEFE"/>
<path d="M94.9125 27.6982H0.827881V32.3009H94.9125V27.6982Z" fill="#D0262B"/>
<path d="M94.9125 32.3013H0.827881V36.9206H94.9125V32.3013Z" fill="#FEFEFE"/>
<path d="M94.9125 36.9204H0.827881V41.5398H94.9125V36.9204Z" fill="#D0262B"/>
<path d="M94.9125 41.5396H0.827881V46.1589H94.9125V41.5396Z" fill="#FEFEFE"/>
<path d="M94.9125 46.1592H0.827881V50.7785H94.9125V46.1592Z" fill="#D0262B"/>
<path d="M94.9125 50.7778H0.827881V55.3972H94.9125V50.7778Z" fill="#FEFEFE"/>
<path d="M94.9125 55.3975H0.827881V60.0001H94.9125V55.3975Z" fill="#D0262B"/>
<path d="M43.7892 0H0.827881V32.3011H43.7892V0Z" fill="#2E3C66"/>
<path fill-rule="evenodd" clip-rule="evenodd" d="M6.61281 7.63096H7.77959L8.14308 6.38916L8.50658 7.63096H9.68772L8.73365 8.39243L9.09715 9.60087L8.14263 8.85755L7.18857 9.60234L7.56687 8.3939L6.61281 7.63096ZM3.17529 26.3394H4.34207L4.72083 25.1129L5.08388 26.3394H6.25066L5.29659 27.1009L5.66009 28.3275L4.72128 27.566L3.75195 28.3275L4.13026 27.1009L3.17529 26.3394ZM10.0956 26.3394H11.2624L11.6412 25.1129L12.0047 26.3394H13.1715L12.2174 27.1009L12.5809 28.3275L11.6421 27.566L10.6728 28.3275L11.0515 27.1009L10.0956 26.3394ZM17.0007 26.3394H18.15L18.5283 25.1129L18.8918 26.3394H20.073L19.1193 27.1009L19.4824 28.3275L18.5283 27.566L17.5747 28.3275L17.9378 27.1009L17.0007 26.3394ZM23.9211 26.3394H25.0722L25.4509 25.1129L25.8144 26.3394H26.9956L26.0415 27.1009L26.405 28.3275L25.4509 27.566L24.4969 28.3275L24.8603 27.1009L23.9211 26.3394ZM30.8419 26.3394H31.9925L32.3713 25.1129L32.7348 26.3394H33.9015L32.9627 27.1009L33.3262 28.3275L32.3722 27.566L31.4181 28.3275L31.7816 27.1009L30.8419 26.3394ZM37.747 26.3394H38.9138L39.2768 25.1129L39.6403 26.3394H40.8214L39.8674 27.1009L40.2309 28.3275L39.2768 27.566L38.3227 28.3275L38.7015 27.1009L37.747 26.3394ZM3.17529 20.9601H4.34207L4.72083 19.7335L5.08388 20.9601H6.25066L5.29659 21.7216L5.66009 22.9305L4.72128 22.1852L3.75195 22.9305L4.13026 21.7216L3.17529 20.9601ZM10.0956 20.9601H11.2624L11.6412 19.7335L12.0047 20.9601H13.1715L12.2174 21.7216L12.5809 22.9305L11.6421 22.1852L10.6728 22.9305L11.0515 21.7216L10.0956 20.9601ZM17.0007 20.9601H18.15L18.5283 19.7335L18.8918 20.9601H20.073L19.1193 21.7216L19.4824 22.9305L18.5283 22.1852L17.5747 22.9305L17.9378 21.7216L17.0007 20.9601ZM23.9211 20.9601H25.0722L25.4509 19.7335L25.8144 20.9601H26.9956L26.0415 21.7216L26.405 22.9305L25.4509 22.1852L24.4969 22.9305L24.8603 21.7216L23.9211 20.9601ZM30.8419 20.9601H31.9925L32.3713 19.7335L32.7348 20.9601H33.9015L32.9627 21.7216L33.3262 22.9305L32.3722 22.1852L31.4181 22.9305L31.7816 21.7216L30.8419 20.9601ZM37.747 20.9601H38.9138L39.2768 19.7335L39.6403 20.9601H40.8214L39.8674 21.7216L40.2309 22.9305L39.2768 22.1852L38.3227 22.9305L38.7015 21.7216L37.747 20.9601ZM3.17529 15.5631H4.34207L4.72083 14.3365L5.08388 15.5631H6.25066L5.29659 16.3251L5.66009 17.5516L4.72128 16.7897L3.75195 17.5516L4.13026 16.3251L3.17529 15.5631ZM10.0956 15.5631H11.2624L11.6412 14.3365L12.0047 15.5631H13.1715L12.2174 16.3251L12.5809 17.5516L11.6421 16.7897L10.6728 17.5516L11.0515 16.3251L10.0956 15.5631ZM17.0007 15.5631H18.15L18.5283 14.3365L18.8918 15.5631H20.073L19.1193 16.3251L19.4824 17.5516L18.5283 16.7897L17.5747 17.5516L17.9378 16.3251L17.0007 15.5631ZM23.9211 15.5631H25.0722L25.4509 14.3365L25.8144 15.5631H26.9956L26.0415 16.3251L26.405 17.5516L25.4509 16.7897L24.4969 17.5516L24.8603 16.3251L23.9211 15.5631ZM30.8419 15.5631H31.9925L32.3713 14.3365L32.7348 15.5631H33.9015L32.9627 16.3251L33.3262 17.5516L32.3722 16.7897L31.4181 17.5516L31.7816 16.3251L30.8419 15.5631ZM37.747 15.5631H38.9138L39.2768 14.3365L39.6403 15.5631H40.8214L39.8674 16.3251L40.2309 17.5516L39.2768 16.7897L38.3227 17.5516L38.7015 16.3251L37.747 15.5631ZM3.17529 10.1823H4.34207L4.72083 8.95568L5.08388 10.1823H6.25066L5.29659 10.9442L5.66009 12.1527L4.71993 11.4089L3.75061 12.1541L4.12891 10.9457L3.17529 10.1823ZM10.0956 10.1823H11.2624L11.6412 8.95568L12.0047 10.1823H13.1715L12.2174 10.9442L12.5809 12.1527L11.6403 11.4089L10.671 12.1541L11.0497 10.9457L10.0956 10.1823ZM17.0007 10.1823H18.15L18.5283 8.95568L18.8918 10.1823H20.073L19.1193 10.9442L19.4824 12.1527L18.5301 11.4089L17.5765 12.1541L17.9395 10.9457L17.0007 10.1823ZM23.9211 10.1823H25.0722L25.4509 8.95568L25.8144 10.1823H26.9956L26.0415 10.9442L26.405 12.1527L25.4509 11.4089L24.4969 12.1541L24.8603 10.9457L23.9211 10.1823ZM30.8419 10.1823H31.9925L32.3713 8.95568L32.7348 10.1823H33.9015L32.9627 10.9442L33.3262 12.1527L32.3713 11.4089L31.4172 12.1541L31.7807 10.9457L30.8419 10.1823ZM37.747 10.1823H38.9138L39.2768 8.95568L39.6403 10.1823H40.8214L39.8674 10.9442L40.2309 12.1527L39.2764 11.4089L38.3223 12.1541L38.701 10.9457L37.747 10.1823ZM3.17529 4.7681H4.34207L4.72083 3.5415L5.08388 4.7681H6.25066L5.29659 5.52956L5.66009 6.75616L4.72128 5.99469L3.75195 6.75616L4.13026 5.52956L3.17529 4.7681ZM10.0956 4.7681H11.2624L11.6412 3.5415L12.0047 4.7681H13.1715L12.2174 5.52956L12.5809 6.75616L11.6421 5.99469L10.6728 6.75616L11.0515 5.52956L10.0956 4.7681ZM17.0007 4.7681H18.15L18.5283 3.5415L18.8918 4.7681H20.073L19.1193 5.52956L19.4824 6.75616L18.5283 5.99469L17.5747 6.75616L17.9378 5.52956L17.0007 4.7681ZM23.9211 4.7681H25.0722L25.4509 3.5415L25.8144 4.7681H26.9956L26.0415 5.52956L26.405 6.75616L25.4509 5.99469L24.4969 6.75616L24.8603 5.52956L23.9211 4.7681ZM30.8419 4.7681H31.9925L32.3713 3.5415L32.7348 4.7681H33.9015L32.9627 5.52956L33.3262 6.75616L32.3722 5.99469L31.4181 6.75616L31.7816 5.52956L30.8419 4.7681ZM37.747 4.7681H38.9138L39.2768 3.5415L39.6403 4.7681H40.8214L39.8674 5.52956L40.2309 6.75616L39.2768 5.99469L38.3227 6.75616L38.7015 5.52956L37.747 4.7681ZM6.61281 23.8078H7.77959L8.14308 22.5812L8.50658 23.8078H9.68772L8.73365 24.5692L9.09715 25.7782L8.14263 25.0329L7.18857 25.7782L7.56687 24.5692L6.61281 23.8078ZM13.5332 23.8078H14.6999L15.0634 22.5812L15.4269 23.8078H16.6081L15.654 24.5692L16.0175 25.7782L15.0634 25.0329L14.1094 25.7782L14.4881 24.5692L13.5332 23.8078ZM20.4383 23.8078H21.5893L21.9676 22.5812L22.3311 23.8078H23.4979L22.5587 24.5692L22.9221 25.7782L21.9681 25.0329L21.0145 25.7782L21.3775 24.5692L20.4383 23.8078ZM27.3586 23.8078H28.5097L28.8884 22.5812L29.2519 23.8078H30.4187L29.4799 24.5692L29.8434 25.7782L28.8893 25.0329L27.933 25.7782L28.2965 24.5692L27.3586 23.8078ZM34.2794 23.8078H35.43L35.8088 22.5812L36.1723 23.8078H37.3391L36.4003 24.5692L36.7637 25.7782L35.8097 25.0329L34.8556 25.7782L35.2191 24.5692L34.2794 23.8078ZM6.61281 18.4107H7.77959L8.14308 17.1842L8.50658 18.4107H9.68772L8.73365 19.1727L9.09715 20.3993L8.14263 19.6354L7.18812 20.3973L7.56642 19.1707L6.61281 18.4107ZM13.5332 18.4107H14.6999L15.0634 17.1842L15.4269 18.4107H16.6081L15.654 19.1727L16.0175 20.3993L15.0625 19.6354L14.1085 20.3973L14.4872 19.1707L13.5332 18.4107ZM20.4383 18.4107H21.5893L21.9676 17.1842L22.3311 18.4107H23.4979L22.5587 19.1727L22.9221 20.3993L21.9681 19.6373L21.014 20.3973L21.3771 19.1707L20.4383 18.4107ZM27.3586 18.4107H28.5097L28.8884 17.1842L29.2519 18.4107H30.4187L29.4799 19.1727L29.8434 20.3993L28.8893 19.6373L27.933 20.3973L28.2965 19.1707L27.3586 18.4107ZM34.2794 18.4107H35.43L35.8088 17.1842L36.1723 18.4107H37.3391L36.4003 19.1727L36.7637 20.3993L35.8097 19.6373L34.8556 20.3993L35.2191 19.1727L34.2794 18.4107ZM6.61281 13.028H7.77959L8.14308 11.8014L8.50658 13.028H9.68772L8.73365 13.7899L9.09715 14.9984L8.14263 14.2546L7.18857 14.9993L7.56687 13.7909L6.61281 13.028ZM13.5332 13.028H14.6999L15.0634 11.8014L15.4269 13.028H16.6081L15.654 13.7899L16.0175 14.9984L15.0625 14.2546L14.1085 14.9993L14.4872 13.7909L13.5332 13.028ZM20.4387 13.028H21.5898L21.9681 11.8014L22.3316 13.028H23.4984L22.5591 13.7899L22.9226 14.9984L21.9676 14.2546L21.014 14.9993L21.3771 13.7909L20.4387 13.028ZM27.3591 13.028H28.5101L28.8889 11.8014L29.2524 13.028H30.4192L29.4803 13.7899L29.8438 14.9984L28.8884 14.2546L27.933 14.9998L28.2965 13.7914L27.3591 13.028ZM13.5332 7.63096H14.6999L15.0634 6.38916L15.426 7.63096H16.6072L15.6531 8.39243L16.0166 9.60087L15.0625 8.85755L14.1085 9.60234L14.4872 8.3939L13.5332 7.63096ZM20.4387 7.63096H21.5898L21.9681 6.38916L22.3316 7.63096H23.4984L22.5591 8.39243L22.9226 9.60087L21.9676 8.85755L21.014 9.60234L21.3771 8.3939L20.4387 7.63096ZM27.3591 7.63096H28.5101L28.8889 6.38916L29.2524 7.63096H30.4192L29.4803 8.39243L29.8438 9.60087L28.8884 8.85755L27.933 9.60234L28.2965 8.3939L27.3591 7.63096ZM34.2799 7.63096H35.4305L35.8092 6.38916L36.1727 7.63096H37.3395L36.4007 8.39243L36.7642 9.60087L35.8088 8.85755L34.8547 9.60234L35.2182 8.3939L34.2799 7.63096ZM34.2799 13.028H35.4305L35.8092 11.8014L36.1727 13.028H37.3395L36.4007 13.7899L36.7642 14.9984L35.8088 14.2546L34.8547 14.9993L35.2182 13.7909L34.2799 13.028Z" fill="#FEFEFE"/>
</g>
<defs>
<clipPath id="clip0_145_5532">
<rect x="0.827881" width="94.0847" height="60" rx="4" fill="white"/>
</clipPath>
</defs>
</svg>
