<svg width="96" height="60" viewBox="0 0 96 60" fill="none" xmlns="http://www.w3.org/2000/svg">
<path d="M91.15 0H4.83032C2.62118 0 0.830322 1.79086 0.830322 4V56C0.830322 58.2091 2.62119 60 4.83033 60H91.15C93.3591 60 95.15 58.2091 95.15 56V4C95.15 1.79086 93.3591 0 91.15 0Z" fill="#34A53E"/>
<path d="M91.1696 0H53.8125C51.6034 0 49.8125 1.79086 49.8125 4V56C49.8125 58.2091 51.6034 60 53.8125 60H91.1696C93.3787 60 95.1696 58.2091 95.1696 56V4C95.1696 1.79086 93.3787 0 91.1696 0Z" fill="#E52525"/>
<path d="M60.0553 0.0996094H36.1838C33.9747 0.0996094 32.1838 1.89047 32.1838 4.09961V55.7795C32.1838 57.9886 33.9747 59.7795 36.1838 59.7795H60.0553C62.2645 59.7795 64.0553 57.9886 64.0553 55.7795V4.09961C64.0553 1.89047 62.2645 0.0996094 60.0553 0.0996094Z" fill="white"/>
</svg>
