<svg width="96" height="60" viewBox="0 0 96 60" fill="none" xmlns="http://www.w3.org/2000/svg">
<path d="M91.044 0H4.95605C2.74692 0 0.956055 1.79086 0.956055 4V56C0.956055 58.2091 2.74692 60 4.95606 60H91.044C93.2532 60 95.044 58.2091 95.044 56V4C95.044 1.79086 93.2532 0 91.044 0Z" fill="#DE2910"/>
<path d="M14.67 14.8193C15.1351 13.3595 17.2008 13.3595 17.6659 14.8193V14.8193C17.8737 15.4714 18.4828 15.9142 19.1672 15.9142V15.9142C20.7054 15.9142 21.3296 17.9042 20.0942 18.8207V18.8207C19.5447 19.2284 19.3061 19.9469 19.5138 20.5988L19.538 20.6748C20.0015 22.1295 18.3314 23.3264 17.1028 22.4201V22.4201C16.547 22.01 15.7889 22.01 15.2331 22.4201V22.4201C14.0045 23.3264 12.3344 22.1295 12.7979 20.6748L12.8221 20.5988C13.0298 19.9469 12.7912 19.2284 12.2417 18.8207V18.8207C11.0063 17.9042 11.6305 15.9142 13.1687 15.9142V15.9142C13.8531 15.9142 14.4622 15.4714 14.67 14.8193V14.8193Z" fill="#FFEA00"/>
<path d="M32.8639 6.44763C33.2031 6.05128 33.8531 6.31744 33.813 6.83752L33.811 6.86304C33.7931 7.09448 33.9248 7.31204 34.1379 7.40423V7.40423C34.6177 7.61189 34.5528 8.3138 34.0437 8.43288V8.43288C33.8172 8.48586 33.6497 8.68233 33.6318 8.91426V8.91426C33.5921 9.42861 32.9143 9.59899 32.6492 9.15644V9.15644C32.5309 8.95902 32.2966 8.8611 32.0726 8.91352V8.91352C31.5625 9.03282 31.1867 8.43499 31.5247 8.03482L31.5451 8.01065C31.6948 7.83342 31.7152 7.58063 31.596 7.38162L31.5832 7.36026C31.3176 6.91687 31.7734 6.39217 32.2496 6.5931V6.5931C32.464 6.68356 32.7127 6.62443 32.8639 6.44763V6.44763Z" fill="#FFEA00"/>
<path d="M38.9526 14.0092C38.8883 13.4964 39.5204 13.2038 39.8698 13.5845V13.5845C40.0279 13.7567 40.281 13.8047 40.4917 13.7034V13.7034C40.961 13.4775 41.4498 13.9814 41.204 14.4406L41.1918 14.4634C41.0827 14.6671 41.1143 14.9175 41.2706 15.0877L41.2859 15.1044C41.637 15.487 41.291 16.0948 40.7819 15.9923V15.9923C40.5521 15.946 40.3184 16.0557 40.2077 16.2624V16.2624C39.9633 16.7189 39.2762 16.5872 39.2112 16.0735V16.0735C39.1824 15.8462 39.0086 15.661 38.784 15.6158V15.6158C38.2703 15.5123 38.1756 14.8093 38.6499 14.5863V14.5863C38.8606 14.4872 38.9844 14.2634 38.9555 14.0323L38.9526 14.0092Z" fill="#FFEA00"/>
<path d="M39.4819 23.9647C39.6436 23.4663 40.3502 23.466 40.5119 23.9644V23.9644C40.5836 24.1856 40.7899 24.3359 41.0224 24.3359V24.3359C41.5406 24.3359 41.745 25.007 41.3275 25.314V25.314C41.1395 25.4522 41.0578 25.6974 41.1291 25.9196L41.14 25.9534C41.2986 26.4474 40.7307 26.8545 40.3127 26.5472V26.5472C40.125 26.4092 39.8691 26.409 39.6814 26.547V26.547C39.2645 26.8535 38.7036 26.4326 38.8633 25.9404V25.9404C38.9349 25.7198 38.858 25.4751 38.6711 25.3377L38.6522 25.3237C38.2303 25.0136 38.4479 24.345 38.9714 24.3398V24.3398C39.2042 24.3375 39.4101 24.1861 39.4819 23.9647V23.9647Z" fill="#FFEA00"/>
<path d="M32.8173 30.9979C33.1436 30.5945 33.7945 30.8607 33.7646 31.3787V31.3787C33.7512 31.6092 33.8886 31.827 34.1024 31.914V31.914C34.5845 32.1101 34.5465 32.8128 34.0425 32.9422V32.9422C33.8166 33.0002 33.6534 33.2009 33.6401 33.4338V33.4338C33.6105 33.951 32.9324 34.1368 32.6589 33.6968V33.6968C32.5356 33.4985 32.2966 33.4042 32.0709 33.4644V33.4644C31.5717 33.5978 31.1914 33.0152 31.5164 32.6135L31.5323 32.5938C31.6781 32.4136 31.6932 32.1606 31.5698 31.9644L31.5548 31.9405C31.2794 31.5026 31.7245 30.9679 32.2054 31.1584V31.1584C32.4225 31.2443 32.6704 31.1794 32.8173 30.9979V30.9979Z" fill="#FFEA00"/>
</svg>
