<svg width="94" height="60" viewBox="0 0 94 60" fill="none" xmlns="http://www.w3.org/2000/svg">
<path d="M93.9998 0H0V60H93.9998V0Z" fill="#E53030"/>
<path d="M45.9452 21.9761L54.5413 35.1498L40.115 29.6051L54.9989 25.5376L45.2687 37.6995L45.9452 21.9761Z" fill="white"/>
<path d="M42.2648 37.5988C39.5785 42.3138 35.758 44.2564 30.0074 44.2564C27.9571 44.2591 25.9264 43.8508 24.0314 43.0547C22.1363 42.2586 20.4142 41.0903 18.9635 39.6169C17.5128 38.1434 16.3619 36.3936 15.5766 34.4674C14.7914 32.5413 14.3872 30.4765 14.3872 28.3914C14.3872 26.3063 14.7914 24.2416 15.5766 22.3154C16.3619 20.3892 17.5128 18.6394 18.9635 17.166C20.4142 15.6925 22.1363 14.5243 24.0314 13.7282C25.9264 12.9321 27.9571 12.5236 30.0074 12.5263C32.9312 12.3684 35.8296 13.1516 38.2908 14.7645C40.752 16.3775 42.6507 18.7381 43.7174 21.5111C42.7182 19.6287 41.2076 18.0784 39.3659 17.0451C37.5242 16.0117 35.4291 15.5389 33.3305 15.6831C29.9582 15.6831 26.7241 17.0454 24.3395 19.4704C21.955 21.8954 20.6154 25.1845 20.6154 28.614C20.6128 30.3128 20.9399 31.9955 21.578 33.5655C22.216 35.1356 23.1525 36.5622 24.3337 37.7634C25.5149 38.9647 26.9177 39.917 28.4615 40.5659C30.0054 41.2148 31.66 41.5475 33.3305 41.5449C37.3698 41.5044 39.8372 40.6949 42.2648 37.5988Z" fill="white"/>
</svg>
