<svg width="94" height="60" viewBox="0 0 94 60" fill="none" xmlns="http://www.w3.org/2000/svg">
<path d="M89.7179 39.9932H4.28223C2.07309 39.9932 0.282227 41.784 0.282227 43.9932V55.9998C0.282227 58.2089 2.07309 59.9998 4.28223 59.9998H89.7179C91.927 59.9998 93.7179 58.2089 93.7179 55.9998V43.9932C93.7179 41.784 91.927 39.9932 89.7179 39.9932Z" fill="#399565"/>
<path d="M89.7179 19.9868H4.28223C2.07309 19.9868 0.282227 21.7777 0.282227 23.9868V35.9935C0.282227 38.2026 2.07309 39.9935 4.28223 39.9935H89.7179C91.927 39.9935 93.7179 38.2026 93.7179 35.9935V23.9868C93.7179 21.7777 91.927 19.9868 89.7179 19.9868Z" fill="white"/>
<path d="M89.7179 0H4.28223C2.07309 0 0.282227 1.79086 0.282227 4V16.0066C0.282227 18.2158 2.07309 20.0066 4.28223 20.0066H89.7179C91.927 20.0066 93.7179 18.2158 93.7179 16.0066V4C93.7179 1.79086 91.927 0 89.7179 0Z" fill="#FF9933"/>
<path d="M44.4964 20.9287C43.3273 20.9287 42.1696 21.1633 41.0898 21.6189C40.0099 22.0745 39.0289 22.7423 38.2031 23.5839C37.3773 24.4256 36.7228 25.4247 36.2772 26.5239C35.8316 27.6231 35.6036 28.8009 35.6062 29.9899C35.6062 32.3877 36.5428 34.6873 38.21 36.3828C39.8773 38.0784 42.1386 39.031 44.4964 39.031C46.8561 39.031 49.1193 38.079 50.7897 36.3841C52.46 34.6891 53.401 32.3896 53.4062 29.9899C53.4062 27.5867 52.4676 25.282 50.7966 23.5827C49.1257 21.8834 46.8595 20.9287 44.4964 20.9287ZM44.7705 24.301C44.729 23.563 45.3295 22.9347 46.0508 23.0961C46.2333 23.137 46.4141 23.1854 46.5927 23.2411C47.297 23.461 47.5058 24.3026 47.1045 24.9217C46.4364 25.9526 44.8396 25.5275 44.7705 24.301ZM44.2368 24.3011C44.1632 25.528 42.5641 25.9491 41.8989 24.9156C41.5015 24.2982 41.7081 23.461 42.4085 23.2404C42.5906 23.1831 42.7751 23.1336 42.9613 23.0921C43.6831 22.9313 44.2812 23.563 44.2368 24.3011ZM38.8942 30.3171C40.1124 30.3928 40.5367 31.9733 39.522 32.6517C38.8933 33.0721 38.0278 32.8569 37.8089 32.133C37.7573 31.9624 37.7119 31.7898 37.6729 31.6158C37.5086 30.8833 38.145 30.2706 38.8942 30.3171ZM38.891 29.7685C38.1431 29.812 37.5098 29.1989 37.6737 28.4678C37.7124 28.2951 37.7573 28.1239 37.8082 27.9546C38.027 27.228 38.8964 27.0125 39.5258 27.4364C40.5381 28.118 40.1094 29.6976 38.891 29.7685ZM44.2357 35.7797C44.2804 36.5242 43.6713 37.1582 42.9448 36.9888C42.7655 36.947 42.5878 36.898 42.4122 36.842C41.7116 36.6184 41.5043 35.78 41.9035 35.1625C42.5689 34.1334 44.1622 34.5564 44.2357 35.7797ZM44.7716 35.7802C44.8404 34.5572 46.4317 34.1302 47.1001 35.1567C47.5031 35.7758 47.2938 36.6185 46.5895 36.8415C46.4171 36.896 46.2428 36.944 46.0669 36.9851C45.341 37.155 44.7297 36.5245 44.7716 35.7802ZM50.0934 29.7835C48.8722 29.7074 48.4476 28.1228 49.4626 27.4394C50.0945 27.0138 50.9686 27.2287 51.1842 27.9595C51.2364 28.1366 51.2818 28.3158 51.3202 28.4966C51.475 29.2267 50.8383 29.8299 50.0934 29.7835ZM50.1075 30.3166C50.854 30.2702 51.4906 30.8775 51.329 31.6078C51.289 31.7885 51.2419 31.9676 51.1879 32.1446C50.9678 32.8653 50.1048 33.0757 49.4783 32.6568C48.4613 31.9767 48.8864 30.3924 50.1075 30.3166ZM50.4692 26.2808C50.4692 26.3057 50.4552 26.3284 50.4331 26.3397L49.2549 26.9413C48.1643 27.4982 46.9939 26.3435 47.536 25.2454C47.8708 24.5673 48.7284 24.325 49.2805 24.8418C49.7258 25.2586 50.1216 25.7294 50.4584 26.2448C50.4654 26.2555 50.4692 26.268 50.4692 26.2808ZM39.7184 24.7363C40.2633 24.2111 41.125 24.4533 41.4601 25.1319C41.9989 26.2232 40.838 27.3778 39.755 26.8224C39.1011 26.487 38.8646 25.6572 39.3563 25.111C39.4726 24.9818 39.5934 24.8568 39.7184 24.7363ZM38.5433 33.6795C38.5433 33.6543 38.5575 33.6312 38.5799 33.6198L39.7309 33.0345C40.8238 32.4788 41.9936 33.637 41.449 34.7354C41.1164 35.4059 40.2702 35.6517 39.7233 35.1407C39.2745 34.7214 38.8807 34.2422 38.5533 33.7146C38.5468 33.7041 38.5433 33.6919 38.5433 33.6795ZM48.1629 35.9906C48.1629 35.9862 48.1618 35.9817 48.1598 35.9777L47.5401 34.7279C46.9955 33.6297 48.1638 32.4712 49.2574 33.0249L49.3667 33.0802C49.9639 33.3826 50.1872 34.1339 49.7548 34.6449C49.3078 35.1732 48.7871 35.6351 48.2076 36.0149C48.1884 36.0276 48.1629 36.0137 48.1629 35.9906Z" fill="#2F3B7C"/>
</svg>
