<svg width="96" height="60" viewBox="0 0 96 60" fill="none" xmlns="http://www.w3.org/2000/svg">
<path d="M95.9673 39.9932H0.0327148V59.9998H95.9673V39.9932Z" fill="#399565"/>
<path d="M95.9673 19.9868H0.0327148V39.9935H95.9673V19.9868Z" fill="white"/>
<path d="M95.9673 0H0.0327148V20.0066H95.9673V0Z" fill="#FF9933"/>
<path d="M45.4293 20.9282C44.2289 20.9282 43.0403 21.1628 41.9315 21.6184C40.8227 22.074 39.8155 22.7418 38.9676 23.5835C38.1197 24.4251 37.4478 25.4242 36.9902 26.5234C36.5327 27.6227 36.2986 28.8004 36.3013 29.9894C36.3013 32.3872 37.2629 34.6868 38.9748 36.3824C40.6866 38.0779 43.0084 39.0305 45.4293 39.0305C47.852 39.0305 50.1758 38.0785 51.8908 36.3836C53.6059 34.6886 54.572 32.3891 54.5774 29.9894C54.5774 27.5862 53.6136 25.2815 51.898 23.5822C50.1824 21.8829 47.8555 20.9282 45.4293 20.9282ZM45.6316 22.9329C46.7635 22.9532 47.8739 23.242 48.8699 23.7749L45.9352 28.1851L45.6316 22.9329ZM44.9233 28.1851L42.0088 23.7749C43.0027 23.2368 44.1144 22.9477 45.2471 22.9329L44.9233 28.1851ZM43.547 30.5508L39.1146 33.4375C38.5767 32.4499 38.2786 31.3516 38.2442 30.2299L43.547 30.5508ZM38.2442 29.849C38.2808 28.7277 38.5787 27.63 39.1146 26.6416L43.547 29.5484L38.2442 29.849ZM45.2471 37.1662C44.1142 37.1351 43.0048 36.8398 42.0088 36.3042L44.9233 31.9139L45.2471 37.1662ZM45.9352 31.9139L48.8699 36.3042C47.8719 36.8349 46.7637 37.1299 45.6316 37.1662L45.9352 31.9139ZM47.3115 29.5484L51.7439 26.6416C52.2851 27.6341 52.5767 28.7412 52.594 29.8691L47.3115 29.5484ZM52.6142 30.2299C52.5898 31.353 52.2913 32.4536 51.7439 33.4375L47.3115 30.5508L52.6142 30.2299ZM51.5617 26.3208L46.8055 28.6863L49.1938 23.9754C50.1394 24.5601 50.947 25.3395 51.5617 26.2607V26.3208ZM41.6646 23.8551L44.053 28.566L39.3169 26.2005C39.9116 25.2539 40.714 24.4522 41.6646 23.8551ZM39.3169 33.6379L44.053 31.2925L41.6646 35.9833C40.7122 35.4141 39.9081 34.6313 39.3169 33.698V33.6379ZM49.1938 35.9833L46.8055 31.2925L51.5617 33.6379C50.9726 34.6118 50.1617 35.4356 49.1938 36.0435V35.9833Z" fill="#2F3B7C"/>
</svg>
