<svg width="96" height="60" viewBox="0 0 96 60" fill="none" xmlns="http://www.w3.org/2000/svg">
<path d="M91.0755 0H4.92456C2.71542 0 0.924561 1.79086 0.924561 4V55.9595C0.924561 58.1687 2.71543 59.9595 4.92456 59.9595H91.0755C93.2847 59.9595 95.0755 58.1686 95.0755 55.9595V4C95.0755 1.79086 93.2847 0 91.0755 0Z" fill="#D63932"/>
<path d="M43.5621 0H4.92456C2.71542 0 0.924561 1.79086 0.924561 4V55.9595C0.924561 58.1687 2.71542 59.9595 4.92456 59.9595H43.5621C45.7713 59.9595 47.5621 58.1686 47.5621 55.9595V4C47.5621 1.79086 45.7713 0 43.5621 0Z" fill="#3652B0"/>
<path d="M60.1229 0H36.4341C34.2249 0 32.4341 1.79086 32.4341 4V56C32.4341 58.2091 34.2249 60 36.4341 60H60.1229C62.3321 60 64.1229 58.2091 64.1229 56V4C64.1229 1.79086 62.3321 0 60.1229 0Z" fill="white"/>
</svg>
