<svg width="96" height="60" viewBox="0 0 96 60" fill="none" xmlns="http://www.w3.org/2000/svg">
<g clip-path="url(#clip0_153_8400)">
<path d="M95.9673 0H0.0327148V60H95.9673V0Z" fill="#509E2F"/>
<path d="M95.9673 0H0.0327148V40H95.9673V0Z" fill="#EF3340"/>
<path d="M95.9673 0H0.0327148V20H95.9673V0Z" fill="#00B5E2"/>
<path d="M45.6016 39C49.5753 39 52.7967 34.9706 52.7967 30C52.7967 25.0294 49.5753 21 45.6016 21C41.6278 21 38.4065 25.0294 38.4065 30C38.4065 34.9706 41.6278 39 45.6016 39Z" fill="white"/>
<path d="M47.2005 37.5C50.5119 37.5 53.1964 34.1421 53.1964 30C53.1964 25.8579 50.5119 22.5 47.2005 22.5C43.8891 22.5 41.2046 25.8579 41.2046 30C41.2046 34.1421 43.8891 37.5 47.2005 37.5Z" fill="#EF3340"/>
<path d="M53.5962 25L54.361 27.6903L56.4226 26.4645L55.4426 29.0433L57.5934 30L55.4426 30.9567L56.4226 33.5355L54.361 32.3097L53.5962 35L52.8313 32.3097L50.7697 33.5355L51.7497 30.9567L49.5989 30L51.7497 29.0433L50.7697 26.4645L52.8313 27.6903L53.5962 25Z" fill="white"/>
</g>
<defs>
<clipPath id="clip0_153_8400">
<rect width="95.9346" height="60" fill="white" transform="translate(0.0327148)"/>
</clipPath>
</defs>
</svg>
