<svg width="94" height="60" viewBox="0 0 94 60" fill="none" xmlns="http://www.w3.org/2000/svg">
<path d="M89.7846 0H4.21558C2.00644 0 0.215576 1.79086 0.215576 4V56C0.215576 58.2091 2.00643 60 4.21557 60H89.7846C91.9937 60 93.7846 58.2091 93.7846 56V4C93.7846 1.79086 91.9937 0 89.7846 0Z" fill="#F5F5F5"/>
<path d="M68.6852 30.0002C68.6852 35.8545 66.3985 41.4689 62.328 45.6085C58.2575 49.7481 52.7366 52.0737 46.9801 52.0737C41.2235 52.0737 35.7028 49.7481 31.6323 45.6085C27.5617 41.4689 25.2749 35.8545 25.2749 30.0002C25.2619 27.093 25.8137 24.2118 26.8987 21.5221C27.9837 18.8324 29.5804 16.3872 31.5972 14.3268C33.614 12.2665 36.0112 10.6316 38.6511 9.51601C41.2909 8.40044 44.1214 7.82614 46.9801 7.82617C49.8387 7.82614 52.6693 8.40044 55.3092 9.51601C57.949 10.6316 60.3461 12.2665 62.3629 14.3268C64.3797 16.3872 65.9764 18.8324 67.0614 21.5221C68.1464 24.2118 68.6982 27.093 68.6852 30.0002Z" fill="#D63932"/>
</svg>
