<svg width="96" height="60" viewBox="0 0 96 60" fill="none" xmlns="http://www.w3.org/2000/svg">
<path d="M4.14721 0C1.93807 0 0.147217 1.79086 0.147217 4V19.8535V20.2931V39.7069V40.1465V56C0.147217 58.2091 1.93808 60 4.14722 60H91.853C94.0622 60 95.853 58.2091 95.853 56V40.1465V39.7069V20.2931V19.8535V4C95.853 1.79086 94.0621 0 91.853 0H4.14721Z" fill="#016836"/>
<path d="M27.4382 18.1623C27.443 17.9509 27.5871 17.8386 27.6736 18.0315C27.7195 18.1338 27.7887 18.5142 27.8799 18.9486C28.0852 19.9256 28.8011 19.8015 28.9902 18.8212C29.0822 18.3444 29.1996 18.0098 29.3245 17.7762C29.6524 17.1628 30.3602 17.6145 30.4666 18.3018C30.5267 18.6902 30.5589 19.1998 30.5142 19.8458C30.51 19.9072 30.503 19.969 30.5007 20.0305C30.4932 20.2364 30.5191 20.7123 30.9283 20.6531C31.4486 20.5778 30.9779 18.5627 30.9283 18.4874C30.8787 18.4121 30.2571 15.9147 30.8052 15.762C31.3533 15.6093 31.6491 15.99 31.6988 17.5695C31.7484 19.1489 31.8735 20.2949 32.3203 20.1422C32.7671 19.9896 31.8239 18.8701 31.8735 17.8239C31.8818 17.6485 31.8958 17.5025 31.9131 17.3811C31.977 16.9347 32.477 16.7143 32.7368 17.0829C32.8637 17.2629 32.9904 17.5434 33.0908 17.9786C33.1271 18.136 33.1553 18.2771 33.1767 18.4034C33.2657 18.9288 33.4742 19.9311 33.8851 20.2704C34.1572 20.4496 34.6556 20.1687 34.2823 19.3525C33.9089 18.5363 33.2636 17.2133 33.8096 16.7797C34.3557 16.3462 34.9276 17.315 35.1024 17.6977C35.2771 18.0803 35.2771 18.3083 34.9773 18.1943C34.6774 18.0803 35.7716 20.1687 35.0031 21.1864C34.6342 21.675 34.2872 21.8352 34.0261 21.8697C33.7113 21.9113 33.4524 21.6772 33.1991 21.4857C32.9374 21.2879 32.5993 21.0936 32.4176 21.2352C32.1203 21.467 32.2653 23.574 32.2909 23.9159C32.2933 23.9481 32.2908 23.9326 32.2947 23.9646C32.4633 25.3234 31.4327 25.0619 31.3911 23.6933L31.3655 22.8527C31.3653 22.845 31.365 22.8375 31.3642 22.8298C31.357 22.7635 31.2974 22.4264 30.827 22.3567C30.3048 22.2794 29.7845 22.1532 29.7845 21.4143C29.7845 21.0536 29.7963 20.5352 29.8084 20.0991C29.8236 19.5553 29.5141 18.8224 29.4071 19.3557C29.3996 19.3932 29.3923 19.4341 29.3854 19.4787C29.2344 20.4475 29.1868 22.0779 28.4918 21.9497C27.829 21.8274 27.3865 20.4149 27.4382 18.1623Z" fill="#FCFCFC"/>
<path d="M28.4626 15.4102C28.1488 15.4632 28.4129 15.9191 28.6115 16.3771C28.8101 16.835 28.8856 17.2442 28.7863 17.4986C28.687 17.753 29.1099 17.523 29.2331 17.0915C29.3562 16.66 29.2092 15.282 28.4626 15.4102Z" fill="#FCFCFC"/>
<path d="M32.4418 15.5936C32.6762 15.5712 32.7318 16.078 32.8628 16.078C32.9939 16.078 32.9363 15.5855 33.1408 15.5855C33.3454 15.5855 33.1984 16.0414 33.4208 16.0414C33.6432 16.0414 33.532 15.5672 33.7564 15.5855C33.9808 15.6038 34.0801 16.8963 33.123 16.8434C32.1658 16.7904 32.2155 15.616 32.4418 15.5936Z" fill="#FCFCFC"/>
<path d="M46.3497 21.6063C46.584 21.5839 46.6396 22.0907 46.7706 22.0907C46.9017 22.0907 46.8441 21.5982 47.0487 21.5982C47.2532 21.5982 47.1062 22.0541 47.3286 22.0541C47.5511 22.0541 47.4418 21.5799 47.6642 21.5982C47.8866 21.6165 47.9879 22.909 47.0308 22.854C46.0736 22.7991 46.1153 21.6287 46.3497 21.6063Z" fill="#FCFCFC"/>
<path d="M54.4657 19.2324C54.7 19.21 54.7556 19.7148 54.8867 19.7148C55.0177 19.7148 54.9621 19.2222 55.1666 19.2222C55.3712 19.2222 55.2222 19.6781 55.4466 19.6781C55.671 19.6781 55.5578 19.2039 55.7822 19.2222C56.0066 19.2405 56.1039 20.535 55.1488 20.4801C54.1936 20.4251 54.2333 19.2548 54.4657 19.2324Z" fill="#FCFCFC"/>
<path d="M30.7934 24.7138C30.6961 24.8034 29.9356 25.4974 30.2334 27.2927C30.4768 28.7597 31.9534 28.8363 32.4852 28.8152C32.6129 28.8102 32.7387 28.788 32.8615 28.7525C33.3324 28.6164 33.7733 28.3863 34.1584 28.0747C34.5936 27.7226 34.9467 27.2753 35.1919 26.7655C36.0299 25.0191 35.5275 24.7504 36.012 24.7138C36.4965 24.6772 35.8253 26.796 35.7697 26.9304C35.7141 27.0647 34.4651 29.4889 32.5925 29.3932C30.7199 29.2976 30.4558 29.0126 30.154 28.113C29.8521 27.2133 30.0944 26.3381 29.8343 26.3564C29.5741 26.3747 29.2942 27.771 29.3676 28.3633C29.4411 28.9556 29.7648 30.9788 32.1258 30.8058C34.4869 30.6328 36.284 29.0289 36.7487 27.539C37.0138 26.5775 37.0588 25.5667 36.8807 24.5853C36.8687 24.5189 36.8416 24.4224 36.9078 24.4091C36.963 24.3979 37.0804 24.428 37.3266 24.5815C37.8488 24.9072 38.0534 24.2192 38.6888 24.1235C39.3242 24.0279 39.1356 24.3902 39.5645 24.3271C39.8548 24.3082 40.1263 24.1737 40.3211 23.9523C40.5159 23.731 40.6185 23.4403 40.607 23.1425C40.6181 22.6646 40.6168 22.3222 40.6136 22.1124C40.6112 21.9598 40.5105 21.8094 40.361 21.8402C40.2787 21.8572 40.2028 21.898 40.1424 21.9579C39.9736 22.1614 40.1225 22.8555 39.8624 22.9125C39.6022 22.9695 39.4335 22.2245 39.1157 22.1878C38.798 22.1512 38.3532 23.2056 37.9243 23.2585C37.4953 23.3114 37.8111 22.3202 37.402 22.2632C37.2193 22.2387 36.9731 22.7802 36.8798 22.5318C36.8023 22.3258 36.4734 19.532 36.3636 18.5862C36.3442 18.4198 36.4746 18.2758 36.6422 18.2758C36.8407 18.2758 36.9764 18.0754 36.9027 17.8911L36.271 16.3113C36.2651 16.2966 36.2597 16.2821 36.2537 16.2674C36.2055 16.1477 35.9534 15.5825 35.5533 15.7356C35.1065 15.9066 35.1065 16.8428 35.1561 17.0159C35.2006 17.1709 35.7493 20.9728 35.8625 21.7593C35.8764 21.8552 35.8935 21.948 35.9106 22.0434C35.9651 22.3469 36.0626 23.0381 35.8452 23.1425C35.5652 23.2768 35.2117 22.3588 34.6537 22.3018C34.0957 22.2448 32.807 22.6641 32.8268 23.8121C32.8467 24.9601 33.3669 25.3204 33.7204 25.359C34.0739 25.3977 34.892 24.6527 34.9953 24.785C35.0985 24.9173 34.336 27.0973 32.7712 27.2682C31.2064 27.4392 31.0377 26.2505 30.9999 25.5687C30.9622 24.8868 31.0237 24.4919 30.7934 24.7138Z" fill="#FCFCFC"/>
<path d="M38.1623 18.747C37.8563 19.0265 38.054 19.5361 38.4684 19.5361C38.5901 19.5361 38.7066 19.4873 38.792 19.4005L40.219 17.95C40.5283 17.6356 40.4925 17.1213 40.1426 16.8529C40.1342 16.8465 40.1259 16.8403 40.1174 16.8341C40.0441 16.78 39.6837 16.5004 39.85 16.3446C39.9817 16.2212 40.1911 16.4683 40.3005 16.6203C40.3498 16.6888 40.4121 16.7586 40.4965 16.7563C40.5396 16.7551 40.5818 16.7428 40.619 16.7204C40.6562 16.6981 40.6874 16.6665 40.7095 16.6285C40.7536 16.5529 40.7573 16.4604 40.7643 16.3731C40.7915 16.0336 40.6462 15.6699 40.0188 15.7095C39.3476 15.7502 39.2245 16.2855 39.5681 16.8453C39.5866 16.8751 39.6065 16.9057 39.6276 16.9369C39.7862 17.1665 39.6548 17.3838 39.4488 17.5721L38.1623 18.747Z" fill="#FCFCFC"/>
<path d="M39.7614 19.2305C39.95 19.1328 39.6104 19.9755 39.7614 20.1281C39.9123 20.2808 40.504 19.9246 40.6252 20.0325C40.7463 20.1403 40.1029 21.0502 39.7177 20.9504C39.3324 20.8507 38.977 20.4986 39.0524 20.0935C39.1279 19.6885 39.2371 19.4972 39.7614 19.2305Z" fill="#FCFCFC"/>
<path d="M41.2683 16.6881C41.318 16.5232 41.7151 16.8326 41.8085 17.6203C41.9018 18.408 42.0329 19.5743 42.4419 19.5356C42.851 19.497 43.1509 17.5002 43.3554 17.1277C43.5599 16.7552 43.9332 16.2871 44.251 16.3136C44.5687 16.34 44.7911 17.9175 44.7534 18.6828C44.7156 19.4481 45.2756 19.961 45.6847 19.9427C46.0937 19.9244 46.6915 18.925 46.5981 18.1271C46.5048 17.3292 46.1136 16.4275 46.2625 16.0449C46.4115 15.6622 46.5048 15.072 46.8225 15.0516C47.1402 15.0312 47.6049 15.9492 47.5493 16.7715C47.4937 17.5938 47.2892 19.904 48.3436 19.7901C49.3981 19.6761 48.4369 17.9582 48.0259 16.9405C47.9574 16.8006 47.9196 16.6471 47.9152 16.4908C47.9107 16.3344 47.9396 16.1789 48 16.0352C48.0603 15.8915 48.1506 15.763 48.2645 15.6589C48.3785 15.5547 48.5132 15.4774 48.6594 15.4322C48.846 15.3936 49.686 15.9105 49.9084 16.7308C50.1308 17.5511 49.8151 17.0952 49.5549 17.0952C49.2948 17.0952 49.3683 17.2987 49.5351 17.8971C49.7019 18.4955 49.7059 18.9657 49.9839 19.1184C50.2619 19.271 50.655 19.4094 50.8219 19.2262C50.9887 19.0431 51.4176 18.8741 51.2885 19.2262C51.1594 19.5784 50.9529 20.5147 50.5617 20.59C50.1705 20.6653 50.1129 20.2277 50.244 19.9793C50.3751 19.731 49.9839 19.788 49.7972 20.0933C49.6105 20.3986 49.4 21.1436 48.5104 21.164C47.6208 21.1843 47.6903 20.1707 47.1502 20.2277C46.61 20.2847 45.9945 21.2983 45.3411 21.3349C44.6878 21.3716 44.0186 20.8587 43.9809 20.3803C43.9432 19.902 44.1497 18.6217 43.8876 18.5261C43.6254 18.4304 43.3852 20.877 42.6207 20.8586C41.8561 20.8403 41.1849 19.8063 41.1115 19.1184C41.0732 18.3048 41.1258 17.4894 41.2683 16.6881Z" fill="#FCFCFC"/>
<path d="M42.9384 15.0455C43.1727 15.0048 42.6763 15.5829 42.6028 15.7335C42.5293 15.8841 42.3784 15.9635 42.4896 16.1833C42.6008 16.4031 42.8728 16.1731 42.9702 16.3441C43.0675 16.5151 42.7716 16.9222 42.4499 16.8428C42.1282 16.7634 41.8383 16.2993 41.9872 15.9492C42.1361 15.5991 42.6107 15.1025 42.9384 15.0455Z" fill="#FCFCFC"/>
<path d="M45.1453 15.8762C45.1294 15.925 45.1167 15.9741 45.1063 16.0243C45.0352 16.367 44.9662 16.9774 45.1228 17.1096C45.2916 17.2521 45.5875 16.8796 45.7185 16.3646C45.8496 15.8497 46.074 15.237 45.7185 15.1597C45.4268 15.0962 45.2127 15.6688 45.1453 15.8762Z" fill="#FCFCFC"/>
<path d="M38.3966 25.0581C38.1583 25.0581 38.472 25.6504 38.621 25.917C38.7699 26.1837 38.6766 27.063 38.7699 27.0833C38.8632 27.1037 39.2544 26.7394 39.2365 26.2997C39.2187 25.8601 39.0678 25.0764 38.3966 25.0581Z" fill="#FCFCFC"/>
<path d="M52.9745 25.2109C52.8944 25.1445 49.9413 25.1921 49.1085 25.2069C48.9627 25.2095 48.8179 25.2093 48.6758 25.1765C48.5721 25.1525 48.4719 25.1146 48.4807 25.0582C48.4986 24.9443 49.843 24.7143 50.3076 24.4089C50.7723 24.1036 51.4633 23.491 51.4455 22.8803C51.4276 22.2697 51.1099 21.1034 50.1964 21.0831C49.8496 21.0753 49.5458 21.1967 49.3053 21.4321C48.4211 22.2975 47.6492 23.3001 46.6916 24.0833C46.3182 24.3886 45.518 24.7896 45.4425 25.2109C45.3926 25.4896 45.1825 25.2891 45.1471 25.0082C45.0811 24.4859 44.9692 23.6403 44.9024 23.3566C44.7754 22.8741 44.6134 22.4019 44.4179 21.9441C44.3067 21.6957 44.0644 20.8347 43.6732 21.0831C43.282 21.3314 43.2244 22.115 43.6176 23.147C44.0108 24.1789 44.3404 25.5732 44.2133 26.2001C44.0335 26.9271 43.6594 27.5883 43.1331 28.1093C42.6307 28.5876 41.9039 29.3143 41.4928 29.3306C41.0818 29.3469 40.2636 29.2736 40.3947 28.7383C40.5258 28.203 41.7847 27.517 42.1084 27.0774C42.4321 26.6377 43.004 25.8724 43.004 25.0521C43.004 24.2319 42.6485 23.3546 42.5373 23.2569C42.4261 23.1592 42.5373 23.0065 42.7995 23.1409C43.0616 23.2752 43.1708 23.1979 42.998 22.7786C42.8253 22.3593 42.2891 21.3253 41.7113 21.651C41.1334 21.9766 41.1334 22.6829 41.2823 23.1226C41.4313 23.5622 42.1958 23.9632 42.1581 24.5921C42.1203 25.2211 41.6378 25.9884 40.7978 26.599C40.6721 26.6904 40.569 26.7652 40.4845 26.8262C40.235 27.0065 40.1591 26.9812 40.2143 26.6783C40.294 26.2412 39.9949 26.1827 39.792 26.578C39.65 26.8545 39.5269 27.141 39.4237 27.4356C39.358 27.7171 37.3894 28.953 36.8775 29.2704C36.7966 29.3205 36.7186 29.372 36.6419 29.4283C36.3103 29.6714 35.3787 30.372 35.4343 30.5294C35.5018 30.7208 37.6901 30.0898 38.0436 29.8618C38.397 29.6338 39.1258 29.2512 39.235 29.3448C39.3442 29.4385 39.8864 30.8938 40.8931 30.8266C41.8999 30.7594 43.6514 29.3448 43.9691 28.8299C44.2868 28.3149 44.5469 28.0157 44.7336 28.0462C44.9203 28.0768 45.8377 29.2308 46.207 29.5178C46.5764 29.8048 49.1857 30.5498 49.3366 29.9758C49.4875 29.4018 48.5919 28.9825 48.443 28.8482C48.2941 28.7138 47.7718 28.6202 47.883 28.2945C47.9942 27.9689 48.6098 27.4356 49.841 27.3969C50.6141 27.3953 51.3796 27.2398 52.0948 26.939C52.3192 26.8229 52.3371 26.2693 52.5615 25.9823C52.7859 25.6953 53.0659 25.2862 52.9745 25.2109ZM49.6563 22.4977C50.0098 22.4977 50.3454 22.9943 50.252 23.1653C50.1587 23.3363 49.7854 23.0126 49.6563 22.8803C49.5272 22.748 49.4557 22.4977 49.6563 22.4977ZM48.1014 26.6438C47.5971 27.1405 47.1503 27.1791 47.0013 27.5028C46.8524 27.8264 47.188 28.553 46.8028 28.5205C46.4175 28.4879 46.2229 28.0992 45.8873 27.7063C45.5517 27.3135 45.4207 26.54 45.5517 26.196C45.6828 25.852 46.0363 26.139 46.7432 26.196C47.4501 26.253 48.3258 26.4301 48.1014 26.6438Z" fill="#FCFCFC"/>
<path d="M29.1156 23.395C28.8019 23.5985 27.6064 24.7892 27.5488 25.0579C27.4913 25.3266 27.8844 25.1536 28.3332 24.9622C28.6574 24.824 29.6704 24.3174 30.2081 24.0466C30.4367 23.9315 30.6824 23.8508 30.9066 23.7273C31.0569 23.6446 31.1921 23.5304 31.1649 23.395C31.1073 23.108 30.3647 22.5727 29.1156 23.395Z" fill="#FCFCFC"/>
<path d="M27.7547 26.8715C27.852 26.8512 27.7726 27.5798 27.7547 28.0378C27.7368 28.4958 27.5958 29.3364 27.7766 29.4524C27.9573 29.5684 28.4815 28.8418 28.6106 29.0311C28.7396 29.2204 28.6682 30.7429 27.9414 30.6594C27.2146 30.576 26.9346 29.7842 27.1014 29.0779C27.2682 28.3716 27.3993 26.9489 27.7547 26.8715Z" fill="#FCFCFC"/>
<path d="M50.0273 29.0884C49.9876 29.3082 50.5694 29.1087 50.6985 29.2797C50.8276 29.4507 50.4999 29.7947 50.6985 29.986C50.8971 30.1773 51.612 29.872 51.89 29.815C52.168 29.758 52.7478 29.585 52.6724 29.357C52.5969 29.1291 52.2434 29.0701 52.0588 29.0884C51.8741 29.1067 51.7232 29.4527 51.4988 29.4324C51.2744 29.412 51.0877 29.3306 51.2009 29.0863C51.3141 28.8421 51.332 28.5164 51.1811 28.3821C51.0301 28.2478 50.1028 28.6874 50.0273 29.0884Z" fill="#FCFCFC"/>
<path d="M52.0409 16.7274L51.2561 15.9796C51.0846 15.8162 50.9334 15.6322 50.764 15.4666C50.5616 15.2688 50.2777 15.077 50.1207 15.3514C49.8585 15.8094 49.9717 16.7477 50.4007 17.3583C50.6641 17.7334 51.6096 19.0365 52.2997 19.9858C52.7974 20.6704 53.0655 21.4944 53.0655 22.3408V27.4302C53.0655 28.312 53.9151 28.8064 54.1657 27.9608C54.2845 27.5598 54.311 26.6997 54.2989 25.7978C54.2899 25.1234 55.2397 24.8565 55.5587 25.4507L55.7212 25.7535C55.9711 26.2188 56.6742 26.0665 56.709 25.5394C56.7157 25.4367 56.6922 25.3342 56.6413 25.2448L54.3372 21.1975C54.1003 20.7813 53.9401 20.326 53.8641 19.8532L53.6741 18.671C53.6537 18.5436 53.6231 18.4096 53.6697 18.2893C53.6908 18.2347 53.7283 18.1887 53.7943 18.1847C53.9631 18.1745 54.0922 18.4432 54.0922 18.1847C54.0922 17.9802 53.4036 16.6214 53.116 16.0628C53.0336 15.9028 52.9671 15.7352 52.8761 15.5799C52.7771 15.4111 52.6238 15.2349 52.4519 15.3453C52.1541 15.5366 52.3487 17.0205 52.0409 16.7274Z" fill="#FCFCFC"/>
<path d="M52.2922 17.5322C52.2205 17.3833 52.0033 17.3355 51.9268 17.482C51.9014 17.5306 51.9074 17.5958 51.9851 17.6819C52.2095 17.9302 52.4518 18.3515 52.4319 18.0462C52.4209 17.877 52.3605 17.674 52.2922 17.5322Z" fill="#FCFCFC"/>
<path d="M54.4564 15.7337C54.2181 15.811 54.2717 16.269 54.4564 16.4603C54.641 16.6517 55.072 17.0913 55.0164 17.478C54.9607 17.8648 54.7364 18.0724 54.9051 18.1965C55.0739 18.3207 55.3698 17.765 55.4274 17.4394C55.485 17.1137 55.483 16.4217 55.2586 16.153C55.0342 15.8843 54.7642 15.6299 54.4564 15.7337Z" fill="#FCFCFC"/>
<path d="M56.6089 15.5625C56.7141 15.4037 57.6891 17.3394 57.709 17.4534C57.7288 17.5674 57.9691 17.7974 57.709 17.9683C57.4489 18.1393 57.3118 18.3123 57.3118 18.579C57.3118 18.8456 57.7964 22.3994 57.8321 23.0569C57.8679 23.7143 57.7964 26.8224 57.8321 27.376C57.8679 27.9297 57.0696 29.3524 56.4163 30.0363C55.9446 30.53 55.0271 31.0534 54.3567 30.912C53.8326 30.8015 53.8305 30.1562 54.3094 29.9162C54.6516 29.7447 55.2125 29.2937 55.7425 28.8335C56.6278 28.0648 57.0625 26.9115 56.9883 25.7413L56.8333 23.2972C56.8293 23.2347 56.8242 23.175 56.8173 23.1127C56.7448 22.4574 56.3034 18.4651 56.2852 18.1943C56.2653 17.8991 56.3289 15.9818 56.6089 15.5625Z" fill="#FCFCFC"/>
<path d="M59.3318 18.8022C59.3021 18.605 59.2612 18.3946 59.3497 18.2159C59.4098 18.0946 59.5138 17.9936 59.6645 17.8954C59.9206 17.7285 59.6645 17.4883 59.6526 17.3784C59.6407 17.2685 58.612 15.3532 58.5108 15.514C58.2407 15.9414 58.2288 17.873 58.2546 18.16C58.2665 18.2964 58.6934 20.5089 58.9377 22.8598C59.1351 24.7552 59.2492 26.7398 59.301 27.7873C59.3188 28.1476 59.7014 28.3606 59.9067 28.064C60.0514 27.8551 60.1372 27.6095 60.155 27.354C60.262 26.4686 59.5505 20.407 59.4727 19.7503C59.4679 19.7096 59.4629 19.6724 59.4567 19.6319L59.3318 18.8022Z" fill="#FCFCFC"/>
<path d="M60.7268 20.0899C60.4925 20.2731 60.6335 20.7392 61.0068 21.3111C61.1274 21.4849 61.2642 21.6451 61.415 21.7897C61.861 22.2177 62.2503 22.0194 62.2549 21.4013C62.2559 21.2695 62.2559 21.1444 62.2559 21.0425C62.2559 20.6089 62.4048 20.4196 62.4544 20.4868C62.5041 20.554 62.8834 20.611 62.9211 20.4868C62.9588 20.3626 62.6967 19.693 62.659 19.636C62.6212 19.579 62.2499 19.119 62.0632 19.406C61.8766 19.693 61.952 20.2466 61.7098 20.4868C61.4675 20.727 61.118 19.7846 60.7268 20.0899Z" fill="#FCFCFC"/>
<path d="M63.3491 22.3158C63.3406 22.321 63.3336 22.3264 63.3256 22.3324C63.1683 22.449 61.3495 23.7984 61.3248 23.853C61.299 23.91 61.0825 24.1786 61.1004 24.4269C61.1183 24.6753 61.3983 24.9623 61.5472 24.7506C61.6647 24.5836 62.8146 23.7255 63.2955 23.3702C63.4346 23.2674 63.5691 23.1489 63.6229 22.9845C63.6502 22.9008 63.6551 22.8111 63.6416 22.7241C63.6099 22.5191 63.5164 22.212 63.3491 22.3158Z" fill="#FCFCFC"/>
<path d="M63.672 24.7031C63.5271 24.0262 62.7293 24.2864 62.9315 24.9484C63.0029 25.1824 63.2075 25.5224 63.1876 25.732C63.1678 25.9417 63.134 26.593 63.1876 26.6113C63.2412 26.6296 63.7258 26.593 63.7258 25.274C63.7258 25.0478 63.7055 24.8596 63.672 24.7031Z" fill="#FCFCFC"/>
<path d="M67.2515 16.9592C67.0311 16.9917 66.9338 17.5494 67.2515 18.1031C67.5692 18.6567 67.6983 18.8134 67.5851 19.2225C67.4791 19.5309 67.8106 19.6546 67.9162 19.346C67.9907 19.1282 68.0357 18.824 67.9962 18.4043C67.885 17.2238 67.4938 16.9246 67.2515 16.9592Z" fill="#FCFCFC"/>
<path d="M58.7715 26.607C58.8628 26.607 58.9005 28.2088 58.97 28.5345C59.0395 28.8602 59.119 29.4525 59.6591 29.4525C60.1992 29.4525 60.7771 28.0277 60.8903 27.7326C61.0035 27.4374 61.3946 26.3078 61.766 26.3078C62.1373 26.3078 62.9018 27.7794 63.6485 27.7977C64.3951 27.816 64.2085 26.6721 64.2263 26.0798C64.2387 25.6693 64.0909 23.0749 63.999 21.5208C63.9536 20.7545 63.687 20.019 63.2328 19.4002L62.3656 18.2187C61.9057 17.592 61.6219 16.8448 61.6285 16.0675C61.6311 15.76 61.6483 15.509 61.6965 15.4916C61.8256 15.4447 63.3208 16.9347 63.301 16.953C63.2811 16.9713 63.3943 17.0873 63.1322 17.1565C62.906 17.2162 63.0007 17.3244 63.0551 17.4066C63.0708 17.4302 63.0866 17.4541 63.1064 17.4744C63.255 17.6269 63.4929 17.5067 63.4845 17.2939L63.4301 15.9154C63.4301 15.9151 63.4301 15.9151 63.43 15.9148C63.4297 15.9053 63.4148 15.4734 63.6544 15.4834C63.8347 15.491 64.5723 16.7391 64.9381 17.3776C65.0748 17.6163 65.1951 18.1734 64.9472 18.0541C64.7863 17.9768 64.6295 17.8832 64.5917 17.9402C64.5605 17.9873 64.6706 19.0944 64.7096 19.4755C64.7182 19.5598 64.748 19.6396 64.7961 19.7093C65.1001 20.15 65.7909 19.8784 65.7134 19.3486L65.2556 16.2211C65.2407 16.1192 65.2361 16.0147 65.267 15.9164C65.3196 15.7492 65.449 15.5009 65.7554 15.4834C66.22 15.457 66.5199 16.4685 66.7066 17.0995C66.8932 17.7305 67.0799 18.0338 66.9488 18.1966C66.8178 18.3595 66.6311 18.1315 66.5954 18.3025C66.5694 18.4267 66.9155 21.0935 67.1067 22.5432C67.1866 23.1488 67.4054 23.7262 67.745 24.234L68.9577 26.0472C69.0213 26.1424 69.0526 26.2555 69.0468 26.3699L69.0294 26.7152C69.0087 27.127 68.4707 27.2683 68.2503 26.9197L68.1781 26.8054C67.9747 26.4837 67.4773 26.6243 67.4724 27.0049C67.4715 27.0735 67.4526 27.1401 67.4162 27.1983C67.2535 27.4585 66.772 28.2108 66.5576 28.3534C66.2975 28.5264 66.3154 23.8429 66.3154 23.7472C66.3154 23.6515 65.3642 22.2736 65.2709 22.2858C65.1868 22.2968 65.2541 25.783 65.2684 26.4773C65.27 26.558 65.2693 26.6371 65.2662 26.7177L65.2485 27.1739C65.2383 27.4371 65.2053 27.6998 65.1145 27.9471C64.9307 28.4478 64.5251 29.2693 63.8431 29.2693C62.8621 29.2693 62.465 27.932 61.8573 28.0094C61.2497 28.0867 61.0789 31.0421 60.1734 30.9383C59.2679 30.8345 58.559 29.8799 58.41 29.31C58.2611 28.7401 58.2115 26.5907 58.7715 26.607Z" fill="#FCFCFC"/>
<path d="M66.1879 29.0049C65.9554 28.9066 65.6857 28.9319 65.4425 28.9995C65.3038 29.0381 65.1827 29.1003 65.1827 29.2042C65.1827 29.4159 65.6474 29.6113 65.6673 29.7375C65.6871 29.8637 65.0338 30.4764 65.1827 30.6697C65.3317 30.8631 65.8341 30.5781 66.0386 30.4255C66.2431 30.2728 66.6741 30.2545 66.6343 30.0449C66.5946 29.8352 66.0386 29.8718 66.0386 29.7009C66.0386 29.5299 66.3007 29.2225 66.2809 29.0902C66.2755 29.0543 66.2386 29.0264 66.1879 29.0049Z" fill="#FCFCFC"/>
<path d="M69.2556 27.5316C69.2444 27.8448 69.1318 28.1378 68.9675 28.4047C68.7034 28.8339 68.2814 29.4679 68.0163 29.6051C67.6072 29.8168 66.2648 30.3989 66.3582 30.6697C66.4515 30.9404 68.1076 31.0991 68.9516 30.4885C69.556 30.0511 69.8875 29.0843 70.0269 28.5709C70.0872 28.3491 70.1091 28.12 70.1121 27.8902C70.1243 26.9642 70.1524 24.4492 70.1073 23.7838C70.0517 22.9636 69.6585 19.0637 69.5115 18.5101C69.3646 17.9564 69.587 17.9178 69.6605 17.8791C69.7339 17.8404 70.1589 17.8994 70.1331 17.6878C70.1105 17.5028 69.2979 16.2856 69.0933 15.9816C69.0623 15.9357 69.0325 15.8892 69.0013 15.8435C68.9298 15.7387 68.7913 15.5529 68.7113 15.5587C68.6001 15.5669 68.338 16.0269 68.3757 16.7535C68.411 17.4329 69.0746 23.7048 69.1608 24.5175C69.167 24.5761 69.1717 24.6321 69.1752 24.691C69.1978 25.0799 69.286 26.6797 69.2556 27.5316Z" fill="#FCFCFC"/>
<path d="M64.2499 43.0346C64.1102 42.8706 63.8196 42.8828 63.5807 42.9293C63.3287 42.9782 63.0757 43.0346 62.8191 43.0346H60.4933C60.232 43.0346 60.0494 42.7794 60.1493 42.538C60.2605 42.2693 60.1136 42.1574 59.8137 42.0414C59.5139 41.9253 59.7025 41.6587 59.4424 41.6587C59.1823 41.6587 59.0691 42.0413 59.0313 42.2693C58.9748 42.6112 58.9067 43.0264 58.5602 43.0224L36.6492 42.7691C35.4509 42.7552 35.0691 44.3942 36.2635 44.2967C36.3046 44.2933 36.2853 44.2966 36.3265 44.2966H58.4168C58.8554 44.2966 59.1817 44.6996 59.1525 45.1372C59.1525 45.4039 59.4523 46.0532 59.8614 46.0572C60.2191 46.0608 60.4757 45.5199 60.8334 45.5199H62.3658C62.8511 45.5199 63.4417 46.0017 63.9243 46.0531C64.6312 46.1285 64.9688 44.9072 64.9688 44.5632C64.9688 44.2192 64.5121 43.3399 64.2499 43.0346ZM62.7844 45.009C62.6732 44.9968 62.3615 45.0355 62.2245 45.009C62.0874 44.9825 62.1132 44.7423 61.7161 44.7098C61.6683 44.6992 61.6189 44.6985 61.5709 44.7079C61.5228 44.7173 61.4771 44.7366 61.4365 44.7645C61.3959 44.7925 61.3612 44.8285 61.3346 44.8705C61.2883 44.9434 61.2182 45.009 61.1319 45.009H60.3241C59.8137 45.009 59.6668 44.3984 59.8892 44.4106C60.1593 44.4297 61.626 44.4212 62.4163 44.415C62.7517 44.4123 63.273 44.379 63.2928 44.7139C63.3047 44.9154 62.8956 45.0212 62.7844 45.009Z" fill="#FCFCFC"/>
</svg>
