<svg width="96" height="60" viewBox="0 0 96 60" fill="none" xmlns="http://www.w3.org/2000/svg">
<path d="M91.0837 0H4.91626C2.70712 0 0.91626 1.79086 0.91626 4V56C0.91626 58.2091 2.70712 60 4.91625 60H91.0837C93.2928 60 95.0837 58.2091 95.0837 56V4C95.0837 1.79086 93.2928 0 91.0837 0Z" fill="#2B4BA5"/>
<path d="M91.0832 0H53.8066C51.5975 0 49.8066 1.79086 49.8066 4V56C49.8066 58.2091 51.5975 60 53.8066 60H91.0832C93.2924 60 95.0832 58.2091 95.0832 56V4C95.0832 1.79086 93.2924 0 91.0832 0Z" fill="#DB2E2E"/>
<path d="M60.0257 0.0200195H36.2129C34.0038 0.0200195 32.2129 1.81088 32.2129 4.02002V55.9796C32.2129 58.1888 34.0038 59.9796 36.2129 59.9796H60.0257C62.2349 59.9796 64.0257 58.1888 64.0257 55.9796V4.02002C64.0257 1.81088 62.2349 0.0200195 60.0257 0.0200195Z" fill="#FFF915"/>
</svg>
