<svg width="96" height="60" viewBox="0 0 96 60" fill="none" xmlns="http://www.w3.org/2000/svg">
<path d="M91.0973 40.0068H4.90283C2.69369 40.0068 0.902832 41.7977 0.902832 44.0068V56.0001C0.902832 58.2092 2.69369 60.0001 4.90283 60.0001H91.0973C93.3064 60.0001 95.0973 58.2092 95.0973 56.0001V44.0068C95.0973 41.7977 93.3064 40.0068 91.0973 40.0068Z" fill="#FFC900"/>
<path d="M91.0973 20.0137H4.90283C2.69369 20.0137 0.902832 21.8045 0.902832 24.0137V36.0069C0.902832 38.2161 2.69369 40.0069 4.90283 40.0069H91.0973C93.3064 40.0069 95.0973 38.2161 95.0973 36.0069V24.0137C95.0973 21.8045 93.3064 20.0137 91.0973 20.0137Z" fill="#DE0505"/>
<path d="M91.0973 0H4.90283C2.69369 0 0.902832 1.79086 0.902832 4V15.9932C0.902832 18.2024 2.69369 19.9932 4.90283 19.9932H91.0973C93.3064 19.9932 95.0973 18.2024 95.0973 15.9932V4C95.0973 1.79086 93.3064 0 91.0973 0Z" fill="black"/>
</svg>
