<svg width="48" height="48" viewBox="0 0 48 48" fill="none" xmlns="http://www.w3.org/2000/svg">
<rect width="48" height="48" rx="24" fill="#28B4FF"/>
<path fill-rule="evenodd" clip-rule="evenodd" d="M24.1865 32.1743C24.1803 32.1712 24.1771 32.1681 24.1709 32.165C24.1771 32.1681 24.1834 32.1712 24.1865 32.1743Z" fill="url(#paint0_linear_380_5905)"/>
<path fill-rule="evenodd" clip-rule="evenodd" d="M23.8821 31.8734C23.8758 31.8703 23.8727 31.8672 23.8665 31.8641C23.8727 31.8672 23.8758 31.8703 23.8821 31.8734Z" fill="url(#paint1_linear_380_5905)"/>
<path fill-rule="evenodd" clip-rule="evenodd" d="M30.0242 32.1743C30.0304 32.1712 30.0335 32.1681 30.0398 32.165C30.0335 32.1681 30.0304 32.1712 30.0242 32.1743Z" fill="url(#paint2_linear_380_5905)"/>
<path fill-rule="evenodd" clip-rule="evenodd" d="M29.9192 32.228C29.9244 32.2228 29.9244 32.2228 29.9192 32.228C29.9244 32.2228 29.9244 32.2228 29.9192 32.228Z" fill="url(#paint3_linear_380_5905)"/>
<path fill-rule="evenodd" clip-rule="evenodd" d="M30.3313 31.8734C30.3375 31.8703 30.3407 31.8672 30.3469 31.8641C30.3407 31.8672 30.3375 31.8703 30.3313 31.8734Z" fill="url(#paint4_linear_380_5905)"/>
<path fill-rule="evenodd" clip-rule="evenodd" d="M12.1866 24.1951C12.599 22.9854 13.8364 21.9795 14.7399 20.9735C12.5303 22.0959 7.78046 26.1391 9.73146 28.8269C10.7037 30.1725 13.149 30.4021 14.681 30.4021C15.8496 30.4021 17.0379 30.2857 18.1869 30.0528C24.0399 28.8916 29.4575 25.7283 33.9062 21.8792L34.1713 21.656L34.8293 21.077L34.9177 23.1471L38.5611 17.3929L35.3007 18.7676L35.2221 18.8064L32.4527 19.9676L34.5543 20.4884L33.9062 20.9056C33.8472 20.9347 33.7981 20.9735 33.7392 21.0026L33.4348 21.1967C29.1432 23.9137 22.9596 27.3779 17.8333 27.9083C17.7548 27.918 17.6664 27.9277 17.578 27.9374H17.5551C17.4667 27.9471 17.3783 27.9568 17.2998 27.9666H17.2899C17.2114 27.9666 17.123 27.9763 17.0444 27.986H17.0248C16.956 27.986 16.8873 27.9957 16.8087 27.9957H16.7695C16.7007 28.0054 16.6222 28.0054 16.5534 28.0054H16.5141C16.4454 28.0151 16.3865 28.0151 16.3177 28.0151H16.2784C16.2195 28.0151 16.1508 28.0151 16.0918 28.0151H16.0329C15.9838 28.0151 15.9347 28.0151 15.8856 28.0151H15.7776H15.6892C15.6401 28.0151 15.591 28.0151 15.5517 28.0151L15.4535 28.0054H15.3651L15.2473 27.9957C14.8446 27.9763 14.4322 27.9277 14.0394 27.8404C12.7234 27.5493 11.5843 26.8248 11.8003 25.3175C11.8625 24.9293 12.0098 24.5509 12.1866 24.1951ZM38.5774 17.3671L38.6364 17.2797L38.548 17.3088L38.5774 17.3671Z" fill="white"/>
<path fill-rule="evenodd" clip-rule="evenodd" d="M13.611 26.9025C13.6012 26.3818 13.7583 25.0556 15.251 23.9915V21.8535C14.2395 22.5974 12.079 24.7839 12.6683 26.1295C12.8254 26.4853 13.1691 26.7279 13.611 26.9025Z" fill="#28B4FF"/>
<path fill-rule="evenodd" clip-rule="evenodd" d="M9.05402 27.32C8.93618 31.0526 14.9561 30.9458 18.2329 30.2989C24.0466 29.1475 29.4151 26.0132 33.8638 22.2515C34.1093 22.038 34.3548 21.8245 34.6003 21.6143L34.6298 22.3097L34.6985 23.9528L38.6365 17.7426L35.1994 24.1728V30.9232C35.1994 32.4208 33.9522 33.6499 32.4202 33.6499H22.7601H18.0168H17.9677H17.9383H17.9186H17.8793H17.8695C16.6321 33.582 15.2376 32.5178 15.3555 31.2111C15.3555 31.2175 8.31749 31.7771 9.05402 27.32Z" fill="white"/>
<path fill-rule="evenodd" clip-rule="evenodd" d="M20.1772 33.1421H32.4201C33.6575 33.1421 34.669 32.1458 34.669 30.9264V26.2461C34.669 26.2461 30.5738 32.4046 20.1772 33.1421Z" fill="white"/>
<path fill-rule="evenodd" clip-rule="evenodd" d="M18.0169 14H32.4202C33.9522 14 35.1994 15.2291 35.1994 16.7267V18.2825L38.9999 16.9369L35.1994 18.5413L35.1208 18.5704L31.6739 20.0227L33.2058 20.4108L33.9326 20.5855C33.9326 20.5855 32.8425 21.2615 32.7443 21.3197C25.7161 25.5375 21.0416 27.3262 17.8106 27.6658C16.0331 27.8599 11.6532 28.0734 12.046 25.3531C12.2719 23.8167 14.0101 22.0539 15.2475 21.1741V16.7267C15.2475 15.2291 16.4947 14 18.0169 14ZM23.6145 19.0297H26.8258C26.8258 21.4006 26.8258 21.6787 26.8258 24.0593C26.0696 24.4378 25.3037 24.7936 24.5278 25.1235C24.2332 25.2593 23.9288 25.3855 23.6145 25.5116C23.6145 22.6459 23.6145 21.8825 23.6145 19.0297ZM28.4331 16.4097H31.6346V19.544L29.916 20.1423L31.6346 20.579V21.3812C30.5838 22.0184 29.5134 22.6394 28.4331 23.2281V16.4097ZM18.8025 21.6399H22.0138C22.0138 23.6615 22.0138 24.0949 22.0138 26.1165C20.963 26.4755 19.8729 26.7828 18.8025 26.9769V21.6399ZM15.2475 27.2033V21.8534C14.236 22.5973 12.0755 24.7839 12.6647 26.1294C12.9822 26.8637 14.1018 27.1256 15.2475 27.2033Z" fill="white"/>
<path fill-rule="evenodd" clip-rule="evenodd" d="M15.7676 20.8185V27.2487C15.7676 27.2487 16.3863 25.5182 18.2816 23.3026V21.1258H20.4618C21.2179 20.4691 22.092 19.8093 23.0936 19.1624V19.0266V18.5058H24.1837C25.2836 17.8783 26.521 17.2767 27.9057 16.7365V15.8955H30.3804C31.4607 15.5656 32.6195 15.2777 33.8667 15.0352C33.4739 14.7149 32.973 14.5144 32.4231 14.5144H18.0197C16.7824 14.5144 15.7709 15.5203 15.7709 16.73V20.8185H15.7676Z" fill="white"/>
<path fill-rule="evenodd" clip-rule="evenodd" d="M35.1992 18.2858L31.7817 19.4858L35.1992 17.7036V18.2858Z" fill="#E3E3E3"/>
<defs>
<linearGradient id="paint0_linear_380_5905" x1="24.1815" y1="32.1746" x2="24.1802" y2="32.1648" gradientUnits="userSpaceOnUse">
<stop stop-color="white"/>
<stop offset="0.0544" stop-color="#E7E7E7"/>
<stop offset="0.2044" stop-color="#ABABAB"/>
<stop offset="0.3536" stop-color="#777777"/>
<stop offset="0.4985" stop-color="#4C4C4C"/>
<stop offset="0.6382" stop-color="#2B2B2B"/>
<stop offset="0.7712" stop-color="#131313"/>
<stop offset="0.8949" stop-color="#050505"/>
<stop offset="1"/>
</linearGradient>
<linearGradient id="paint1_linear_380_5905" x1="23.8745" y1="31.8731" x2="23.8732" y2="31.8632" gradientUnits="userSpaceOnUse">
<stop stop-color="white"/>
<stop offset="0.0544" stop-color="#E7E7E7"/>
<stop offset="0.2044" stop-color="#ABABAB"/>
<stop offset="0.3536" stop-color="#777777"/>
<stop offset="0.4985" stop-color="#4C4C4C"/>
<stop offset="0.6382" stop-color="#2B2B2B"/>
<stop offset="0.7712" stop-color="#131313"/>
<stop offset="0.8949" stop-color="#050505"/>
<stop offset="1"/>
</linearGradient>
<linearGradient id="paint2_linear_380_5905" x1="30.0312" y1="32.1746" x2="30.0325" y2="32.1648" gradientUnits="userSpaceOnUse">
<stop stop-color="white"/>
<stop offset="0.0544" stop-color="#E7E7E7"/>
<stop offset="0.2044" stop-color="#ABABAB"/>
<stop offset="0.3536" stop-color="#777777"/>
<stop offset="0.4985" stop-color="#4C4C4C"/>
<stop offset="0.6382" stop-color="#2B2B2B"/>
<stop offset="0.7712" stop-color="#131313"/>
<stop offset="0.8949" stop-color="#050505"/>
<stop offset="1"/>
</linearGradient>
<linearGradient id="paint3_linear_380_5905" x1="29.9234" y1="32.226" x2="29.9238" y2="32.223" gradientUnits="userSpaceOnUse">
<stop stop-color="white"/>
<stop offset="0.0544" stop-color="#E7E7E7"/>
<stop offset="0.2044" stop-color="#ABABAB"/>
<stop offset="0.3536" stop-color="#777777"/>
<stop offset="0.4985" stop-color="#4C4C4C"/>
<stop offset="0.6382" stop-color="#2B2B2B"/>
<stop offset="0.7712" stop-color="#131313"/>
<stop offset="0.8949" stop-color="#050505"/>
<stop offset="1"/>
</linearGradient>
<linearGradient id="paint4_linear_380_5905" x1="30.3377" y1="31.8731" x2="30.339" y2="31.8632" gradientUnits="userSpaceOnUse">
<stop stop-color="white"/>
<stop offset="0.0544" stop-color="#E7E7E7"/>
<stop offset="0.2044" stop-color="#ABABAB"/>
<stop offset="0.3536" stop-color="#777777"/>
<stop offset="0.4985" stop-color="#4C4C4C"/>
<stop offset="0.6382" stop-color="#2B2B2B"/>
<stop offset="0.7712" stop-color="#131313"/>
<stop offset="0.8949" stop-color="#050505"/>
<stop offset="1"/>
</linearGradient>
</defs>
</svg>
