<svg width="48" height="48" viewBox="0 0 48 48" fill="none" xmlns="http://www.w3.org/2000/svg">
<rect width="48" height="48" rx="24" fill="#913CEA"/>
<path d="M27.2641 18.1581L27.258 15.9527L14.893 17.5198C13.3127 17.7134 12.1778 19.1641 12.3729 20.7422C12.5668 22.3203 14.0194 23.4537 15.5997 23.2589L27.4445 21.802" fill="url(#paint0_linear_401_5853)"/>
<path d="M19.9309 16.944L19.937 13.6872L32.5179 12.0233C34.0982 11.8273 35.5521 12.9582 35.7472 14.5363C35.9435 16.1145 34.8111 17.5664 33.2308 17.7612L27.1894 18.4853L27.1722 15.9246L19.9309 16.944Z" fill="url(#paint1_linear_401_5853)"/>
<path d="M19.9284 16.4796L19.9345 13.6137L32.5191 12.0221C34.0994 11.826 35.5533 12.957 35.7483 14.5351C35.9447 16.1132 34.8122 17.5652 33.2319 17.76L16.6782 19.7976L16.6807 23.3986" stroke="white" stroke-miterlimit="10" stroke-linecap="round" stroke-linejoin="round"/>
<path d="M27.2641 18.1581L27.258 15.9527L14.893 17.5198C13.3127 17.7134 12.1778 19.1641 12.3729 20.7422C12.5668 22.3203 14.0194 23.4537 15.5997 23.2589L27.4445 21.802" stroke="white" stroke-miterlimit="10" stroke-linecap="round" stroke-linejoin="round"/>
<path d="M35.7324 14.5056C35.9288 16.0837 34.7963 17.5357 33.216 17.7305L16.6783 19.7975L16.6685 32.0427L33.2136 29.9512C34.7938 29.7552 35.9263 28.3045 35.73 26.7263L35.757 26.7888L35.7484 14.5436" fill="url(#paint2_linear_401_5853)"/>
<path d="M35.7324 14.5056C35.9288 16.0837 34.7963 17.5357 33.216 17.7305L16.6783 19.7975L16.6685 32.0427L33.2136 29.9512C34.7938 29.7552 35.9263 28.3045 35.73 26.7263L35.757 26.7888L35.7484 14.5436" stroke="white" stroke-miterlimit="10" stroke-linecap="round" stroke-linejoin="round"/>
<path d="M36.1141 24.9706C35.8209 26.4605 34.9584 28.0411 33.1155 28.2372L18.7139 29.9243L18.7175 23.0212C18.7433 23.0249 18.7691 23.031 18.7948 23.0347C19.8254 23.1536 20.7591 22.416 20.8782 21.3855C20.8855 21.3206 20.8892 21.2556 20.8892 21.1907L31.8788 19.8172C34.0971 19.5427 35.6933 18.7132 36.1166 17.5639L36.1055 15.829C35.8062 17.5835 34.4038 18.636 31.772 18.962L18.2329 20.654C18.017 20.681 17.855 20.8648 17.855 21.0817L17.8501 30.4083C17.8501 30.5321 17.9029 30.6485 17.9949 30.7306C18.0746 30.8016 18.1765 30.8396 18.282 30.8396C18.2992 30.8396 18.3151 30.8384 18.3323 30.8372L33.2124 29.0948C34.5105 28.9564 35.9215 27.7912 36.1178 26.8931L36.1141 24.9706Z" fill="white"/>
<path d="M12.3729 20.36C12.5667 21.9381 14.0194 23.0715 15.5997 22.8767L32.3595 20.7778L32.3485 32.9985L15.5886 35.0912C14.0084 35.2848 12.5557 34.1527 12.3618 32.5746H12.368L12.3606 20.3122L12.3655 20.4016" fill="url(#paint3_linear_401_5853)"/>
<path d="M12.3729 20.36C12.5667 21.9381 14.0194 23.0715 15.5997 22.8767L32.3595 20.7778L32.3485 32.9985L15.5886 35.0912C14.0084 35.2848 12.5557 34.1527 12.3618 32.5746H12.368L12.3606 20.3122L12.3655 20.4016" stroke="white" stroke-miterlimit="10" stroke-linecap="round" stroke-linejoin="round"/>
<path d="M31.1572 22.0533C31.064 21.9712 30.9413 21.9333 30.8186 21.948L16.6132 23.7086C15.1336 23.825 13.6858 23.4391 12.8294 22.7027C12.4184 22.3486 12.1399 21.932 12.0025 21.4591L12.0074 23.009C12.0798 23.1291 12.1485 23.2541 12.265 23.3545C13.3067 24.2514 14.9606 24.7048 16.6905 24.5663C16.6967 24.5663 16.7028 24.5651 16.7089 24.5639L28.5488 23.096C28.5782 24.1069 29.4064 24.9192 30.426 24.9192C30.4297 24.9192 30.4321 24.9192 30.4358 24.9192L30.4309 29.5972C29.4408 29.6511 28.6543 30.4672 28.6543 31.4694C28.6543 31.5454 28.6604 31.6189 28.669 31.6924L16.6059 33.1836C14.7091 33.3024 12.5264 32.5734 12.0074 30.216L12 31.8493C12.6024 33.2448 14.3839 34.0584 16.19 34.0584C16.3482 34.0584 16.5102 34.0535 16.6746 34.0425C16.6832 34.0425 16.6918 34.0412 16.6991 34.04L30.9131 32.2842C31.129 32.2573 31.291 32.0747 31.2922 31.8566L31.302 22.3756C31.3032 22.253 31.2505 22.1354 31.1572 22.0533Z" fill="white"/>
<path d="M18.0867 31.6127V30.831C17.7284 30.8727 17.3493 30.8617 17.0278 30.7967L17.1849 30.0554C17.5076 30.0995 17.9223 30.1204 18.3443 30.0481C18.9455 29.9439 19.0314 29.7883 19.0314 29.3423C19.0314 28.8963 18.9958 28.8253 18.2658 28.7763C17.1849 28.6991 17.0561 28.4626 17.0561 27.562C17.0561 26.7472 17.3566 26.3086 18.2584 26.1003V25.3051L18.9811 25.1985V25.9913C19.2461 25.9655 19.5676 25.9582 19.8252 25.9827L19.732 26.7362C19.3884 26.7191 18.9161 26.7436 18.5652 26.7987C18.0719 26.8759 17.9284 26.9764 17.9284 27.4456C17.9284 27.9014 17.9566 27.91 18.6376 27.9848C19.862 28.1244 19.905 28.3499 19.905 29.1867C19.905 29.9966 19.662 30.4549 18.8032 30.6975V31.4829L18.0867 31.6127Z" fill="white"/>
<path opacity="0.7" d="M24.0237 30.1001L23.9857 29.6179C23.7667 29.661 23.5323 29.6726 23.3309 29.6481L23.3917 29.1832C23.5929 29.1948 23.8497 29.1875 24.1065 29.1224C24.4723 29.029 24.5177 28.9288 24.496 28.6537C24.4743 28.3786 24.4489 28.3365 23.9962 28.3417C23.3256 28.3466 23.2347 28.2069 23.1908 27.6514C23.1511 27.1488 23.3152 26.8636 23.8614 26.6914L23.8226 26.2009L24.2632 26.1L24.3018 26.589C24.464 26.5603 24.662 26.5402 24.8221 26.5428L24.8013 27.0121C24.5885 27.0182 24.2983 27.0563 24.0846 27.1073C23.7841 27.1789 23.7004 27.2478 23.7233 27.5373C23.7454 27.8184 23.7633 27.8224 24.1869 27.8354C24.9491 27.8621 24.9865 27.9991 25.0273 28.5153C25.0667 29.0149 24.9392 29.3094 24.4212 29.5007L24.4594 29.9852L24.0237 30.1001Z" fill="white"/>
<path opacity="0.4" d="M28.0438 28.5009L28.0372 28.2824C27.9375 28.2971 27.8315 28.2972 27.7411 28.2817L27.7787 28.0732C27.8693 28.0829 27.9853 28.0852 28.1026 28.0614C28.2697 28.0273 28.2923 27.983 28.2886 27.8584C28.2848 27.7338 28.2743 27.7142 28.0699 27.7066C27.7673 27.6942 27.7293 27.6292 27.7217 27.3775C27.7148 27.1498 27.7951 27.0246 28.0453 26.9588L28.0385 26.7366L28.2395 26.7007L28.2462 26.9223C28.32 26.9128 28.4098 26.9081 28.482 26.9128L28.4623 27.1241C28.3662 27.1222 28.2344 27.1331 28.1368 27.1514C27.9997 27.1772 27.9605 27.2065 27.9644 27.3376C27.9683 27.465 27.9762 27.4671 28.1671 27.4823C28.5103 27.511 28.5242 27.5737 28.5313 27.8076C28.5382 28.0339 28.4742 28.164 28.2363 28.2391L28.2429 28.4586L28.0438 28.5009Z" fill="white"/>
<defs>
<linearGradient id="paint0_linear_401_5853" x1="12.3511" y1="19.6167" x2="27.4445" y2="19.6167" gradientUnits="userSpaceOnUse">
<stop stop-color="#FF8C84"/>
<stop offset="1" stop-color="#FF9CAD"/>
</linearGradient>
<linearGradient id="paint1_linear_401_5853" x1="27.8501" y1="12.0013" x2="27.8501" y2="18.4853" gradientUnits="userSpaceOnUse">
<stop stop-color="#FFA6A5"/>
<stop offset="1" stop-color="#8555EA"/>
</linearGradient>
<linearGradient id="paint2_linear_401_5853" x1="26.2127" y1="14.5056" x2="26.2127" y2="32.0427" gradientUnits="userSpaceOnUse">
<stop stop-color="#FFA6A5"/>
<stop offset="1" stop-color="#8555EA"/>
</linearGradient>
<linearGradient id="paint3_linear_401_5853" x1="12.3606" y1="27.7125" x2="32.3595" y2="27.7125" gradientUnits="userSpaceOnUse">
<stop stop-color="#FFABA5"/>
<stop offset="1" stop-color="#FF7C92"/>
</linearGradient>
</defs>
</svg>
