<svg width="48" height="48" viewBox="0 0 48 48" fill="none" xmlns="http://www.w3.org/2000/svg">
<rect width="48" height="48" rx="24" fill="#FF7F00"/>
<path fill-rule="evenodd" clip-rule="evenodd" d="M30.2145 10.4573L28.8093 16.0131H31.7734L32.4594 13.3019C32.5663 13.0358 32.8284 12.8467 33.1353 12.8446L36.5637 12.846V12.8453C37.3573 12.8453 38 12.2096 38 11.4255C38 10.6414 37.3565 10.0057 36.5637 10.0057V10.0043L31.4998 10.0029L31.4189 10H30.8903C30.5835 10.0029 30.3213 10.1912 30.2145 10.4573Z" fill="white"/>
<path fill-rule="evenodd" clip-rule="evenodd" d="M18.9703 35.3594C18.9703 33.9982 17.9182 32.8716 16.5766 32.7339C16.4849 32.7246 16.3925 32.7196 16.2987 32.7196C16.2243 32.7196 16.1513 32.7225 16.0784 32.7282C14.9411 32.8195 14.0053 33.615 13.7179 34.6724C13.6674 34.8593 13.6363 35.0548 13.6291 35.2567L13.627 35.3594C13.627 36.817 14.8235 38 16.2987 38C16.3925 38 16.4849 37.995 16.5766 37.9857C17.8843 37.8509 18.9176 36.7771 18.9689 35.4622L18.9703 35.3594Z" fill="white"/>
<path fill-rule="evenodd" clip-rule="evenodd" d="M25.0652 35.4621C25.1193 36.8726 26.2941 37.9999 27.7354 37.9999C27.8293 37.9999 27.9217 37.9949 28.0134 37.9856C29.355 37.8472 30.4071 36.7214 30.4071 35.3601C30.4071 35.2395 30.3991 35.1204 30.3825 35.0041C30.3045 34.4348 30.041 33.9225 29.6554 33.5279C29.36 33.2261 28.9933 32.9936 28.5824 32.8565C28.4004 32.7959 28.2098 32.7545 28.0134 32.7346C27.9217 32.7253 27.8293 32.7203 27.7354 32.7203C27.6553 32.7203 27.5758 32.7239 27.4971 32.731C26.8956 32.7838 26.3519 33.0328 25.9309 33.413C25.562 33.7469 25.2883 34.1822 25.1547 34.6738C25.1063 34.8528 25.076 35.0391 25.0666 35.2302C25.0644 35.2738 25.0637 35.3166 25.0637 35.3608L25.0652 35.4621Z" fill="white"/>
<path fill-rule="evenodd" clip-rule="evenodd" d="M16.1969 31.7421C14.5548 31.7421 13.1692 30.6548 12.7381 29.1686L12.5691 28.5015L12.2854 27.3785L10.018 18.4182C10.0058 18.3425 10 18.2641 10 18.1849C10 17.3523 10.6838 16.6766 11.5265 16.6766H19.995H20.7755H30.0253C30.4008 16.6766 30.7445 16.81 31.0102 17.0319C31.3416 17.3088 31.5525 17.7225 31.5525 18.1849C31.5525 18.2641 31.5467 18.3425 31.5344 18.4182L29.4729 26.5666L29.2671 27.3785L28.9833 28.5015L28.8144 29.1686C28.4266 30.505 27.267 31.5188 25.843 31.7093L25.3217 30.7168L25.2784 30.6341L24.9953 30.0954L24.6689 29.4747C24.6379 29.4155 24.6343 29.3456 24.6595 29.2835C24.6848 29.2214 24.7361 29.1736 24.8004 29.1522L26.9341 28.4431L27.2807 28.3282L23.2342 25.6791C23.9873 24.5582 23.8602 23.0321 22.8572 22.049C21.7164 20.931 19.8729 20.9381 18.7414 22.0654C17.6099 23.1927 17.6172 25.0141 18.758 26.1321C19.3227 26.6851 20.0585 26.9626 20.7957 26.9655L20.7755 31.7621H19.995H19.9076L16.1969 31.7421ZM20.7762 31.7621C20.7762 31.7621 23.793 31.7499 23.9454 31.7492L23.8205 31.5109L23.414 30.7375L23.1706 30.2738C23.1389 30.2146 23.0818 30.1718 23.0147 30.1582C23.0067 30.1568 22.9995 30.1553 22.9916 30.1546C22.9323 30.1482 22.8724 30.1646 22.8247 30.201L20.7762 31.7621ZM20.7986 26.394L20.808 24.0902L21.6153 24.6189L22.7518 25.363C23.3555 24.4648 23.2537 23.2419 22.45 22.4542C21.5358 21.5581 20.0585 21.5645 19.1523 22.4678C18.2454 23.371 18.2519 24.8308 19.166 25.7262C19.618 26.1692 20.208 26.3918 20.7986 26.394Z" fill="white"/>
<path fill-rule="evenodd" clip-rule="evenodd" d="M19.9958 17.1766H11.5266V17.1744C11.245 17.1744 10.9901 17.2879 10.8038 17.4705L10.8045 17.4712C10.6197 17.6539 10.5056 17.9057 10.5056 18.184C10.5056 18.2161 10.5063 18.2432 10.5085 18.2646C10.5099 18.2846 10.5114 18.301 10.5128 18.3138C12.0927 24.5588 12.5144 28.1161 20.3857 28.1161C20.5215 28.1161 20.6565 28.114 20.7916 28.1104L20.7966 26.9639C20.0601 26.961 19.3236 26.6835 18.7589 26.1305C17.618 25.0125 17.6101 23.1918 18.7423 22.0638C19.8738 20.9365 21.7165 20.9287 22.8581 22.0474C23.8611 23.0305 23.9882 24.5573 23.235 25.6775L25.4677 27.1393C30.1222 25.2694 29.9157 22.758 31.0399 18.3145C31.0414 18.301 31.0429 18.2846 31.0443 18.2646C31.0457 18.2432 31.0465 18.2161 31.0465 18.184H31.0486C31.0486 18.0334 31.014 17.8893 30.9526 17.7587C30.8898 17.6253 30.7981 17.5076 30.6847 17.4127C30.5937 17.3371 30.4904 17.2765 30.3785 17.2365C30.271 17.198 30.1525 17.1766 30.0262 17.1766H20.7764H19.9958ZM22.4502 22.454C23.2538 23.2417 23.3556 24.4653 22.752 25.3628L21.6155 24.6187L20.8082 24.09L20.7988 26.3938C20.2081 26.3917 19.6182 26.1691 19.1662 25.726C18.252 24.8299 18.2455 23.3708 19.1525 22.4676C20.0594 21.5636 21.536 21.5579 22.4502 22.454Z" fill="white"/>
</svg>
