<svg width="48" height="48" viewBox="0 0 48 48" fill="none" xmlns="http://www.w3.org/2000/svg">
<rect width="48" height="48" rx="24" fill="#F59E0B"/>
<path d="M33.6282 18.3508H14.3747C13.0595 18.3508 12 19.4167 12 20.7398C12 20.8685 12.0091 21.0063 12.0365 21.135C12.4201 23.4321 14.5757 24.985 16.8682 24.6083C17.0052 24.5899 17.1331 24.5531 17.2609 24.5256L20.1106 23.7537C21.2249 23.4505 22.3666 24.1213 22.6588 25.2331C22.7502 25.5914 22.7502 25.959 22.6588 26.3173L22.5127 26.8686C21.8551 29.3312 23.3073 31.8672 25.7642 32.5288C26.1479 32.6299 26.5497 32.685 26.9516 32.685H32.0481C33.2081 32.685 34.2036 31.8397 34.3863 30.6911L35.9664 21.135C36.1856 19.8302 35.3088 18.5989 34.0118 18.3876C33.884 18.3692 33.7561 18.3508 33.6282 18.3508Z" fill="white"/>
<path d="M19.2336 25.9314L14.5024 27.2086C13.9635 27.3556 13.6347 27.9162 13.7809 28.4583C13.8539 28.7431 14.0549 28.982 14.3197 29.1107L16.0186 29.9468C16.2195 30.0479 16.3839 30.2133 16.4844 30.4154L17.3155 32.1245C17.5621 32.6299 18.1741 32.8412 18.6764 32.5932C18.9413 32.4645 19.1331 32.2256 19.2153 31.9407L20.4849 27.1811C20.631 26.6389 20.3113 26.0692 19.7725 25.9222C19.5989 25.8855 19.4071 25.8855 19.2336 25.9314Z" fill="white"/>
<path d="M28.3369 17.2206C27.8346 17.2206 27.4327 16.8163 27.4327 16.311V16.2834C27.4327 14.3722 25.8892 12.8285 23.9985 12.8285C22.0987 12.8285 20.5643 14.3814 20.5643 16.2834V16.311C20.5552 16.8163 20.1442 17.2115 19.6418 17.2023C19.1577 17.1931 18.765 16.798 18.7559 16.311V16.2834C18.7559 13.3706 21.1032 11 24.0076 11C26.9121 11 29.2594 13.3614 29.2594 16.2834V16.311C29.2412 16.8163 28.8393 17.2206 28.3369 17.2206Z" fill="white"/>
<path d="M27.7726 37C28.4688 37 29.0331 36.4323 29.0331 35.732C29.0331 35.0317 28.4688 34.464 27.7726 34.464C27.0765 34.464 26.5122 35.0317 26.5122 35.732C26.5122 36.4323 27.0765 37 27.7726 37Z" fill="white"/>
<path d="M21.0778 37C21.7739 37 22.3382 36.4323 22.3382 35.732C22.3382 35.0316 21.7739 34.4639 21.0778 34.4639C20.3817 34.4639 19.8174 35.0316 19.8174 35.732C19.8174 36.4323 20.3817 37 21.0778 37Z" fill="white"/>
</svg>
