<svg width="48" height="48" viewBox="0 0 48 48" fill="none" xmlns="http://www.w3.org/2000/svg">
<rect width="48" height="48" rx="24" fill="#079F85"/>
<path d="M16.7373 32.1331C19.9163 34.5743 23.4338 35.1513 27.1059 33.6625C31.0323 32.0615 33.2198 28.9855 33.615 24.7329C33.695 23.8877 33.5836 23.0157 33.4769 22.1527C33.4147 21.6383 32.8232 21.3481 32.4095 21.652C32.1872 21.813 31.9335 22.0949 31.645 22.5509C31.6094 22.6093 31.5691 22.6719 31.5335 22.7345C31.5335 22.7345 31.5335 22.7386 31.5294 22.7386C31.4891 22.806 31.4535 22.8686 31.4139 22.9401C30.609 24.3265 29.7112 26.2087 29.186 27.331C28.8879 27.9746 28.4167 28.5158 27.8252 28.8961L27.1537 29.3342L27.1182 29.361C26.9937 29.4415 26.8693 29.5267 26.7311 29.6113L27.8027 28.1225L27.0382 28.2972L27.4649 27.0139C27.5319 26.8083 27.6515 26.6295 27.8163 26.4865L29.0657 25.4219L27.5852 26.2623L27.9367 25.1668C28.0037 24.9564 28.1104 24.7645 28.2437 24.5988L30.529 22.3851L30.5112 22.3941L15.2828 31.6097C15.2828 31.6097 11.3345 34.0558 9.10669 33.9396C9.37816 34.3646 9.84452 34.5386 10.4408 34.5255C10.5878 34.5303 10.7389 34.5166 10.8853 34.4849C12.2946 34.2704 14.2646 33.2375 16.2744 31.9405C16.4214 31.9405 16.5636 31.9983 16.7373 32.1331Z" fill="white"/>
<path d="M38.7244 14.5058C38.7162 14.5003 38.706 14.4921 38.6971 14.4879C38.6622 14.4604 38.6205 14.4343 38.5774 14.4157C38.5637 14.4075 38.5494 14.3979 38.5268 14.3896C35.518 13.2845 30.9297 16.9609 30.9297 16.9609C30.8114 16.7917 30.6774 16.6301 30.5386 16.4726C30.5351 16.4678 30.529 16.4678 30.529 16.4643C30.5269 16.4623 30.5263 16.4595 30.5222 16.4575C30.1823 16.0854 29.7857 15.756 29.3713 15.4617C29.3665 15.4583 29.361 15.4534 29.3563 15.4493C29.32 15.4266 29.2838 15.4039 29.2489 15.3778C29.106 15.2829 28.9644 15.1894 28.8215 15.1034C28.4181 14.849 27.9989 14.6124 27.5558 14.415C27.1243 14.2273 26.6969 14.0657 26.2702 13.9378C26.2169 13.9178 26.1663 13.9048 26.1273 13.8924C26.0788 13.8766 26.0302 13.8608 25.981 13.847C25.9167 13.8271 25.8791 13.8154 25.8791 13.8154C25.8791 13.8154 25.8757 13.8209 25.8736 13.8209C22.8683 12.9881 19.9785 13.5066 17.2488 15.3806C14.6394 17.1754 13.0816 20.0362 12.8327 23.0366C12.8327 23.0366 12.8327 23.0462 12.828 23.0682C12.828 23.0909 12.8245 23.1266 12.8184 23.1665C12.8102 23.2855 12.8061 23.4024 12.8013 23.5241C12.7958 23.5943 12.8013 23.6713 12.7958 23.7421C12.7958 23.8865 12.7958 24.0426 12.8013 24.2125C12.8061 24.3205 12.8061 24.4229 12.815 24.5254C12.8177 24.5838 12.8232 24.6464 12.8273 24.7097C12.8403 24.9105 12.8628 25.1292 12.8943 25.3527C12.964 25.8368 13.068 26.3106 13.2061 26.7838C13.2321 26.869 13.2492 26.9454 13.2546 27.0169C13.2546 27.0224 13.2574 27.0251 13.2574 27.0306C13.2629 27.0444 13.2629 27.0568 13.2629 27.076C13.2629 27.0795 13.2629 27.0795 13.2629 27.0843C13.2854 27.393 13.1425 27.6117 12.8799 27.8662C12.7069 28.0278 12.5298 28.1928 12.3554 28.3627C12.3431 28.3764 12.3295 28.3902 12.3171 28.4039C12.3171 28.4019 12.3171 28.4012 12.3165 28.3991C11.7694 27.0409 11.4706 25.5507 11.4706 24C11.4706 17.467 16.7544 12.1546 23.2505 12.1546C26.2463 12.1546 28.9891 13.29 31.0747 15.1502C31.435 14.9391 31.7872 14.7431 32.1339 14.556C29.8137 12.3568 26.6928 11 23.2519 11C16.1191 11 10.3245 16.8261 10.3245 24C10.3245 25.8684 10.7211 27.653 11.4289 29.2574C11.4412 29.2855 11.4549 29.3144 11.4679 29.3426C11.3578 29.4637 11.2456 29.5868 11.1335 29.7133C10.0941 30.8796 9.04855 32.1628 9 33.008L10.1837 32.6476C10.2903 32.4675 10.4059 32.288 10.5256 32.1099C10.9618 31.4573 11.4583 30.8315 11.9342 30.282C12.2248 29.9512 12.5038 29.6438 12.7575 29.3743C13.3887 28.7086 13.8482 28.2836 13.8482 28.2836C14.0198 28.7973 14.6202 29.7236 14.986 30.2683C15.1413 30.5055 15.2568 30.6671 15.2794 30.6981C15.2828 30.7015 15.2828 30.7015 15.2828 30.7015C16.8658 29.8935 18.3818 28.9527 19.1245 28.4796L19.0711 28.4569L18.7689 28.3489L15.7731 27.2686C15.7731 27.2686 20.4633 25.7158 20.86 25.6174C20.4408 26.1236 19.6229 27.0134 19.6229 27.0678C19.8712 26.878 24.4821 23.4223 26.3783 22.0057C26.3783 22.0057 24.2646 21.6295 23.1541 21.4143C23.6841 21.0526 24.0793 20.7761 24.4739 20.5038C24.4739 20.4983 24.4705 20.4983 24.4705 20.4935L22.1797 21.3799C21.193 21.1509 20.438 20.9728 19.6599 20.7844C19.8007 20.5918 19.9163 20.4302 20.0284 20.2707C20.0237 20.2659 20.0237 20.2659 20.0237 20.2604L17.5462 21.3483C17.5647 21.3345 17.577 21.3167 17.5968 21.3077C17.9121 21.0333 19.6154 19.5851 20.4292 19.4778C21.1171 19.4372 21.807 19.398 22.4949 19.3574C22.5086 19.3574 22.523 19.3526 22.5353 19.3574C24.3549 19.2756 26.9199 19.1649 28.6225 19.0439C28.6307 19.0439 28.6396 19.0404 28.6499 19.0459C28.6581 19.0404 28.6677 19.0404 28.6759 19.0404C28.9651 19.0267 29.2503 19.0143 29.5402 19.0012C29.8055 18.9875 30.0455 18.9421 30.2767 18.8623C30.2951 18.8568 30.3129 18.8527 30.3259 18.8486C30.3574 18.8403 30.3799 18.8307 30.3922 18.8224C30.397 18.8176 30.4025 18.8142 30.4052 18.8142C30.6104 18.7289 30.8114 18.6161 31.0056 18.4689C31.1718 18.35 31.3352 18.2276 31.4993 18.1065C31.9445 17.7751 32.3889 17.4436 32.843 17.1225C33.1363 16.9162 33.4208 16.7209 33.7142 16.5228C37.0122 14.587 38.494 14.8875 38.4488 15.276C38.2143 16.8316 36.9711 18.1107 35.8764 19.1381C35.8517 19.1614 35.8258 19.1848 35.7998 19.2096C35.4032 19.5775 34.9915 19.9317 34.56 20.2576L34.4561 20.3346C34.5764 20.697 34.6756 21.0822 34.7549 21.4624C34.932 22.2794 35.0305 23.1287 35.0305 24.0021C35.0305 30.5296 29.744 35.8461 23.2533 35.8461C20.4463 35.8461 17.8594 34.8489 15.8408 33.1902L14.8438 33.8566C17.1031 35.8206 20.0373 37 23.2533 37C30.3806 37 36.1779 31.1698 36.1779 24.0021C36.1779 22.866 36.035 21.7657 35.7608 20.7142C35.704 20.4928 35.6363 20.2741 35.5659 20.0568C37.7267 18.3293 38.5309 16.8563 38.8256 15.9953C38.9364 15.7045 38.9966 15.4321 39 15.1928C39 15.1894 39 15.1873 39 15.1873C39.0007 14.9006 38.9179 14.6633 38.7244 14.5058ZM35.4695 19.7749C35.4688 19.768 35.4668 19.7639 35.4627 19.7563C35.4914 19.7391 35.5242 19.7171 35.5563 19.6972L35.4695 19.7749Z" fill="white"/>
<path d="M26.3763 22.0047L20.8579 25.6164L13.8838 23.7775L17.5442 21.3473L20.021 20.2593C20.021 20.2648 20.021 20.2648 20.0264 20.2697C19.9143 20.4292 19.7987 20.5908 19.6572 20.7834C20.4353 20.9704 21.191 21.1492 22.177 21.3782L24.4678 20.4918C24.4678 20.4973 24.4712 20.4973 24.4712 20.5021C24.0759 20.7744 23.6814 21.0522 23.1514 21.4126C24.2633 21.6278 26.3763 22.0047 26.3763 22.0047Z" fill="white"/>
<path d="M19.1229 28.4791C18.381 28.9522 16.865 29.893 15.2813 30.701C15.2813 30.701 15.2813 30.701 15.2779 30.6976C15.2553 30.6666 15.1398 30.505 14.9845 30.2678C14.6187 29.7231 14.0183 28.7968 13.8467 28.2831L15.7716 27.2681L18.7674 28.3485L19.0696 28.4564L19.1229 28.4791Z" fill="white"/>
</svg>
