<svg width="44" height="44" viewBox="0 0 44 44" fill="none" xmlns="http://www.w3.org/2000/svg">
<path d="M42.8408 31.4818C42.7044 31.8704 42.6049 32.2824 42.4259 32.6529C41.8855 33.7708 40.951 34.2663 39.6803 34.2611C39.9879 35.5228 40.2898 36.7612 40.6103 38.0774C40.399 37.9634 40.2581 37.8941 40.123 37.8144C38.2196 36.6939 36.3194 35.5662 34.4095 34.4567C34.1909 34.3322 33.9447 34.2643 33.6933 34.2592C28.1995 34.2488 22.7058 34.2592 17.212 34.2475C15.5851 34.2475 14.3209 33.5409 13.4361 32.1684C13.0761 31.6094 12.9391 30.9008 13.0483 30.1683H13.5524C20.7422 30.1683 27.932 30.1683 35.1217 30.1683C36.428 30.1683 37.5131 29.7589 38.2125 28.5833C38.6423 27.8599 38.7715 27.0606 38.7728 26.2367C38.7767 22.2943 38.7767 18.352 38.7728 14.4096V13.9277C40.1502 13.5631 41.7388 14.032 42.3593 15.0288C42.5823 15.3877 42.6825 15.8229 42.8421 16.2232L42.8408 31.4818Z" fill="#7000FF"/>
<path d="M4.12492 33.4685L5.50225 28.2163C5.34455 28.1832 5.20687 28.1515 5.06855 28.1256C3.76297 27.8736 2.57179 27.4073 1.69925 26.336C1.34617 25.9176 1.15425 25.3864 1.15826 24.8385C1.16128 19.6189 1.16258 14.399 1.16215 9.17896C1.16215 7.91075 1.919 7.05902 2.83356 6.33943C3.89871 5.50194 5.11315 5.11397 6.49177 5.11721C14.9018 5.1388 23.312 5.14052 31.7225 5.12239C33.5885 5.12239 34.9619 5.93266 35.9372 7.48715C36.2701 8.01698 36.411 8.59861 36.4103 9.22754C36.4045 14.3256 36.3728 19.4237 36.4271 24.5205C36.4446 26.1397 35.4525 27.2143 34.2251 27.759C33.4307 28.1133 32.5938 28.2215 31.7283 28.2208C25.6653 28.2143 19.6019 28.2167 13.538 28.2279C13.2203 28.2342 12.9092 28.3202 12.6332 28.478C9.93929 30.0454 7.25702 31.6342 4.57153 33.2166C4.45325 33.2884 4.33563 33.3519 4.12492 33.4685ZM18.7914 13.753C18.4865 13.7501 18.1841 13.8077 17.9015 13.9224C17.6189 14.037 17.3617 14.2066 17.1447 14.4212C16.9277 14.6359 16.7553 14.8915 16.6372 15.1732C16.5192 15.4549 16.4579 15.7572 16.4569 16.0628C16.4517 17.3582 17.5181 18.4385 18.7959 18.4256C19.4116 18.4163 19.9991 18.1652 20.432 17.7264C20.865 17.2876 21.1088 16.696 21.1111 16.079C21.112 15.7734 21.0527 15.4708 20.9364 15.1883C20.8202 14.9059 20.6493 14.6493 20.4337 14.4333C20.2181 14.2173 19.962 14.0462 19.6802 13.9298C19.3983 13.8134 19.0963 13.754 18.7914 13.755V13.753ZM27.553 13.753C27.248 13.7496 26.9454 13.8065 26.6623 13.9205C26.3793 14.0344 26.1214 14.2032 25.9036 14.4171C25.6857 14.6311 25.5121 14.886 25.3927 15.1672C25.2732 15.4485 25.2103 15.7506 25.2075 16.0563C25.181 17.331 26.2688 18.4321 27.5479 18.4243C28.8127 18.4172 29.8779 17.3478 29.8811 16.0822C29.8774 15.4651 29.6306 14.8744 29.1945 14.4387C28.7584 14.003 28.1682 13.7575 27.5524 13.7556L27.553 13.753ZM10.0168 13.753C9.40101 13.7542 8.81066 13.9996 8.37471 14.4355C7.93876 14.8714 7.69262 15.4625 7.69006 16.0796C7.69006 17.3465 8.7494 18.4113 10.0168 18.4243C11.2843 18.4372 12.3824 17.3349 12.3591 16.0589C12.3564 15.7535 12.2936 15.4516 12.1743 15.1706C12.0551 14.8895 11.8817 14.6348 11.6642 14.4209C11.4467 14.207 11.1893 14.0382 10.9066 13.924C10.6239 13.8099 10.3216 13.7526 10.0168 13.7556V13.753Z" fill="#7000FF"/>
</svg>
