<svg width="44" height="44" viewBox="0 0 44 44" fill="none" xmlns="http://www.w3.org/2000/svg">
<path d="M22.2431 1.375C22.8514 1.5647 23.4981 1.67634 24.0601 1.95792C26.2291 3.04473 27.3875 4.83006 27.428 7.26847C27.4684 9.6466 27.4447 12.0257 27.4348 14.4048C27.4358 15.1813 27.2836 15.9502 26.987 16.6676C26.6905 17.3849 26.2554 18.0364 25.7068 18.5847C25.1582 19.133 24.5069 19.5672 23.7903 19.8625C23.0737 20.1578 22.306 20.3082 21.5312 20.3052C20.2496 20.3112 18.961 20.3131 17.6763 20.3052C17.5612 20.2994 17.4461 20.3189 17.3393 20.3625C17.2325 20.406 17.1366 20.4724 17.0582 20.5572C15.7321 21.9009 14.3913 23.2317 13.0574 24.5685C12.7034 24.9232 12.3051 25.1386 11.7885 24.9953C11.2433 24.8431 10.9169 24.4223 10.912 23.8314C10.9041 22.7446 10.9022 21.6499 10.912 20.5591C10.912 20.2983 10.8578 20.1817 10.5778 20.1047C7.91582 19.3745 6.18852 17.0883 6.18359 14.3228C6.18359 11.9839 6.18359 9.64561 6.18359 7.30799C6.19247 4.33606 8.26089 1.92433 11.1979 1.44712C11.2599 1.4297 11.3197 1.40552 11.3764 1.375H22.2431ZM15.6276 10.3827C15.114 9.86001 14.6466 9.3828 14.1783 8.90757C13.8776 8.60227 13.5247 8.41949 13.085 8.50051C12.8759 8.53137 12.6796 8.61974 12.5177 8.7558C12.3558 8.89186 12.2348 9.07026 12.1681 9.27116C11.9975 9.74046 12.1207 10.1604 12.4579 10.5012C13.1737 11.2333 13.9013 11.9556 14.6269 12.6748C15.3348 13.3813 15.9352 13.3773 16.652 12.66C18.098 11.2109 19.544 9.76187 20.99 8.31279C21.0957 8.21329 21.1945 8.10667 21.2857 7.99366C21.4574 7.77456 21.5434 7.50022 21.5276 7.22209C21.5118 6.94397 21.3953 6.68117 21.2 6.483C21.0071 6.27264 20.7425 6.14243 20.4585 6.1181C20.1744 6.09377 19.8916 6.17709 19.6659 6.35159C19.5325 6.45827 19.4066 6.57415 19.2893 6.69838C18.0806 7.90869 16.8827 9.119 15.6276 10.3827Z" fill="#FF8A00"/>
<path d="M1.38281 35.219C1.57408 34.4414 1.80578 33.6826 2.30859 33.0355C3.25901 31.8084 4.49731 31.1494 6.05505 31.1207C6.6466 31.1098 7.23814 31.1207 7.82969 31.094C6.87927 30.8628 6.09546 30.3817 5.54729 29.5725C5.2764 29.1833 5.08755 28.7429 4.99229 28.2781C4.89702 27.8133 4.89734 27.334 4.99322 26.8693C5.3028 25.2263 6.82209 23.9952 8.51785 24.0199C9.35851 24.033 10.1671 24.3453 10.7991 24.901C11.4311 25.4567 11.8453 26.2195 11.9675 27.0531C12.2525 28.8977 11.2015 30.3807 9.02854 31.1187C9.69305 31.1187 10.2826 31.1187 10.8722 31.1187C12.1119 31.1257 13.2988 31.6229 14.1748 32.502C15.0508 33.3812 15.5452 34.5713 15.5503 35.8137C15.5592 37.3778 15.5503 38.9428 15.5503 40.5068C15.5503 41.2784 15.0682 41.7625 14.3002 41.7635C10.4177 41.7635 6.5342 41.7635 2.65169 41.7695C2.00888 41.7695 1.64211 41.4276 1.3838 40.898L1.38281 35.219Z" fill="#FF8A00"/>
<path d="M33.9437 31.1169C31.615 30.4914 30.8874 28.5204 31.0994 27.0779C31.2171 26.227 31.6391 25.4478 32.287 24.8853C32.9348 24.3227 33.7645 24.0151 34.6218 24.0196C35.479 24.024 36.3054 24.3403 36.9474 24.9096C37.5894 25.4788 38.0033 26.2623 38.1122 27.1144C38.3093 28.5777 37.5502 30.5053 35.2422 31.1169C35.7864 31.1169 36.3267 31.1169 36.8739 31.1169C39.6177 31.1238 41.6792 33.1778 41.6861 35.9176C41.6861 37.4292 41.6861 38.9412 41.6861 40.4535C41.6861 41.3002 41.2207 41.7626 40.3699 41.7636C36.5255 41.7636 32.6805 41.7636 28.8348 41.7636C27.9829 41.7636 27.5186 41.3012 27.5176 40.4545C27.5176 38.929 27.5176 37.4045 27.5176 35.879C27.5265 33.1927 29.5988 31.1267 32.2894 31.1169C32.8425 31.1149 33.3926 31.1169 33.9437 31.1169Z" fill="#FF8A00"/>
<path d="M26.5586 20.9884C27.02 20.5052 27.5494 20.0152 28.0029 19.4619C29.2383 17.9512 29.7865 16.1827 29.7993 14.2462C29.8137 11.9731 29.8137 9.69908 29.7993 7.42403C29.8058 6.304 29.5837 5.19446 29.1466 4.16361C29.0953 4.04603 29.0539 3.92352 29.0056 3.79903C32.1152 3.4552 35.1587 4.04998 36.5567 7.74316C36.7573 8.31143 36.8633 8.90893 36.8702 9.51169C36.9116 11.1538 36.8919 12.7978 36.884 14.4409C36.8779 15.7112 36.4606 16.9452 35.6949 17.9577C34.9293 18.9701 33.8565 19.7063 32.6377 20.0557C32.2433 20.1664 32.1398 20.3244 32.1517 20.7187C32.1832 21.7561 32.1635 22.7935 32.1615 23.8338C32.1718 24.0593 32.1141 24.2826 31.9959 24.4747C31.8777 24.6667 31.7046 24.8187 31.499 24.9108C31.0593 25.1262 30.6008 25.1084 30.2538 24.7645C28.9997 23.5167 27.7752 22.2392 26.5586 20.9884Z" fill="#FF8A00"/>
</svg>
