<svg width="44" height="44" viewBox="0 0 44 44" fill="none" xmlns="http://www.w3.org/2000/svg">
<path d="M21.7307 12.7267C29.9715 12.6899 36.7697 19.4812 36.7902 27.7705C36.8108 36.0347 30.0706 42.8311 21.8269 42.8583C13.5119 42.8863 6.73578 36.1597 6.70129 27.8455C6.669 19.5503 13.4136 12.7635 21.7307 12.7267ZM8.23719 27.7866C8.22105 35.2434 14.2817 41.3339 21.7337 41.3515C29.1673 41.3685 35.2323 35.2942 35.2536 27.8094C35.2749 20.3431 29.2223 14.2681 21.7571 14.2615C19.983 14.2591 18.2258 14.6072 16.586 15.2858C14.9461 15.9644 13.4558 16.9602 12.2002 18.2163C10.9446 19.4724 9.94834 20.9641 9.26834 22.6063C8.58834 24.2484 8.23796 26.0087 8.23719 27.7866Z" fill="#00D19E"/>
<path d="M38.3124 28.5614C38.2522 27.6054 38.2265 26.7148 38.1355 25.8272C37.9154 23.699 37.2395 21.7135 36.232 19.8316C36.0992 19.5759 36.0284 19.2925 36.0251 19.0043C36.0104 16.2415 36.017 13.4779 36.0155 10.7143C36.0155 9.99733 35.8012 9.77451 35.0843 9.73701C34.6741 9.71568 34.2646 9.69582 33.8552 9.67376C33.8441 9.67376 33.8339 9.65832 33.7715 9.60905L38.2786 4.41797L42.843 9.66788C42.7161 9.70176 42.5868 9.72634 42.4563 9.74142C42.0608 9.74951 41.6637 9.7348 41.2689 9.75245C40.8411 9.7723 40.6012 10.012 40.5571 10.44C40.5441 10.616 40.54 10.7924 40.5447 10.9688C40.5447 16.4366 40.5447 21.9044 40.5447 27.3723C40.5447 28.3658 40.3509 28.5606 39.3705 28.5606L38.3124 28.5614Z" fill="#00D19E"/>
<path d="M5.21697 28.5618C4.68568 28.5618 4.20208 28.5751 3.71922 28.5618C3.27893 28.5464 3.01624 28.289 2.9634 27.8537C2.94796 27.6781 2.94282 27.5018 2.94799 27.3257C2.94799 21.873 2.94799 16.4201 2.94799 10.967C2.94799 10.806 2.95312 10.6435 2.93918 10.4824C2.89955 10.0235 2.67279 9.78894 2.21636 9.75658C1.73424 9.72275 1.25066 9.70878 0.650391 9.68304L5.21403 4.42578L9.7241 9.61686L9.68153 9.75364C9.28307 9.75364 8.8846 9.75364 8.48613 9.75364C7.69287 9.75364 7.47713 9.97426 7.47713 10.778C7.47713 13.5556 7.47714 16.3339 7.47053 19.1114C7.47216 19.3276 7.42182 19.541 7.32377 19.7335C5.86566 22.3905 5.15165 25.2269 5.24191 28.264C5.24044 28.3412 5.22651 28.4265 5.21697 28.5618Z" fill="#00D19E"/>
<path d="M26.1882 5.97336C25.7362 5.97336 25.2834 5.96748 24.8314 5.97336C24.292 5.98218 24.0242 6.24619 24.0242 6.79111C24.0168 8.14274 24.0242 9.49438 24.0242 10.8467V11.3078H19.4745V10.2393C19.4745 9.13722 19.4745 8.03415 19.4745 6.93009C19.4745 6.21088 19.2448 5.97409 18.5388 5.96821C18.1206 5.96306 17.7023 5.96821 17.284 5.96821L17.2422 5.84025L21.7479 0.648438L26.2616 5.85422L26.1882 5.97336Z" fill="#00D19E"/>
<path d="M21.7859 15.7504C28.4446 15.8018 33.8287 21.2224 33.7883 27.8349C33.7473 34.5203 28.2993 39.9033 21.623 39.8541C15.0626 39.8055 9.67125 34.3328 9.70721 27.7592C9.7417 21.1113 15.1859 15.6989 21.7859 15.7504ZM21.014 23.2697C21.014 24.4595 21.014 25.6501 21.014 26.84C21.0184 28.4512 20.8709 28.1806 22.2659 28.8895C23.4532 29.4935 24.6442 30.0896 25.8388 30.6779C26.4325 30.9684 27.0188 30.6257 26.991 30.0256C26.9733 29.658 26.7363 29.4565 26.4296 29.3035C25.2371 28.7108 24.0513 28.1034 22.8529 27.5224C22.5785 27.3893 22.4699 27.2393 22.4735 26.9253C22.4904 25.3243 22.4816 23.7227 22.4816 22.121C22.4816 21.0334 22.4816 19.9457 22.4816 18.8588C22.4816 18.4448 22.3312 18.1396 21.8982 18.0499C21.3845 17.944 21.0176 18.2705 21.0176 18.8588C21.0066 20.3311 21.0125 21.8004 21.0118 23.2697H21.014Z" fill="#00D19E"/>
</svg>
