<svg width="233" height="301" viewBox="0 0 233 301" fill="none" xmlns="http://www.w3.org/2000/svg">
<path d="M44.9357 231.521C70.989 218.166 74.5418 212.066 83.292 214.275C87.081 215.2 90.4515 217.371 92.8647 220.442C94.9798 223.406 96.0556 226.989 95.924 230.631C95.1016 244.118 67.7323 253.714 48.0278 254.604C43.7185 254.835 32.2051 255.428 30.0339 250.35C29.7328 249.352 29.6358 248.303 29.7489 247.266C29.8619 246.229 30.1827 245.225 30.6918 244.316C33.9814 236.995 40.9882 233.533 44.9357 231.521Z" fill="url(#paint0_linear_397_7098)"/>
<g style="mix-blend-mode:multiply">
<path d="M44.9357 231.521C70.989 218.166 74.5418 212.066 83.292 214.275C87.081 215.2 90.4515 217.371 92.8647 220.442C94.9798 223.406 96.0556 226.989 95.924 230.631C95.1016 244.118 67.7323 253.714 48.0278 254.604C43.7185 254.835 32.2051 255.428 30.0339 250.35C29.7328 249.352 29.6358 248.303 29.7489 247.266C29.8619 246.229 30.1827 245.225 30.6918 244.316C33.9814 236.995 40.9882 233.533 44.9357 231.521Z" fill="url(#paint1_radial_397_7098)"/>
</g>
<path d="M146.992 49.1569L152.963 49.9258L157.984 10.7431L152.013 9.97428L146.992 49.1569Z" fill="url(#paint2_linear_397_7098)"/>
<path d="M133.986 69.4765L160.302 72.7741C161.99 72.9961 163.704 72.882 165.347 72.4382C166.991 71.9945 168.53 71.2298 169.878 70.1882C171.226 69.1465 172.356 67.8483 173.202 66.3681C174.048 64.8879 174.594 63.2547 174.809 61.5624C175.194 58.1519 174.238 54.7251 172.144 52.0099C170.049 49.2946 166.981 47.5047 163.592 47.0202L137.275 43.7227C135.588 43.5055 133.874 43.6244 132.233 44.0723C130.591 44.5203 129.054 45.2886 127.71 46.3333C126.365 47.3779 125.239 48.6783 124.397 50.1599C123.555 51.6415 123.012 53.2752 122.801 54.9673C122.584 56.6563 122.702 58.3716 123.146 60.015C123.591 61.6585 124.355 63.198 125.394 64.5455C126.432 65.893 127.726 67.0221 129.2 67.8682C130.674 68.7143 132.3 69.2608 133.986 69.4765Z" fill="url(#paint3_linear_397_7098)"/>
<path d="M80.4314 193.467L180.961 206.426C192.362 207.867 203.869 204.725 212.967 197.687C222.065 190.649 228.014 180.288 229.515 168.867L232.376 146.477C234.922 126.125 229.321 105.591 216.8 89.3685C204.279 73.146 185.857 62.5561 165.565 59.9161L132.045 55.5963C111.782 53.0714 91.3446 58.6819 75.1923 71.2039C59.04 83.7259 48.4832 102.143 45.8252 122.438L42.9304 144.828C42.2059 150.49 42.6014 156.24 44.094 161.749C45.5867 167.258 48.1474 172.418 51.6298 176.934C55.1123 181.451 59.4482 185.236 64.3901 188.072C69.3319 190.909 74.7828 192.742 80.4314 193.467Z" fill="url(#paint4_linear_397_7098)"/>
<path d="M92.2404 156.895C92.0586 155.855 92.0995 154.788 92.3604 153.764C92.6213 152.741 93.0962 151.785 93.7536 150.96C97.0431 147.662 103.293 150.036 112.274 153.004C129.676 158.676 142.077 150.861 146.683 154.752C147.624 155.614 148.23 156.782 148.393 158.049C148.737 160.151 148.414 162.307 147.472 164.216C145.071 169.261 131.715 174.108 117.175 171.668C108.524 170.382 93.5562 165.568 92.2404 156.895Z" fill="#EEFDFF"/>
<path d="M147.701 6.72608C147.493 8.24041 147.737 9.7828 148.404 11.1576C149.071 12.5323 150.131 13.6775 151.448 14.4478C152.765 15.2181 154.281 15.5788 155.803 15.4841C157.325 15.3895 158.785 14.8437 159.997 13.9161C161.209 12.9886 162.119 11.7209 162.612 10.274C163.104 8.82718 163.157 7.26631 162.763 5.78946C162.369 4.31261 161.546 2.98634 160.399 1.97891C159.252 0.971488 157.832 0.328312 156.32 0.130986C154.306 -0.131802 152.27 0.413917 150.656 1.64924C149.041 2.88456 147.98 4.70937 147.701 6.72608Z" fill="url(#paint5_linear_397_7098)"/>
<path d="M150.432 4.05379C150.378 4.51203 150.46 4.97612 150.668 5.38775C150.876 5.79938 151.201 6.14019 151.602 6.36738C152.002 6.59457 152.461 6.69801 152.92 6.66469C153.379 6.63137 153.818 6.46278 154.182 6.1801C154.546 5.89743 154.819 5.51327 154.965 5.07589C155.112 4.63851 155.127 4.16742 155.007 3.72178C154.888 3.27614 154.639 2.87584 154.294 2.57116C153.948 2.26648 153.52 2.07101 153.064 2.00931C152.757 1.96777 152.445 1.98791 152.145 2.06854C151.846 2.14917 151.566 2.28869 151.321 2.47897C151.076 2.66925 150.871 2.90649 150.719 3.17685C150.566 3.44722 150.469 3.74533 150.432 4.05379Z" fill="white"/>
<path d="M80.0354 73.7974C79.7595 75.6491 80.108 77.5402 81.0257 79.1709C81.9433 80.8016 83.3776 82.0786 85.1013 82.7997C88.1935 83.5581 91.0883 80.6892 94.0818 77.7215C97.0753 74.7537 103.654 67.1363 101.747 64.5313C99.2794 61.0029 81.3841 65.4216 80.0354 73.7974Z" fill="white"/>
<path d="M108.031 60.8698C107.947 61.5726 108.141 62.2805 108.571 62.8416C109.002 63.4026 109.634 63.7721 110.334 63.8706C110.682 63.9169 111.035 63.8938 111.374 63.8028C111.713 63.7117 112.031 63.5544 112.309 63.3399C112.587 63.1254 112.82 62.858 112.995 62.5529C113.17 62.2479 113.283 61.9112 113.327 61.5623C113.373 61.2137 113.349 60.8596 113.258 60.5201C113.167 60.1807 113.01 59.8625 112.796 59.5839C112.582 59.3052 112.316 59.0715 112.012 58.8961C111.708 58.7207 111.372 58.607 111.025 58.5615C110.677 58.5161 110.324 58.5397 109.985 58.6311C109.646 58.7225 109.329 58.8799 109.051 59.0942C108.773 59.3086 108.54 59.5757 108.365 59.8803C108.19 60.185 108.076 60.5212 108.031 60.8698Z" fill="white"/>
<path d="M59.3765 143.444C62.796 145.586 66.9061 146.33 70.8571 145.521C106.701 138.83 143.739 143.738 176.617 159.536C178.654 160.547 180.932 160.97 183.196 160.756C184.565 160.624 185.913 160.325 187.209 159.866C190.212 158.947 192.846 157.094 194.727 154.574C196.608 152.054 197.639 148.998 197.67 145.851V145.389C197.472 124.186 180.696 105.819 157.767 101.532C147.899 99.7843 137.833 98.2344 127.142 96.8824C118.742 95.8492 110.628 95.0358 102.799 94.4423C79.4428 92.6616 58.4225 106.182 52.8632 126.725V127.154C52.0953 130.211 52.3119 133.433 53.4818 136.359C54.6517 139.285 56.7151 141.765 59.3765 143.444Z" fill="#030D14" fill-opacity="0.28"/>
<mask id="mask0_397_7098" style="mask-type:luminance" maskUnits="userSpaceOnUse" x="124" y="106" width="57" height="48">
<path d="M128.359 136.617C137.525 135.691 146.783 136.755 155.501 139.737C164.22 142.718 172.196 147.547 178.887 153.896C178.887 153.896 187.275 132.363 169.709 117.623C152.143 102.883 131.32 103.575 126.287 112.083C121.254 120.591 128.359 136.617 128.359 136.617Z" fill="white"/>
</mask>
<g mask="url(#mask0_397_7098)">
<path style="mix-blend-mode:screen" d="M133.36 121.745C131.111 125.309 129.965 129.461 130.069 133.677C130.173 137.893 131.521 141.984 133.942 145.433C136.364 148.882 139.752 151.533 143.676 153.053C147.601 154.573 151.887 154.893 155.993 153.972C160.098 153.051 163.84 150.931 166.744 147.88C169.649 144.829 171.586 140.983 172.311 136.829C173.036 132.674 172.517 128.398 170.818 124.539C169.12 120.68 166.319 117.413 162.769 115.149C160.407 113.643 157.772 112.619 155.014 112.136C152.257 111.652 149.431 111.718 146.699 112.331C143.968 112.944 141.383 114.09 139.094 115.706C136.805 117.321 134.857 119.373 133.36 121.745Z" fill="url(#paint6_radial_397_7098)"/>
<path d="M138.426 124.974C136.8 127.524 135.965 130.5 136.027 133.525C136.088 136.55 137.043 139.489 138.77 141.971C140.498 144.452 142.921 146.364 145.732 147.465C148.544 148.567 151.618 148.807 154.566 148.157C157.514 147.507 160.204 145.995 162.295 143.813C164.386 141.631 165.785 138.876 166.314 135.897C166.843 132.918 166.48 129.849 165.269 127.077C164.058 124.305 162.055 121.955 159.512 120.325C156.098 118.146 151.963 117.412 148.011 118.284C144.059 119.155 140.612 121.561 138.426 124.974Z" fill="#EEFDFF"/>
<path d="M140.5 126.327C139.133 128.471 138.431 130.974 138.483 133.518C138.535 136.062 139.339 138.533 140.793 140.619C142.247 142.705 144.286 144.312 146.651 145.236C149.016 146.16 151.602 146.359 154.081 145.81C156.559 145.26 158.819 143.986 160.575 142.148C162.331 140.311 163.503 137.992 163.944 135.486C164.385 132.98 164.074 130.399 163.051 128.07C162.028 125.742 160.339 123.769 158.198 122.403C156.781 121.489 155.197 120.865 153.538 120.567C151.88 120.27 150.178 120.304 148.533 120.669C146.888 121.034 145.331 121.722 143.952 122.693C142.573 123.664 141.4 124.899 140.5 126.327Z" fill="black"/>
<path d="M146.157 125.998C145.647 126.795 145.385 127.725 145.403 128.671C145.421 129.617 145.719 130.536 146.259 131.313C146.798 132.089 147.556 132.688 148.435 133.032C149.314 133.377 150.275 133.452 151.197 133.249C152.119 133.046 152.96 132.573 153.614 131.89C154.267 131.207 154.704 130.346 154.869 129.414C155.034 128.482 154.919 127.523 154.539 126.656C154.16 125.79 153.532 125.056 152.736 124.547C152.21 124.206 151.622 123.973 151.005 123.861C150.389 123.749 149.756 123.761 149.144 123.896C148.532 124.031 147.953 124.286 147.441 124.647C146.928 125.008 146.492 125.467 146.157 125.998Z" fill="#EEFDFF"/>
<path d="M145.992 141.561C145.721 141.998 145.635 142.526 145.752 143.026C145.87 143.527 146.18 143.961 146.617 144.232C147.053 144.503 147.579 144.59 148.078 144.472C148.578 144.355 149.011 144.043 149.281 143.606C149.546 143.179 149.636 142.666 149.532 142.174C149.427 141.682 149.137 141.25 148.722 140.968C148.507 140.818 148.263 140.714 148.006 140.662C147.749 140.611 147.484 140.613 147.228 140.668C146.972 140.724 146.73 140.832 146.517 140.986C146.304 141.139 146.125 141.335 145.992 141.561Z" fill="#EEFDFF"/>
<path d="M153.099 142.715C152.961 142.926 152.911 143.182 152.96 143.429C153.009 143.676 153.154 143.894 153.362 144.034C153.578 144.162 153.834 144.202 154.078 144.147C154.323 144.091 154.537 143.945 154.678 143.738C154.749 143.633 154.798 143.515 154.822 143.39C154.846 143.266 154.844 143.137 154.816 143.014C154.789 142.89 154.736 142.773 154.661 142.671C154.586 142.568 154.491 142.483 154.382 142.419C154.171 142.293 153.92 142.254 153.681 142.31C153.442 142.365 153.234 142.51 153.099 142.715Z" fill="#EEFDFF"/>
</g>
<mask id="mask1_397_7098" style="mask-type:luminance" maskUnits="userSpaceOnUse" x="63" y="103" width="66" height="37">
<path d="M74.8058 139.058C82.4674 134.299 91.287 131.744 100.3 131.672C109.824 132.237 119.219 134.169 128.195 137.41C128.195 137.41 128.459 114.327 106.879 106.808C85.2995 99.2901 66.0226 107.27 64.1147 116.998C62.2067 126.726 74.8058 139.058 74.8058 139.058Z" fill="white"/>
</mask>
<g mask="url(#mask1_397_7098)">
<path style="mix-blend-mode:screen" d="M74.4449 125.639C73.9936 129.835 74.7941 134.072 76.745 137.812C78.696 141.552 81.7097 144.628 85.4049 146.651C89.1002 148.674 93.311 149.552 97.5045 149.176C101.698 148.799 105.686 147.184 108.964 144.535C112.242 141.886 114.662 138.323 115.919 134.294C117.176 130.266 117.212 125.955 116.025 121.906C114.837 117.857 112.477 114.252 109.245 111.547C106.013 108.843 102.053 107.16 97.8666 106.711C92.259 106.12 86.646 107.779 82.2563 111.327C77.8665 114.874 75.0578 120.02 74.4449 125.639Z" fill="url(#paint7_radial_397_7098)"/>
<path d="M80.3985 126.298C80.0709 129.314 80.6431 132.359 82.0425 135.049C83.442 137.739 85.6059 139.952 88.2604 141.408C90.915 142.865 93.9409 143.5 96.9553 143.232C99.9697 142.964 102.837 141.806 105.195 139.904C107.552 138.002 109.294 135.442 110.2 132.548C111.106 129.653 111.135 126.555 110.284 123.644C109.432 120.733 107.738 118.14 105.417 116.194C103.095 114.249 100.25 113.037 97.2411 112.712C95.2447 112.493 93.2248 112.67 91.297 113.235C89.3692 113.799 87.5715 114.739 86.0069 116.001C84.4422 117.263 83.1414 118.823 82.179 120.59C81.2166 122.357 80.6116 124.296 80.3985 126.298Z" fill="#EEFDFF"/>
<path d="M82.8333 126.563C82.5621 129.091 83.0446 131.644 84.2198 133.897C85.3951 136.15 87.2104 138.004 89.4363 139.224C91.6622 140.443 94.1988 140.974 96.7255 140.748C99.2521 140.523 101.656 139.552 103.632 137.958C105.608 136.364 107.069 134.218 107.829 131.792C108.589 129.367 108.615 126.769 107.903 124.329C107.191 121.888 105.773 119.714 103.828 118.081C101.884 116.448 99.5002 115.429 96.9785 115.154C95.3022 114.971 93.6063 115.121 91.9878 115.595C90.3694 116.07 88.8601 116.859 87.5464 117.919C86.2326 118.979 85.1402 120.288 84.3315 121.771C83.5228 123.254 83.0137 124.883 82.8333 126.563Z" fill="black"/>
<path d="M87.8009 123.728C87.7339 124.35 87.7897 124.978 87.9651 125.578C88.1405 126.178 88.432 126.737 88.823 127.224C89.214 127.711 89.6968 128.116 90.2439 128.416C90.791 128.715 91.3916 128.904 92.0115 128.971C92.6314 129.038 93.2585 128.983 93.8568 128.807C94.4552 128.631 95.0131 128.339 95.4988 127.947C95.9845 127.555 96.3884 127.071 96.6875 126.522C96.9866 125.974 97.175 125.372 97.242 124.75C97.3742 123.522 97.0267 122.289 96.2723 121.312C95.518 120.334 94.4154 119.688 93.1958 119.507C92.5623 119.41 91.9158 119.444 91.2957 119.606C90.6757 119.768 90.0953 120.056 89.5901 120.451C89.085 120.847 88.6657 121.341 88.358 121.905C88.0503 122.468 87.8607 123.089 87.8009 123.728Z" fill="#EEFDFF"/>
<path d="M94.5435 137.741C94.5322 138.222 94.7019 138.689 95.0186 139.05C95.3354 139.411 95.776 139.639 96.2529 139.689C96.7298 139.738 97.2079 139.607 97.5921 139.319C97.9764 139.032 98.2385 138.61 98.3265 138.137C98.3377 137.657 98.1681 137.19 97.8514 136.829C97.5346 136.468 97.0939 136.24 96.6171 136.19C96.1402 136.14 95.6621 136.272 95.2778 136.56C94.8936 136.847 94.6314 137.269 94.5435 137.741Z" fill="#EEFDFF"/>
<path d="M101.418 135.596C101.394 135.784 101.425 135.976 101.509 136.146C101.593 136.316 101.726 136.458 101.89 136.552C102.055 136.646 102.243 136.689 102.432 136.676C102.621 136.662 102.802 136.592 102.951 136.475C103.101 136.359 103.212 136.2 103.271 136.019C103.33 135.839 103.334 135.645 103.282 135.462C103.231 135.279 103.126 135.116 102.982 134.993C102.837 134.87 102.659 134.793 102.471 134.772C102.223 134.744 101.974 134.814 101.777 134.968C101.58 135.122 101.451 135.348 101.418 135.596Z" fill="#EEFDFF"/>
</g>
<path d="M60.628 122.303C61.4175 123.029 68.9177 111.685 86.188 103.21C92.2408 100.243 98.1291 98.3301 97.8988 97.5057C97.6685 96.6813 91.3197 97.5057 85.9577 99.0226C69.148 104.431 59.7398 121.479 60.628 122.303Z" fill="white"/>
<path d="M124.971 49.889C125.169 49.889 125.432 48.8338 126.583 47.218C126.926 46.7326 127.299 46.2699 127.702 45.8331C129.577 43.8545 135.004 44.613 135.432 44.6459C143.853 45.8331 149.347 45.965 149.347 46.0309C149.347 46.0969 145.399 45.4703 142.505 45.0416C134.346 43.8216 129.511 42.7663 127.142 44.6789C126.501 45.2241 125.965 45.8838 125.563 46.6245C124.954 47.5955 124.742 48.765 124.971 49.889Z" fill="white"/>
<path d="M195.4 228.85C195.416 229.091 195.416 229.334 195.4 229.575C195.304 231.258 194.949 232.915 194.347 234.489C185.827 258 180.761 270.366 173.919 280.292C172.734 282.006 171.484 283.655 170.169 285.238C168.38 287.474 166.469 289.61 164.445 291.635C160.496 295.164 155.757 297.687 150.629 298.989C144.141 300.757 137.388 301.338 130.694 300.703H129.904C123.195 300.915 116.505 299.887 110.167 297.67C105.171 296 100.655 293.136 97.0087 289.327C95.989 288.14 95.035 286.953 94.1139 285.799C88.481 278.671 84.0373 270.675 80.9556 262.122C79.1135 257.341 77.2713 251.801 75.2318 245.206C73.8502 240.787 72.4028 235.874 70.7909 230.367C70.3737 228.875 70.1634 227.333 70.1658 225.783C70.1166 225.147 70.1166 224.507 70.1658 223.871C70.6358 219.657 72.4201 215.698 75.2647 212.56C77.8219 209.649 80.9939 207.345 84.5502 205.817C88.1065 204.288 91.9579 203.573 95.8245 203.723L133.556 204.811L170.563 205.866C174.523 205.939 178.418 206.891 181.967 208.653C185.516 210.414 188.632 212.943 191.09 216.055C193.338 218.927 194.801 222.337 195.334 225.948C195.421 226.427 195.476 226.912 195.498 227.399C195.492 227.884 195.459 228.368 195.4 228.85Z" fill="url(#paint8_linear_397_7098)"/>
<path d="M175.236 143.276C185.598 142.286 190.895 145.452 185.829 149.871C180.763 154.289 175.236 143.276 175.236 143.276Z" fill="url(#paint9_linear_397_7098)"/>
<path d="M186.716 145.849C186.716 146.146 185.927 146.146 185.236 145.849C184.545 145.552 184.052 145.09 184.183 144.794C184.315 144.497 184.973 144.464 185.664 144.794C186.355 145.123 186.848 145.519 186.716 145.849Z" fill="#EEFDFF"/>
<path d="M71.7792 133.419C61.3842 132.99 56.2524 136.453 61.5486 140.443C66.8448 144.433 71.7792 133.419 71.7792 133.419Z" fill="url(#paint10_linear_397_7098)"/>
<path d="M60.2988 136.584C60.2988 136.881 61.0883 136.881 61.7791 136.584C62.4699 136.287 62.9305 135.793 62.7989 135.496C62.6673 135.199 62.0094 135.199 61.3186 135.496C60.6278 135.793 60.2988 136.287 60.2988 136.584Z" fill="#EEFDFF"/>
<path d="M110.629 245.303H11.9418L0.0664903 179.913C-0.0477435 179.275 -0.0227189 178.62 0.139875 177.993C0.302469 177.365 0.598753 176.781 1.00832 176.279C1.41789 175.778 1.93102 175.371 2.51236 175.088C3.0937 174.804 3.72944 174.65 4.37581 174.637H94.181C95.2274 174.637 96.2402 175.008 97.0406 175.683C97.8411 176.359 98.3778 177.296 98.5561 178.33L110.629 245.303Z" fill="url(#paint11_linear_397_7098)"/>
<path d="M157.868 237.391H11.8438V245.305H157.868C158.915 245.305 159.919 244.888 160.659 244.146C161.399 243.404 161.815 242.397 161.815 241.348C161.815 240.298 161.399 239.292 160.659 238.55C159.919 237.808 158.915 237.391 157.868 237.391Z" fill="url(#paint12_linear_397_7098)"/>
<path d="M55.824 210.252C56.0872 213.549 54.6398 216.088 52.5345 216.286C50.4291 216.484 48.587 214.044 48.3238 210.911C48.0607 207.779 49.5081 205.108 51.6134 204.91C53.7187 204.712 55.528 207.119 55.824 210.252Z" fill="white"/>
<path d="M144.249 222.186C172.868 215.953 177.77 210.908 185.73 215.294C189.171 217.159 191.884 220.133 193.428 223.736C194.714 227.138 194.841 230.871 193.79 234.354C189.579 247.181 160.664 249.358 141.387 245.302C137.176 244.411 125.86 242.004 124.939 236.596C124.917 235.543 125.109 234.497 125.505 233.521C125.901 232.546 126.492 231.662 127.242 230.924C131.697 226.081 137.725 222.984 144.249 222.186Z" fill="url(#paint13_linear_397_7098)"/>
<path d="M169.315 223.143C172.726 222.769 176.167 222.769 179.578 223.143C185.829 223.472 189.085 224.824 189.974 223.341C190.566 222.384 189.743 220.9 189.579 220.571C186.783 215.492 176.256 215.822 169.841 217.273C165.96 218.196 161.782 220.01 161.881 221.494C161.899 221.711 161.961 221.923 162.062 222.115C162.164 222.308 162.304 222.478 162.473 222.615C164.603 223.658 167.05 223.847 169.315 223.143Z" fill="white"/>
<path d="M157.702 221.692C157.479 221.735 157.273 221.844 157.111 222.004C156.949 222.163 156.838 222.368 156.792 222.591C156.745 222.814 156.766 223.046 156.851 223.258C156.936 223.469 157.082 223.651 157.27 223.779C157.457 223.908 157.679 223.978 157.906 223.98C158.134 223.983 158.357 223.917 158.547 223.793C158.738 223.669 158.887 223.49 158.977 223.281C159.067 223.071 159.092 222.84 159.051 222.616C159.023 222.466 158.966 222.324 158.884 222.196C158.801 222.069 158.694 221.959 158.568 221.873C158.443 221.787 158.302 221.727 158.153 221.696C158.005 221.665 157.851 221.664 157.702 221.692Z" fill="white"/>
<path style="mix-blend-mode:multiply" d="M175.236 245.797C175.236 245.797 149.117 273.364 93.9837 285.796C88.3507 278.668 83.9071 270.672 80.8254 262.12L75.1016 245.203H141.321C152.501 247.417 163.985 247.618 175.236 245.797Z" fill="url(#paint14_radial_397_7098)"/>
<path style="mix-blend-mode:multiply" d="M175.236 245.797C175.236 245.797 149.117 273.364 93.9837 285.796C88.3507 278.668 83.9071 270.672 80.8254 262.12L75.1016 245.203H141.321C152.501 247.417 163.985 247.618 175.236 245.797Z" fill="url(#paint15_radial_397_7098)"/>
<defs>
<linearGradient id="paint0_linear_397_7098" x1="223.456" y1="363.802" x2="239.133" y2="275.126" gradientUnits="userSpaceOnUse">
<stop offset="0.04" stop-color="#06CFF1"/>
<stop offset="0.37" stop-color="#56E0F1"/>
<stop offset="0.67" stop-color="#96EEF1"/>
<stop offset="0.89" stop-color="#BEF7F1"/>
<stop offset="1" stop-color="#CDFAF1"/>
</linearGradient>
<radialGradient id="paint1_radial_397_7098" cx="0" cy="0" r="1" gradientUnits="userSpaceOnUse" gradientTransform="translate(70.1666 230.862) scale(92.2395 92.4632)">
<stop offset="0.14" stop-color="#08CFF1"/>
<stop offset="1" stop-color="white"/>
</radialGradient>
<linearGradient id="paint2_linear_397_7098" x1="162.989" y1="34.0617" x2="145.438" y2="29.1648" gradientUnits="userSpaceOnUse">
<stop offset="0.04" stop-color="#06CFF1"/>
<stop offset="1" stop-color="#CDFAF1"/>
</linearGradient>
<linearGradient id="paint3_linear_397_7098" x1="217.041" y1="-25.2135" x2="193.301" y2="-60.2546" gradientUnits="userSpaceOnUse">
<stop offset="0.04" stop-color="#06CFF1"/>
<stop offset="1" stop-color="#CDFAF1"/>
</linearGradient>
<linearGradient id="paint4_linear_397_7098" x1="70.4612" y1="184.543" x2="175.073" y2="53.3001" gradientUnits="userSpaceOnUse">
<stop stop-color="#0056E0"/>
<stop offset="0.3455" stop-color="#369BE0"/>
<stop offset="0.6498" stop-color="#61D1E0"/>
<stop offset="0.8764" stop-color="#7BF2E0"/>
<stop offset="1" stop-color="#85FFE0"/>
</linearGradient>
<linearGradient id="paint5_linear_397_7098" x1="226.916" y1="-89.7311" x2="203.75" y2="-96.2701" gradientUnits="userSpaceOnUse">
<stop offset="0.04" stop-color="#06CFF1"/>
<stop offset="1" stop-color="#CDFAF1"/>
</linearGradient>
<radialGradient id="paint6_radial_397_7098" cx="0" cy="0" r="1" gradientUnits="userSpaceOnUse" gradientTransform="translate(234.798 73.1585) rotate(-147.202) scale(21.0387 21.0598)">
<stop offset="0.13" stop-color="#3280FC"/>
<stop offset="1"/>
</radialGradient>
<radialGradient id="paint7_radial_397_7098" cx="0" cy="0" r="1" gradientUnits="userSpaceOnUse" gradientTransform="translate(239.086 -0.651924) rotate(-173.645) scale(20.9716 21.0212)">
<stop offset="0.13" stop-color="#3280FC"/>
<stop offset="1"/>
</radialGradient>
<linearGradient id="paint8_linear_397_7098" x1="88.4887" y1="286.711" x2="155.094" y2="200.845" gradientUnits="userSpaceOnUse">
<stop stop-color="#0056E0"/>
<stop offset="0.3455" stop-color="#369BE0"/>
<stop offset="0.6498" stop-color="#61D1E0"/>
<stop offset="0.8764" stop-color="#7BF2E0"/>
<stop offset="1" stop-color="#85FFE0"/>
</linearGradient>
<linearGradient id="paint9_linear_397_7098" x1="178.888" y1="151.454" x2="183.347" y2="140.843" gradientUnits="userSpaceOnUse">
<stop offset="0.04" stop-color="#06CFF1"/>
<stop offset="1" stop-color="#CDFAF1"/>
</linearGradient>
<linearGradient id="paint10_linear_397_7098" x1="66.8547" y1="138.622" x2="61.8646" y2="128.236" gradientUnits="userSpaceOnUse">
<stop offset="0.04" stop-color="#06CFF1"/>
<stop offset="1" stop-color="#CDFAF1"/>
</linearGradient>
<linearGradient id="paint11_linear_397_7098" x1="32.3371" y1="252.525" x2="107.682" y2="118.998" gradientUnits="userSpaceOnUse">
<stop stop-color="#85A2C1"/>
<stop offset="1" stop-color="#EFFFFF"/>
</linearGradient>
<linearGradient id="paint12_linear_397_7098" x1="68.3256" y1="272.839" x2="143.67" y2="139.313" gradientUnits="userSpaceOnUse">
<stop stop-color="#85A2C1"/>
<stop offset="1" stop-color="#EFFFFF"/>
</linearGradient>
<linearGradient id="paint13_linear_397_7098" x1="135.124" y1="242.243" x2="153.654" y2="203.78" gradientUnits="userSpaceOnUse">
<stop stop-color="#0056E0"/>
<stop offset="0.3455" stop-color="#369BE0"/>
<stop offset="0.6498" stop-color="#61D1E0"/>
<stop offset="0.8764" stop-color="#7BF2E0"/>
<stop offset="1" stop-color="#85FFE0"/>
</linearGradient>
<radialGradient id="paint14_radial_397_7098" cx="0" cy="0" r="1" gradientUnits="userSpaceOnUse" gradientTransform="translate(42.4691 201.708) scale(87.7985 88.0115)">
<stop offset="0.14" stop-color="#08CFF1"/>
<stop offset="1" stop-color="white"/>
</radialGradient>
<radialGradient id="paint15_radial_397_7098" cx="0" cy="0" r="1" gradientUnits="userSpaceOnUse" gradientTransform="translate(101.484 157.455) scale(119.017 119.305)">
<stop offset="0.14" stop-color="#08CFF1"/>
<stop offset="1" stop-color="white"/>
</radialGradient>
</defs>
</svg>
