<?xml version="1.0" encoding="utf-8"?>
<!-- Generator: Adobe Illustrator 27.0.0, SVG Export Plug-In . SVG Version: 6.00 Build 0)  -->
<svg version="1.1" id="Layer_1" xmlns="http://www.w3.org/2000/svg" xmlns:xlink="http://www.w3.org/1999/xlink" x="0px" y="0px"
	 viewBox="0 0 603.1 133.48" style="enable-background:new 0 0 603.1 133.48;" xml:space="preserve">
<style type="text/css">
	.st0{fill:#FFFFFF;}
	.st1{fill:url(#SVGID_1_);}
	.st2{fill:url(#SVGID_00000008843315185663929340000012974251556981080458_);}
	.st3{fill:url(#SVGID_00000159454168900700553680000008767561038731418499_);}
	.st4{fill:url(#SVGID_00000017488664181760035530000015014322091557631666_);}
	.st5{fill:url(#SVGID_00000004533680586362378490000003160381591891371924_);}
	.st6{fill:url(#SVGID_00000151504013788789430630000002433250350508088229_);}
	.st7{fill:url(#SVGID_00000160178549909968421630000013540843484403223184_);}
	.st8{fill:url(#SVGID_00000167362299139783457650000002277027409960273588_);}
	.st9{fill:url(#SVGID_00000021840209319954053090000016159957098228964540_);}
	.st10{fill:url(#SVGID_00000048478513332563725230000006951569817795434669_);}
	.st11{fill:url(#SVGID_00000055690016083302356080000017613513960740502676_);}
	.st12{fill:url(#SVGID_00000168814078397445355450000007009611268574631813_);}
	.st13{fill:url(#SVGID_00000097497497191967207790000015132336526690101429_);}
	.st14{fill-rule:evenodd;clip-rule:evenodd;fill:#FFFFFF;}
</style>
<g>
	<linearGradient id="SVGID_1_" gradientUnits="userSpaceOnUse" x1="614.5173" y1="101.539" x2="138.8319" y2="71.6064">
		<stop  offset="0" style="stop-color:#D054EC"/>
		<stop  offset="0.1974" style="stop-color:#BB3EF1"/>
		<stop  offset="0.414" style="stop-color:#AB2EF5"/>
		<stop  offset="0.6607" style="stop-color:#A225F7"/>
		<stop  offset="1" style="stop-color:#4876FF"/>
	</linearGradient>
	<path class="st1" d="M163.09,84.42c-0.02,3.74-0.81,7.03-2.35,9.78c-1.55,2.78-3.81,4.96-6.72,6.48c-2.89,1.5-6.39,2.27-10.4,2.27
		c-3.98,0-7.51-0.77-10.48-2.28c-3.01-1.53-5.39-3.83-7.06-6.84c-1.67-2.98-2.55-6.69-2.63-11.04l-0.02-1.02h11.7l0.05,0.94
		c0.1,1.78,0.52,3.27,1.24,4.42c0.71,1.15,1.65,1.99,2.86,2.57c1.22,0.59,2.65,0.89,4.22,0.89c1.55,0,2.9-0.28,4.02-0.82
		c1.1-0.53,1.93-1.24,2.53-2.18c0.6-0.93,0.89-1.97,0.89-3.2c0-1.11-0.25-2-0.76-2.73c-0.53-0.76-1.34-1.42-2.39-1.97
		c-1.14-0.6-2.56-1.15-4.22-1.64l-5.19-1.6c-4.17-1.25-7.52-3.23-9.95-5.91c-2.49-2.73-3.74-6.42-3.72-10.98
		c-0.02-3.69,0.8-6.99,2.45-9.78c1.64-2.79,3.93-5,6.8-6.56s6.15-2.35,9.78-2.35c3.68,0,6.96,0.79,9.74,2.36
		c2.79,1.57,5,3.78,6.56,6.58c1.54,2.77,2.35,6.03,2.4,9.66l0.01,1.01h-11.58l-0.07-0.92c-0.17-2.05-0.84-3.59-2.07-4.7
		s-2.88-1.66-5.06-1.66c-1.48,0-2.73,0.25-3.72,0.74c-0.96,0.48-1.68,1.12-2.18,1.95c-0.5,0.84-0.75,1.77-0.75,2.85
		c-0.02,0.9,0.12,1.66,0.44,2.29c0.33,0.65,0.79,1.21,1.37,1.68c0.63,0.51,1.37,0.95,2.2,1.32c0.87,0.39,1.8,0.72,2.78,0.99
		l4.3,1.26c2.12,0.59,4.11,1.39,5.91,2.37c1.82,1,3.43,2.25,4.77,3.71c1.35,1.48,2.41,3.24,3.16,5.24
		C162.69,79.58,163.07,81.87,163.09,84.42z"/>

		<linearGradient id="SVGID_00000140699405776869432890000000789370256803212733_" gradientUnits="userSpaceOnUse" x1="614.7194" y1="98.3265" x2="139.034" y2="68.3939">
		<stop  offset="0" style="stop-color:#D054EC"/>
		<stop  offset="0.1974" style="stop-color:#BB3EF1"/>
		<stop  offset="0.414" style="stop-color:#AB2EF5"/>
		<stop  offset="0.6607" style="stop-color:#A225F7"/>
		<stop  offset="1" style="stop-color:#4876FF"/>
	</linearGradient>
	<polygon style="fill:url(#SVGID_00000140699405776869432890000000789370256803212733_);" points="221.41,41.67 221.41,102.12
		209.65,102.12 209.65,68.16 198.67,101.83 190.57,101.83 179.59,68.03 179.59,102.12 167.83,102.12 167.83,41.67 181.95,41.67
		194.62,79.62 207.28,41.67 	"/>

		<linearGradient id="SVGID_00000002362096114519026690000004372831993571212213_" gradientUnits="userSpaceOnUse" x1="614.9223" y1="95.1026" x2="139.2369" y2="65.17">
		<stop  offset="0" style="stop-color:#D054EC"/>
		<stop  offset="0.1974" style="stop-color:#BB3EF1"/>
		<stop  offset="0.414" style="stop-color:#AB2EF5"/>
		<stop  offset="0.6607" style="stop-color:#A225F7"/>
		<stop  offset="1" style="stop-color:#4876FF"/>
	</linearGradient>
	<path style="fill:url(#SVGID_00000002362096114519026690000004372831993571212213_);" d="M265.78,84.42
		c-0.01,3.74-0.8,7.03-2.34,9.78c-1.56,2.78-3.82,4.96-6.73,6.48c-2.88,1.5-6.38,2.27-10.4,2.27c-3.98,0-7.5-0.77-10.48-2.28
		c-3-1.53-5.38-3.83-7.06-6.84c-1.66-2.98-2.55-6.69-2.63-11.04l-0.01-1.02h11.7l0.05,0.94c0.1,1.78,0.51,3.27,1.23,4.42
		c0.72,1.15,1.65,1.99,2.86,2.57c1.23,0.59,2.65,0.89,4.23,0.89c1.54,0,2.89-0.28,4.01-0.82c1.1-0.53,1.93-1.24,2.53-2.18
		c0.6-0.93,0.89-1.97,0.89-3.2c0-1.11-0.25-2-0.76-2.73c-0.53-0.76-1.33-1.42-2.39-1.97c-1.14-0.6-2.56-1.15-4.22-1.64l-5.19-1.6
		c-4.16-1.25-7.51-3.23-9.95-5.91c-2.48-2.73-3.74-6.42-3.72-10.98c-0.02-3.69,0.81-6.98,2.45-9.78c1.64-2.79,3.93-5,6.81-6.56
		c2.86-1.56,6.15-2.35,9.77-2.35c3.69,0,6.97,0.79,9.75,2.36c2.79,1.57,4.99,3.78,6.55,6.58c1.55,2.77,2.36,6.03,2.4,9.66l0.02,1.01
		h-11.58l-0.08-0.92c-0.16-2.06-0.84-3.59-2.06-4.7c-1.22-1.1-2.92-1.66-5.07-1.66c-1.48,0-2.73,0.25-3.72,0.74
		c-0.96,0.48-1.67,1.12-2.17,1.95c-0.51,0.84-0.75,1.77-0.75,2.85c-0.03,0.9,0.12,1.66,0.43,2.29c0.33,0.65,0.79,1.21,1.38,1.68
		c0.62,0.51,1.36,0.95,2.19,1.32c0.87,0.39,1.81,0.72,2.79,0.99l4.29,1.26c2.12,0.59,4.12,1.39,5.91,2.37
		c1.83,1,3.43,2.25,4.77,3.71c1.35,1.48,2.42,3.24,3.16,5.24C265.38,79.58,265.77,81.88,265.78,84.42z"/>

		<linearGradient id="SVGID_00000098902407832248636640000002912287032721193350_" gradientUnits="userSpaceOnUse" x1="615.1674" y1="91.2083" x2="139.4819" y2="61.2757">
		<stop  offset="0" style="stop-color:#D054EC"/>
		<stop  offset="0.1974" style="stop-color:#BB3EF1"/>
		<stop  offset="0.414" style="stop-color:#AB2EF5"/>
		<stop  offset="0.6607" style="stop-color:#A225F7"/>
		<stop  offset="1" style="stop-color:#4876FF"/>
	</linearGradient>
	<path style="fill:url(#SVGID_00000098902407832248636640000002912287032721193350_);" d="M329.91,68.84v8.36
		c0,5.27-0.93,9.86-2.75,13.66c-1.84,3.84-4.41,6.84-7.66,8.92c-3.24,2.08-7,3.14-11.18,3.14c-4.65,0-8.8-1.29-12.34-3.83
		c-3.51-2.52-6.28-6.15-8.22-10.78c-1.93-4.58-2.9-10.09-2.9-16.36c0-4.81,0.58-9.17,1.72-12.97c1.16-3.82,2.8-7.12,4.9-9.79
		c2.11-2.69,4.61-4.77,7.43-6.18c2.82-1.42,5.92-2.14,9.2-2.14c2.82,0,5.48,0.51,7.91,1.52c2.44,1.01,4.63,2.44,6.51,4.27
		c1.88,1.83,3.44,4.02,4.63,6.53c1.19,2.49,1.96,5.27,2.3,8.26l0.13,1.11h-12.14l-0.18-0.77c-0.3-1.29-0.73-2.45-1.27-3.44
		c-0.53-0.97-1.19-1.8-1.94-2.47s-1.61-1.18-2.56-1.54c-0.97-0.36-2.05-0.54-3.22-0.54c-2.22,0-4.11,0.66-5.78,2.01
		c-1.68,1.36-3.02,3.39-3.97,6.02c-0.98,2.71-1.47,6.07-1.47,10.01c0,3.94,0.48,7.32,1.45,10.05c0.94,2.67,2.27,4.71,3.96,6.08
		c1.68,1.36,3.61,2.02,5.9,2.02c2.08,0,3.87-0.46,5.32-1.35c1.46-0.91,2.55-2.15,3.33-3.81c0.63-1.34,1.01-2.91,1.14-4.69H308v-11.3
		H329.91z"/>

		<linearGradient id="SVGID_00000155135291058489692680000000824059813381495728_" gradientUnits="userSpaceOnUse" x1="614.8623" y1="96.0563" x2="139.1769" y2="66.1237">
		<stop  offset="0" style="stop-color:#D054EC"/>
		<stop  offset="0.1974" style="stop-color:#BB3EF1"/>
		<stop  offset="0.414" style="stop-color:#AB2EF5"/>
		<stop  offset="0.6607" style="stop-color:#A225F7"/>
		<stop  offset="1" style="stop-color:#4876FF"/>
	</linearGradient>
	<path style="fill:url(#SVGID_00000155135291058489692680000000824059813381495728_);" d="M366.23,64.43
		c-0.88-2.01-2.1-3.68-3.63-4.97c-1.51-1.28-3.26-2.24-5.2-2.84c-1.9-0.6-3.92-0.91-6-0.91c-2.99,0-5.67,0.57-7.96,1.69
		c-2.3,1.13-4.21,2.75-5.66,4.83c-1.44,2.06-2.42,4.53-2.91,7.32l-0.18,1.07l11.09,1.1l0.2-0.85c0.3-1.26,0.89-2.27,1.8-3.1
		c0.87-0.8,2.04-1.18,3.57-1.18c1.41,0,2.46,0.38,3.19,1.16c0.74,0.8,1.11,1.98,1.11,3.52v0.17c0,0.83-0.28,1.16-0.5,1.34
		c-0.3,0.25-0.95,0.6-2.31,0.86c-1.24,0.23-2.91,0.48-4.95,0.74c-1.83,0.22-3.59,0.6-5.24,1.13c-1.71,0.55-3.26,1.38-4.61,2.45
		c-1.37,1.11-2.47,2.58-3.26,4.38c-0.78,1.77-1.18,3.97-1.18,6.54c0,3.04,0.56,5.63,1.66,7.7c1.12,2.1,2.68,3.7,4.62,4.77
		c1.92,1.06,4.13,1.6,6.57,1.6c1.9,0,3.6-0.33,5.07-0.96c1.47-0.63,2.75-1.53,3.8-2.66c0.29-0.32,0.58-0.66,0.84-1.01v3.8h11.39
		V71.55C367.55,68.82,367.11,66.43,366.23,64.43z M355.72,85.45c0,1.37-0.28,2.61-0.84,3.67c-0.56,1.08-1.3,1.9-2.28,2.52
		c-0.96,0.62-2.04,0.91-3.31,0.91c-1.28,0-2.29-0.34-3.1-1.04c-0.76-0.68-1.13-1.67-1.13-3.03c0-0.95,0.19-1.74,0.57-2.34
		c0.39-0.63,0.92-1.11,1.63-1.49c0.77-0.4,1.7-0.71,2.75-0.9c0.55-0.09,1.16-0.2,1.83-0.33c0.68-0.13,1.37-0.27,2.05-0.44
		c0.67-0.16,1.28-0.34,1.83-0.54V85.45z"/>

		<linearGradient id="SVGID_00000042706074935116671810000002605479120521184901_" gradientUnits="userSpaceOnUse" x1="615.3314" y1="88.6018" x2="139.646" y2="58.6692">
		<stop  offset="0" style="stop-color:#D054EC"/>
		<stop  offset="0.1974" style="stop-color:#BB3EF1"/>
		<stop  offset="0.414" style="stop-color:#AB2EF5"/>
		<stop  offset="0.6607" style="stop-color:#A225F7"/>
		<stop  offset="1" style="stop-color:#4876FF"/>
	</linearGradient>
	<path style="fill:url(#SVGID_00000042706074935116671810000002605479120521184901_);" d="M395,101.21l-0.77,0.3
		c-0.53,0.2-1.24,0.43-2.18,0.7c-0.96,0.27-2.14,0.45-3.5,0.51c-0.28,0.01-0.56,0.02-0.83,0.02c-2.21,0-4.2-0.44-5.93-1.3
		c-1.97-0.98-3.52-2.53-4.6-4.59c-1.07-2.03-1.6-4.59-1.58-7.61V67.42h-4.88V56.28h4.88v-10.5h11.9v10.5h6.71v11.14h-6.71v20.23
		c0,1.21,0.17,1.87,0.32,2.2c0.19,0.4,0.42,0.67,0.71,0.81c0.64,0.31,1.58,0.34,2.49,0.14l2.09-0.48L395,101.21z"/>

		<linearGradient id="SVGID_00000165944266614335435860000009266995949265006521_" gradientUnits="userSpaceOnUse" x1="615.1231" y1="91.9112" x2="139.4377" y2="61.9786">
		<stop  offset="0" style="stop-color:#D054EC"/>
		<stop  offset="0.1974" style="stop-color:#BB3EF1"/>
		<stop  offset="0.414" style="stop-color:#AB2EF5"/>
		<stop  offset="0.6607" style="stop-color:#A225F7"/>
		<stop  offset="1" style="stop-color:#4876FF"/>
	</linearGradient>
	<path style="fill:url(#SVGID_00000165944266614335435860000009266995949265006521_);" d="M432.93,78.97
		c0-3.81-0.45-7.19-1.32-10.06c-0.89-2.91-2.15-5.36-3.76-7.3c-1.61-1.95-3.53-3.44-5.7-4.42c-2.15-0.98-4.51-1.48-7-1.48
		c-3.7,0-6.97,1.03-9.73,3.05c-2.73,2-4.87,4.82-6.36,8.38c-1.47,3.52-2.22,7.64-2.22,12.26c0,4.74,0.75,8.9,2.22,12.39
		c1.49,3.54,3.66,6.31,6.45,8.25c2.8,1.95,6.18,2.93,10.04,2.93c3.08,0,5.85-0.59,8.24-1.77s4.37-2.86,5.9-4.99
		c1.51-2.13,2.53-4.64,3.01-7.48l0.19-1.08l-11.04-0.89l-0.24,0.76c-0.3,0.97-0.73,1.79-1.29,2.45c-0.55,0.64-1.2,1.11-1.97,1.44
		c-0.79,0.32-1.68,0.49-2.64,0.49c-1.46,0-2.67-0.36-3.72-1.1c-1.05-0.74-1.87-1.83-2.45-3.22c-0.51-1.21-0.8-2.64-0.89-4.27h24.28
		V78.97z M411.75,65.62v0.17h-0.26C411.58,65.74,411.66,65.67,411.75,65.62z M408.73,73.78c0.13-1.06,0.4-2.03,0.8-2.91
		c0.58-1.25,1.38-2.26,2.39-3.01c0.99-0.72,2.1-1.07,3.4-1.07c1.24,0,2.29,0.32,3.22,0.97c0.95,0.67,1.68,1.58,2.23,2.78
		c0.44,0.96,0.71,2.04,0.8,3.24H408.73z"/>

		<linearGradient id="SVGID_00000093152336404023416750000004590866040333038779_" gradientUnits="userSpaceOnUse" x1="615.9633" y1="78.56" x2="140.2778" y2="48.6274">
		<stop  offset="0" style="stop-color:#D054EC"/>
		<stop  offset="0.1974" style="stop-color:#BB3EF1"/>
		<stop  offset="0.414" style="stop-color:#AB2EF5"/>
		<stop  offset="0.6607" style="stop-color:#A225F7"/>
		<stop  offset="1" style="stop-color:#4876FF"/>
	</linearGradient>
	<path style="fill:url(#SVGID_00000093152336404023416750000004590866040333038779_);" d="M411.75,65.62v0.17h-0.26
		C411.58,65.74,411.66,65.67,411.75,65.62z"/>

		<linearGradient id="SVGID_00000132784996103014249120000013418030679384889767_" gradientUnits="userSpaceOnUse" x1="615.336" y1="88.5282" x2="139.6506" y2="58.5956">
		<stop  offset="0" style="stop-color:#D054EC"/>
		<stop  offset="0.1974" style="stop-color:#BB3EF1"/>
		<stop  offset="0.414" style="stop-color:#AB2EF5"/>
		<stop  offset="0.6607" style="stop-color:#A225F7"/>
		<stop  offset="1" style="stop-color:#4876FF"/>
	</linearGradient>
	<polygon style="fill:url(#SVGID_00000132784996103014249120000013418030679384889767_);" points="489.73,56.28 479.6,102.12
		467.51,102.12 461.96,77.16 456.41,102.12 444.35,102.12 434.19,56.28 446.28,56.28 451.16,82.27 456.25,56.28 467.72,56.28
		472.87,82.07 477.66,56.28 	"/>

		<linearGradient id="SVGID_00000093886794470984940340000013448759959063220389_" gradientUnits="userSpaceOnUse" x1="615.4833" y1="86.1873" x2="139.7979" y2="56.2547">
		<stop  offset="0" style="stop-color:#D054EC"/>
		<stop  offset="0.1974" style="stop-color:#BB3EF1"/>
		<stop  offset="0.414" style="stop-color:#AB2EF5"/>
		<stop  offset="0.6607" style="stop-color:#A225F7"/>
		<stop  offset="1" style="stop-color:#4876FF"/>
	</linearGradient>
	<path style="fill:url(#SVGID_00000093886794470984940340000013448759959063220389_);" d="M523.69,64.43
		c-0.88-2.01-2.1-3.68-3.63-4.97c-1.51-1.28-3.27-2.24-5.2-2.84c-1.91-0.6-3.93-0.91-6-0.91c-3,0-5.67,0.57-7.96,1.69
		c-2.3,1.13-4.21,2.75-5.67,4.83c-1.44,2.06-2.42,4.53-2.9,7.32l-0.19,1.07l11.1,1.1l0.2-0.85c0.3-1.26,0.88-2.27,1.79-3.1
		c0.87-0.8,2.04-1.18,3.58-1.18c1.41,0,2.45,0.38,3.18,1.16c0.74,0.8,1.12,1.98,1.12,3.52v0.17c0,0.83-0.29,1.16-0.5,1.34
		c-0.3,0.25-0.95,0.6-2.31,0.86c-1.24,0.23-2.91,0.48-4.95,0.74c-1.83,0.22-3.59,0.6-5.24,1.13c-1.72,0.55-3.27,1.38-4.61,2.46
		c-1.38,1.1-2.47,2.57-3.26,4.37c-0.79,1.77-1.18,3.97-1.18,6.54c0,3.04,0.56,5.63,1.66,7.7c1.12,2.1,2.67,3.7,4.62,4.77
		c1.92,1.06,4.13,1.6,6.57,1.6c1.89,0,3.6-0.33,5.06-0.96c1.47-0.63,2.75-1.53,3.8-2.66c0.3-0.32,0.58-0.66,0.85-1.01v3.8h11.39
		V71.55C525.01,68.82,524.56,66.42,523.69,64.43z M513.18,85.45c0,1.37-0.29,2.61-0.84,3.68c-0.56,1.07-1.31,1.89-2.28,2.51
		c-0.96,0.62-2.05,0.91-3.32,0.91c-1.28,0-2.29-0.34-3.09-1.04c-0.76-0.68-1.14-1.67-1.14-3.03c0-0.95,0.2-1.74,0.58-2.34
		c0.38-0.63,0.92-1.11,1.63-1.49c0.77-0.4,1.7-0.71,2.75-0.9c0.55-0.09,1.15-0.2,1.82-0.33c0.69-0.13,1.37-0.27,2.05-0.44
		c0.67-0.16,1.29-0.34,1.84-0.54V85.45z"/>

		<linearGradient id="SVGID_00000183243058304958241210000000102216938352303264_" gradientUnits="userSpaceOnUse" x1="615.1497" y1="91.4886" x2="139.4643" y2="61.556">
		<stop  offset="0" style="stop-color:#D054EC"/>
		<stop  offset="0.1974" style="stop-color:#BB3EF1"/>
		<stop  offset="0.414" style="stop-color:#AB2EF5"/>
		<stop  offset="0.6607" style="stop-color:#A225F7"/>
		<stop  offset="1" style="stop-color:#4876FF"/>
	</linearGradient>
	<path style="fill:url(#SVGID_00000183243058304958241210000000102216938352303264_);" d="M564.99,56.28l-14.23,49.85
		c-0.69,2.44-1.65,4.61-2.83,6.45c-1.23,1.89-2.8,3.37-4.67,4.41s-4.15,1.57-6.76,1.57c-1.31,0-2.57-0.13-3.73-0.38
		c-1.17-0.26-2.16-0.59-2.94-0.99l-0.71-0.36l2.69-10.94l1.05,0.4c1.05,0.4,2.01,0.61,2.84,0.65c0.67,0.03,1.26-0.16,1.76-0.57
		c0.53-0.44,0.99-1.27,1.37-2.44l0.49-1.57l-13.08-46.08h12.53l6.78,29.55l6.84-29.55H564.99z"/>

		<linearGradient id="SVGID_00000166670239793874307280000010652301087501152650_" gradientUnits="userSpaceOnUse" x1="615.7856" y1="81.3833" x2="140.1002" y2="51.4507">
		<stop  offset="0" style="stop-color:#D054EC"/>
		<stop  offset="0.1974" style="stop-color:#BB3EF1"/>
		<stop  offset="0.414" style="stop-color:#AB2EF5"/>
		<stop  offset="0.6607" style="stop-color:#A225F7"/>
		<stop  offset="1" style="stop-color:#4876FF"/>
	</linearGradient>
	<path style="fill:url(#SVGID_00000166670239793874307280000010652301087501152650_);" d="M600.24,87.53c0,3.05-0.75,5.78-2.21,8.1
		c-1.47,2.32-3.49,4.14-6.02,5.42c-2.51,1.28-5.42,1.92-8.67,1.92c-4.94,0-8.96-1.3-11.93-3.88c-2.98-2.58-4.75-6.14-5.25-10.56
		l-0.12-1.04l11.68-0.76l0.15,0.9c0.26,1.53,0.84,2.65,1.78,3.42c0.96,0.78,2.17,1.16,3.72,1.16c1.5,0,2.7-0.34,3.58-1.03
		c0.82-0.64,1.21-1.42,1.23-2.43c-0.02-0.81-0.29-1.47-0.83-1.99c-0.61-0.59-1.62-1.06-2.99-1.39l-6.18-1.52
		c-3.69-0.9-6.48-2.52-8.31-4.79c-1.84-2.29-2.77-5.22-2.77-8.71c0-2.99,0.68-5.61,2.02-7.8c1.34-2.19,3.26-3.9,5.69-5.08
		c2.4-1.17,5.23-1.76,8.42-1.76c4.74,0,8.55,1.27,11.32,3.77c2.77,2.5,4.41,5.93,4.87,10.2l0.11,1.02l-11.01,0.83l-0.14-0.9
		c-0.14-0.81-0.42-1.54-0.85-2.19c-0.42-0.64-0.97-1.14-1.67-1.54c-0.67-0.38-1.5-0.57-2.47-0.57c-1.32,0-2.4,0.32-3.28,0.99
		c-0.8,0.6-1.18,1.35-1.18,2.35c0,0.79,0.25,1.43,0.75,1.97c0.54,0.57,1.59,1.08,3.04,1.46l6.44,1.59c3.66,0.92,6.44,2.45,8.27,4.54
		C599.29,81.34,600.24,84.14,600.24,87.53z"/>
</g>
<linearGradient id="SVGID_00000097502420551611979770000007051800119345292162_" gradientUnits="userSpaceOnUse" x1="29.4009" y1="-5.7638" x2="83.87" y2="-87.9292" gradientTransform="matrix(1 0 0 -1 0 21.3933)">
	<stop  offset="0" style="stop-color:#D054EC"/>
	<stop  offset="1" style="stop-color:#4876FF"/>
</linearGradient>
<path style="fill:url(#SVGID_00000097502420551611979770000007051800119345292162_);" d="M107.26,68.02
	c0,28.04-22.73,50.78-50.78,50.78c-28.04,0-50.78-22.73-50.78-50.78c0-28.04,22.73-50.78,50.78-50.78
	C84.53,17.24,107.26,39.97,107.26,68.02z"/>
<g>
	<path class="st0" d="M55,39.69l18.41-7.44l-3.35,6.14l-9.5,1.31l9.5,0.37l3.35,6.69L55,39.69z"/>
	<path class="st14" d="M69.11,38.76c6.84,0.38,19.51,3.44,17.56,14.1c-0.45,2.44-2.04,5.13-4.49,7.89v-4.56h0
		c0-2.83-2.3-5.13-5.13-5.13H26.56v3.97h0v-3.97c-2.83,0-5.13,2.3-5.13,5.13v31.79c0,2.75,2.16,4.99,4.88,5.12c0,0,0,0,0,0
		c0,0,0,0,0,0l0.09,0c0.06,0,0.11,0,0.17,0V93.1c16.24-0.63,46.08-13.6,59.74-27.17C105.79,46.57,87.83,35.56,69.11,38.76z
		 M26.56,59.34V87.1l0-0.01c14.81-0.18,37.62-10.61,50.51-21.41v-6.04L51.81,78.88L26.56,59.34z M71.99,56.19H31.14l20.66,15.77
		L71.99,56.19z M82.19,87.99c0,2.83-2.3,5.13-5.13,5.13V76.45l5.13-3.85V87.99z M55.53,87.99l-15.64,5.13h37.17v-5.13H55.53z"/>
</g>
</svg>
