<?xml version="1.0" encoding="utf-8"?>
<!-- Generator: Adobe Illustrator 27.0.0, SVG Export Plug-In . SVG Version: 6.00 Build 0)  -->
<svg version="1.1" id="Layer_1" xmlns="http://www.w3.org/2000/svg" xmlns:xlink="http://www.w3.org/1999/xlink" x="0px" y="0px"
	 viewBox="0 0 512 512" style="enable-background:new 0 0 512 512;" xml:space="preserve">
<style type="text/css">
	.st0{fill:#FFFFFF;}
	.st1{font-family:'Inter-Bold';}
	.st2{font-size:64.046px;}
	.st3{fill:url(#SVGID_1_);}
	.st4{fill:url(#SVGID_00000093879183322606175100000001167140836035649693_);}
	.st5{fill:url(#SVGID_00000175315460810264753910000007934599425143535253_);}
	.st6{fill:url(#SVGID_00000149374986733003952300000009953985226049967237_);}
	.st7{fill:url(#SVGID_00000032647173890110492970000006521419239250707888_);}
	.st8{fill:url(#SVGID_00000056414774043940981200000008125244874478696121_);}
	.st9{fill:url(#SVGID_00000062897242734797431920000000904744893601303682_);}
	.st10{fill:url(#SVGID_00000092435181769741608950000000255755590634899081_);}
	.st11{fill:url(#SVGID_00000150089018724119752320000007595666956224682924_);}
	.st12{fill:url(#SVGID_00000069395243136137553950000015692973871866436030_);}
	.st13{fill:url(#SVGID_00000101094024448906936010000011999218776408884135_);}
	.st14{fill:url(#SVGID_00000167387981459800787050000014006905738059940287_);}
	.st15{fill-rule:evenodd;clip-rule:evenodd;fill:#FFFFFF;}
	.st16{fill:url(#SVGID_00000010306539792776622660000008526002127147793583_);}
</style>
<text transform="matrix(1 0 0 1 23.1248 279.9798)" class="st0 st1 st2">SMS Gateways</text>
<g>

		<linearGradient id="SVGID_1_" gradientUnits="userSpaceOnUse" x1="126.199" y1="-659.7486" x2="387.2205" y2="-1053.4935" gradientTransform="matrix(1 0 0 -1 0 -599.5505)">
		<stop  offset="0" style="stop-color:#D054EC"/>
		<stop  offset="1" style="stop-color:#4876FF"/>
	</linearGradient>
	<path class="st3" d="M499.33,256c0,134.39-108.94,243.33-243.33,243.33C121.62,499.33,12.67,390.39,12.67,256
		C12.67,121.61,121.62,12.67,256,12.67C390.39,12.67,499.33,121.61,499.33,256z"/>
	<path class="st0" d="M240.51,152.79l73-29.52l-13.27,24.33l-37.67,5.18l37.67,1.45l13.27,26.54L240.51,152.79z"/>
	<path class="st15" d="M302.74,151.1c30.17,1.7,86.09,15.16,77.5,62.22c-1.97,10.78-9.02,22.63-19.8,34.82v-20.11h0
		c0-12.5-10.13-22.63-22.63-22.63H114.94v17.53h0v-17.53c-12.5,0-22.63,10.13-22.63,22.63v140.28c0,12.12,9.54,22.02,21.52,22.6
		c0,0.01-0.01,0.01-0.01,0.01c0,0.01-0.01,0.01-0.01,0.01l0.38-0.01c0.25,0.01,0.5,0.01,0.75,0.01v-0.04
		c71.67-2.78,203.32-60,263.6-119.88C464.57,185.56,385.32,136.96,302.74,151.1z M114.94,241.92V364.4l0-0.04
		c65.37-0.8,166.01-46.82,222.87-94.5V243.2l-111.44,84.96L114.94,241.92z M315.45,228.03H135.18l91.19,69.58L315.45,228.03z
		 M360.43,368.31c0,12.5-10.13,22.63-22.63,22.63v-73.54l22.63-16.97V368.31z M242.78,368.31l-69.01,22.63h164.04v-22.63H242.78z"/>
</g>
</svg>
