<?xml version="1.0" encoding="utf-8"?>
<!-- Generator: Adobe Illustrator 27.0.0, SVG Export Plug-In . SVG Version: 6.00 Build 0)  -->
<svg version="1.1" id="Layer_1" xmlns="http://www.w3.org/2000/svg" xmlns:xlink="http://www.w3.org/1999/xlink" x="0px" y="0px"
	 viewBox="0 0 47 47" style="enable-background:new 0 0 47 47;" xml:space="preserve">
<style type="text/css">
	.st0{fill:#32325B;}
	.st1{fill:#FD0101;}
</style>
<g>
	<path class="st0" d="M32.44,25.3c0-0.04-0.02-0.07-0.05-0.09c-0.04-0.25-0.19-0.42-0.42-0.52l-0.04,0.04c0,0,0.04-0.04,0.04-0.04
		c-0.05-0.06-0.11-0.12-0.16-0.18c-0.05-0.04-0.09-0.09-0.14-0.13c-0.08-0.16-0.2-0.26-0.38-0.28c-0.02-0.03-0.04-0.05-0.08-0.05
		c-1.43-0.96-3.47-0.82-4.84,0.33c0,0,0,0,0,0c-0.17,0.03-0.28,0.12-0.33,0.28c0,0-0.02,0.02-0.02,0.02
		c-0.16,0.05-0.26,0.15-0.29,0.31c0,0-0.01,0.01-0.01,0.01c-0.32,0.19-0.47,0.5-0.58,0.83l0,0c-0.54,0.75-0.53,1.62-0.53,2.49
		c0,3.26-0.02,6.51,0.02,9.77c0.01,0.75-0.24,0.94-0.94,0.92c-1.42-0.05-2.84-0.06-4.25,0c-0.8,0.04-1.02-0.22-1.01-1.01
		c0.03-6.35,0.02-12.71,0.02-19.07c0-0.31-0.03-0.63,0.12-0.93c0,0-0.01-0.02-0.01-0.02c0.34,0.01,0.68,0.03,1.02,0.04
		c1.68,0.04,3.36-0.09,5.04,0.07c0.02,0.8,0.03,1.6,0.05,2.41c0.38,0.22,0.35-0.18,0.5-0.32c0,0,0,0,0,0
		c0.08-0.09,0.16-0.17,0.24-0.26c0,0-0.02,0.02-0.02,0.02c0.06-0.05,0.11-0.11,0.17-0.16l-0.04-0.05c0,0,0.05,0.05,0.05,0.05
		c0.05-0.06,0.11-0.11,0.16-0.17c0,0-0.02,0.02-0.02,0.02c0.09-0.08,0.18-0.16,0.27-0.23c0,0,0,0,0,0c0.12-0.08,0.25-0.17,0.37-0.25
		c0,0-0.01,0.01-0.01,0.01c0.09-0.08,0.19-0.15,0.28-0.23c0,0-0.01,0.01-0.01,0.01c0.05-0.03,0.09-0.06,0.14-0.08
		c0.05,0.01,0.1-0.01,0.13-0.06c1.02-0.48,2.08-0.81,3.19-1.03c0.94,0,1.89,0.01,2.83,0.01c0.79,0.22,1.58,0.43,2.37,0.65
		c0.03,0.03,0.06,0.05,0.1,0.05c0.13,0.17,0.31,0.26,0.52,0.29c0.02,0.03,0.04,0.05,0.08,0.05c0.52,0.42,1.04,0.84,1.56,1.26
		c0,0,0.03,0.03,0.03,0.03c0.27,0.36,0.54,0.72,0.8,1.08c0,0.04,0.02,0.07,0.06,0.09c0.04,0.24,0.14,0.45,0.33,0.6l0.01,0.02
		c0.58,1.47,0.65,3,0.63,4.55c-0.03,2.33-0.01,4.66-0.01,6.99c0,1.62,0,3.25,0,4.87c0,0.36,0.01,0.69-0.5,0.69
		c-1.88-0.03-3.77-0.04-5.65-0.06c0,0,0-0.01,0-0.01c0.01-2.85,0.02-5.69,0.01-8.54c0-0.99,0.08-1.98-0.06-2.97
		c-0.01-0.1-0.03-0.19-0.04-0.29C33.07,26.45,32.9,25.83,32.44,25.3z"/>
	<path class="st0" d="M8.48,39.04c-0.02-0.26-0.04-0.52-0.04-0.78c0-6.46,0.01-12.92-0.02-19.38c0-0.71,0.21-0.89,0.89-0.87
		c1.6,0.05,3.2,0.02,4.8,0.01c0.4,0,0.63,0.06,0.63,0.55c-0.02,6.77-0.02,13.55-0.03,20.32c0,0.05-0.02,0.1-0.03,0.15
		C12.61,39.04,10.54,39.04,8.48,39.04z"/>
	<path class="st0" d="M8.6,13.6l0-0.04c0,0-0.04-0.02-0.04-0.02C7.7,12.18,7.6,10.77,8.26,9.29C8.3,9.28,8.31,9.25,8.29,9.22
		C8.37,9.11,8.44,9.01,8.51,8.9L8.47,8.87c0,0,0.05,0.03,0.05,0.03c0.04-0.06,0.09-0.12,0.13-0.18c0,0-0.01,0.02-0.01,0.02
		c0.11-0.11,0.21-0.23,0.32-0.34c0,0-0.02,0.02-0.02,0.02C9.03,8.34,9.11,8.26,9.2,8.18c0,0,0.01-0.01,0.01-0.01
		C9.33,8.09,9.46,8,9.58,7.91c0.05,0.01,0.08-0.01,0.1-0.05c0.18-0.09,0.36-0.18,0.54-0.27c0.05,0.02,0.08,0.01,0.1-0.04
		c0.83-0.19,1.67-0.19,2.5,0.02l0.02,0.04c0,0,0.04-0.01,0.04-0.01c0.19,0.09,0.39,0.18,0.58,0.27l0.02,0.04
		c0,0,0.04-0.01,0.04-0.01c0.08,0.05,0.17,0.11,0.25,0.16c0.05,0.04,0.11,0.08,0.16,0.12c0.26,0.27,0.51,0.55,0.77,0.82
		c0,0-0.01-0.02-0.01-0.02c0.06,0.1,0.13,0.21,0.19,0.31c0,0,0,0,0,0c0.58,1.26,0.6,2.52,0,3.78c0,0,0,0,0,0
		c-0.13,0.07-0.17,0.18-0.19,0.32c0,0,0.02-0.03,0.02-0.03c-0.05,0.06-0.11,0.12-0.16,0.18c0,0,0,0,0,0
		c-0.16,0.06-0.24,0.19-0.3,0.33c0,0,0,0,0,0c-0.08,0.08-0.16,0.16-0.25,0.24c0,0,0.01-0.01,0.01-0.01
		c-0.06,0.05-0.11,0.09-0.17,0.14c0,0-0.02,0.01-0.02,0.01c-1.31,0.83-2.67,0.94-4.09,0.31c-0.01,0.02-0.03,0.04-0.04,0.06
		c0.01-0.02,0.03-0.04,0.04-0.06c-0.17-0.11-0.33-0.22-0.5-0.33c-0.04-0.03-0.08-0.05-0.12-0.08c-0.07-0.07-0.14-0.13-0.21-0.2
		c-0.04-0.04-0.08-0.08-0.12-0.12C8.74,13.76,8.67,13.68,8.6,13.6z"/>
</g>
</svg>
