<?xml version="1.0" encoding="utf-8"?>
<!-- Generator: Adobe Illustrator 27.0.0, SVG Export Plug-In . SVG Version: 6.00 Build 0)  -->
<svg version="1.1" id="Layer_1" xmlns="http://www.w3.org/2000/svg" xmlns:xlink="http://www.w3.org/1999/xlink" x="0px" y="0px"
	 viewBox="0 0 47 47" style="enable-background:new 0 0 47 47;" xml:space="preserve">
<style type="text/css">
	.st0{fill:#32325B;}
	.st1{fill:#FD0101;}
</style>
<g>
	<path class="st1" d="M35.62,9.67c0.55,0.13,1.12,0.1,1.68,0.15c0.5,0.06,1,0.12,1.49,0.17c0.03,0,0.07,0.01,0.1,0.01
		c0.13,0.08,0.27,0.1,0.42,0.09c0.39,0.13,0.78,0.26,1.17,0.39c1.21,0.57,2.1,1.47,2.66,2.69c0.03,0.08,0.05,0.16,0.08,0.24
		c0.36,0.98,0.42,2.03,0.64,3.04c-0.03,0.53,0.09,1.05,0.14,1.58c0.06,0.71,0.01,1.43,0.16,2.13c0.01,0.38,0.01,0.77,0.02,1.15
		c-0.02,0.53-0.04,1.07,0.06,1.6c0,0.08,0.01,0.15,0.01,0.23c-0.02,1.02-0.04,2.03-0.07,3.05c-0.01,0.45-0.02,0.9-0.03,1.35
		c-0.14,0.63-0.1,1.27-0.14,1.91c-0.05,0.5-0.1,1-0.15,1.49c-0.17,1.1-0.32,2.21-0.64,3.28c-0.25,0.53-0.54,1.05-0.9,1.52
		c-0.06,0.07-0.12,0.14-0.18,0.21c-0.7,0.66-1.51,1.15-2.43,1.46c-0.12,0.03-0.24,0.06-0.36,0.09l-0.03-0.02l-0.03,0.03
		c-0.15-0.01-0.31-0.02-0.44,0.09c-0.53,0.06-1.06,0.12-1.59,0.18c-0.52,0.06-1.06,0.01-1.58,0.15c-0.57-0.01-1.13,0.01-1.7,0.11
		c-0.46,0.01-0.91,0.02-1.37,0.03c-0.6,0.03-1.2,0.06-1.81,0.09c-0.56,0.01-1.12,0.01-1.69,0.02c-0.53-0.02-1.06,0-1.59,0.08
		c-0.53,0.01-1.05,0.01-1.58,0.02c-0.53,0-1.06,0-1.59,0.01c-0.56,0-1.12,0-1.69,0c-0.53,0-1.06,0-1.59-0.01
		c-0.49-0.01-0.98-0.01-1.47-0.02c-0.6-0.08-1.2-0.1-1.81-0.08c-0.53,0-1.05-0.01-1.58-0.01c-0.53-0.03-1.06-0.05-1.59-0.08
		c-0.48-0.15-0.98,0.19-1.46-0.04c-0.6-0.11-1.2-0.11-1.81-0.11c-0.53-0.05-1.06-0.11-1.59-0.16c-0.53-0.07-1.06-0.13-1.59-0.2
		c-0.11-0.02-0.22-0.03-0.32-0.05l-0.03-0.03l-0.03,0.02c-0.12-0.03-0.24-0.06-0.36-0.09c-1.03-0.34-1.9-0.91-2.64-1.7
		c-0.38-0.45-0.54-1.05-0.96-1.48c-0.28-1.04-0.35-2.12-0.54-3.18c-0.05-0.56-0.1-1.12-0.14-1.69c-0.04-0.53-0.07-1.06-0.11-1.59
		c-0.01-0.08-0.03-0.16-0.04-0.24c0.01-0.01,0.03-0.02,0.02-0.03c-0.01-0.02-0.02-0.04-0.03-0.06c-0.01-0.42-0.02-0.84-0.02-1.25
		C3,25.24,2.99,24.28,2.98,23.33c0-0.14,0-0.28,0-0.42c0.07-0.53,0.07-1.06,0.04-1.59c0.01-0.38,0.02-0.76,0.03-1.15
		c0.15-0.7,0.1-1.42,0.16-2.13c0.02-0.27,0.04-0.53,0.06-0.8c0.01-0.05,0.02-0.1,0.03-0.14c0.02-0.21,0.03-0.43,0.05-0.64
		c0.07-0.17,0.13-0.35,0.1-0.54c0.06-0.39,0.12-0.77,0.18-1.16c0.02-0.11,0.03-0.21,0.05-0.32c0,0,0,0,0,0
		c0.09-0.13,0.11-0.27,0.1-0.43c0.01-0.05,0.03-0.09,0.04-0.14c0.02-0.06,0.04-0.12,0.05-0.18c0.08-0.13,0.14-0.26,0.13-0.41
		c0.56-1.18,1.39-2.11,2.54-2.74c0.42-0.15,0.84-0.3,1.27-0.44c0.14-0.02,0.28-0.04,0.42-0.06c0.53-0.07,1.06-0.13,1.6-0.2
		c0.53-0.05,1.05-0.11,1.58-0.16c0.53,0,1.07,0.02,1.59-0.11c0.56,0.02,1.12,0.01,1.69-0.05c0.53-0.02,1.06-0.05,1.59-0.07
		c0.53-0.01,1.05-0.01,1.58-0.02c0.57,0.03,1.13,0,1.7-0.08c0.53-0.01,1.05-0.01,1.58-0.02c0.53,0,1.06,0,1.59,0
		c0.56,0,1.12,0,1.68,0c0.53,0,1.06,0.01,1.6,0.01c0.53,0,1.05,0.01,1.58,0.01c0.56,0.07,1.13,0.1,1.7,0.08
		c0.53,0,1.05,0.01,1.58,0.01c0.53,0.02,1.07,0.04,1.6,0.06c0.52,0.09,1.05,0.07,1.58,0.06c0.38,0.07,0.77,0.11,1.16,0.09
		C35.33,9.67,35.48,9.67,35.62,9.67z M19.53,17.64c-0.02,0.18-0.04,0.26-0.04,0.35c0,3.84,0,7.68-0.01,11.53
		c0,0.44,0.13,0.41,0.44,0.23c2.02-1.18,4.05-2.34,6.07-3.51c1.38-0.8,2.76-1.6,4.21-2.44C26.63,21.74,23.12,19.72,19.53,17.64z"/>
</g>
</svg>
