<?xml version="1.0" encoding="utf-8"?>
<!-- Generator: Adobe Illustrator 27.0.0, SVG Export Plug-In . SVG Version: 6.00 Build 0)  -->
<svg version="1.1" id="Layer_1" xmlns="http://www.w3.org/2000/svg" xmlns:xlink="http://www.w3.org/1999/xlink" x="0px" y="0px"
	 viewBox="0 0 47 47" style="enable-background:new 0 0 47 47;" xml:space="preserve">
<style type="text/css">
	.st0{fill:#32325B;}
	.st1{fill:#FD0101;}
</style>
<path d="M19.38,24.48c-1.1,0-2.11-0.02-3.11,0.01c-0.42,0.01-0.55-0.11-0.55-0.54c0.02-1.84,0.01-3.69,0.01-5.54
	c0-0.13,0.02-0.27,0.03-0.45c1.19,0,2.36,0,3.62,0c0-0.23,0-0.41,0-0.59c0-1.38-0.02-2.77,0.02-4.15c0.04-1.38,0.39-2.7,1.1-3.91
	c1.04-1.79,2.63-2.92,4.64-3.12c2.52-0.26,5.07-0.2,7.65-0.28c0,2.21,0,4.28,0,6.42c-0.99,0-1.96,0-2.93,0
	c-0.49,0-0.99-0.01-1.48,0.05c-0.67,0.08-1.21,0.52-1.24,1.17c-0.06,1.44-0.02,2.89-0.02,4.4c1.92,0,3.82,0,5.79,0
	c-0.22,2.2-0.44,4.33-0.66,6.52c-1.72,0-3.4,0-5.17,0c0,6.17,0,12.29,0,18.45c-2.6,0-5.11,0-7.69,0
	C19.38,36.77,19.38,30.66,19.38,24.48z"/>
</svg>
