<svg width="149" height="44" viewBox="0 0 149 44" fill="none" xmlns="http://www.w3.org/2000/svg">
<circle cx="22" cy="22" r="22" fill="url(#paint0_linear_2202_431)"/>
<path d="M20.5996 12.6686L27.1996 10L25.9996 12.2L22.5938 12.6686L25.9996 12.8L27.1996 15.2L20.5996 12.6686Z" fill="white"/>
<path fill-rule="evenodd" clip-rule="evenodd" d="M26.2249 12.5165C28.9525 12.6699 34.0089 13.8871 33.2315 18.1423C33.0535 19.1165 32.4157 20.1885 31.4412 21.2905V19.472H31.4414C31.4414 18.3422 30.5255 17.4262 29.3956 17.4262L9.24512 17.4262V19.0117H9.24496V17.4262C8.11513 17.4262 7.19922 18.3422 7.19922 19.472V32.1556C7.19922 33.2518 8.06148 34.1466 9.14477 34.1989C9.14449 34.1994 9.1442 34.1998 9.1439 34.2002C9.1436 34.2006 9.14329 34.201 9.14297 34.2013L9.17716 34.2002C9.19967 34.2009 9.22227 34.2013 9.24496 34.2013V34.1977C15.7251 33.9468 27.6282 28.7728 33.0781 23.3589C40.8562 15.6321 33.6918 11.2379 26.2249 12.5165ZM9.24496 20.7274V31.8012L9.24525 31.7976C15.1559 31.725 24.2545 27.5646 29.3955 23.2538V20.8431L19.3202 28.5243L9.24496 20.7274ZM27.3741 19.472L11.0756 19.472L19.3202 25.7626L27.3741 19.472ZM31.4412 32.1555C31.4412 33.2854 30.5253 34.2013 29.3955 34.2013L29.3955 27.5526L31.4412 26.0183V32.1555ZM20.8033 32.1555L14.5638 34.2013H29.3954V32.1555H20.8033Z" fill="white"/>
<path d="M53.2642 14.4545H57.0568L61.0625 24.2273H61.233L65.2386 14.4545H69.0312V29H66.0483V19.5327H65.9276L62.1634 28.929H60.1321L56.3679 19.4972H56.2472V29H53.2642V14.4545ZM73.619 29.206C72.9229 29.206 72.3027 29.0852 71.7582 28.8438C71.2137 28.5975 70.7828 28.2353 70.4656 27.7571C70.1531 27.2741 69.9968 26.6728 69.9968 25.9531C69.9968 25.3471 70.1081 24.8381 70.3306 24.4261C70.5531 24.0142 70.8562 23.6828 71.2397 23.4318C71.6232 23.1809 72.0588 22.9915 72.5465 22.8636C73.0389 22.7358 73.555 22.6458 74.0948 22.5938C74.7293 22.5275 75.2406 22.4659 75.6289 22.4091C76.0172 22.3475 76.2989 22.2576 76.4741 22.1392C76.6493 22.0208 76.7369 21.8456 76.7369 21.6136V21.571C76.7369 21.1212 76.5948 20.7732 76.3107 20.527C76.0314 20.2808 75.6336 20.1577 75.1175 20.1577C74.573 20.1577 74.1398 20.2784 73.8178 20.5199C73.4959 20.7566 73.2828 21.0549 73.1786 21.4148L70.3803 21.1875C70.5224 20.5246 70.8017 19.9517 71.2184 19.4688C71.6351 18.9811 72.1725 18.607 72.8306 18.3466C73.4935 18.0814 74.2605 17.9489 75.1317 17.9489C75.7378 17.9489 76.3178 18.0199 76.8718 18.1619C77.4305 18.304 77.9253 18.5241 78.3562 18.8224C78.7918 19.1207 79.1351 19.5043 79.386 19.973C79.637 20.437 79.7624 20.9934 79.7624 21.642V29H76.8931V27.4872H76.8079C76.6327 27.8281 76.3983 28.1288 76.1048 28.3892C75.8112 28.6449 75.4585 28.8461 75.0465 28.9929C74.6346 29.1349 74.1587 29.206 73.619 29.206ZM74.4854 27.1179C74.9305 27.1179 75.3235 27.0303 75.6644 26.8551C76.0053 26.6752 76.2728 26.4337 76.467 26.1307C76.6611 25.8277 76.7582 25.4844 76.7582 25.1009V23.9432C76.6635 24.0047 76.5333 24.0616 76.3675 24.1136C76.2066 24.161 76.0243 24.206 75.8207 24.2486C75.6171 24.2865 75.4135 24.322 75.2099 24.3551C75.0063 24.3835 74.8216 24.4096 74.6559 24.4332C74.3008 24.4853 73.9906 24.5682 73.7255 24.6818C73.4603 24.7955 73.2544 24.9493 73.1076 25.1435C72.9608 25.3329 72.8874 25.5696 72.8874 25.8537C72.8874 26.2656 73.0366 26.5805 73.3349 26.7983C73.6379 27.0114 74.0214 27.1179 74.4854 27.1179ZM84.2205 29.206C83.5245 29.206 82.9042 29.0852 82.3597 28.8438C81.8152 28.5975 81.3844 28.2353 81.0671 27.7571C80.7546 27.2741 80.5984 26.6728 80.5984 25.9531C80.5984 25.3471 80.7096 24.8381 80.9322 24.4261C81.1547 24.0142 81.4577 23.6828 81.8413 23.4318C82.2248 23.1809 82.6604 22.9915 83.1481 22.8636C83.6405 22.7358 84.1566 22.6458 84.6964 22.5938C85.3308 22.5275 85.8422 22.4659 86.2305 22.4091C86.6187 22.3475 86.9005 22.2576 87.0756 22.1392C87.2508 22.0208 87.3384 21.8456 87.3384 21.6136V21.571C87.3384 21.1212 87.1964 20.7732 86.9123 20.527C86.6329 20.2808 86.2352 20.1577 85.7191 20.1577C85.1746 20.1577 84.7414 20.2784 84.4194 20.5199C84.0974 20.7566 83.8844 21.0549 83.7802 21.4148L80.9819 21.1875C81.1239 20.5246 81.4033 19.9517 81.82 19.4688C82.2366 18.9811 82.774 18.607 83.4322 18.3466C84.0951 18.0814 84.8621 17.9489 85.7333 17.9489C86.3394 17.9489 86.9194 18.0199 87.4734 18.1619C88.0321 18.304 88.5269 18.5241 88.9577 18.8224C89.3933 19.1207 89.7366 19.5043 89.9876 19.973C90.2385 20.437 90.364 20.9934 90.364 21.642V29H87.4947V27.4872H87.4094C87.2343 27.8281 86.9999 28.1288 86.7063 28.3892C86.4128 28.6449 86.06 28.8461 85.6481 28.9929C85.2362 29.1349 84.7603 29.206 84.2205 29.206ZM85.087 27.1179C85.5321 27.1179 85.9251 27.0303 86.266 26.8551C86.6069 26.6752 86.8744 26.4337 87.0685 26.1307C87.2627 25.8277 87.3597 25.4844 87.3597 25.1009V23.9432C87.265 24.0047 87.1348 24.0616 86.9691 24.1136C86.8081 24.161 86.6258 24.206 86.4222 24.2486C86.2186 24.2865 86.015 24.322 85.8114 24.3551C85.6078 24.3835 85.4232 24.4096 85.2575 24.4332C84.9023 24.4853 84.5922 24.5682 84.3271 24.6818C84.0619 24.7955 83.8559 24.9493 83.7092 25.1435C83.5624 25.3329 83.489 25.5696 83.489 25.8537C83.489 26.2656 83.6381 26.5805 83.9364 26.7983C84.2395 27.0114 84.623 27.1179 85.087 27.1179ZM94.7369 22.6932V29H91.7113V18.0909H94.5948V20.0156H94.7227C94.9641 19.3812 95.369 18.8793 95.9371 18.5099C96.5053 18.1359 97.1942 17.9489 98.0039 17.9489C98.7615 17.9489 99.422 18.1146 99.9854 18.446C100.549 18.7775 100.987 19.2509 101.299 19.8665C101.612 20.4773 101.768 21.2064 101.768 22.054V29H98.7425V22.5938C98.7473 21.9261 98.5768 21.4053 98.2312 21.0312C97.8855 20.6525 97.4097 20.4631 96.8036 20.4631C96.3964 20.4631 96.0366 20.5507 95.7241 20.7259C95.4163 20.901 95.1748 21.1567 94.9996 21.4929C94.8292 21.8243 94.7416 22.2244 94.7369 22.6932ZM114.729 18.6378C114.672 18.0649 114.428 17.6198 113.998 17.3026C113.567 16.9853 112.982 16.8267 112.243 16.8267C111.741 16.8267 111.318 16.8977 110.972 17.0398C110.626 17.1771 110.361 17.3688 110.176 17.6151C109.997 17.8613 109.907 18.1406 109.907 18.4531C109.897 18.7135 109.952 18.9408 110.07 19.1349C110.193 19.3291 110.361 19.4972 110.574 19.6392C110.787 19.7765 111.033 19.8973 111.313 20.0014C111.592 20.1009 111.891 20.1861 112.208 20.2571L113.515 20.5696C114.149 20.7116 114.731 20.901 115.262 21.1378C115.792 21.3745 116.251 21.6657 116.64 22.0114C117.028 22.357 117.328 22.7642 117.542 23.233C117.759 23.7017 117.871 24.2391 117.875 24.8452C117.871 25.7353 117.643 26.5071 117.194 27.1605C116.748 27.8092 116.105 28.3134 115.262 28.6733C114.424 29.0284 113.413 29.206 112.229 29.206C111.055 29.206 110.032 29.026 109.161 28.6662C108.294 28.3063 107.617 27.7737 107.13 27.0682C106.647 26.358 106.393 25.4796 106.37 24.4332H109.346C109.379 24.9209 109.518 25.3281 109.765 25.6548C110.016 25.9768 110.349 26.2206 110.766 26.3864C111.187 26.5473 111.663 26.6278 112.194 26.6278C112.714 26.6278 113.167 26.5521 113.55 26.4006C113.938 26.2491 114.239 26.0384 114.452 25.7685C114.665 25.4986 114.772 25.1884 114.772 24.8381C114.772 24.5114 114.675 24.2367 114.48 24.0142C114.291 23.7917 114.012 23.6023 113.642 23.446C113.278 23.2898 112.83 23.1477 112.3 23.0199L110.716 22.6222C109.49 22.3239 108.522 21.8575 107.811 21.223C107.101 20.5885 106.748 19.7339 106.753 18.6591C106.748 17.7784 106.983 17.009 107.456 16.3509C107.935 15.6927 108.59 15.179 109.424 14.8097C110.257 14.4403 111.204 14.2557 112.265 14.2557C113.344 14.2557 114.286 14.4403 115.091 14.8097C115.901 15.179 116.531 15.6927 116.98 16.3509C117.43 17.009 117.662 17.7713 117.676 18.6378H114.729ZM118.944 14.4545H122.737L126.742 24.2273H126.913L130.918 14.4545H134.711V29H131.728V19.5327H131.607L127.843 28.929H125.812L122.048 19.4972H121.927V29H118.944V14.4545ZM144.135 18.6378C144.078 18.0649 143.835 17.6198 143.404 17.3026C142.973 16.9853 142.388 16.8267 141.65 16.8267C141.148 16.8267 140.724 16.8977 140.378 17.0398C140.033 17.1771 139.767 17.3688 139.583 17.6151C139.403 17.8613 139.313 18.1406 139.313 18.4531C139.303 18.7135 139.358 18.9408 139.476 19.1349C139.599 19.3291 139.767 19.4972 139.98 19.6392C140.194 19.7765 140.44 19.8973 140.719 20.0014C140.998 20.1009 141.297 20.1861 141.614 20.2571L142.921 20.5696C143.555 20.7116 144.138 20.901 144.668 21.1378C145.198 21.3745 145.658 21.6657 146.046 22.0114C146.434 22.357 146.735 22.7642 146.948 23.233C147.166 23.7017 147.277 24.2391 147.282 24.8452C147.277 25.7353 147.05 26.5071 146.6 27.1605C146.155 27.8092 145.511 28.3134 144.668 28.6733C143.83 29.0284 142.819 29.206 141.635 29.206C140.461 29.206 139.438 29.026 138.567 28.6662C137.701 28.3063 137.024 27.7737 136.536 27.0682C136.053 26.358 135.8 25.4796 135.776 24.4332H138.752C138.785 24.9209 138.925 25.3281 139.171 25.6548C139.422 25.9768 139.756 26.2206 140.172 26.3864C140.594 26.5473 141.069 26.6278 141.6 26.6278C142.121 26.6278 142.573 26.5521 142.956 26.4006C143.345 26.2491 143.645 26.0384 143.858 25.7685C144.071 25.4986 144.178 25.1884 144.178 24.8381C144.178 24.5114 144.081 24.2367 143.887 24.0142C143.697 23.7917 143.418 23.6023 143.049 23.446C142.684 23.2898 142.237 23.1477 141.706 23.0199L140.123 22.6222C138.896 22.3239 137.928 21.8575 137.218 21.223C136.507 20.5885 136.155 19.7339 136.159 18.6591C136.155 17.7784 136.389 17.009 136.863 16.3509C137.341 15.6927 137.997 15.179 138.83 14.8097C139.663 14.4403 140.61 14.2557 141.671 14.2557C142.75 14.2557 143.693 14.4403 144.498 14.8097C145.307 15.179 145.937 15.6927 146.387 16.3509C146.837 17.009 147.069 17.7713 147.083 18.6378H144.135Z" fill="white"/>
<defs>
<linearGradient id="paint0_linear_2202_431" x1="8.6" y1="5.4" x2="32.2" y2="41" gradientUnits="userSpaceOnUse">
<stop stop-color="#D054EC"/>
<stop offset="1" stop-color="#4876FF"/>
</linearGradient>
</defs>
</svg>
