<?xml version="1.0" encoding="utf-8"?>
<!-- Generator: Adobe Illustrator 27.0.0, SVG Export Plug-In . SVG Version: 6.00 Build 0)  -->
<svg version="1.1" id="Layer_1" xmlns="http://www.w3.org/2000/svg" xmlns:xlink="http://www.w3.org/1999/xlink" x="0px" y="0px"
	 viewBox="0 0 47 47" style="enable-background:new 0 0 47 47;" xml:space="preserve">
<style type="text/css">
	.st0{fill:#32325B;}
	.st1{fill:#FD0101;}
</style>
<path d="M7.66,9.85c4.33,5.16,9.81,7.9,16.37,8.4c0-0.96-0.06-1.86,0.01-2.75c0.27-3.48,3.38-6.61,6.86-7.02
	c2.6-0.3,4.82,0.45,6.76,2.18c0.15,0.14,0.47,0.2,0.68,0.15c1.6-0.35,3.1-0.95,4.65-1.85c-0.59,1.88-1.69,3.2-3.16,4.26
	c0.01,0.04,0.03,0.08,0.04,0.12c0.45-0.08,0.9-0.13,1.35-0.24c0.48-0.11,0.96-0.26,1.43-0.42c0.45-0.15,0.89-0.32,1.33-0.49
	c0.04,0.05,0.08,0.09,0.12,0.14c-0.87,0.95-1.73,1.91-2.62,2.84c-0.34,0.36-0.78,0.61-1.14,0.96c-0.15,0.14-0.27,0.39-0.27,0.59
	c0.11,5.1-1.32,9.74-4.21,13.91c-2.83,4.1-6.64,7.02-11.4,8.48c-6.64,2.05-13.02,1.29-19.05-2.2c-0.1-0.06-0.19-0.13-0.28-0.26
	c4.25,0.36,8.06-0.73,11.45-3.31c-2.3-0.19-4.17-1.16-5.69-2.85c-0.76-0.85-1.41-2.05-1.49-2.82c1.09,0,2.17,0,3.25,0
	c0.01-0.05,0.02-0.11,0.03-0.16c-1.82-0.46-3.31-1.42-4.47-2.88c-1.17-1.47-1.71-3.13-1.71-5.04c0.59,0.22,1.13,0.46,1.69,0.63
	c0.54,0.16,1.11,0.24,1.69,0.29c-1.9-1.57-3.09-3.5-3.28-5.96C6.45,12.92,6.77,11.37,7.66,9.85z"/>
</svg>
