<svg width="974" height="550" viewBox="0 0 974 550" fill="none" xmlns="http://www.w3.org/2000/svg">
<path d="M66.3504 316.198C87.8809 330.517 113.794 340.117 137.845 351.755C160.988 362.952 185.142 381.302 178.722 401.953C173.886 417.577 153.718 426.547 138.124 437.041C103.094 460.609 87.8516 500.064 97.774 535.035C131.484 534.346 165.194 533.892 198.992 534.463C266.266 535.592 333.481 538.582 400.725 540.678C468.643 542.803 536.591 543.243 604.539 543.418H623.856C623.411 542.051 623.188 540.621 623.197 539.183C623.197 518.839 660.249 502.732 675.198 495.961C697.315 485.965 720.985 479.838 744.846 475.94C784.199 469.549 826.073 474.049 863.813 459.363C885.139 451.068 904.573 431.853 904.236 408.769C903.899 386.593 886.179 369.049 870.907 355.258C865.719 350.553 860.501 346.171 855.767 342.067C830.851 320.756 807.166 294.506 797.844 262.218C787.336 225.811 790.281 186.561 781.019 149.787C757.524 56.7036 659.179 8.24909 571.063 0.891498C520.004 -3.32453 468.826 7.47559 423.824 31.9634C401.964 43.8544 382.167 59.1969 365.198 77.3987C347.492 96.4522 330.887 116.722 308.506 130.382C262.001 158.801 199.256 158.493 145.129 172.153C98.4336 183.952 32.4938 215.302 28.8882 258.055L28.8003 259.374C27.6278 281.374 44.8053 301.878 66.3504 316.198Z" fill="#04398C" fill-opacity="0.07"/>
<path d="M408.684 255.417L389.278 223.524L412.831 224.829L408.684 255.417Z" fill="#0068FF"/>
<path d="M505.49 182.413C505.49 182.413 510.078 225.488 492.417 230.413C474.756 235.338 481.835 189.067 481.835 189.067" fill="#0031FF"/>
<path d="M349.295 307.463L528.926 306.73L540.944 404.548L499.656 541.938L353.97 545.368L349.295 307.463Z" fill="#0068FF"/>
<path d="M594.074 506.44C592.682 514.061 571.796 536.369 543.655 517.755C536.327 512.889 528.823 504.74 521.788 495.389C518.651 491.197 525.716 488.574 532.047 485.745C536.518 483.752 540.665 481.656 540.709 478.856C540.695 478.192 540.503 477.544 540.152 476.98C538.935 474.657 538 472.197 537.368 469.652C532.311 451.654 534.143 400.766 524.03 366.953C517.098 344.654 505.367 324.143 489.661 306.862L512.246 302.274C513.826 302.052 515.416 301.91 517.01 301.849C524.95 301.015 532.959 301.079 540.885 302.04C547.833 303.036 551.892 304.37 557.652 308.532C563.925 313.061 567.502 319.95 569.935 327.117C574.874 341.656 575.797 357.104 578.934 372.039C579.549 374.912 580.258 377.76 581.059 380.584C588.226 405.5 594.572 434.242 596.243 455.333C597.635 472.393 596.907 489.559 594.074 506.44Z" fill="#0068FF"/>
<path d="M549.254 520.95C561.991 527.238 572.954 525.347 580.854 520.95H549.254Z" fill="#F9FBFC"/>
<g style="mix-blend-mode:multiply" opacity="0.5">
<path d="M579.344 484.939L557.755 495.711L536.327 493.806C534.862 491.182 533.484 488.471 532.136 485.73C531.036 483.546 529.981 481.333 528.955 479.091C532.062 478.93 536.166 478.798 540.798 478.842C540.783 478.178 540.591 477.53 540.241 476.966C539.023 474.643 538.088 472.183 537.456 469.637C552.061 472.769 566.159 477.919 579.344 484.939Z" fill="#E5B39B"/>
</g>
<g style="mix-blend-mode:multiply" opacity="0.5">
<path d="M510.693 414.998L500.975 407.186C500.975 407.186 493.999 391.914 493.97 391.796C491.962 385.377 478.404 380.232 475.971 382.607C473.538 384.981 463.762 401.396 459.234 407.332C456.771 410.542 454.499 412.433 449.34 416.947C441.484 421.622 432.896 424.671 424.849 429.039C416.173 433.773 387.666 442.83 372.745 448.854C372.009 449.15 371.212 449.26 370.423 449.175C369.634 449.09 368.879 448.812 368.223 448.366C367.567 447.92 367.031 447.319 366.662 446.617C366.292 445.915 366.102 445.133 366.106 444.34C366.194 427.617 366.326 387.092 365.564 365.957C364.391 333.639 372.892 310.482 372.892 310.482L353.472 307.726C349.807 307.209 346.105 307.013 342.406 307.14C331.282 307.521 320.671 308.606 312.477 318.25C300.4 332.481 308.242 371.907 307.392 388.968C306.131 414.162 306.864 444.765 307.392 465.871C308.081 493.322 326.299 517.681 327.427 519.602C330.666 525.142 336.309 534.962 349.412 531.327C354.131 529.993 359.833 526.93 366.736 521.228C372.086 516.831 365.578 490.977 362.764 478.343C362.662 477.874 362.559 477.435 362.471 477.01L374.885 470.693C375.002 469.696 375.105 468.685 375.208 467.673L403.627 516.494C425.758 502.849 439.198 476.775 452.418 461.474C458.866 454.064 467.305 448.662 476.733 445.908L478.492 445.351C492.958 440.632 501.767 436.704 506.032 433.626C508.465 431.838 515.822 425.55 517.347 424.129C520.19 421.403 510.693 414.998 510.693 414.998Z" fill="#E5B39B"/>
</g>
<g style="mix-blend-mode:multiply" opacity="0.3">
<path d="M514.357 529.026C462.077 532.367 398.57 522.826 397.603 522.679L398.131 500.973C431.753 498.423 483.505 477.742 496.593 476.394C500.243 476.013 505.255 475.603 511.001 475.148L512.144 475.046L515.31 474.826H516.175H517.201C520.308 474.665 524.412 474.533 529.043 474.577C540.929 474.65 556.333 475.866 567.59 480.674C575.563 484.089 581.455 489.306 582.539 497.236C585.031 515.454 552.757 526.563 514.357 529.026Z" fill="#E5B39B"/>
</g>
<path d="M526.082 533.423C473.802 536.764 410.295 527.223 409.328 527.076L410.032 498.291C443.654 495.741 495.23 482.169 508.318 480.791C511.968 480.41 516.98 480 522.726 479.545L523.869 479.443L527.035 479.223H527.9H528.926C532.033 479.061 536.137 478.93 540.768 478.974C552.655 479.047 568.059 480.263 579.315 485.071C587.288 488.486 593.18 493.703 594.264 501.633C596.756 519.851 564.482 530.96 526.082 533.423Z" fill="#0068FF"/>
<path d="M423.208 528.908C417.756 528.425 407.497 528.044 399.245 530.081C371.016 537.028 362.296 534.727 359.335 535.269C359.335 535.269 353.473 537.131 349.926 534.713C346.379 532.294 348.914 527.282 348.914 527.282C348.724 527.197 348.542 527.094 348.372 526.974C347.689 526.529 347.101 525.952 346.643 525.278C346.185 524.604 345.866 523.845 345.705 523.046C345.249 521.373 345.437 519.589 346.232 518.048C346.232 518.048 342.641 514.897 342.158 512.904C341.948 511.183 342.118 509.437 342.656 507.788C342.656 507.788 339.256 504.183 339.593 501.926C340.047 498.994 343.711 495.931 350.277 493.498L349.867 493.601C344.327 494.7 342.334 491.153 343.36 489.409C344.385 487.665 357.313 480.337 361.226 480.923C365.139 481.509 385.468 489.6 393.793 491.945C398.879 493.41 406.104 497.47 415.778 497.558H416.305L423.208 528.908Z" fill="#E5B39B"/>
<path d="M363.849 521.17C356.946 526.856 351.245 529.964 346.525 531.268C333.408 534.962 327.765 525.142 324.54 519.543C323.412 517.623 305.194 493.264 304.505 465.812C303.977 444.706 303.244 414.104 304.505 388.909C305.355 371.849 297.514 332.423 309.591 318.191C317.784 308.532 328.791 306.466 339.915 306.143C343.623 306.012 346.921 307.155 350.585 307.609L370.005 310.365C370.005 310.365 361.475 333.522 362.677 365.84C363.659 393.218 363.703 430.328 363.16 452.577C363.073 456.285 362.911 459.729 362.677 462.837C362.413 466.384 359.218 468.699 358.763 471.396C358.916 473.677 359.304 475.937 359.921 478.138C362.691 490.919 369.199 516.773 363.849 521.17Z" fill="#0068FF"/>
<path d="M490.848 312.548C490.848 312.548 490.394 358.658 447.421 362.762C381.803 367.979 369.99 310.482 369.99 310.482C369.99 310.482 394.584 306.085 403.422 288.057C406.851 281.051 408.215 270.22 408.581 259.594C408.698 256.502 408.727 253.439 408.684 250.478C408.552 237.463 407.335 226.72 407.335 226.72L436.648 247.957L474.506 275.526C474.506 275.526 473.04 285.786 472.733 295.004C472.575 299.236 474.006 303.373 476.746 306.601C479.486 309.829 483.335 311.914 487.536 312.446C488.507 312.576 489.488 312.615 490.467 312.563L490.848 312.548Z" fill="#E5B39B"/>
<path d="M487.58 312.446C486.557 315.991 484.995 319.357 482.948 322.427C478.742 328.641 472.483 333.126 466.313 337.377C466.118 337.532 465.894 337.646 465.654 337.714C464.774 337.904 464.188 336.864 463.865 335.999C461.843 330.063 460.362 323.79 456.816 318.602C451.686 311.112 443.068 306.979 435.93 301.395C425.248 293.252 417.423 281.932 413.579 269.062C412.702 265.524 412.007 261.943 411.498 258.334C411.175 256.414 410.853 254.479 410.633 252.471C410.411 251.575 410.371 250.643 410.516 249.73C418.958 247.532 427.825 247.605 436.546 247.928L474.506 275.526C474.506 275.526 473.04 285.786 472.733 295.005C472.576 299.242 474.014 303.385 476.763 306.614C479.511 309.843 483.371 311.924 487.58 312.446Z" fill="#D39C85"/>
<path d="M331.238 307.331C331.238 307.331 357.62 324.362 359.76 345.614C362.691 374.927 367.455 411.421 366.399 419.189C398.277 426.386 532.781 425.99 532.781 425.99C532.781 425.99 505.988 323.204 518.446 301.761L474.008 302.084C474.008 302.084 481.878 339.707 436.634 342.668C435.637 342.668 434.611 342.741 433.6 342.668C418.84 342.418 400.637 340.557 388.047 303.608C350.658 304.15 331.238 307.331 331.238 307.331Z" fill="#0068FF"/>
<path d="M494.292 238.196C492.182 258.055 485.293 263.288 477.686 275.086C468.98 288.556 463.426 299.27 448.857 299.27C427.854 299.27 407.335 270.469 407.335 227.702C407.335 184.934 427.151 152.704 454.47 152.704C481.79 152.704 501.137 173.707 494.292 238.196Z" fill="#FFBFA9"/>
<path d="M548.741 328.158L522.623 281.198L449.839 323.204L482.67 410.41L548.741 328.158Z" fill="url(#paint0_linear_336_2825)"/>
<g style="mix-blend-mode:multiply" opacity="0.5">
<path d="M416.803 497.602C409.498 502.499 401.841 506.85 393.895 510.617C383.24 515.571 360.566 528.645 348.005 531.136C347.331 530.638 357.488 525.274 357.078 523.061C356.687 521.389 356.847 519.636 357.532 518.063C357.532 518.063 354.469 514.911 354.058 512.918C353.879 511.202 354.023 509.466 354.483 507.803C354.483 507.803 351.552 504.198 351.875 501.94C352.256 499.009 355.378 495.946 360.976 493.513L360.625 493.615C355.905 494.715 354.205 491.168 355.084 489.424C355.964 487.68 366.971 480.351 370.313 480.938C373.654 481.524 390.978 489.614 398.072 491.959C402.44 493.469 408.552 497.514 416.803 497.602Z" fill="#DDA58E"/>
</g>
<path d="M466.489 439.782C466.284 439.972 462.282 445.088 455.628 452.636C454.163 454.248 452.697 455.963 451.012 457.78C437.366 472.715 416.232 493.528 393.851 506.484C378.945 515.117 360.493 528.469 346.481 531.268C334.477 533.701 325.742 528.337 325.376 505.766C325.244 497.793 322.693 491.651 326.226 485.085C326.704 484.201 327.248 483.353 327.853 482.55C329.012 481.051 330.329 479.68 331.78 478.461C332.983 477.442 334.246 476.498 335.562 475.632C341.425 471.704 347.829 468.494 354.058 465.152C355.949 464.141 357.84 463.144 359.745 462.221C364.23 459.896 368.73 457.604 373.244 455.347C379.927 452.005 386.62 448.678 393.323 445.366C403.827 440.148 414.307 434.882 424.762 429.566L432.163 425.77C434.235 424.715 436.291 423.65 438.334 422.575C442.13 420.582 445.911 418.545 449.648 416.449L466.489 439.782Z" fill="#0068FF"/>
<g style="mix-blend-mode:multiply" opacity="0.5">
<path d="M516.102 415.291H491.977C490.811 415.29 489.663 415.004 488.632 414.459C487.602 413.914 486.72 413.126 486.063 412.163C485.406 411.2 484.994 410.091 484.862 408.932C484.731 407.774 484.884 406.601 485.308 405.515L512.95 335.046C513.609 333.375 514.755 331.94 516.24 330.929C517.724 329.917 519.479 329.375 521.275 329.374H548.449C549.628 329.387 550.786 329.685 551.825 330.241C552.865 330.798 553.755 331.597 554.419 332.571C555.084 333.545 555.504 334.665 555.643 335.836C555.783 337.007 555.637 338.194 555.22 339.297L528.838 406.643C527.832 409.199 526.078 411.392 523.806 412.935C521.533 414.478 518.848 415.299 516.102 415.291Z" fill="#E5B39B"/>
</g>
<path d="M511.705 412.36H487.58C486.414 412.358 485.266 412.073 484.235 411.528C483.205 410.983 482.323 410.194 481.666 409.231C481.009 408.268 480.597 407.159 480.465 406.001C480.334 404.842 480.487 403.669 480.911 402.584L508.553 332.115C509.212 330.444 510.358 329.009 511.843 327.997C513.327 326.986 515.082 326.444 516.878 326.443H544.052C545.231 326.456 546.389 326.754 547.429 327.31C548.468 327.867 549.358 328.666 550.022 329.64C550.687 330.614 551.107 331.734 551.246 332.905C551.386 334.075 551.24 335.263 550.823 336.365L524.441 403.712C523.435 406.268 521.681 408.461 519.409 410.004C517.136 411.546 514.451 412.367 511.705 412.36Z" fill="#71CCFF"/>
<g style="mix-blend-mode:multiply" opacity="0.5">
<path d="M545.679 378.561C545.474 378.16 545.212 377.789 544.902 377.462C542.703 376.187 518.154 383.765 518.154 383.765L494.527 392.045L501.299 408.168L502.882 407.274C502.16 411.253 501.821 415.292 501.87 419.336C504.127 418.779 501.475 426.928 503.805 425.99H515.208C515.208 425.99 530.744 413.884 535.947 406.673C536.926 405.324 537.402 403.675 537.295 402.012V401.924C537.262 401.613 537.151 401.315 536.971 401.059C536.792 400.802 536.55 400.596 536.269 400.458C537.632 399.432 538.541 398.714 538.878 398.48C540.71 397.205 542.176 393.54 542.176 390.609C542.249 390.391 542.276 390.16 542.254 389.93C542.232 389.701 542.162 389.479 542.048 389.279C541.935 389.078 541.781 388.904 541.596 388.767C541.411 388.63 541.199 388.534 540.974 388.484C542.236 387.777 543.391 386.893 544.404 385.86C545.372 384.942 546.018 383.736 546.248 382.422C546.478 381.107 546.278 379.754 545.679 378.561ZM531.667 391.005L535.536 390.243C530.128 393.277 522.668 396.794 516.278 399.667L531.667 391.005Z" fill="#E5B39B"/>
</g>
<g style="mix-blend-mode:multiply" opacity="0.5">
<path d="M509.066 379.881C509.066 379.881 518.051 377.682 524.28 376.773C534.774 374.868 535.844 370.09 535.492 367.305C535.419 366.738 535.133 366.22 534.692 365.855C534.252 365.49 533.689 365.307 533.118 365.341L507.146 366.924C505.755 367.014 504.397 367.394 503.16 368.038L479.05 380.613L495.509 390.272L509.066 379.881Z" fill="#A2CBE0"/>
</g>
<path d="M483.842 406.6L511.485 336.145C512.141 334.471 513.286 333.034 514.771 332.019C516.255 331.005 518.011 330.461 519.809 330.459H546.997C548.441 330.455 549.851 330.89 551.043 331.705C550.598 330.192 549.678 328.864 548.418 327.916C547.159 326.968 545.628 326.451 544.051 326.443H516.878C515.082 326.444 513.327 326.986 511.842 327.997C510.358 329.009 509.212 330.444 508.553 332.115L480.911 402.598C480.313 404.124 480.256 405.809 480.749 407.372C481.242 408.935 482.257 410.281 483.622 411.187C483.188 409.675 483.266 408.063 483.842 406.6Z" fill="#8FDDFF"/>
<path d="M494.659 388.968C492.827 382.504 479.402 377.008 476.91 379.309C474.418 381.61 464.203 397.776 459.513 403.58C456.581 407.215 453.562 414.148 446.439 418.662L458.384 448.195C462.034 445.263 470.813 444.135 477.833 442.054C492.417 437.657 501.284 434.022 505.681 431.003C508.158 429.273 515.603 423.147 517.157 421.769C520.088 419.233 510.796 412.609 510.796 412.609L501.284 404.548C501.284 404.548 494.688 389.1 494.659 388.968Z" fill="#E5B39B"/>
<path d="M476.91 379.309L501.02 366.748C502.261 366.102 503.625 365.727 505.021 365.649L530.978 364.052C531.553 364.017 532.119 364.202 532.563 364.57C533.006 364.937 533.294 365.459 533.367 366.03C533.704 368.8 532.649 373.578 522.14 375.484C515.911 376.392 506.927 378.591 506.927 378.591L493.384 388.968L476.91 379.309Z" fill="#E5B39B"/>
<path d="M512.056 425.932C512.056 425.932 526.83 414.661 532.033 407.45C533.01 406.099 533.492 404.453 533.396 402.789V402.701C533.375 402.381 533.272 402.072 533.096 401.804C532.921 401.536 532.679 401.318 532.395 401.17C532.111 401.023 531.793 400.951 531.473 400.963C531.152 400.974 530.841 401.068 530.567 401.235L504.186 417.006L512.056 425.932Z" fill="#E5B39B"/>
<path d="M500.609 419.087C500.609 419.087 522.316 414.455 531.93 401.631C532.136 400.664 532.282 399.872 532.355 399.213C532.398 398.894 532.357 398.569 532.236 398.271C532.114 397.973 531.917 397.712 531.664 397.514C531.411 397.315 531.11 397.186 530.792 397.14C530.474 397.093 530.149 397.131 529.849 397.249L501.034 407.919L500.609 419.087Z" fill="#D8A38F"/>
<path d="M500.77 405.354C500.77 405.354 524.514 395.504 535.331 388.968C537.529 387.575 540.284 388.308 539.727 390.507C539.727 393.438 538.262 397.102 536.43 398.377C534.598 399.652 515.368 415.423 499.422 419.277C499.056 414.499 500.77 405.354 500.77 405.354Z" fill="#E5B39B"/>
<path d="M493.384 388.968L517.01 380.687C517.01 380.687 541.56 373.124 543.758 374.399C544.064 374.73 544.325 375.099 544.535 375.498C545.107 376.672 545.294 377.997 545.071 379.283C544.847 380.57 544.224 381.753 543.289 382.665C541.116 384.914 538.309 386.447 535.243 387.062L530.597 387.971L500.155 405.046L493.384 388.968Z" fill="#E5B39B"/>
<path d="M510.957 180.918C504.42 188.319 495.289 192.262 485.308 194.021C456.508 199.151 420.819 186.062 420.819 186.062L435.945 151.136C435.945 151.136 468.189 124.065 468.658 124.3C488.738 134.559 509.242 118.276 509.242 118.276C509.242 118.276 520.718 132.507 521.788 150.359C522.162 155.922 521.393 161.503 519.531 166.758C517.668 172.013 514.75 176.832 510.957 180.918Z" fill="#0068FF"/>
<path d="M390.832 225.811C392.195 227.658 392.298 229.299 393.998 230.867C395.288 232.099 398.043 235.616 399.787 235.924C401.532 236.232 407.116 231.527 407.717 233.432C408.174 234.397 408.828 235.256 409.637 235.953C410.047 236.378 410.457 236.803 410.897 237.199C411.337 237.595 411.571 238.005 411.938 238.02C411.938 238.02 411.366 226.529 411.351 225.679C411.044 213.353 412.817 201.305 422.007 192.306C423.044 191.089 424.422 190.21 425.964 189.785C427.532 189.521 429.438 190.401 430.991 190.752C434.948 191.676 438.95 192.467 442.966 193.141C454.058 195.159 465.371 195.682 476.602 194.695C484.795 193.845 506.341 139.235 498.499 138.282C492.637 137.564 487.609 133.988 482.377 131.511C477.145 129.034 474.125 127.363 468.629 124.314C461.081 120.108 448.11 118.613 439.785 121.031C432.802 122.986 426.083 125.786 419.779 129.371C413.447 132.742 406.148 141.199 405.196 148.556C394.174 151.077 384.896 158.068 381.071 169.676C378.389 177.767 378.33 186.487 379.327 194.871C380.107 200.589 381.584 206.19 383.724 211.55C385.438 216.603 387.83 221.4 390.832 225.811Z" fill="#0068FF"/>
<path d="M406.603 220.183C406.603 220.183 394.628 210.861 389.117 220.183C383.607 229.504 392.796 247.928 408.42 244.249" fill="#E5B39B"/>
<path d="M201.601 16.3248C201.604 17.5748 201.236 18.7976 200.544 19.8383C199.851 20.8791 198.866 21.691 197.712 22.1714C196.558 22.6518 195.287 22.779 194.061 22.5369C192.835 22.2948 191.708 21.6943 190.823 20.8115C189.938 19.9286 189.335 18.803 189.09 17.5773C188.845 16.3515 188.969 15.0806 189.447 13.9255C189.924 12.7704 190.734 11.7829 191.773 11.0882C192.812 10.3934 194.034 10.0225 195.284 10.0225C196.957 10.0225 198.562 10.686 199.746 11.8675C200.93 13.049 201.597 14.652 201.601 16.3248Z" stroke="#7BDAFF" stroke-width="1.08" stroke-miterlimit="10"/>
<path d="M15.6534 292.674C19.1341 292.674 21.9557 289.852 21.9557 286.372C21.9557 282.891 19.1341 280.069 15.6534 280.069C12.1727 280.069 9.35107 282.891 9.35107 286.372C9.35107 289.852 12.1727 292.674 15.6534 292.674Z" stroke="#7BDAFF" stroke-width="1.08" stroke-miterlimit="10"/>
<path d="M670.23 16.3249C673.711 16.3249 676.532 13.5032 676.532 10.0225C676.532 6.54186 673.711 3.72021 670.23 3.72021C666.749 3.72021 663.928 6.54186 663.928 10.0225C663.928 13.5032 666.749 16.3249 670.23 16.3249Z" stroke="#7BDAFF" stroke-width="1.08" stroke-miterlimit="10"/>
<path d="M972.828 305.865C972.831 307.116 972.463 308.339 971.77 309.38C971.077 310.421 970.09 311.233 968.935 311.713C967.781 312.193 966.509 312.319 965.283 312.076C964.056 311.833 962.929 311.231 962.045 310.346C961.16 309.462 960.558 308.335 960.315 307.108C960.072 305.882 960.198 304.61 960.678 303.455C961.158 302.301 961.97 301.314 963.011 300.621C964.052 299.928 965.275 299.56 966.526 299.563C968.196 299.567 969.797 300.232 970.978 301.413C972.159 302.594 972.824 304.195 972.828 305.865Z" stroke="#7BDAFF" stroke-width="1.08" stroke-miterlimit="10"/>
<path d="M86.6501 119.844C86.653 120.495 86.4625 121.131 86.1029 121.673C85.7433 122.216 85.2307 122.639 84.6302 122.889C84.0297 123.139 83.3684 123.206 82.7301 123.079C82.0919 122.953 81.5056 122.64 81.0456 122.18C80.5855 121.72 80.2726 121.134 80.1464 120.496C80.0201 119.857 80.0864 119.196 80.3367 118.595C80.587 117.995 81.0101 117.482 81.5522 117.123C82.0943 116.763 82.7311 116.573 83.3817 116.576C84.2485 116.576 85.0798 116.92 85.6928 117.533C86.3057 118.146 86.6501 118.977 86.6501 119.844Z" stroke="#7BDAFF" stroke-width="1.08" stroke-miterlimit="10"/>
<path d="M939.646 483.4C939.646 484.049 939.454 484.684 939.093 485.224C938.732 485.764 938.219 486.185 937.62 486.433C937.02 486.681 936.359 486.747 935.723 486.62C935.086 486.493 934.501 486.18 934.042 485.721C933.583 485.262 933.27 484.677 933.143 484.04C933.016 483.404 933.082 482.743 933.33 482.143C933.579 481.544 933.999 481.031 934.539 480.67C935.079 480.309 935.714 480.117 936.363 480.117C936.795 480.115 937.223 480.198 937.622 480.363C938.021 480.527 938.384 480.769 938.689 481.074C938.994 481.379 939.236 481.742 939.4 482.141C939.565 482.54 939.648 482.968 939.646 483.4Z" stroke="#7BDAFF" stroke-width="1.08" stroke-miterlimit="10"/>
<path d="M379.678 94.1951C379.681 94.8451 379.491 95.4812 379.132 96.0231C378.773 96.5649 378.261 96.988 377.661 97.2387C377.062 97.4894 376.401 97.5565 375.763 97.4315C375.126 97.3065 374.539 96.995 374.079 96.5364C373.618 96.0779 373.304 95.4929 373.176 94.8557C373.048 94.2184 373.112 93.5576 373.36 92.9568C373.608 92.356 374.029 91.8424 374.569 91.481C375.11 91.1196 375.745 90.9267 376.395 90.9267C377.263 90.9267 378.096 91.2706 378.711 91.8831C379.326 92.4956 379.674 93.3269 379.678 94.1951Z" stroke="#7BDAFF" stroke-width="1.08" stroke-miterlimit="10"/>
<path d="M892.76 97.4782C892.76 98.1281 892.567 98.7634 892.206 99.3037C891.844 99.8439 891.331 100.265 890.73 100.513C890.129 100.761 889.468 100.825 888.831 100.697C888.194 100.569 887.609 100.255 887.15 99.7944C886.692 99.3338 886.38 98.7474 886.255 98.1096C886.13 97.4718 886.197 96.8112 886.448 96.2116C886.699 95.612 887.122 95.1002 887.664 94.7413C888.205 94.3823 888.842 94.1922 889.492 94.1951C889.922 94.1951 890.348 94.2801 890.746 94.4453C891.143 94.6105 891.504 94.8525 891.808 95.1576C892.112 95.4626 892.352 95.8247 892.515 96.2229C892.679 96.6211 892.762 97.0477 892.76 97.4782Z" stroke="#7BDAFF" stroke-width="1.08" stroke-miterlimit="10"/>
<path d="M21.9561 451.449C25.4368 451.449 28.2584 448.627 28.2584 445.146C28.2584 441.666 25.4368 438.844 21.9561 438.844C18.4755 438.844 15.6538 441.666 15.6538 445.146C15.6538 448.627 18.4755 451.449 21.9561 451.449Z" stroke="#7BDAFF" stroke-width="1.08" stroke-miterlimit="10"/>
<path d="M238.125 379.91C239.558 379.91 240.72 378.748 240.72 377.316C240.72 375.883 239.558 374.721 238.125 374.721C236.693 374.721 235.531 375.883 235.531 377.316C235.531 378.748 236.693 379.91 238.125 379.91Z" stroke="#7BDAFF" stroke-width="1.08" stroke-miterlimit="10"/>
<path d="M91.4568 356.034C91.4597 356.697 91.2658 357.345 90.8997 357.896C90.5337 358.448 90.0119 358.879 89.4007 359.134C88.7895 359.388 88.1164 359.456 87.4668 359.327C86.8172 359.199 86.2204 358.88 85.7522 358.412C85.284 357.944 84.9654 357.347 84.8369 356.697C84.7085 356.048 84.7759 355.375 85.0306 354.763C85.2854 354.152 85.7159 353.63 86.2677 353.264C86.8195 352.898 87.4676 352.704 88.1298 352.707C89.0121 352.707 89.8584 353.058 90.4823 353.682C91.1063 354.306 91.4568 355.152 91.4568 356.034Z" stroke="#7BDAFF" stroke-width="1.08" stroke-miterlimit="10"/>
<path d="M910.905 532.177H0V549.252H910.905V532.177Z" fill="#004DBC"/>
<path d="M584.108 518.385C585.98 519.742 587.938 520.975 589.97 522.079L590.894 529.29L594.616 532.089H619.972L623.695 529.29L629.308 486.536H585.339L586.028 491.813C583.714 491.296 581.302 491.438 579.066 492.223C577.878 492.708 576.806 493.44 575.922 494.37C575.038 495.299 574.361 496.406 573.936 497.617C570.301 507.026 577.278 513.285 584.108 518.385ZM576.911 498.745C577.179 497.933 577.618 497.187 578.2 496.56C578.782 495.933 579.492 495.438 580.282 495.11C582.315 494.473 584.493 494.473 586.526 495.11L589.457 518.239C588.226 517.506 586.951 516.773 585.91 515.923C578.245 510.119 574.273 505.443 576.911 498.775V498.745Z" fill="#CEEAFC"/>
<path d="M585.412 486.551L590.938 529.319L594.66 532.118H620.016C620.016 532.118 595.217 523.324 594.265 486.522L585.412 486.551Z" fill="#0065DD"/>
<path d="M258.893 429.692L246.291 428.45L236.965 523.054L249.567 524.296L258.893 429.692Z" fill="#004DBC"/>
<path d="M258.893 429.684L249.572 524.292L247.916 524.13L257.252 429.522L258.893 429.684Z" fill="#00489E"/>
<path d="M237.09 449.404L230.891 450.016L237.776 519.735L243.975 519.123L237.09 449.404Z" fill="#BBE0F7"/>
<path d="M237.09 449.406L233.998 449.712L240.883 519.431L243.975 519.125L237.09 449.406Z" fill="#0065DD"/>
<path d="M230.899 450.027L233.054 440.266L237.084 449.411L230.899 450.027Z" fill="#0065DD"/>
<path d="M232.468 442.948L234.168 442.772L233.054 440.266L232.468 442.948Z" fill="#004DBC"/>
<path d="M252.416 526.725L247.594 525.728L261.869 450.921L268.948 452.372L252.416 526.725Z" fill="#BBE0F7"/>
<path d="M250.011 526.226L247.593 525.728C247.593 525.728 247.432 530.125 249.058 530.447C250.685 530.77 252.356 526.739 252.356 526.739L250.011 526.226Z" fill="#BBE0F7"/>
<path d="M265.972 448.884C265.158 448.686 264.3 448.782 263.549 449.155C262.799 449.527 262.204 450.153 261.869 450.921L265.401 451.654L268.948 452.372C268.939 451.534 268.636 450.726 268.093 450.088C267.549 449.451 266.799 449.024 265.972 448.884Z" fill="#BBE0F7"/>
<path d="M266.633 445.674C266.633 445.674 265.313 445.483 265.035 446.363L264.449 449.177L265.914 449.47L267.38 449.763L267.966 446.934C267.922 446.011 266.633 445.674 266.633 445.674Z" fill="#BBE0F7"/>
<path d="M265.416 477.347H265.269C264.857 477.222 264.494 476.971 264.231 476.629C263.968 476.287 263.819 475.872 263.804 475.441C263.804 474.591 264.537 472.51 266.457 467.497C268.142 463.101 270.253 457.648 270.253 456.007C270.285 455.357 270.06 454.72 269.627 454.235C269.193 453.749 268.586 453.454 267.937 453.413C267.709 453.39 267.498 453.28 267.35 453.104C267.203 452.929 267.129 452.703 267.145 452.475C267.155 452.361 267.186 452.25 267.238 452.149C267.291 452.047 267.362 451.957 267.45 451.884C267.537 451.81 267.638 451.754 267.747 451.72C267.855 451.686 267.97 451.673 268.083 451.683C269.167 451.758 270.179 452.251 270.906 453.058C271.633 453.864 272.019 454.921 271.982 456.007C271.982 457.824 270.37 462.177 268.083 468.113C267.079 470.468 266.232 472.887 265.548 475.353C265.538 475.423 265.553 475.493 265.591 475.553C265.628 475.612 265.686 475.655 265.753 475.676C265.753 475.676 265.914 475.676 265.973 475.676C266.032 475.676 266.105 475.412 266.061 475.353C265.98 475.275 265.916 475.182 265.872 475.079C265.828 474.976 265.806 474.865 265.806 474.752C265.806 474.64 265.828 474.529 265.872 474.426C265.916 474.323 265.98 474.229 266.061 474.152C266.143 474.07 266.24 474.005 266.346 473.96C266.453 473.916 266.568 473.893 266.684 473.893C266.799 473.893 266.914 473.916 267.021 473.96C267.128 474.005 267.225 474.07 267.307 474.152C267.643 474.49 267.842 474.94 267.866 475.416C267.89 475.892 267.738 476.36 267.439 476.731C267.199 477.02 266.879 477.233 266.52 477.342C266.16 477.452 265.776 477.453 265.416 477.347Z" fill="#BBE0F7"/>
<path d="M220.713 448.781L225.564 447.858L240.983 522.445L233.874 523.808L220.713 448.781Z" fill="#0065DD"/>
<path d="M223.146 448.312L225.564 447.858C225.564 447.858 224.099 443.769 222.34 444.091C220.581 444.413 220.713 448.781 220.713 448.781L223.146 448.312Z" fill="#0065DD"/>
<path d="M237.964 525.889C238.792 525.762 239.549 525.347 240.101 524.717C240.653 524.087 240.966 523.282 240.983 522.445L237.437 523.119L233.89 523.808C234.216 524.578 234.803 525.209 235.549 525.589C236.294 525.97 237.149 526.076 237.964 525.889Z" fill="#98C4DA"/>
<path d="M238.536 529.114C238.536 529.114 239.826 528.791 239.752 527.868L239.225 525.039L237.759 525.303L236.293 525.581L236.836 528.41C237.261 529.289 238.536 529.114 238.536 529.114Z" fill="#98C4DA"/>
<path d="M227.602 499.332H227.748C228.178 499.288 228.61 499.38 228.983 499.596C229.357 499.812 229.653 500.14 229.83 500.533C230.211 501.296 230.299 503.538 230.43 508.888C230.548 513.592 230.694 519.44 231.31 520.95C231.547 521.549 232.004 522.034 232.587 522.306C233.17 522.579 233.835 522.618 234.446 522.416C234.664 522.346 234.9 522.366 235.104 522.47C235.307 522.575 235.46 522.755 235.531 522.973C235.601 523.192 235.581 523.43 235.477 523.636C235.373 523.842 235.192 523.998 234.974 524.072C233.941 524.414 232.816 524.342 231.835 523.872C230.854 523.402 230.093 522.57 229.712 521.551C229.009 519.865 228.848 515.234 228.686 508.873C228.712 506.316 228.57 503.76 228.261 501.222C228.241 501.154 228.198 501.095 228.139 501.055C228.081 501.015 228.01 500.996 227.939 501.002C227.901 501.007 227.864 501.022 227.833 501.045C227.802 501.068 227.778 501.099 227.763 501.134C227.763 501.31 227.763 501.413 227.763 501.457C227.869 501.494 227.967 501.553 228.05 501.629C228.133 501.705 228.2 501.797 228.247 501.9C228.293 502.003 228.319 502.114 228.321 502.226C228.324 502.339 228.303 502.451 228.261 502.556C228.179 502.773 228.014 502.949 227.803 503.045C227.591 503.141 227.35 503.15 227.133 503.069C226.75 502.895 226.432 502.604 226.224 502.238C226.017 501.872 225.931 501.449 225.978 501.031C226.025 500.613 226.203 500.221 226.487 499.91C226.771 499.6 227.146 499.387 227.558 499.302L227.602 499.332Z" fill="#98C4DA"/>
<path d="M265.02 481.802H225.198V532.191H265.02V481.802Z" fill="#0065DD"/>
<path d="M265.005 481.802H252.796V532.191H265.005V481.802Z" fill="#004DBC"/>
<path d="M789.006 417.797C773.351 427.182 760.153 440.156 750.502 455.648C740.851 471.14 735.024 488.706 733.502 506.894" stroke="#CEEAFC" stroke-width="1.06" stroke-miterlimit="10"/>
<path d="M782.542 421.916C785.332 417.602 789.575 414.43 794.502 412.975C795.077 412.733 795.697 412.62 796.32 412.643C796.942 412.665 797.553 412.824 798.108 413.107C798.41 413.285 798.631 413.575 798.723 413.913C798.743 414.186 798.701 414.46 798.599 414.714C798.498 414.968 798.34 415.195 798.137 415.379C796.04 417.447 793.36 418.823 790.457 419.321C787.614 420.025 785.576 420.919 782.542 421.901" fill="#CEEAFC"/>
<path d="M774.394 428.306C778.665 425.45 783.817 424.218 788.918 424.832C789.544 424.836 790.161 424.977 790.725 425.245C791.29 425.514 791.789 425.903 792.187 426.386C792.379 426.675 792.462 427.023 792.421 427.368C792.333 427.91 791.806 428.262 791.307 428.496C788.561 429.567 785.553 429.766 782.689 429.068C779.758 428.584 777.574 428.599 774.394 428.306Z" fill="#CEEAFC"/>
<path d="M764.544 437.437C768.426 434.071 773.389 432.214 778.527 432.205C779.148 432.136 779.777 432.204 780.37 432.404C780.962 432.604 781.504 432.931 781.956 433.362C782.186 433.622 782.315 433.954 782.323 434.3C782.265 434.571 782.147 434.825 781.976 435.043C781.806 435.262 781.589 435.439 781.341 435.561C778.744 436.954 775.783 437.522 772.855 437.188C769.923 437.041 767.725 437.334 764.544 437.437Z" fill="#CEEAFC"/>
<path d="M756.176 447.55C760.061 444.189 765.021 442.333 770.158 442.318C770.779 442.256 771.406 442.328 771.998 442.527C772.589 442.727 773.131 443.05 773.588 443.475C773.817 443.735 773.947 444.067 773.954 444.413C773.898 444.685 773.781 444.94 773.61 445.158C773.44 445.377 773.222 445.553 772.972 445.674C770.375 447.067 767.414 447.635 764.486 447.301C761.555 447.169 759.356 447.447 756.176 447.55Z" fill="#CEEAFC"/>
<path d="M746.898 462.294C750.414 458.549 755.157 456.188 760.265 455.64C760.876 455.514 761.507 455.519 762.116 455.656C762.725 455.792 763.298 456.057 763.797 456.432C764.049 456.667 764.21 456.984 764.251 457.326C764.225 457.602 764.136 457.868 763.992 458.104C763.847 458.34 763.65 458.54 763.416 458.689C760.977 460.338 758.094 461.207 755.15 461.18C752.218 461.356 750.064 461.869 746.898 462.294Z" fill="#CEEAFC"/>
<path d="M741.255 473.639C744.541 469.897 748.955 467.325 753.83 466.31C755.015 465.93 756.3 466.019 757.421 466.559C757.685 466.716 757.879 466.968 757.963 467.263C757.958 467.515 757.893 467.762 757.773 467.984C757.654 468.206 757.483 468.396 757.274 468.538C754.954 470.276 752.212 471.363 749.331 471.689C746.399 472.188 744.347 472.906 741.255 473.653" fill="#CEEAFC"/>
<path d="M770.847 431.442C769.376 426.273 769.733 420.755 771.858 415.819C772.048 415.184 772.367 414.596 772.796 414.091C773.225 413.586 773.754 413.176 774.35 412.887C774.509 412.818 774.681 412.783 774.855 412.783C775.029 412.783 775.201 412.818 775.361 412.887C775.599 413.05 775.794 413.268 775.927 413.524C776.06 413.78 776.127 414.065 776.123 414.353C776.323 417.449 775.615 420.536 774.086 423.235C772.752 426.02 772.093 428.277 770.847 431.428" fill="#CEEAFC"/>
<path d="M763.445 438.741C760.781 434.077 759.808 428.636 760.69 423.337C760.729 422.682 760.903 422.042 761.2 421.457C761.498 420.872 761.913 420.355 762.419 419.937C762.709 419.734 763.066 419.65 763.416 419.703C763.958 419.82 764.281 420.377 764.486 420.919C765.415 423.875 765.466 427.037 764.632 430.021C763.988 433.04 763.9 435.4 763.445 438.815" fill="#CEEAFC"/>
<path d="M755.061 449.309C751.513 445.276 749.473 440.138 749.286 434.769C749.192 434.12 749.234 433.457 749.408 432.824C749.582 432.191 749.885 431.601 750.298 431.091C750.545 430.843 750.872 430.693 751.221 430.666C751.498 430.716 751.76 430.829 751.986 430.997C752.213 431.165 752.397 431.382 752.526 431.633C754.024 434.347 754.701 437.438 754.475 440.529C754.475 443.622 754.841 445.952 755.061 449.323" fill="#CEEAFC"/>
<path d="M745.652 463.819C743.089 459.097 742.239 453.633 743.248 448.356C743.303 447.701 743.491 447.064 743.801 446.484C744.111 445.905 744.536 445.394 745.051 444.985C745.348 444.8 745.701 444.727 746.048 444.78C746.59 444.912 746.898 445.483 747.103 446.011C747.982 448.981 747.982 452.142 747.103 455.113C746.399 458.132 746.253 460.477 745.725 463.819" fill="#CEEAFC"/>
<path d="M740.668 475.207C736.255 472.146 733.039 467.65 731.567 462.485C731.317 461.878 731.197 461.225 731.215 460.569C731.232 459.913 731.387 459.267 731.669 458.674C731.841 458.37 732.125 458.143 732.461 458.044C732.736 458.027 733.011 458.073 733.266 458.18C733.52 458.287 733.746 458.451 733.926 458.66C736.037 460.929 737.438 463.767 737.957 466.823C738.69 469.828 739.613 471.997 740.639 475.207" fill="#CEEAFC"/>
<path d="M788.391 458.572C777.001 460.588 766.254 465.285 757.039 472.276C747.823 479.267 740.404 488.35 735.393 498.775" stroke="#CEEAFC" stroke-width="1.06" stroke-miterlimit="10"/>
<path d="M783.627 459.554C786.251 457.622 789.481 456.696 792.729 456.945C793.124 456.935 793.516 457.011 793.878 457.168C794.24 457.325 794.563 457.559 794.825 457.854C794.963 458.022 795.031 458.237 795.016 458.454C794.965 458.623 794.877 458.778 794.758 458.908C794.638 459.037 794.491 459.138 794.327 459.202C792.618 459.952 790.721 460.162 788.889 459.803C787.057 459.568 785.65 459.642 783.627 459.554Z" fill="#CEEAFC"/>
<path d="M777.369 461.488C780.541 460.76 783.868 461.191 786.749 462.705C787.117 462.854 787.449 463.08 787.722 463.368C787.996 463.656 788.204 464 788.332 464.376C788.384 464.589 788.353 464.815 788.244 465.006C788.134 465.138 787.994 465.244 787.837 465.315C787.68 465.386 787.508 465.421 787.336 465.416C785.47 465.427 783.645 464.87 782.103 463.819C780.506 462.881 779.172 462.353 777.369 461.488Z" fill="#CEEAFC"/>
<path d="M769.469 464.669C772.524 463.54 775.882 463.54 778.937 464.669C779.319 464.771 779.674 464.955 779.978 465.208C780.281 465.461 780.526 465.777 780.696 466.134C780.739 466.234 780.761 466.341 780.761 466.45C780.761 466.558 780.739 466.665 780.696 466.765C780.606 466.914 780.482 467.039 780.334 467.131C780.186 467.223 780.019 467.278 779.846 467.292C777.993 467.525 776.113 467.193 774.452 466.34C772.752 465.592 771.389 465.27 769.469 464.61" fill="#CEEAFC"/>
<path d="M762.243 468.773C765.292 467.637 768.648 467.637 771.697 468.773C772.081 468.874 772.438 469.057 772.745 469.31C773.051 469.563 773.298 469.88 773.47 470.238C773.544 470.447 773.544 470.675 773.47 470.883C773.373 471.029 773.245 471.151 773.096 471.243C772.947 471.334 772.779 471.391 772.605 471.411C770.751 471.645 768.869 471.308 767.212 470.444C765.512 469.711 764.149 469.388 762.243 468.729" fill="#CEEAFC"/>
<path d="M753.42 475.397C756.351 473.976 759.695 473.653 762.844 474.489C763.234 474.548 763.606 474.692 763.935 474.91C764.264 475.127 764.542 475.414 764.749 475.749C764.83 475.951 764.83 476.177 764.749 476.379C764.676 476.537 764.566 476.676 764.428 476.783C764.29 476.89 764.129 476.962 763.958 476.995C762.138 477.42 760.231 477.282 758.491 476.599C756.732 476.042 755.34 475.866 753.361 475.397" fill="#CEEAFC"/>
<path d="M747.499 480.835C750.293 479.373 753.488 478.859 756.6 479.369C757.386 479.408 758.127 479.75 758.667 480.322C758.788 480.475 758.846 480.669 758.828 480.864C758.828 481.157 758.447 481.348 758.139 481.465C756.371 481.976 754.498 482.001 752.716 481.538C750.899 481.187 749.506 481.128 747.499 480.879" fill="#CEEAFC"/>
<path d="M774.569 462.544C774.85 459.154 776.301 455.967 778.673 453.53C778.937 453.208 779.265 452.944 779.636 452.755C780.006 452.566 780.412 452.455 780.828 452.431C780.938 452.428 781.049 452.447 781.152 452.487C781.255 452.528 781.349 452.588 781.429 452.665C781.528 452.812 781.591 452.98 781.611 453.156C781.632 453.332 781.609 453.511 781.546 453.676C780.965 455.552 779.849 457.218 778.336 458.469C776.87 459.817 776.02 461.005 774.584 462.588" fill="#CEEAFC"/>
<path d="M768.531 465.196C767.999 461.836 768.652 458.396 770.378 455.465C770.543 455.082 770.788 454.739 771.097 454.458C771.405 454.178 771.77 453.966 772.166 453.838C772.385 453.785 772.615 453.816 772.811 453.926C772.943 454.044 773.044 454.193 773.108 454.358C773.172 454.524 773.196 454.702 773.177 454.878C773.06 456.84 772.372 458.725 771.199 460.301C770.144 461.943 769.557 463.32 768.531 465.196Z" fill="#CEEAFC"/>
<path d="M761.188 469.564C759.996 466.377 759.945 462.877 761.041 459.656C761.139 459.248 761.32 458.865 761.572 458.529C761.824 458.194 762.142 457.914 762.507 457.707C762.609 457.663 762.719 457.641 762.829 457.641C762.94 457.641 763.05 457.663 763.152 457.707C763.305 457.797 763.434 457.923 763.528 458.073C763.622 458.224 763.679 458.395 763.694 458.572C763.98 460.514 763.684 462.498 762.844 464.273C762.141 466.105 761.847 467.556 761.217 469.608" fill="#CEEAFC"/>
<path d="M752.35 476.028C751.9 472.652 752.63 469.224 754.416 466.325C754.599 465.951 754.855 465.618 755.17 465.346C755.485 465.074 755.852 464.868 756.248 464.742C756.464 464.7 756.687 464.737 756.879 464.845C757.01 464.966 757.11 465.118 757.171 465.286C757.232 465.454 757.253 465.634 757.23 465.812C757.067 467.77 756.339 469.638 755.135 471.191C754.035 472.818 753.42 474.122 752.35 476.028Z" fill="#CEEAFC"/>
<path d="M746.824 481.641C744.903 478.833 744.013 475.446 744.304 472.056C744.294 471.638 744.371 471.224 744.53 470.838C744.689 470.452 744.926 470.103 745.227 469.813C745.4 469.673 745.62 469.605 745.842 469.623C746.18 469.623 746.414 470.004 746.575 470.326C747.319 472.146 747.513 474.143 747.132 476.072C746.883 478.021 746.942 479.501 746.824 481.641Z" fill="#CEEAFC"/>
<path d="M702.562 436.206C712.958 444.944 721.125 456.03 726.391 468.548C731.656 481.066 733.867 494.657 732.842 508.199" stroke="#CEEAFC" stroke-width="0.79" stroke-miterlimit="10"/>
<path d="M706.827 440.002C705.297 436.5 702.554 433.669 699.103 432.029C698.708 431.785 698.265 431.63 697.805 431.575C697.344 431.519 696.877 431.564 696.435 431.706C696.197 431.803 696.003 431.986 695.893 432.219C695.84 432.418 695.835 432.627 695.879 432.828C695.922 433.029 696.012 433.217 696.142 433.377C697.442 435.144 699.253 436.47 701.331 437.173C703.324 438.023 704.716 438.917 706.827 440.002Z" fill="#CEEAFC"/>
<path d="M712.06 445.659C709.262 443.052 705.621 441.539 701.8 441.394C701.34 441.326 700.872 441.359 700.426 441.491C699.981 441.622 699.569 441.849 699.22 442.156C699.044 442.344 698.94 442.588 698.927 442.845C698.962 443.048 699.042 443.24 699.161 443.408C699.28 443.575 699.436 443.714 699.616 443.812C701.511 444.924 703.698 445.435 705.889 445.278C708.058 445.278 709.7 445.527 712.06 445.689" fill="#CEEAFC"/>
<path d="M718.23 453.515C715.772 450.589 712.344 448.643 708.571 448.034C708.123 447.91 707.654 447.885 707.196 447.961C706.738 448.037 706.302 448.212 705.918 448.473C705.72 448.637 705.585 448.865 705.537 449.118C705.543 449.324 705.598 449.526 705.698 449.707C705.797 449.888 705.938 450.043 706.109 450.159C707.849 451.492 709.957 452.26 712.147 452.357C714.316 452.606 715.899 453.075 718.23 453.515Z" fill="#CEEAFC"/>
<path d="M723.183 461.943C720.727 459.012 717.299 457.061 713.525 456.446C713.076 456.325 712.606 456.302 712.148 456.381C711.69 456.459 711.254 456.637 710.872 456.901C710.667 457.059 710.531 457.29 710.491 457.546C710.502 457.751 710.56 457.951 710.659 458.131C710.758 458.311 710.896 458.466 711.062 458.586C712.809 459.907 714.914 460.668 717.101 460.77C719.27 461.019 720.853 461.488 723.183 461.943Z" fill="#CEEAFC"/>
<path d="M728.269 473.858C726.124 470.695 722.915 468.407 719.226 467.41C718.792 467.238 718.326 467.163 717.86 467.191C717.394 467.219 716.94 467.349 716.529 467.571C716.315 467.708 716.163 467.924 716.104 468.172C716.089 468.378 716.122 468.585 716.201 468.775C716.279 468.966 716.402 469.136 716.559 469.271C718.155 470.769 720.169 471.746 722.333 472.07C724.459 472.539 725.983 473.17 728.196 473.858" fill="#CEEAFC"/>
<path d="M731.098 482.872C729.131 479.731 726.193 477.317 722.729 475.998C721.904 475.58 720.95 475.491 720.062 475.749C719.85 475.835 719.677 475.997 719.578 476.203C719.551 476.389 719.571 476.579 719.635 476.755C719.699 476.931 719.805 477.089 719.944 477.215C721.436 478.777 723.327 479.902 725.411 480.469C727.463 481.187 728.914 481.934 731.098 482.872Z" fill="#CEEAFC"/>
<path d="M714.302 448.371C715.998 444.75 716.386 440.653 715.401 436.777C715.336 436.297 715.172 435.836 714.919 435.423C714.667 435.009 714.332 434.652 713.936 434.374C713.825 434.305 713.702 434.259 713.574 434.239C713.445 434.219 713.314 434.225 713.188 434.256C712.999 434.347 712.834 434.483 712.709 434.651C712.584 434.82 712.502 435.016 712.47 435.224C711.958 437.471 712.111 439.818 712.91 441.98C713.569 444.179 713.789 445.923 714.375 448.371" fill="#CEEAFC"/>
<path d="M718.89 454.614C721.393 451.5 722.745 447.617 722.715 443.622C722.765 443.135 722.714 442.643 722.565 442.176C722.416 441.71 722.173 441.279 721.85 440.911C721.656 440.737 721.407 440.639 721.147 440.632C720.942 440.677 720.75 440.77 720.588 440.902C720.425 441.034 720.295 441.203 720.209 441.394C719.176 443.455 718.769 445.773 719.036 448.063C719.154 450.364 718.948 452.093 718.89 454.614Z" fill="#CEEAFC"/>
<path d="M723.799 463.364C726.877 460.819 728.979 457.287 729.75 453.369C729.893 452.901 729.94 452.409 729.887 451.923C729.834 451.436 729.683 450.966 729.442 450.54C729.29 450.327 729.066 450.176 728.812 450.115C728.601 450.118 728.393 450.171 728.207 450.27C728.021 450.37 727.862 450.513 727.742 450.686C726.317 452.495 725.451 454.68 725.25 456.974C724.899 459.261 724.356 460.917 723.785 463.364" fill="#CEEAFC"/>
<path d="M728.988 475.119C731.429 471.957 732.698 468.046 732.578 464.053C732.615 463.566 732.551 463.076 732.39 462.614C732.228 462.153 731.973 461.729 731.64 461.371C731.45 461.192 731.198 461.092 730.937 461.093C730.526 461.093 730.233 461.503 730.013 461.869C729.03 463.956 728.674 466.283 728.988 468.567C729.149 470.869 728.988 472.613 728.988 475.119Z" fill="#CEEAFC"/>
<path d="M731.317 484.074C734.907 482.368 737.796 479.473 739.496 475.881C739.751 475.464 739.917 474.999 739.983 474.514C740.049 474.03 740.012 473.537 739.877 473.067C739.784 472.822 739.601 472.622 739.364 472.51C739.16 472.46 738.948 472.459 738.744 472.507C738.54 472.556 738.351 472.652 738.191 472.788C736.376 474.212 735.012 476.131 734.263 478.314C733.384 480.439 732.446 481.919 731.332 484.177" fill="#CEEAFC"/>
<path d="M709.524 490.186L714.155 525.244C714.31 526.999 715.084 528.642 716.337 529.879C717.591 531.117 719.243 531.869 721 532.001C724.151 532.104 728.783 532.177 735.466 532.177C742.384 532.177 747.191 532.089 750.46 531.986C752.218 531.861 753.874 531.113 755.13 529.878C756.387 528.643 757.163 527 757.319 525.244L761.95 490.186H709.524Z" fill="#0065DD"/>
<path d="M757.128 490.186L752.892 522.254C752.74 524.013 751.965 525.659 750.708 526.897C749.451 528.136 747.793 528.885 746.033 529.011C742.779 529.114 737.957 529.202 731.039 529.202C724.356 529.202 719.724 529.128 716.573 529.026C716.229 529.004 715.886 528.96 715.547 528.894C716.145 529.806 716.951 530.564 717.899 531.104C718.847 531.644 719.91 531.952 721 532.001C724.151 532.104 728.782 532.177 735.466 532.177C742.383 532.177 747.191 532.089 750.459 531.986C752.217 531.861 753.873 531.113 755.13 529.878C756.387 528.643 757.163 527 757.319 525.244L761.95 490.186H757.128Z" fill="#004DBC"/>
<path d="M134.298 500.431C134.298 500.431 114.321 488.706 109.983 465.768C109.983 465.768 128.802 469.667 138.241 500.431" fill="#004DBC"/>
<path d="M142.183 500.431C142.183 500.431 162.16 488.706 166.499 465.768C166.499 465.768 147.68 469.667 138.241 500.431" fill="#0065DD"/>
<path d="M136.145 498.555C136.145 498.555 121.738 480.425 125.988 457.443C125.988 457.443 142.11 467.879 139.824 499.947" fill="#0065DD"/>
<path d="M140.806 498.628C140.806 498.628 154.773 480.161 149.981 457.297C149.981 457.297 134.093 468.098 137.156 500.138" fill="#004DBC"/>
<path d="M141.333 495.77H134.196C124.142 495.77 115.992 503.92 115.992 513.973C115.992 524.027 124.142 532.177 134.196 532.177H141.333C151.387 532.177 159.537 524.027 159.537 513.973C159.537 503.92 151.387 495.77 141.333 495.77Z" fill="#0065DD"/>
<path d="M154.583 501.515C156.478 504.25 157.588 507.451 157.792 510.772C157.997 514.092 157.288 517.406 155.743 520.352C154.198 523.299 151.876 525.766 149.028 527.486C146.18 529.206 142.916 530.114 139.589 530.11H132.466C129.992 530.1 127.546 529.585 125.278 528.597C123.01 527.609 120.967 526.169 119.275 524.365C120.948 526.794 123.188 528.78 125.8 530.151C128.412 531.523 131.318 532.238 134.269 532.235H141.392C144.939 532.226 148.406 531.18 151.366 529.225C154.326 527.271 156.65 524.493 158.052 521.235C159.454 517.976 159.872 514.379 159.256 510.886C158.639 507.392 157.015 504.156 154.583 501.574V501.515Z" fill="#004DBC"/>
<path d="M211.729 173.033L317.637 173.033C327.149 173.033 334.859 165.322 334.859 155.811V117.162C334.859 107.651 327.149 99.9404 317.637 99.9404L211.729 99.9404C202.218 99.9404 194.508 107.651 194.508 117.162V155.811C194.508 165.322 202.218 173.033 211.729 173.033Z" stroke="#71CCFF" stroke-miterlimit="10"/>
<path d="M235.59 287.046L247.462 293.378L241.526 277.959" fill="#71CCFF"/>
<path d="M198.787 267.333C198.784 272.293 200.252 277.142 203.005 281.268C205.758 285.393 209.673 288.61 214.254 290.51C218.835 292.411 223.877 292.911 228.742 291.946C233.608 290.981 238.077 288.595 241.586 285.09C245.096 281.585 247.487 277.118 248.457 272.254C249.428 267.39 248.934 262.348 247.039 257.764C245.143 253.181 241.931 249.263 237.809 246.505C233.687 243.747 228.839 242.273 223.879 242.27C220.586 242.268 217.325 242.915 214.281 244.174C211.238 245.432 208.472 247.278 206.142 249.605C203.812 251.932 201.964 254.696 200.702 257.737C199.44 260.779 198.789 264.04 198.787 267.333Z" fill="#71CCFF"/>
<path d="M213.312 264.944L220.918 274.412L234.417 260.254" stroke="white" stroke-width="2" stroke-linecap="round" stroke-linejoin="round"/>
<path d="M844.393 269.385H702.474C692.963 269.385 685.252 277.095 685.252 286.606V344.016C685.252 353.527 692.963 361.237 702.474 361.237H844.393C853.904 361.237 861.615 353.527 861.615 344.016V286.606C861.615 277.095 853.904 269.385 844.393 269.385Z" fill="#71CCFF"/>
<path d="M694.428 359.186L683.171 365.18L688.799 350.553" fill="#71CCFF"/>
<path d="M706.446 289.743H840.363" stroke="white" stroke-width="2" stroke-miterlimit="10" stroke-linecap="round"/>
<path d="M706.446 305.689H840.363" stroke="white" stroke-width="2" stroke-miterlimit="10" stroke-linecap="round"/>
<path d="M706.446 321.621H840.363" stroke="white" stroke-width="2" stroke-miterlimit="10" stroke-linecap="round"/>
<path d="M706.446 337.567H789.812" stroke="white" stroke-width="2" stroke-miterlimit="10" stroke-linecap="round"/>
<path d="M690.895 129.591H612.453C602.942 129.591 595.232 137.301 595.232 146.812V190.415C595.232 199.927 602.942 207.637 612.453 207.637H690.895C700.406 207.637 708.117 199.927 708.117 190.415V146.812C708.117 137.301 700.406 129.591 690.895 129.591Z" stroke="#71CCFF" stroke-width="2" stroke-miterlimit="10"/>
<path d="M595.232 140.686L651.674 179.701L708.117 140.686" stroke="#71CCFF" stroke-width="2" stroke-linejoin="round"/>
<path d="M690.896 129.591H612.454" stroke="#71CCFF" stroke-linejoin="round"/>
<path d="M714.334 150.29C721.848 143.465 722.406 131.842 715.581 124.328C708.756 116.814 697.133 116.256 689.619 123.081C682.105 129.906 681.547 141.53 688.372 149.043C695.197 156.557 706.82 157.115 714.334 150.29Z" fill="#0068FF"/>
<path d="M701.931 132.185L699 133.651L698.399 130.895L702.561 128.96H705.61V144.643H702.048L701.931 132.185Z" fill="white"/>
<path d="M133.756 127.055H275.69C285.202 127.055 292.911 132.742 292.911 139.777V182.164C292.868 184.629 291.948 186.998 290.317 188.847L294.992 197.802L283.78 193.405C281.199 194.398 278.455 194.896 275.69 194.871H133.756C124.244 194.871 116.534 189.184 116.534 182.149V139.806C116.534 132.771 124.214 127.055 133.756 127.055Z" fill="#71CCFF"/>
<path d="M124.595 203.636C113.764 203.636 104.985 197.143 104.985 189.14V140.774" stroke="#71CCFF" stroke-width="0.75" stroke-miterlimit="10"/>
<path d="M140.498 142.093H274.414" stroke="white" stroke-width="2" stroke-miterlimit="10" stroke-linecap="round"/>
<path d="M140.498 153.862H274.414" stroke="white" stroke-width="2" stroke-miterlimit="10" stroke-linecap="round"/>
<path d="M140.498 165.631H274.414" stroke="white" stroke-width="2" stroke-miterlimit="10" stroke-linecap="round"/>
<path d="M140.498 177.4H223.864" stroke="white" stroke-width="2" stroke-miterlimit="10" stroke-linecap="round"/>
<defs>
<linearGradient id="paint0_linear_336_2825" x1="461.784" y1="291.941" x2="521.568" y2="370.735" gradientUnits="userSpaceOnUse">
<stop stop-color="white" stop-opacity="0"/>
<stop offset="0.43" stop-color="#FDFFFF" stop-opacity="0.01"/>
<stop offset="0.58" stop-color="#F6FEFF" stop-opacity="0.03"/>
<stop offset="0.69" stop-color="#EAFCFF" stop-opacity="0.08"/>
<stop offset="0.78" stop-color="#D9FAFF" stop-opacity="0.15"/>
<stop offset="0.86" stop-color="#C3F7FF" stop-opacity="0.23"/>
<stop offset="0.93" stop-color="#A8F3FF" stop-opacity="0.34"/>
<stop offset="0.98" stop-color="#89EFFF" stop-opacity="0.46"/>
<stop offset="1" stop-color="#7FEEFF" stop-opacity="0.5"/>
</linearGradient>
</defs>
</svg>
