<?xml version="1.0" encoding="utf-8"?>
<!-- Generator: Adobe Illustrator 27.0.0, SVG Export Plug-In . SVG Version: 6.00 Build 0)  -->
<svg version="1.1" id="Layer_1" xmlns="http://www.w3.org/2000/svg" xmlns:xlink="http://www.w3.org/1999/xlink" x="0px" y="0px"
	 viewBox="0 0 50 50" style="enable-background:new 0 0 50 50;" xml:space="preserve">
<style type="text/css">
	.st0{fill:#0978D3;}
	.st1{fill:#010101;}
	.st2{fill:url(#SVGID_1_);}
	.st3{fill:#FF0000;}
	.st4{fill:#003399;}
	.st5{fill:#6699FF;}
	.st6{fill:#FFFFFF;}
	.st7{fill:#FEFEFE;}
	.st8{fill:#FDFDFD;}
	.st9{fill:#7447C4;}
	.st10{fill:#FE8D47;}
	.st11{fill:#C737AA;}
	.st12{fill:#EE4B5E;}
</style>
<path class="st0" d="M43.5,50H6.5C2.9,50,0,47.1,0,43.5V6.5C0,2.9,2.9,0,6.5,0h37.1C47.1,0,50,2.9,50,6.5v37.1
	C50,47.1,47.1,50,43.5,50z"/>
<g>
	<path class="st7" d="M20,49.5c0-5.5,0-10.9,0-16.4c0-0.5-0.1-0.6-0.6-0.6c-1.6,0-3.2,0-4.8,0c-0.5,0-0.6-0.1-0.6-0.6
		c0-1.8,0-3.7,0-5.5c0-0.4,0.1-0.5,0.5-0.5c1.7,0,3.4,0,5,0c0.4,0,0.5-0.1,0.5-0.5c0-1.8-0.1-3.6,0-5.4c0.1-2.3,0.9-4.4,2.9-6
		c1.5-1.2,3.2-1.7,5.2-1.8c1.9-0.1,3.7,0,5.6,0.1c0.4,0,0.6,0.1,0.6,0.6c0,1.6,0,3.2,0,4.9c0,0.4-0.1,0.5-0.5,0.5
		c-1.3,0-2.6,0-3.8,0c-1.8,0.1-2.7,1-2.7,2.7c0,1.4,0,2.8,0,4.3c0,0.3,0.1,0.4,0.5,0.4c1.9,0,3.7,0,5.6,0c0.8,0,0.8,0,0.7,0.7
		c-0.2,1.8-0.5,3.6-0.7,5.4c-0.1,0.4-0.2,0.6-0.7,0.6c-1.6,0-3.2,0-4.8,0c-0.5,0-0.6,0.1-0.6,0.5c0,5.5,0,11,0,16.4
		C24.8,49.5,22.4,49.5,20,49.5z"/>
</g>
</svg>
