<?xml version="1.0" encoding="utf-8"?>
<!-- Generator: Adobe Illustrator 27.0.0, SVG Export Plug-In . SVG Version: 6.00 Build 0)  -->
<svg version="1.1" id="Layer_1" xmlns="http://www.w3.org/2000/svg" xmlns:xlink="http://www.w3.org/1999/xlink" x="0px" y="0px"
	 viewBox="0 0 50 50" style="enable-background:new 0 0 50 50;" xml:space="preserve">
<style type="text/css">
	.st0{fill:#0978D3;}
	.st1{fill:#010101;}
	.st2{fill:url(#SVGID_1_);}
	.st3{fill:#FF0000;}
	.st4{fill:#003399;}
	.st5{fill:#6699FF;}
	.st6{fill:#FFFFFF;}
	.st7{fill:#FEFEFE;}
	.st8{fill:#FDFDFD;}
	.st9{fill:#7447C4;}
	.st10{fill:#FE8D47;}
	.st11{fill:#C737AA;}
	.st12{fill:#EE4B5E;}
</style>
<path class="st1" d="M43,50H7c-3.9,0-7-3.2-7-7V7.1c0-3.9,3.2-7,7-7H43c3.9,0,7,3.2,7,7V43C50,46.8,46.8,50,43,50z"/>
<path class="st8" d="M9.4,10.4c0.1,0,0.1,0,0.2,0c3,0,6,0,9,0c0.1,0,0.2,0,0.3,0.1c1.4,1.9,2.9,3.9,4.4,5.8c1.1,1.5,2.3,3,3.4,4.6
	c0,0,0,0,0,0.1c0.1-0.1,0.2-0.2,0.3-0.3c0.5-0.5,1-1,1.4-1.6c0.4-0.4,0.8-0.9,1.2-1.3c0.5-0.5,0.9-1,1.4-1.5c0.5-0.5,1-1.1,1.5-1.6
	c0.5-0.5,1-1,1.4-1.5c0.5-0.5,1-1,1.5-1.6c0.3-0.4,0.7-0.7,1-1.1c0.1-0.1,0.1-0.1,0.2-0.1c0.9,0,1.7,0,2.6,0c0,0.1-0.1,0.1-0.1,0.2
	c-0.6,0.6-1.1,1.2-1.7,1.8c-0.6,0.7-1.3,1.4-1.9,2c-0.6,0.6-1.1,1.2-1.7,1.8c-0.5,0.6-1.1,1.2-1.6,1.8c-0.5,0.5-1,1.1-1.5,1.6
	c-0.5,0.5-0.9,1-1.4,1.5c-0.4,0.4-0.8,0.9-1.2,1.3c-0.1,0.1-0.2,0.2-0.2,0.3c4.2,5.7,8.5,11.4,12.8,17.1c-0.1,0-0.2,0-0.2,0
	c-3,0-5.9,0-8.9,0c-0.1,0-0.2,0-0.3-0.1c-1.9-2.5-3.7-5-5.6-7.5c-0.9-1.2-1.8-2.5-2.8-3.7c0,0-0.1-0.1-0.1-0.1
	c-0.1,0.2-0.3,0.3-0.4,0.4c-0.9,1-1.8,1.9-2.7,2.9c-0.7,0.8-1.5,1.6-2.2,2.4c-0.7,0.8-1.5,1.6-2.2,2.4c-0.7,0.8-1.5,1.6-2.2,2.4
	c-0.3,0.3-0.5,0.6-0.8,0.9c-0.1,0.1-0.1,0.1-0.3,0.1c-0.8,0-1.6,0-2.4,0c0,0-0.1,0-0.2,0c0.1-0.1,0.2-0.2,0.2-0.3
	c0.7-0.8,1.5-1.6,2.2-2.4c0.6-0.7,1.3-1.3,1.9-2c0.8-0.8,1.6-1.7,2.3-2.5c0.6-0.6,1.1-1.2,1.7-1.8c0.8-0.8,1.5-1.7,2.3-2.5
	c0.5-0.5,0.9-1,1.4-1.5c0.1-0.1,0.1-0.1,0-0.2c-1.2-1.6-2.4-3.2-3.6-4.9c-2.3-3.1-4.6-6.1-6.9-9.2c-0.5-0.6-0.9-1.2-1.4-1.8
	C9.5,10.5,9.5,10.4,9.4,10.4z M13.5,12.4c0,0.1,0.1,0.1,0.1,0.2c1.9,2.6,3.9,5.2,5.8,7.7c2.7,3.6,5.3,7.1,8,10.7
	c1.6,2.2,3.2,4.3,4.9,6.5c0.1,0.1,0.2,0.1,0.3,0.1c1.3,0,2.6,0,3.9,0c0.1,0,0.1,0,0.2,0c-0.1-0.1-0.1-0.1-0.1-0.2
	c-1.7-2.3-3.4-4.5-5.1-6.8c-2.3-3.1-4.6-6.2-6.9-9.2c-2.2-3-4.4-5.9-6.6-8.9c-0.1-0.1-0.2-0.2-0.3-0.2c-1.3,0-2.6,0-3.8,0
	C13.6,12.4,13.6,12.4,13.5,12.4z"/>
<path class="st1" d="M12.2,11c0.1,0,0.2,0,0.2,0c1.4,0,2.9,0,4.3,0c0.2,0,0.2,0,0.3,0.2c2.5,3.3,4.9,6.6,7.4,9.9
	c2.6,3.4,5.1,6.8,7.7,10.3c1.9,2.5,3.8,5.1,5.7,7.6c0,0.1,0.1,0.1,0.2,0.2c-0.1,0-0.2,0-0.2,0c-1.4,0-2.9,0-4.3,0
	c-0.1,0-0.2,0-0.3-0.2c-1.8-2.4-3.6-4.8-5.4-7.2c-3-4-5.9-7.9-8.9-11.9c-2.1-2.9-4.3-5.7-6.4-8.6C12.3,11.1,12.2,11,12.2,11z"/>
</svg>
