<?xml version="1.0" encoding="utf-8"?>
<!-- Generator: Adobe Illustrator 27.0.0, SVG Export Plug-In . SVG Version: 6.00 Build 0)  -->
<svg version="1.1" id="Layer_1" xmlns="http://www.w3.org/2000/svg" xmlns:xlink="http://www.w3.org/1999/xlink" x="0px" y="0px"
	 viewBox="0 0 50 50" style="enable-background:new 0 0 50 50;" xml:space="preserve">
<style type="text/css">
	.st0{fill:#0978D3;}
	.st1{fill:#010101;}
	.st2{fill:url(#SVGID_1_);}
	.st3{fill:#FF0000;}
	.st4{fill:#003399;}
	.st5{fill:#6699FF;}
	.st6{fill:#FFFFFF;}
	.st7{fill:#FEFEFE;}
	.st8{fill:#FDFDFD;}
	.st9{fill:#7447C4;}
	.st10{fill:#FE8D47;}
	.st11{fill:#C737AA;}
	.st12{fill:#EE4B5E;}
</style>
<linearGradient id="SVGID_1_" gradientUnits="userSpaceOnUse" x1="5.3607" y1="-1.0645" x2="44.6393" y2="51.06">
	<stop  offset="0" style="stop-color:#4366C9"/>
	<stop  offset="0.3789" style="stop-color:#C737AA"/>
	<stop  offset="0.7191" style="stop-color:#EE4B5E"/>
	<stop  offset="1" style="stop-color:#FFB34E"/>
</linearGradient>
<path class="st2" d="M44.1,50H5.9C2.7,50,0,47.3,0,44.1V5.9C0,2.7,2.7,0,5.9,0h38.1C47.3,0,50,2.7,50,5.9v38.1
	C50,47.3,47.3,50,44.1,50z"/>
<path class="st7" d="M7.7,19.8c0-0.5,0.1-0.9,0.1-1.4c0-1.4,0.2-2.8,0.6-4.1c0.2-0.6,0.4-1.1,0.7-1.7c1.1-1.9,2.6-3.3,4.7-4.1
	c1.2-0.5,2.5-0.7,3.8-0.8c3.6-0.2,7.2-0.1,10.8-0.1c1.2,0,2.4,0,3.7,0.1c0.7,0,1.4,0.1,2.2,0.2c0.7,0.1,1.3,0.3,1.9,0.5
	c3,1.1,4.9,3.3,5.8,6.4c0.3,1.1,0.4,2.2,0.4,3.3c0.1,3.3,0.1,6.7,0.1,10c0,0.1,0,0.1,0,0.2c0,0.9,0,1.7-0.1,2.6c0,1-0.1,1.9-0.2,2.8
	c-0.2,1.6-0.7,3.1-1.6,4.4c-1.4,2-3.3,3.2-5.6,3.7c-1.3,0.3-2.6,0.3-3.9,0.4c-0.1,0-0.2,0-0.3,0c-0.9,0-1.8,0-2.7,0
	c-2.5,0-5.1,0-7.6,0c-1.2,0-2.5-0.1-3.7-0.2c-1.1-0.1-2.3-0.4-3.3-0.9c-0.7-0.3-1.3-0.7-1.9-1.2c-0.9-0.7-1.6-1.5-2.2-2.5
	c-0.7-1.2-1.1-2.5-1.2-3.8c0-0.2,0-0.5-0.1-0.7c-0.1-2.6-0.1-5.3-0.1-7.9c0-1.7,0-3.5,0-5.2C7.7,19.9,7.7,19.8,7.7,19.8z M10.9,31.4
	c0,1,0.1,2,0.3,3c0.2,1,0.7,1.8,1.3,2.6c1,1.2,2.4,1.8,3.9,2c1.2,0.2,2.4,0.2,3.5,0.2c2.4,0,4.7,0,7.1,0c0.6,0,1.3,0,1.9,0
	c1.5,0,3,0,4.6-0.2c1-0.1,1.9-0.5,2.7-1c0.5-0.3,0.9-0.7,1.2-1.1c0.4-0.4,0.7-0.9,0.9-1.4c0.4-0.8,0.6-1.7,0.7-2.6
	c0.1-1.1,0.1-2.1,0.2-3.2c0-1.6,0-3.1,0-4.7c0,0,0-0.1,0-0.1c0-2.2,0-4.4-0.1-6.6c0-0.9-0.1-1.8-0.3-2.7c-0.5-2.3-1.9-3.7-4.1-4.5
	c-0.8-0.3-1.7-0.4-2.5-0.4c-1.4-0.1-2.7-0.1-4.1-0.1c-1.2,0-2.4,0-3.6,0c0,0-0.1,0-0.1,0c-2,0-4,0-6,0.1c-1,0-2,0.1-3,0.4
	c-1,0.3-1.9,0.8-2.6,1.5c-0.6,0.6-1,1.3-1.3,2c-0.5,1.4-0.6,3-0.6,4.5c0,0.2,0,0.3,0,0.5c0,2.7,0,5.4,0,8.1
	C10.8,29.1,10.8,30.2,10.9,31.4z"/>
<path class="st7" d="M19.3,31.8c-0.7-0.6-1.3-1.3-1.8-2.1c-1-1.7-1.5-3.4-1.3-5.4c0.1-1.8,0.8-3.4,1.9-4.9c0.4-0.5,0.9-1,1.4-1.4
	c0.1-0.1,0.1-0.1,0.2-0.2c0.4-0.3,0.9-0.6,1.4-0.8c3.5-1.8,7.7-1.1,10.5,1.8c0.1,0.1,0.2,0.2,0.2,0.2c0.3,0.4,0.6,0.7,0.9,1.2
	c1,1.7,1.5,3.5,1.3,5.5c-0.2,2.1-1,4-2.5,5.5c-1.4,1.5-3.2,2.3-5.2,2.6c-1,0.1-2.1,0.1-3.1-0.1c-0.7-0.2-1.5-0.4-2.1-0.8
	C20.3,32.6,19.8,32.2,19.3,31.8z M25.2,30.8c1.4,0,2.7-0.6,3.8-1.7c1.3-1.3,1.9-2.9,1.7-4.8c-0.3-2.5-2.4-5.1-5.7-5.1
	c-3.2,0-5.8,2.6-5.8,5.8C19.2,28.2,21.8,30.8,25.2,30.8z"/>
<path class="st7" d="M32.2,15.7c0-1.1,1-2.1,2.1-2c1.1,0,2,1,2,2.1c0,1.1-1,2-2.1,2C33.1,17.8,32.1,16.9,32.2,15.7z"/>
</svg>
